<?xml version="1.0" encoding="UTF-8"?>
<svg id="Layer_1" data-name="Layer 1" xmlns="http://www.w3.org/2000/svg" version="1.1" viewBox="0 0 453 282.3">
  <defs>
    <style>
      .cls-1 {
        fill: #5c725f;
        stroke-width: 0px;
      }

      .cls-2 {
        fill: #ddeedf;
      }

      .cls-2, .cls-3, .cls-4 {
        stroke: #5c725f;
        stroke-miterlimit: 10;
      }

      .cls-3 {
        fill: #f3f9f1;
      }

      .cls-4 {
        fill: #b6ccbd;
      }
    </style>
  </defs>
  <rect class="cls-2" x="131.7" y="226.99" width="80" height="15"/>
  <rect class="cls-2" x="131.7" y="212.2" width="80" height="15"/>
  <rect class="cls-2" x="131.7" y="198.19" width="80" height="15"/>
  <rect class="cls-2" x="131.7" y="183.22" width="80" height="15"/>
  <rect class="cls-2" x="131.7" y="168.25" width="80" height="15"/>
  <g>
    <path class="cls-1" d="M151.55,173.85c-.14-.2-.35-.36-.61-.48s-.55-.18-.85-.18-.57.06-.83.18c-.27.12-.5.29-.7.51-.46.51-.69,1.2-.69,2.06,0,.91.25,1.62.74,2.12.2.2.43.36.69.47s.53.16.82.16c.73,0,1.3-.26,1.71-.77h.09v.76c-.51.27-1.11.4-1.8.4-.4,0-.78-.06-1.15-.19-.37-.12-.69-.3-.97-.54-.68-.57-1.02-1.37-1.02-2.42,0-.96.33-1.74.99-2.34.28-.25.61-.45.98-.59s.75-.21,1.13-.21c.34,0,.65.03.93.09.29.06.59.16.9.31l-.29.66h-.09Z"/>
    <path class="cls-1" d="M154.95,174.65c.62,0,1.11.2,1.49.61.38.4.56.94.56,1.61s-.19,1.2-.56,1.61c-.38.4-.87.61-1.49.61s-1.11-.2-1.49-.6-.56-.94-.56-1.61.19-1.21.56-1.61c.38-.4.87-.6,1.49-.6ZM154.95,174.94c-.41,0-.72.17-.94.51s-.33.81-.33,1.42.11,1.08.33,1.42.54.51.94.51.72-.17.94-.51.33-.81.33-1.42-.11-1.08-.33-1.42-.54-.51-.94-.51Z"/>
    <path class="cls-1" d="M158.22,178.95c.04-.46.06-1.16.06-2.09s-.02-1.63-.06-2.09h.75v.7c.17-.27.38-.47.62-.61s.49-.21.77-.21c.62,0,1.02.3,1.18.89.39-.59.88-.89,1.47-.89.83,0,1.24.5,1.24,1.49v.72c0,.93.02,1.62.06,2.09h-.81c.04-.46.06-1.16.06-2.09v-.72c0-.38-.06-.65-.18-.82-.12-.17-.31-.26-.57-.26-.31,0-.59.13-.83.39s-.36.56-.36.9v.51c0,.93.02,1.62.06,2.09h-.81c.04-.46.06-1.16.06-2.09v-.72c0-.38-.06-.65-.18-.82s-.31-.26-.57-.26c-.31,0-.59.13-.83.39s-.36.56-.36.9v.51c0,.93.02,1.62.06,2.09h-.81Z"/>
    <path class="cls-1" d="M165.72,178.95c.04-.46.06-1.16.06-2.09s-.02-1.63-.06-2.09h.75v.7c.17-.27.38-.47.62-.61s.49-.21.77-.21c.62,0,1.02.3,1.18.89.39-.59.88-.89,1.47-.89.83,0,1.24.5,1.24,1.49v.72c0,.93.02,1.62.06,2.09h-.81c.04-.46.06-1.16.06-2.09v-.72c0-.38-.06-.65-.18-.82-.12-.17-.31-.26-.57-.26-.31,0-.59.13-.83.39s-.36.56-.36.9v.51c0,.93.02,1.62.06,2.09h-.81c.04-.46.06-1.16.06-2.09v-.72c0-.38-.06-.65-.18-.82s-.31-.26-.57-.26c-.31,0-.59.13-.83.39s-.36.56-.36.9v.51c0,.93.02,1.62.06,2.09h-.81Z"/>
    <path class="cls-1" d="M174.25,173.33c0,.15-.05.28-.16.38s-.23.16-.38.16-.28-.05-.38-.16-.16-.23-.16-.38.05-.28.16-.38.23-.16.38-.16.28.05.38.16.16.23.16.38ZM173.3,178.95c.04-.46.06-1.16.06-2.09s-.02-1.63-.06-2.09h.81c-.04.46-.06,1.16-.06,2.09s.02,1.62.06,2.09h-.81Z"/>
    <path class="cls-1" d="M176.51,172.92c-.04.46-.06,1.08-.06,1.85.37,0,.67,0,.9-.03v.46c-.23-.02-.53-.03-.9-.03v3.02c0,.18.04.32.11.42.07.11.17.16.28.16.18,0,.34-.05.47-.16h.04v.33c-.18.08-.39.13-.62.13-.33,0-.57-.09-.73-.26-.16-.17-.24-.44-.24-.8v-2.84c-.24,0-.45,0-.62.03v-.46c.17.02.38.03.62.03,0-.55-.02-1.01-.06-1.39l.81-.47Z"/>
    <path class="cls-1" d="M178.22,178.95c.04-.46.06-1.16.06-2.09s-.02-1.63-.06-2.09h.75v.7c.17-.27.38-.47.62-.61s.49-.21.77-.21c.62,0,1.02.3,1.18.89.39-.59.88-.89,1.47-.89.83,0,1.24.5,1.24,1.49v.72c0,.93.02,1.62.06,2.09h-.81c.04-.46.06-1.16.06-2.09v-.72c0-.38-.06-.65-.18-.82-.12-.17-.31-.26-.57-.26-.31,0-.59.13-.83.39s-.36.56-.36.9v.51c0,.93.02,1.62.06,2.09h-.81c.04-.46.06-1.16.06-2.09v-.72c0-.38-.06-.65-.18-.82s-.31-.26-.57-.26c-.31,0-.59.13-.83.39s-.36.56-.36.9v.51c0,.93.02,1.62.06,2.09h-.81Z"/>
    <path class="cls-1" d="M186.13,176.89c0,.62.12,1.09.36,1.41s.58.49,1.02.49c.24,0,.48-.05.73-.16.25-.11.45-.25.6-.42v.51c-.16.11-.38.19-.65.26s-.54.11-.8.11c-.64,0-1.13-.19-1.48-.57-.35-.38-.53-.92-.53-1.62s.17-1.21.52-1.62.81-.61,1.38-.61,1.03.2,1.35.59c.32.39.48.94.48,1.65h-2.95ZM188.3,176.6c-.02-1.11-.37-1.66-1.05-1.66-.35,0-.62.14-.81.43-.19.29-.3.7-.31,1.23h2.16Z"/>
    <path class="cls-1" d="M190.22,178.95c.04-.46.06-1.16.06-2.09s-.02-1.63-.06-2.09h.75v.62c.38-.5.86-.75,1.44-.75.43,0,.76.13,1,.39.23.26.35.63.35,1.1v.72c0,.93.02,1.62.06,2.09h-.81c.04-.46.06-1.16.06-2.09v-.72c0-.72-.28-1.08-.85-1.08-.32,0-.61.13-.87.39s-.39.56-.39.9v.51c0,.93.02,1.62.06,2.09h-.81Z"/>
    <path class="cls-1" d="M196.01,172.92c-.04.46-.06,1.08-.06,1.85.37,0,.67,0,.9-.03v.46c-.23-.02-.53-.03-.9-.03v3.02c0,.18.04.32.11.42.07.11.17.16.28.16.18,0,.34-.05.47-.16h.04v.33c-.18.08-.39.13-.62.13-.33,0-.57-.09-.73-.26-.16-.17-.24-.44-.24-.8v-2.84c-.24,0-.45,0-.62.03v-.46c.17.02.38.03.62.03,0-.55-.02-1.01-.06-1.39l.81-.47Z"/>
  </g>
  <g>
    <path class="cls-1" d="M164.55,190.41c-.33-.05-.87-.07-1.61-.07h-.69c0,1.53.03,2.53.09,3.01h-.91c.06-.48.09-1.49.09-3.01s-.03-2.59-.09-3.07c.36.04.91.05,1.65.05s1.31-.02,1.67-.05v.59c-.44-.06-.99-.09-1.67-.09h-.83v2.12h.69c.74,0,1.27-.02,1.61-.07v.59Z"/>
    <path class="cls-1" d="M167.53,189.05c.62,0,1.11.2,1.49.61.38.4.56.94.56,1.61s-.19,1.2-.56,1.61c-.38.4-.87.61-1.49.61s-1.11-.2-1.49-.6-.56-.94-.56-1.61.19-1.21.56-1.61c.38-.4.87-.6,1.49-.6ZM167.53,189.34c-.41,0-.72.17-.94.51s-.33.81-.33,1.42.11,1.08.33,1.42.54.51.94.51.72-.17.94-.51.33-.81.33-1.42-.11-1.08-.33-1.42-.54-.51-.94-.51Z"/>
    <path class="cls-1" d="M173.52,190.05c-.18-.47-.5-.71-.96-.71-.4,0-.72.19-.97.56s-.37.85-.37,1.45.12,1.02.38,1.35c.25.33.59.49,1.01.49.24,0,.47-.05.68-.15s.4-.23.54-.4v.51c-.34.22-.78.33-1.32.33-.59,0-1.08-.2-1.47-.61-.39-.41-.59-.91-.59-1.53,0-.67.2-1.21.6-1.65.4-.43.91-.65,1.54-.65.21,0,.43.03.67.1.23.07.44.15.61.26l-.25.64h-.09Z"/>
    <path class="cls-1" d="M178.61,189.18c-.04.46-.06,1.16-.06,2.09s.02,1.62.06,2.09h-.75v-.62c-.38.5-.86.75-1.44.75-.43,0-.76-.13-1-.39s-.35-.63-.35-1.1v-.72c0-.93-.02-1.63-.06-2.09h.81c-.04.46-.06,1.16-.06,2.09v.72c0,.72.28,1.08.85,1.08.32,0,.61-.13.87-.39s.39-.56.39-.9v-.51c0-.93-.02-1.63-.06-2.09h.81Z"/>
    <path class="cls-1" d="M182.13,189.94c-.15-.4-.47-.6-.97-.6-.23,0-.42.06-.55.17-.14.11-.2.26-.2.45,0,.32.21.56.62.72l.83.34c.28.11.49.27.64.48s.23.44.23.7c0,.39-.14.7-.43.93-.28.23-.67.35-1.16.35-.22,0-.44-.03-.67-.08-.23-.05-.42-.12-.56-.21v-.75h.05c.13.23.31.41.55.54s.48.2.74.2c.28,0,.5-.06.66-.19s.24-.3.24-.52c0-.18-.05-.32-.15-.44-.1-.12-.25-.22-.47-.31l-.78-.32c-.61-.26-.92-.66-.92-1.2,0-.32.13-.59.4-.82s.6-.33.99-.33c.47,0,.89.1,1.24.3l-.24.59h-.09Z"/>
  </g>
  <g>
    <path class="cls-1" d="M156.19,202.16c.97,0,1.75.29,2.33.85s.87,1.33.87,2.29-.29,1.72-.87,2.29c-.58.57-1.36.85-2.33.85s-1.75-.28-2.33-.85c-.58-.57-.87-1.33-.87-2.29s.29-1.72.87-2.29c.58-.57,1.36-.85,2.33-.85ZM156.19,202.56c-.76,0-1.35.28-1.77.84-.37.5-.55,1.14-.55,1.9s.18,1.4.55,1.9c.42.57,1,.85,1.77.85s1.35-.28,1.77-.85c.37-.5.55-1.13.55-1.9s-.18-1.4-.55-1.9c-.42-.56-1-.84-1.77-.84Z"/>
    <path class="cls-1" d="M161.44,207.68c0,1.19.02,2.02.06,2.48h-.81c.04-.46.06-1.47.06-3.01s-.02-2.55-.06-3.01h.75v.64c.28-.51.71-.76,1.28-.76s.98.2,1.3.59c.32.39.48.93.48,1.63s-.16,1.23-.48,1.63c-.32.39-.75.59-1.3.59s-1-.25-1.28-.76ZM161.44,206.23c0,.6.1,1.06.3,1.39s.48.5.84.5.66-.16.85-.48.29-.79.29-1.41-.1-1.09-.29-1.41-.48-.48-.85-.48-.64.17-.84.5-.3.8-.3,1.39Z"/>
    <path class="cls-1" d="M166.13,206.26c0,.62.12,1.09.36,1.41s.58.49,1.02.49c.24,0,.48-.05.73-.16.25-.11.45-.25.6-.42v.51c-.16.11-.38.19-.65.26s-.54.11-.8.11c-.64,0-1.13-.19-1.48-.57-.35-.38-.53-.92-.53-1.62s.17-1.21.52-1.62.81-.61,1.38-.61,1.03.2,1.35.59c.32.39.48.94.48,1.65h-2.95ZM168.3,205.97c-.02-1.11-.37-1.66-1.05-1.66-.35,0-.62.14-.81.43-.19.29-.3.7-.31,1.23h2.16Z"/>
    <path class="cls-1" d="M170.21,208.32c.04-.46.06-1.16.06-2.09s-.02-1.63-.06-2.09h.75v.62c.38-.5.86-.75,1.44-.75.43,0,.76.13,1,.39.23.26.35.63.35,1.1v.72c0,.93.02,1.62.06,2.09h-.81c.04-.46.06-1.16.06-2.09v-.72c0-.72-.28-1.08-.85-1.08-.32,0-.61.13-.87.39s-.39.56-.39.9v.51c0,.93.02,1.62.06,2.09h-.81Z"/>
    <path class="cls-1" d="M175.22,208.32c.04-.46.06-1.16.06-2.09s-.02-1.63-.06-2.09h.75v.62c.38-.5.86-.75,1.44-.75.43,0,.76.13,1,.39.23.26.35.63.35,1.1v.72c0,.93.02,1.62.06,2.09h-.81c.04-.46.06-1.16.06-2.09v-.72c0-.72-.28-1.08-.85-1.08-.32,0-.61.13-.87.39s-.39.56-.39.9v.51c0,.93.02,1.62.06,2.09h-.81Z"/>
    <path class="cls-1" d="M180.64,206.26c0,.62.12,1.09.36,1.41s.58.49,1.02.49c.24,0,.48-.05.73-.16.25-.11.45-.25.6-.42v.51c-.16.11-.38.19-.65.26s-.54.11-.8.11c-.64,0-1.13-.19-1.48-.57-.35-.38-.53-.92-.53-1.62s.17-1.21.52-1.62.81-.61,1.38-.61,1.03.2,1.35.59c.32.39.48.94.48,1.65h-2.95ZM182.81,205.97c-.02-1.11-.37-1.66-1.05-1.66-.35,0-.62.14-.81.43-.19.29-.3.7-.31,1.23h2.16Z"/>
    <path class="cls-1" d="M186.71,204.91c-.15-.4-.47-.6-.97-.6-.23,0-.42.06-.55.17-.14.11-.2.26-.2.45,0,.32.21.56.62.72l.83.34c.28.11.49.27.64.48s.23.44.23.7c0,.39-.14.7-.43.93-.28.23-.67.35-1.16.35-.22,0-.44-.03-.67-.08-.23-.05-.42-.12-.56-.21v-.75h.05c.13.23.31.41.55.54s.48.2.74.2c.28,0,.5-.06.66-.19s.24-.3.24-.52c0-.18-.05-.32-.15-.44-.1-.12-.25-.22-.47-.31l-.78-.32c-.61-.26-.92-.66-.92-1.2,0-.32.13-.59.4-.82s.6-.33.99-.33c.47,0,.89.1,1.24.3l-.24.59h-.09Z"/>
    <path class="cls-1" d="M190.22,204.91c-.15-.4-.47-.6-.97-.6-.23,0-.42.06-.55.17-.14.11-.2.26-.2.45,0,.32.21.56.62.72l.83.34c.28.11.49.27.64.48s.23.44.23.7c0,.39-.14.7-.43.93-.28.23-.67.35-1.16.35-.22,0-.44-.03-.67-.08-.23-.05-.42-.12-.56-.21v-.75h.05c.13.23.31.41.55.54s.48.2.74.2c.28,0,.5-.06.66-.19s.24-.3.24-.52c0-.18-.05-.32-.15-.44-.1-.12-.25-.22-.47-.31l-.78-.32c-.61-.26-.92-.66-.92-1.2,0-.32.13-.59.4-.82s.6-.33.99-.33c.47,0,.89.1,1.24.3l-.24.59h-.09Z"/>
  </g>
  <g>
    <path class="cls-1" d="M157.67,216.28c.3.02.66.03,1.08.03.16,0,.32-.01.48-.01.24,0,.43-.01.57-.01.49,0,.89.14,1.21.41.31.28.47.62.47,1.04,0,.47-.18.86-.55,1.18-.36.32-.83.5-1.39.53,1.32,1.67,2.13,2.63,2.41,2.89h-1.19c-.21-.39-.93-1.35-2.15-2.88h-.11c0,1.44.03,2.4.09,2.88h-.91c.06-.48.09-1.49.09-3.03s-.03-2.54-.09-3.02ZM158.5,219h.84c.43,0,.76-.1,1-.31.24-.21.36-.5.36-.87s-.11-.65-.34-.82c-.22-.16-.59-.25-1.09-.25-.37,0-.63.02-.77.07v2.18Z"/>
    <path class="cls-1" d="M163.46,220.27c0,.62.12,1.09.36,1.41s.58.49,1.02.49c.24,0,.48-.05.73-.16.25-.11.45-.25.6-.42v.51c-.16.11-.38.19-.65.26s-.54.11-.8.11c-.64,0-1.13-.19-1.48-.57-.35-.38-.53-.92-.53-1.62s.17-1.21.52-1.62.81-.61,1.38-.61,1.03.2,1.35.59c.32.39.48.94.48,1.65h-2.95ZM165.63,219.98c-.02-1.11-.37-1.66-1.05-1.66-.35,0-.62.14-.81.43-.19.29-.3.7-.31,1.23h2.16Z"/>
    <path class="cls-1" d="M169.54,218.92c-.15-.4-.47-.6-.97-.6-.23,0-.42.06-.55.17-.14.11-.2.26-.2.45,0,.32.21.56.62.72l.83.34c.28.11.49.27.64.48s.23.44.23.7c0,.39-.14.7-.43.93-.28.23-.67.35-1.16.35-.22,0-.44-.03-.67-.08-.23-.05-.42-.12-.56-.21v-.75h.05c.13.23.31.41.55.54s.48.2.74.2c.28,0,.5-.06.66-.19s.24-.3.24-.52c0-.18-.05-.32-.15-.44-.1-.12-.25-.22-.47-.31l-.78-.32c-.61-.26-.92-.66-.92-1.2,0-.32.13-.59.4-.82s.6-.33.99-.33c.47,0,.89.1,1.24.3l-.24.59h-.09Z"/>
    <path class="cls-1" d="M171.78,221.69c0,1.19.02,2.02.06,2.48h-.81c.04-.46.06-1.47.06-3.01s-.02-2.55-.06-3.01h.75v.64c.28-.51.71-.76,1.28-.76s.98.2,1.3.59c.32.39.48.93.48,1.63s-.16,1.23-.48,1.63c-.32.39-.75.59-1.3.59s-1-.25-1.28-.76ZM171.78,220.24c0,.6.1,1.06.3,1.39s.48.5.84.5.66-.16.85-.48.29-.79.29-1.41-.1-1.09-.29-1.41-.48-.48-.85-.48-.64.17-.84.5-.3.8-.3,1.39Z"/>
    <path class="cls-1" d="M176.47,220.27c0,.62.12,1.09.36,1.41s.58.49,1.02.49c.24,0,.48-.05.73-.16.25-.11.45-.25.6-.42v.51c-.16.11-.38.19-.65.26s-.54.11-.8.11c-.64,0-1.13-.19-1.48-.57-.35-.38-.53-.92-.53-1.62s.17-1.21.52-1.62.81-.61,1.38-.61,1.03.2,1.35.59c.32.39.48.94.48,1.65h-2.95ZM178.64,219.98c-.02-1.11-.37-1.66-1.05-1.66-.35,0-.62.14-.81.43-.19.29-.3.7-.31,1.23h2.16Z"/>
    <path class="cls-1" d="M183.27,219.03c-.18-.47-.5-.71-.96-.71-.4,0-.72.19-.97.56s-.37.85-.37,1.45.12,1.02.38,1.35c.25.33.59.49,1.01.49.24,0,.47-.05.68-.15s.4-.23.54-.4v.51c-.34.22-.78.33-1.32.33-.59,0-1.08-.2-1.47-.61-.39-.41-.59-.91-.59-1.53,0-.67.2-1.21.6-1.65.4-.43.91-.65,1.54-.65.21,0,.43.03.67.1.23.07.44.15.61.26l-.25.64h-.09Z"/>
    <path class="cls-1" d="M185.68,216.3c-.04.46-.06,1.08-.06,1.85.37,0,.67,0,.9-.03v.46c-.23-.02-.53-.03-.9-.03v3.02c0,.18.04.32.11.42.07.11.17.16.28.16.18,0,.34-.05.47-.16h.04v.33c-.18.08-.39.13-.62.13-.33,0-.57-.09-.73-.26-.16-.17-.24-.44-.24-.8v-2.84c-.24,0-.45,0-.62.03v-.46c.17.02.38.03.62.03,0-.55-.02-1.01-.06-1.39l.81-.47Z"/>
  </g>
  <g>
    <path class="cls-1" d="M160.63,232.02c-.14-.2-.35-.36-.61-.48s-.55-.18-.85-.18-.57.06-.83.18c-.27.12-.5.29-.7.51-.46.51-.69,1.2-.69,2.06,0,.91.25,1.62.74,2.12.2.2.43.36.69.47s.53.16.82.16c.73,0,1.3-.26,1.71-.77h.09v.76c-.51.27-1.11.4-1.8.4-.4,0-.78-.06-1.15-.19-.37-.12-.69-.3-.97-.54-.68-.57-1.02-1.37-1.02-2.42,0-.96.33-1.74.99-2.34.28-.25.61-.45.98-.59s.75-.21,1.13-.21c.34,0,.65.03.93.09.29.06.59.16.9.31l-.29.66h-.09Z"/>
    <path class="cls-1" d="M164.04,232.82c.62,0,1.11.2,1.49.61.38.4.56.94.56,1.61s-.19,1.2-.56,1.61c-.38.4-.87.61-1.49.61s-1.11-.2-1.49-.6-.56-.94-.56-1.61.19-1.21.56-1.61c.38-.4.87-.6,1.49-.6ZM164.04,233.11c-.41,0-.72.17-.94.51s-.33.81-.33,1.42.11,1.08.33,1.42.54.51.94.51.72-.17.94-.51.33-.81.33-1.42-.11-1.08-.33-1.42-.54-.51-.94-.51Z"/>
    <path class="cls-1" d="M170.78,232.95c-.04.46-.06,1.16-.06,2.09s.02,1.62.06,2.09h-.75v-.62c-.38.5-.86.75-1.44.75-.43,0-.76-.13-1-.39s-.35-.63-.35-1.1v-.72c0-.93-.02-1.63-.06-2.09h.81c-.04.46-.06,1.16-.06,2.09v.72c0,.72.28,1.08.85,1.08.32,0,.61-.13.87-.39s.39-.56.39-.9v-.51c0-.93-.02-1.63-.06-2.09h.81Z"/>
    <path class="cls-1" d="M172.21,237.13c.04-.46.06-1.16.06-2.09s-.02-1.63-.06-2.09h.75v.85c.4-.65.8-.98,1.2-.98.16,0,.3.02.4.07v.77h-.04c-.11-.12-.28-.18-.49-.18-.23,0-.46.11-.68.33-.25.24-.37.52-.37.83v.39c0,.93.02,1.62.06,2.09h-.81Z"/>
    <path class="cls-1" d="M175.38,233.24c.48-.28.99-.42,1.54-.42.44,0,.78.12,1.03.35.24.23.36.57.36,1v.87c0,.93.02,1.63.06,2.09h-.75v-.72c-.1.24-.29.44-.55.6s-.54.25-.83.25c-.36,0-.64-.1-.86-.29-.22-.19-.33-.45-.33-.78,0-.37.12-.67.35-.91.23-.24.62-.45,1.15-.64l1.07-.38v-.08c0-.37-.07-.63-.21-.8s-.36-.25-.67-.25c-.25,0-.5.06-.75.19s-.44.29-.58.49h-.04v-.54ZM177.62,234.56l-.97.34c-.27.09-.47.23-.61.42-.14.19-.21.41-.21.67,0,.24.06.43.2.58.13.14.3.22.52.22.31,0,.57-.13.77-.38s.31-.57.31-.95v-.89Z"/>
    <path class="cls-1" d="M181.88,236.35c.4,0,.72.09.96.27.23.18.35.42.35.73,0,.44-.22.82-.65,1.12-.47.33-1.07.5-1.82.5-.51,0-.91-.09-1.22-.26s-.46-.41-.46-.7c0-.2.11-.41.32-.63.22-.22.47-.38.78-.5-.2-.04-.35-.11-.45-.21-.11-.1-.16-.22-.16-.35,0-.12.06-.25.18-.4s.29-.3.51-.44c-.31-.1-.56-.26-.73-.48-.17-.22-.25-.49-.25-.81,0-.41.15-.74.44-.99.29-.25.69-.37,1.2-.37.3,0,.55.04.76.13.21,0,.47-.01.77-.04.3-.03.53-.06.69-.09v.48c-.3-.06-.64-.09-1-.09.28.25.42.57.42.97s-.15.74-.45.99c-.3.25-.7.38-1.19.38-.12,0-.21,0-.26,0-.28.17-.41.36-.41.56,0,.16.14.24.42.24h1.27ZM180.58,236.91c-.28.11-.5.25-.66.42-.15.17-.23.36-.23.58,0,.25.11.44.32.58s.52.2.92.2c.46,0,.82-.11,1.08-.32s.4-.5.4-.85c0-.4-.26-.6-.78-.6h-1.05ZM180.86,233.12c-.29,0-.51.1-.67.29-.16.19-.24.45-.24.78s.08.6.24.79c.16.19.39.29.67.29s.51-.1.67-.29c.16-.19.24-.45.24-.78s-.08-.59-.25-.78c-.16-.19-.39-.29-.67-.29Z"/>
    <path class="cls-1" d="M184.55,235.07c0,.62.12,1.09.36,1.41s.58.49,1.02.49c.24,0,.48-.05.73-.16.25-.11.45-.25.6-.42v.51c-.16.11-.38.19-.65.26s-.54.11-.8.11c-.64,0-1.13-.19-1.48-.57-.35-.38-.53-.92-.53-1.62s.17-1.21.52-1.62.81-.61,1.38-.61,1.03.2,1.35.59c.32.39.48.94.48,1.65h-2.95ZM186.72,234.78c-.02-1.11-.37-1.66-1.05-1.66-.35,0-.62.14-.81.43-.19.29-.3.7-.31,1.23h2.16Z"/>
  </g>
  <rect class="cls-2" x="241.7" y="226.9" width="80" height="15"/>
  <rect class="cls-2" x="241.7" y="212.1" width="80" height="15"/>
  <rect class="cls-2" x="241.7" y="198.09" width="80" height="15"/>
  <rect class="cls-2" x="241.7" y="183.12" width="80" height="15"/>
  <rect class="cls-2" x="241.7" y="168.72" width="80" height="15"/>
  <g>
    <path class="cls-1" d="M261.55,173.75c-.14-.2-.35-.36-.61-.48s-.55-.18-.85-.18-.57.06-.83.18c-.26.12-.5.29-.7.51-.46.51-.69,1.2-.69,2.06,0,.91.25,1.62.74,2.12.2.2.43.36.69.47.26.11.53.16.82.16.73,0,1.3-.26,1.71-.77h.09v.76c-.51.27-1.11.4-1.8.4-.4,0-.78-.06-1.15-.19-.37-.12-.69-.3-.97-.54-.68-.57-1.02-1.37-1.02-2.42,0-.96.33-1.74.99-2.34.28-.25.61-.45.98-.59.37-.14.75-.21,1.13-.21.34,0,.65.03.93.09.29.06.59.16.9.31l-.29.66h-.09Z"/>
    <path class="cls-1" d="M264.95,174.55c.62,0,1.11.2,1.49.61.38.4.56.94.56,1.61s-.19,1.2-.56,1.61c-.38.4-.87.61-1.49.61s-1.12-.2-1.49-.6-.56-.94-.56-1.61.19-1.21.56-1.61c.38-.4.87-.6,1.49-.6ZM264.95,174.84c-.41,0-.72.17-.95.51s-.33.81-.33,1.42.11,1.08.33,1.42.54.51.95.51.72-.17.94-.51.33-.81.33-1.42-.11-1.08-.33-1.42-.54-.51-.94-.51Z"/>
    <path class="cls-1" d="M268.22,178.85c.04-.46.06-1.16.06-2.09s-.02-1.63-.06-2.09h.75v.7c.17-.27.38-.47.62-.61.24-.14.49-.21.77-.21.62,0,1.02.3,1.18.89.39-.59.88-.89,1.47-.89.83,0,1.24.5,1.24,1.49v.72c0,.93.02,1.62.06,2.09h-.81c.04-.46.06-1.16.06-2.09v-.72c0-.38-.06-.65-.18-.82-.12-.17-.31-.26-.57-.26-.31,0-.59.13-.83.39s-.36.56-.36.9v.51c0,.93.02,1.62.06,2.09h-.81c.04-.46.06-1.16.06-2.09v-.72c0-.38-.06-.65-.18-.82-.12-.17-.31-.26-.57-.26-.31,0-.59.13-.83.39s-.36.56-.36.9v.51c0,.93.02,1.62.06,2.09h-.81Z"/>
    <path class="cls-1" d="M275.72,178.85c.04-.46.06-1.16.06-2.09s-.02-1.63-.06-2.09h.75v.7c.17-.27.38-.47.62-.61.24-.14.49-.21.77-.21.62,0,1.02.3,1.18.89.39-.59.88-.89,1.47-.89.83,0,1.24.5,1.24,1.49v.72c0,.93.02,1.62.06,2.09h-.81c.04-.46.06-1.16.06-2.09v-.72c0-.38-.06-.65-.18-.82-.12-.17-.31-.26-.57-.26-.31,0-.59.13-.83.39s-.36.56-.36.9v.51c0,.93.02,1.62.06,2.09h-.81c.04-.46.06-1.16.06-2.09v-.72c0-.38-.06-.65-.18-.82-.12-.17-.31-.26-.57-.26-.31,0-.59.13-.83.39s-.36.56-.36.9v.51c0,.93.02,1.62.06,2.09h-.81Z"/>
    <path class="cls-1" d="M284.25,173.24c0,.15-.05.28-.16.38s-.23.16-.38.16-.28-.05-.38-.16-.16-.23-.16-.38.05-.28.16-.38.23-.16.38-.16.28.05.38.16.16.23.16.38ZM283.3,178.85c.04-.46.06-1.16.06-2.09s-.02-1.63-.06-2.09h.81c-.04.46-.06,1.16-.06,2.09s.02,1.62.06,2.09h-.81Z"/>
    <path class="cls-1" d="M286.51,172.82c-.04.46-.06,1.08-.06,1.85.37,0,.67,0,.9-.03v.46c-.23-.02-.53-.03-.9-.03v3.02c0,.18.04.32.11.42.07.11.17.16.28.16.18,0,.34-.05.47-.16h.04v.33c-.18.08-.39.13-.62.13-.33,0-.57-.09-.73-.26-.16-.17-.24-.44-.24-.8v-2.84c-.24,0-.45,0-.62.03v-.46c.17.02.38.03.62.03,0-.55-.02-1.01-.06-1.39l.81-.47Z"/>
    <path class="cls-1" d="M288.22,178.85c.04-.46.06-1.16.06-2.09s-.02-1.63-.06-2.09h.75v.7c.17-.27.38-.47.62-.61.24-.14.49-.21.77-.21.62,0,1.02.3,1.18.89.39-.59.88-.89,1.47-.89.83,0,1.24.5,1.24,1.49v.72c0,.93.02,1.62.06,2.09h-.81c.04-.46.06-1.16.06-2.09v-.72c0-.38-.06-.65-.18-.82-.12-.17-.31-.26-.57-.26-.31,0-.59.13-.83.39s-.36.56-.36.9v.51c0,.93.02,1.62.06,2.09h-.81c.04-.46.06-1.16.06-2.09v-.72c0-.38-.06-.65-.18-.82-.12-.17-.31-.26-.57-.26-.31,0-.59.13-.83.39s-.36.56-.36.9v.51c0,.93.02,1.62.06,2.09h-.81Z"/>
    <path class="cls-1" d="M296.13,176.79c0,.62.12,1.09.36,1.41s.58.49,1.02.49c.24,0,.48-.05.72-.16.25-.11.45-.25.6-.42v.51c-.16.11-.38.19-.65.26s-.54.11-.8.11c-.64,0-1.13-.19-1.48-.57-.35-.38-.53-.92-.53-1.62s.17-1.21.52-1.62.81-.61,1.38-.61,1.03.2,1.35.59c.32.39.48.94.48,1.65h-2.95ZM298.3,176.5c-.02-1.11-.37-1.66-1.05-1.66-.35,0-.62.14-.81.43-.19.29-.3.7-.31,1.23h2.16Z"/>
    <path class="cls-1" d="M300.22,178.85c.04-.46.06-1.16.06-2.09s-.02-1.63-.06-2.09h.75v.62c.38-.5.86-.75,1.44-.75.43,0,.76.13,1,.39.23.26.35.63.35,1.1v.72c0,.93.02,1.62.06,2.09h-.81c.04-.46.06-1.16.06-2.09v-.72c0-.72-.28-1.08-.85-1.08-.32,0-.61.13-.87.39s-.39.56-.39.9v.51c0,.93.02,1.62.06,2.09h-.81Z"/>
    <path class="cls-1" d="M306.01,172.82c-.04.46-.06,1.08-.06,1.85.37,0,.67,0,.9-.03v.46c-.23-.02-.53-.03-.9-.03v3.02c0,.18.04.32.11.42.07.11.17.16.28.16.18,0,.34-.05.47-.16h.04v.33c-.18.08-.39.13-.62.13-.33,0-.57-.09-.73-.26-.16-.17-.24-.44-.24-.8v-2.84c-.24,0-.45,0-.62.03v-.46c.17.02.38.03.62.03,0-.55-.02-1.01-.06-1.39l.81-.47Z"/>
  </g>
  <g>
    <path class="cls-1" d="M274.55,190.31c-.33-.05-.87-.07-1.61-.07h-.69c0,1.53.03,2.53.09,3.01h-.91c.06-.48.09-1.49.09-3.01s-.03-2.59-.09-3.07c.36.04.91.05,1.65.05s1.31-.02,1.67-.05v.59c-.44-.06-1-.09-1.67-.09h-.83v2.12h.69c.74,0,1.27-.02,1.61-.07v.59Z"/>
    <path class="cls-1" d="M277.53,188.95c.62,0,1.11.2,1.49.61.38.4.56.94.56,1.61s-.19,1.2-.56,1.61c-.38.4-.87.61-1.49.61s-1.11-.2-1.49-.6-.56-.94-.56-1.61.19-1.21.56-1.61c.38-.4.87-.6,1.49-.6ZM277.53,189.24c-.41,0-.72.17-.94.51s-.33.81-.33,1.42.11,1.08.33,1.42.54.51.94.51.72-.17.95-.51.33-.81.33-1.42-.11-1.08-.33-1.42-.54-.51-.95-.51Z"/>
    <path class="cls-1" d="M283.52,189.95c-.18-.47-.5-.71-.96-.71-.4,0-.72.19-.97.56s-.37.85-.37,1.45.12,1.02.38,1.35c.25.33.59.49,1.01.49.24,0,.47-.05.68-.15s.4-.23.54-.4v.51c-.34.22-.78.33-1.32.33-.59,0-1.08-.2-1.47-.61-.39-.41-.59-.91-.59-1.53,0-.67.2-1.21.6-1.65.4-.43.91-.65,1.54-.65.21,0,.43.03.67.1.23.07.44.15.61.26l-.25.64h-.09Z"/>
    <path class="cls-1" d="M288.61,189.08c-.04.46-.06,1.16-.06,2.09s.02,1.62.06,2.09h-.75v-.62c-.38.5-.86.75-1.44.75-.43,0-.76-.13-1-.39s-.35-.63-.35-1.1v-.72c0-.93-.02-1.63-.06-2.09h.81c-.04.46-.06,1.16-.06,2.09v.72c0,.72.28,1.08.85,1.08.32,0,.61-.13.87-.39s.39-.56.39-.9v-.51c0-.93-.02-1.63-.06-2.09h.81Z"/>
    <path class="cls-1" d="M292.13,189.84c-.15-.4-.47-.6-.97-.6-.23,0-.42.06-.55.17-.14.11-.2.26-.2.45,0,.32.21.56.62.72l.83.34c.28.11.49.27.64.48.15.21.23.44.23.7,0,.39-.14.7-.43.93-.28.23-.67.35-1.16.35-.22,0-.45-.03-.67-.08-.23-.05-.42-.12-.56-.21v-.75h.05c.13.23.31.41.55.54s.48.2.74.2c.28,0,.5-.06.66-.19s.24-.3.24-.52c0-.18-.05-.32-.15-.44-.1-.12-.25-.22-.47-.31l-.78-.32c-.61-.26-.92-.66-.92-1.2,0-.32.13-.59.4-.82.27-.22.6-.33.99-.33.47,0,.89.1,1.24.3l-.24.59h-.09Z"/>
  </g>
  <g>
    <path class="cls-1" d="M266.19,202.07c.97,0,1.75.29,2.33.85.58.57.87,1.33.87,2.29s-.29,1.72-.87,2.29c-.58.57-1.36.85-2.33.85s-1.75-.28-2.33-.85c-.58-.57-.87-1.33-.87-2.29s.29-1.72.87-2.29c.58-.57,1.36-.85,2.33-.85ZM266.19,202.46c-.76,0-1.35.28-1.77.84-.37.5-.55,1.14-.55,1.9s.18,1.4.55,1.9c.42.57,1,.85,1.77.85s1.35-.28,1.77-.85c.37-.5.55-1.13.55-1.9s-.18-1.4-.55-1.9c-.42-.56-1-.84-1.77-.84Z"/>
    <path class="cls-1" d="M271.44,207.59c0,1.19.02,2.02.06,2.48h-.81c.04-.46.06-1.47.06-3.01s-.02-2.55-.06-3.01h.75v.64c.28-.51.71-.76,1.28-.76s.99.2,1.3.59c.32.39.48.93.48,1.63s-.16,1.23-.48,1.63c-.32.39-.75.59-1.3.59s-1-.25-1.28-.76ZM271.44,206.14c0,.6.1,1.06.3,1.39.2.33.48.5.84.5s.66-.16.85-.48.29-.79.29-1.41-.1-1.09-.29-1.41-.48-.48-.85-.48-.64.17-.84.5c-.2.33-.3.8-.3,1.39Z"/>
    <path class="cls-1" d="M276.13,206.16c0,.62.12,1.09.36,1.41s.58.49,1.01.49c.24,0,.48-.05.73-.16.25-.11.45-.25.6-.42v.51c-.16.11-.38.19-.66.26s-.54.11-.8.11c-.64,0-1.13-.19-1.48-.57-.35-.38-.53-.92-.53-1.62s.17-1.21.52-1.62.81-.61,1.38-.61,1.03.2,1.35.59c.32.39.48.94.48,1.65h-2.95ZM278.3,205.87c-.02-1.11-.37-1.66-1.05-1.66-.35,0-.62.14-.81.43-.19.29-.3.7-.31,1.23h2.16Z"/>
    <path class="cls-1" d="M280.21,208.22c.04-.46.06-1.16.06-2.09s-.02-1.63-.06-2.09h.75v.62c.38-.5.86-.75,1.44-.75.43,0,.76.13,1,.39.23.26.35.63.35,1.1v.72c0,.93.02,1.62.06,2.09h-.81c.04-.46.06-1.16.06-2.09v-.72c0-.72-.28-1.08-.85-1.08-.32,0-.61.13-.87.39s-.39.56-.39.9v.51c0,.93.02,1.62.06,2.09h-.81Z"/>
    <path class="cls-1" d="M285.22,208.22c.04-.46.06-1.16.06-2.09s-.02-1.63-.06-2.09h.75v.62c.38-.5.86-.75,1.44-.75.43,0,.76.13,1,.39.23.26.35.63.35,1.1v.72c0,.93.02,1.62.06,2.09h-.81c.04-.46.06-1.16.06-2.09v-.72c0-.72-.28-1.08-.85-1.08-.32,0-.61.13-.87.39s-.39.56-.39.9v.51c0,.93.02,1.62.06,2.09h-.81Z"/>
    <path class="cls-1" d="M290.64,206.16c0,.62.12,1.09.36,1.41s.58.49,1.01.49c.24,0,.48-.05.73-.16.25-.11.45-.25.6-.42v.51c-.16.11-.38.19-.66.26s-.54.11-.8.11c-.64,0-1.13-.19-1.48-.57-.35-.38-.53-.92-.53-1.62s.17-1.21.52-1.62.81-.61,1.38-.61,1.03.2,1.35.59c.32.39.48.94.48,1.65h-2.95ZM292.81,205.87c-.02-1.11-.37-1.66-1.05-1.66-.35,0-.62.14-.81.43-.19.29-.3.7-.31,1.23h2.16Z"/>
    <path class="cls-1" d="M296.71,204.81c-.15-.4-.47-.6-.97-.6-.23,0-.42.06-.55.17-.14.11-.2.26-.2.45,0,.32.21.56.62.72l.83.34c.28.11.49.27.64.48.15.21.23.44.23.7,0,.39-.14.7-.43.93-.28.23-.67.35-1.16.35-.22,0-.45-.03-.67-.08-.23-.05-.42-.12-.56-.21v-.75h.05c.13.23.31.41.55.54s.48.2.74.2c.28,0,.5-.06.66-.19s.24-.3.24-.52c0-.18-.05-.32-.15-.44-.1-.12-.25-.22-.47-.31l-.78-.32c-.61-.26-.92-.66-.92-1.2,0-.32.13-.59.4-.82.27-.22.6-.33.99-.33.47,0,.89.1,1.24.3l-.24.59h-.09Z"/>
    <path class="cls-1" d="M300.22,204.81c-.15-.4-.47-.6-.97-.6-.23,0-.42.06-.55.17-.14.11-.21.26-.21.45,0,.32.21.56.62.72l.83.34c.28.11.49.27.64.48.15.21.23.44.23.7,0,.39-.14.7-.43.93-.28.23-.67.35-1.16.35-.22,0-.44-.03-.67-.08-.23-.05-.42-.12-.56-.21v-.75h.05c.13.23.32.41.55.54s.48.2.74.2c.28,0,.5-.06.66-.19s.24-.3.24-.52c0-.18-.05-.32-.15-.44-.1-.12-.25-.22-.47-.31l-.78-.32c-.61-.26-.92-.66-.92-1.2,0-.32.13-.59.4-.82.26-.22.6-.33.99-.33.47,0,.89.1,1.24.3l-.24.59h-.09Z"/>
  </g>
  <g>
    <path class="cls-1" d="M267.67,216.18c.3.02.66.03,1.08.03.16,0,.32-.01.48-.01.24,0,.43-.01.57-.01.49,0,.89.14,1.21.41.31.28.47.62.47,1.04,0,.47-.18.86-.55,1.18-.36.32-.83.5-1.39.53,1.32,1.67,2.12,2.63,2.41,2.89h-1.19c-.21-.39-.93-1.35-2.15-2.88h-.11c0,1.44.03,2.4.09,2.88h-.91c.06-.48.09-1.49.09-3.03s-.03-2.54-.09-3.02ZM268.5,218.9h.84c.43,0,.76-.1,1-.31.24-.21.36-.5.36-.87s-.11-.65-.34-.82c-.22-.16-.59-.25-1.09-.25-.37,0-.63.02-.77.07v2.18Z"/>
    <path class="cls-1" d="M273.46,220.17c0,.62.12,1.09.36,1.41s.58.49,1.02.49c.24,0,.48-.05.72-.16.25-.11.45-.25.6-.42v.51c-.16.11-.38.19-.65.26s-.54.11-.8.11c-.64,0-1.13-.19-1.48-.57-.35-.38-.53-.92-.53-1.62s.17-1.21.52-1.62.81-.61,1.38-.61,1.03.2,1.35.59c.32.39.48.94.48,1.65h-2.95ZM275.63,219.88c-.02-1.11-.37-1.66-1.05-1.66-.35,0-.62.14-.81.43-.19.29-.3.7-.31,1.23h2.16Z"/>
    <path class="cls-1" d="M279.54,218.82c-.15-.4-.47-.6-.97-.6-.23,0-.42.06-.55.17-.14.11-.21.26-.21.45,0,.32.21.56.62.72l.83.34c.28.11.49.27.64.48.15.21.23.44.23.7,0,.39-.14.7-.43.93-.28.23-.67.35-1.16.35-.22,0-.44-.03-.67-.08-.23-.05-.42-.12-.56-.21v-.75h.05c.13.23.32.41.55.54s.48.2.74.2c.28,0,.5-.06.66-.19s.24-.3.24-.52c0-.18-.05-.32-.15-.44-.1-.12-.25-.22-.47-.31l-.78-.32c-.61-.26-.92-.66-.92-1.2,0-.32.13-.59.4-.82.26-.22.6-.33.99-.33.47,0,.89.1,1.24.3l-.24.59h-.09Z"/>
    <path class="cls-1" d="M281.78,221.6c0,1.19.02,2.02.06,2.48h-.81c.04-.46.06-1.47.06-3.01s-.02-2.55-.06-3.01h.75v.64c.28-.51.71-.76,1.28-.76s.98.2,1.3.59c.32.39.48.93.48,1.63s-.16,1.23-.48,1.63c-.32.39-.75.59-1.3.59s-1-.25-1.28-.76ZM281.78,220.15c0,.6.1,1.06.3,1.39.2.33.48.5.84.5s.66-.16.85-.48.29-.79.29-1.41-.1-1.09-.29-1.41-.48-.48-.85-.48-.64.17-.84.5c-.2.33-.3.8-.3,1.39Z"/>
    <path class="cls-1" d="M286.47,220.17c0,.62.12,1.09.36,1.41s.58.49,1.02.49c.24,0,.48-.05.72-.16.25-.11.45-.25.6-.42v.51c-.16.11-.38.19-.65.26s-.54.11-.8.11c-.64,0-1.13-.19-1.48-.57-.35-.38-.53-.92-.53-1.62s.17-1.21.52-1.62.81-.61,1.38-.61,1.03.2,1.35.59c.32.39.48.94.48,1.65h-2.95ZM288.64,219.88c-.02-1.11-.37-1.66-1.05-1.66-.35,0-.62.14-.81.43-.19.29-.3.7-.31,1.23h2.16Z"/>
    <path class="cls-1" d="M293.27,218.93c-.18-.47-.5-.71-.96-.71-.4,0-.72.19-.97.56s-.37.85-.37,1.45.12,1.02.38,1.35c.25.33.59.49,1.01.49.24,0,.47-.05.68-.15s.4-.23.54-.4v.51c-.34.22-.78.33-1.32.33-.59,0-1.08-.2-1.47-.61-.39-.41-.59-.91-.59-1.53,0-.67.2-1.21.6-1.65.4-.43.91-.65,1.54-.65.21,0,.43.03.67.1.23.07.44.15.61.26l-.25.64h-.09Z"/>
    <path class="cls-1" d="M295.68,216.2c-.04.46-.06,1.08-.06,1.85.37,0,.67,0,.9-.03v.46c-.23-.02-.53-.03-.9-.03v3.02c0,.18.04.32.11.42.07.11.17.16.28.16.18,0,.34-.05.47-.16h.04v.33c-.18.08-.39.13-.62.13-.33,0-.57-.09-.73-.26-.16-.17-.24-.44-.24-.8v-2.84c-.24,0-.45,0-.62.03v-.46c.17.02.38.03.62.03,0-.55-.02-1.01-.06-1.39l.81-.47Z"/>
  </g>
  <g>
    <path class="cls-1" d="M270.63,231.93c-.14-.2-.35-.36-.61-.48s-.55-.18-.85-.18-.57.06-.83.18c-.26.12-.5.29-.7.51-.46.51-.69,1.2-.69,2.06,0,.91.25,1.62.74,2.12.2.2.43.36.69.47.26.11.53.16.82.16.73,0,1.3-.26,1.71-.77h.09v.76c-.51.27-1.11.4-1.8.4-.4,0-.78-.06-1.15-.19-.37-.12-.69-.3-.97-.54-.68-.57-1.02-1.37-1.02-2.42,0-.96.33-1.74.99-2.34.28-.25.61-.45.98-.59.37-.14.75-.21,1.13-.21.34,0,.65.03.93.09.29.06.59.16.9.31l-.29.66h-.09Z"/>
    <path class="cls-1" d="M274.04,232.73c.62,0,1.11.2,1.49.61.38.4.56.94.56,1.61s-.19,1.2-.56,1.61c-.38.4-.87.61-1.49.61s-1.12-.2-1.49-.6-.56-.94-.56-1.61.19-1.21.56-1.61c.38-.4.87-.6,1.49-.6ZM274.04,233.02c-.41,0-.72.17-.95.51s-.33.81-.33,1.42.11,1.08.33,1.42.54.51.95.51.72-.17.94-.51.33-.81.33-1.42-.11-1.08-.33-1.42-.54-.51-.94-.51Z"/>
    <path class="cls-1" d="M280.78,232.85c-.04.46-.06,1.16-.06,2.09s.02,1.62.06,2.09h-.75v-.62c-.38.5-.86.75-1.44.75-.43,0-.76-.13-1-.39s-.35-.63-.35-1.1v-.72c0-.93-.02-1.63-.06-2.09h.81c-.04.46-.06,1.16-.06,2.09v.72c0,.72.28,1.08.85,1.08.32,0,.61-.13.87-.39s.39-.56.39-.9v-.51c0-.93-.02-1.63-.06-2.09h.81Z"/>
    <path class="cls-1" d="M282.21,237.03c.04-.46.06-1.16.06-2.09s-.02-1.63-.06-2.09h.75v.85c.4-.65.8-.98,1.2-.98.16,0,.3.02.4.07v.77h-.04c-.11-.12-.28-.18-.49-.18-.23,0-.46.11-.68.33-.25.24-.37.52-.37.83v.39c0,.93.02,1.62.06,2.09h-.81Z"/>
    <path class="cls-1" d="M285.38,233.14c.48-.28.99-.42,1.54-.42.44,0,.78.12,1.03.35.24.23.36.57.36,1v.87c0,.93.02,1.63.06,2.09h-.75v-.72c-.1.24-.29.44-.55.6s-.54.25-.83.25c-.36,0-.64-.1-.86-.29-.22-.19-.33-.45-.33-.78,0-.37.12-.67.35-.91.23-.24.62-.45,1.15-.64l1.07-.38v-.08c0-.37-.07-.63-.21-.8s-.36-.25-.67-.25c-.25,0-.5.06-.75.19-.24.12-.44.29-.58.49h-.04v-.54ZM287.62,234.46l-.97.34c-.27.09-.47.23-.61.42-.14.19-.21.41-.21.67,0,.24.06.43.2.58.13.14.3.22.52.22.31,0,.57-.13.77-.38s.31-.57.31-.95v-.89Z"/>
    <path class="cls-1" d="M291.88,236.25c.4,0,.72.09.96.27.23.18.35.42.35.73,0,.44-.22.82-.65,1.12-.47.33-1.07.5-1.82.5-.51,0-.91-.09-1.22-.26s-.46-.41-.46-.7c0-.2.11-.41.32-.63.22-.22.47-.38.78-.5-.2-.04-.35-.11-.45-.21-.11-.1-.16-.22-.16-.35,0-.12.06-.25.18-.4s.29-.3.5-.44c-.31-.1-.55-.26-.72-.48-.17-.22-.25-.49-.25-.81,0-.41.15-.74.44-.99.29-.25.69-.37,1.2-.37.3,0,.55.04.76.13.21,0,.47-.01.77-.04.3-.03.53-.06.69-.09v.48c-.3-.06-.64-.09-1-.09.28.25.42.57.42.97s-.15.74-.45.99c-.3.25-.7.38-1.19.38-.12,0-.21,0-.26,0-.28.17-.41.36-.41.56,0,.16.14.24.42.24h1.27ZM290.58,236.81c-.28.11-.5.25-.66.42-.15.17-.23.36-.23.58,0,.25.11.44.32.58s.52.2.92.2c.46,0,.82-.11,1.08-.32s.4-.5.4-.85c0-.4-.26-.6-.78-.6h-1.05ZM290.86,233.02c-.29,0-.51.1-.67.29-.16.19-.24.45-.24.78s.08.6.24.79c.16.19.39.29.67.29s.51-.1.67-.29c.16-.19.24-.45.24-.78s-.08-.59-.25-.78c-.16-.19-.39-.29-.67-.29Z"/>
    <path class="cls-1" d="M294.55,234.97c0,.62.12,1.09.36,1.41s.58.49,1.02.49c.24,0,.48-.05.72-.16.25-.11.45-.25.6-.42v.51c-.16.11-.38.19-.65.26s-.54.11-.8.11c-.64,0-1.13-.19-1.48-.57-.35-.38-.53-.92-.53-1.62s.17-1.21.52-1.62.81-.61,1.38-.61,1.03.2,1.35.59c.32.39.48.94.48,1.65h-2.95ZM296.72,234.68c-.02-1.11-.37-1.66-1.05-1.66-.35,0-.62.14-.81.43-.19.29-.3.7-.31,1.23h2.16Z"/>
  </g>
  <polygon class="cls-3" points="226.5 .62 101.5 91.8 351.5 91.8 226.5 .62"/>
  <g>
    <path class="cls-1" d="M195.87,63.93c.87,1.72,2.12,2.58,3.75,2.58.81,0,1.46-.21,1.94-.62.48-.41.72-.97.72-1.67,0-1.18-.63-2.12-1.89-2.8l-1.72-.94c-1.09-.61-1.87-1.23-2.35-1.88s-.72-1.38-.72-2.23c0-1.02.38-1.87,1.14-2.57.76-.69,1.71-1.04,2.85-1.04,1.33,0,2.54.23,3.61.7l-.67,1.53h-.22c-.28-.42-.66-.74-1.13-.96-.48-.23-1.01-.34-1.59-.34-.72,0-1.29.19-1.72.56s-.65.88-.65,1.5c0,.57.18,1.08.54,1.53s.98.9,1.85,1.37l1.47.8c1.88,1.01,2.82,2.31,2.82,3.91,0,1.23-.39,2.22-1.18,2.96-.79.74-1.81,1.11-3.07,1.11-1.61,0-2.95-.38-4.01-1.13v-2.38h.22Z"/>
    <path class="cls-1" d="M216.74,55.23c-.33-.46-.81-.84-1.43-1.12s-1.27-.42-1.98-.42-1.32.14-1.94.42c-.62.28-1.16.67-1.62,1.19-1.07,1.19-1.6,2.79-1.6,4.8,0,2.13.58,3.77,1.73,4.94.46.47,1,.83,1.61,1.09s1.25.38,1.9.38c1.7,0,3.02-.6,3.99-1.8h.22v1.78c-1.18.63-2.58.94-4.2.94-.93,0-1.82-.15-2.68-.44-.85-.29-1.61-.71-2.26-1.26-1.59-1.33-2.38-3.21-2.38-5.64,0-2.25.77-4.07,2.31-5.46.66-.59,1.42-1.06,2.28-1.38s1.74-.49,2.64-.49c.79,0,1.51.07,2.18.21.67.14,1.37.38,2.11.71l-.68,1.54h-.21Z"/>
    <path class="cls-1" d="M220.92,53.01c.71.04,1.55.06,2.51.06.37-.01.74-.02,1.12-.03.55-.02.99-.03,1.32-.03,1.15,0,2.09.32,2.81.96s1.09,1.45,1.09,2.43c0,1.09-.43,2-1.28,2.75-.85.75-1.93,1.16-3.23,1.24,3.08,3.89,4.96,6.14,5.63,6.75h-2.78c-.49-.92-2.16-3.16-5.02-6.73h-.26c0,3.36.07,5.61.21,6.73h-2.13c.14-1.12.21-3.48.21-7.08s-.07-5.93-.21-7.05ZM222.85,59.36h1.96c1,0,1.78-.24,2.33-.73s.84-1.17.84-2.04-.26-1.52-.79-1.91c-.52-.38-1.37-.57-2.54-.57-.86,0-1.46.05-1.8.16v5.09Z"/>
    <path class="cls-1" d="M235.88,53.07c-.14,1.12-.21,3.47-.21,7.03v1.74c0,1.42.39,2.53,1.16,3.33s1.82,1.21,3.15,1.21c1.48,0,2.64-.4,3.48-1.2s1.25-1.91,1.25-3.34v-1.74c0-3.57-.07-5.91-.21-7.03h1.46c-.14,1.12-.21,3.47-.21,7.03v1.74c0,1.81-.5,3.2-1.51,4.15-1.01.96-2.47,1.44-4.38,1.44-1.8,0-3.24-.5-4.31-1.5-1.07-1-1.6-2.36-1.6-4.09v-1.74c0-3.57-.07-5.91-.21-7.03h2.13Z"/>
    <path class="cls-1" d="M262.61,62.83l-.56-5.56-3.25,6.5c-.43.88-.92,2-1.48,3.36h-.52c-.15-.46-.71-1.69-1.68-3.67l-3.11-6.19-.58,5.56c-.21,1.97-.29,3.4-.24,4.31h-1.49c.24-1.09.55-3.47.94-7.16.36-3.44.54-5.84.54-7.21h.52c.03.07.65,1.31,1.86,3.72l3.87,7.72,3.67-7.43c.77-1.52,1.39-2.86,1.89-4.01h.52c0,1.44.18,3.84.53,7.21.38,3.57.7,5.95.96,7.16h-2.14c.05-.81-.03-2.25-.26-4.31Z"/>
  </g>
  <rect class="cls-2" x="101.7" y="91.8" width="30" height="150"/>
  <g>
    <path class="cls-1" d="M112.13,201.3h3.99c2.38,0,3.94-.05,4.69-.14v1.42c-.75-.09-2.31-.14-4.69-.14h-3.99c0,1.31.05,2.27.14,2.86h-.92c.05-.71.08-1.85.08-3.43s-.03-2.72-.08-3.43h.92c-.09.59-.14,1.54-.14,2.86Z"/>
    <path class="cls-1" d="M120.81,196.95c-.72-.06-1.8-.1-3.25-.1s-2.53.03-3.25.1v-1.16h1.32c-1.01-.63-1.52-1.25-1.52-1.86,0-.26.04-.46.12-.62h1.2v.07c-.19.18-.28.43-.28.77,0,.36.17.71.51,1.06.37.39.8.58,1.29.58h.6c1.44,0,2.53-.03,3.25-.1v1.26Z"/>
    <path class="cls-1" d="M114.77,192.03c-.43-.75-.65-1.55-.65-2.4,0-.69.18-1.22.55-1.6s.88-.56,1.55-.56h1.35c1.45,0,2.54-.03,3.25-.1v1.16h-1.12c.37.16.68.45.94.86s.38.85.38,1.29c0,.56-.15,1-.45,1.34s-.71.51-1.21.51c-.57,0-1.04-.18-1.41-.55s-.7-.96-.99-1.79l-.59-1.66h-.13c-.57,0-.99.11-1.25.33s-.4.56-.4,1.04c0,.39.1.78.29,1.16s.45.68.76.9v.07h-.85ZM116.82,188.53l.53,1.51c.15.41.36.73.66.95s.64.33,1.04.33c.37,0,.67-.1.9-.3s.34-.47.34-.8c0-.48-.2-.88-.6-1.2s-.89-.49-1.48-.49h-1.39Z"/>
    <path class="cls-1" d="M120.81,185.39c-.72-.06-1.8-.1-3.25-.1s-2.53.03-3.25.1v-1.16h.96c-.77-.59-1.16-1.34-1.16-2.24,0-.67.2-1.19.61-1.55s.98-.55,1.71-.55h1.12c1.44,0,2.53-.03,3.25-.1v1.26c-.72-.06-1.8-.1-3.25-.1h-1.12c-1.12,0-1.68.44-1.68,1.33,0,.5.2.95.61,1.35s.87.6,1.39.6h.8c1.44,0,2.53-.03,3.25-.1v1.26Z"/>
    <path class="cls-1" d="M115.51,174.51c-.62.23-.94.73-.94,1.5,0,.36.09.65.26.86s.41.32.7.32c.49,0,.87-.32,1.12-.96l.53-1.3c.18-.43.43-.76.75-.99s.68-.35,1.09-.35c.6,0,1.08.22,1.45.66s.54,1.04.54,1.8c0,.34-.04.69-.13,1.05s-.19.65-.32.87h-1.16v-.08c.36-.21.64-.49.85-.85s.31-.75.31-1.15c0-.43-.1-.77-.3-1.03s-.47-.38-.81-.38c-.27,0-.5.08-.69.23s-.35.4-.49.73l-.5,1.22c-.4.95-1.02,1.43-1.87,1.43-.5,0-.93-.21-1.27-.62s-.52-.93-.52-1.54c0-.73.15-1.38.46-1.93l.92.37v.14Z"/>
    <path class="cls-1" d="M119.82,171.03c1.85,0,3.14-.03,3.86-.1v1.26c-.72-.06-2.28-.1-4.69-.1s-3.96.03-4.68.1v-1.16h.99c-.79-.44-1.19-1.1-1.19-1.99s.31-1.53.92-2.03,1.45-.74,2.53-.74,1.92.25,2.53.74.92,1.17.92,2.03-.4,1.55-1.19,1.99ZM117.57,171.03c.93,0,1.65-.16,2.17-.47s.77-.75.77-1.31-.25-1.03-.75-1.33-1.23-.45-2.19-.45-1.7.15-2.19.45-.75.74-.75,1.33.26,1,.77,1.31,1.24.47,2.17.47Z"/>
    <path class="cls-1" d="M114.77,164.27c-.43-.75-.65-1.55-.65-2.4,0-.69.18-1.22.55-1.6s.88-.56,1.55-.56h1.35c1.45,0,2.54-.03,3.25-.1v1.16h-1.12c.37.16.68.45.94.86s.38.85.38,1.29c0,.56-.15,1-.45,1.34s-.71.51-1.21.51c-.57,0-1.04-.18-1.41-.55s-.7-.96-.99-1.79l-.59-1.66h-.13c-.57,0-.99.11-1.25.33s-.4.56-.4,1.04c0,.39.1.78.29,1.16s.45.68.76.9v.07h-.85ZM116.82,160.78l.53,1.51c.15.41.36.73.66.95s.64.33,1.04.33c.37,0,.67-.1.9-.3s.34-.47.34-.8c0-.48-.2-.88-.6-1.2s-.89-.49-1.48-.49h-1.39Z"/>
    <path class="cls-1" d="M120.81,157.8c-.72-.06-1.8-.1-3.25-.1s-2.53.03-3.25.1v-1.16h1.32c-1.01-.63-1.52-1.25-1.52-1.86,0-.26.04-.46.12-.62h1.2v.07c-.19.18-.28.43-.28.77,0,.36.17.71.51,1.06.37.39.8.58,1.29.58h.6c1.44,0,2.53-.03,3.25-.1v1.26Z"/>
    <path class="cls-1" d="M117.61,152.34c.96,0,1.69-.18,2.19-.55s.76-.9.76-1.58c0-.37-.08-.75-.25-1.13s-.39-.69-.66-.93h.79c.16.25.3.59.41,1.02s.16.85.16,1.25c0,.99-.3,1.76-.89,2.3s-1.44.82-2.53.82-1.89-.27-2.52-.81-.95-1.26-.95-2.14.3-1.6.91-2.1,1.47-.75,2.57-.75v4.59ZM117.16,148.96c-1.72.04-2.58.58-2.58,1.63,0,.54.22.96.67,1.26s1.08.46,1.92.48v-3.36Z"/>
    <path class="cls-1" d="M120.81,145.98c-.72-.06-1.8-.1-3.25-.1s-2.53.03-3.25.1v-1.16h.96c-.77-.59-1.16-1.34-1.16-2.24,0-.67.2-1.19.61-1.55s.98-.55,1.71-.55h1.12c1.44,0,2.53-.03,3.25-.1v1.26c-.72-.06-1.8-.1-3.25-.1h-1.12c-1.12,0-1.68.44-1.68,1.33,0,.5.2.95.61,1.35s.87.6,1.39.6h.8c1.44,0,2.53-.03,3.25-.1v1.26Z"/>
    <path class="cls-1" d="M115.68,133.97c-.74.28-1.11.78-1.11,1.5,0,.62.29,1.12.86,1.5s1.33.58,2.25.58,1.59-.19,2.1-.58.77-.91.77-1.57c0-.37-.08-.73-.23-1.06s-.36-.62-.63-.85h.79c.35.53.52,1.21.52,2.06,0,.92-.32,1.69-.95,2.29s-1.42.91-2.38.91c-1.03,0-1.89-.31-2.56-.94s-1.01-1.42-1.01-2.39c0-.33.05-.67.15-1.04s.24-.68.41-.95l1,.39v.14Z"/>
    <path class="cls-1" d="M120.44,129.43c-3.15,1.32-5.19,2.23-6.12,2.74v-1.38c.5-.14,2.09-.79,4.77-1.95-2.33-1.02-3.92-1.67-4.77-1.95v-.88c.71.39,2.26,1.09,4.65,2.1,1.75.75,2.89,1.23,3.41,1.44s.96.37,1.31.47v.91c-.64-.35-1.73-.85-3.25-1.5Z"/>
  </g>
  <rect class="cls-2" x="321.7" y="91.8" width="30" height="150"/>
  <g>
    <path class="cls-1" d="M336.12,195.07c2.38,0,3.94-.05,4.69-.14v1.42c-.75-.09-2.31-.14-4.69-.14s-3.94.05-4.69.14v-1.42c.75.09,2.31.14,4.69.14Z"/>
    <path class="cls-1" d="M340.81,192.52c-.72-.06-1.8-.1-3.25-.1s-2.53.03-3.25.1v-1.16h.96c-.77-.59-1.16-1.34-1.16-2.24,0-.67.2-1.19.61-1.55.41-.36.98-.55,1.71-.55h1.12c1.45,0,2.53-.03,3.25-.1v1.26c-.72-.06-1.8-.1-3.25-.1h-1.12c-1.12,0-1.68.44-1.68,1.33,0,.5.2.95.61,1.35.41.4.87.6,1.39.6h.8c1.45,0,2.53-.03,3.25-.1v1.26Z"/>
    <path class="cls-1" d="M335.51,181.63c-.62.23-.94.73-.94,1.5,0,.36.09.65.26.86.17.21.41.32.7.32.49,0,.87-.32,1.12-.96l.53-1.3c.18-.43.43-.76.75-1,.32-.23.68-.35,1.09-.35.6,0,1.08.22,1.45.66s.54,1.04.54,1.8c0,.34-.04.69-.13,1.05-.08.36-.19.65-.33.87h-1.16v-.08c.36-.21.64-.49.85-.85.21-.36.31-.75.31-1.15,0-.43-.1-.77-.3-1.03-.2-.25-.47-.38-.81-.38-.27,0-.5.08-.69.23-.19.15-.35.39-.49.73l-.5,1.22c-.4.95-1.02,1.43-1.87,1.43-.5,0-.92-.21-1.27-.62-.35-.41-.52-.93-.52-1.54,0-.73.16-1.38.46-1.93l.92.37v.14Z"/>
    <path class="cls-1" d="M339.82,178.15c1.86,0,3.14-.03,3.86-.1v1.26c-.72-.06-2.28-.1-4.69-.1s-3.96.03-4.68.1v-1.16h.99c-.79-.44-1.19-1.1-1.19-1.99s.31-1.53.92-2.03c.61-.5,1.45-.74,2.53-.74s1.92.25,2.53.74c.61.49.92,1.17.92,2.03s-.4,1.55-1.19,1.99ZM337.57,178.15c.93,0,1.65-.16,2.17-.47.52-.31.77-.75.77-1.31s-.25-1.03-.75-1.33c-.5-.3-1.23-.45-2.19-.45s-1.7.15-2.19.45c-.5.3-.75.74-.75,1.33s.26,1,.77,1.31c.52.31,1.24.47,2.17.47Z"/>
    <path class="cls-1" d="M337.61,170.85c.96,0,1.69-.18,2.19-.55s.76-.9.76-1.58c0-.37-.08-.75-.25-1.13-.17-.38-.39-.69-.66-.93h.79c.16.25.3.59.41,1.02s.16.85.16,1.25c0,.99-.3,1.76-.89,2.3s-1.44.82-2.53.82-1.89-.27-2.52-.81c-.63-.54-.95-1.26-.95-2.14s.3-1.6.91-2.1,1.47-.75,2.57-.75v4.59ZM337.16,167.48c-1.72.04-2.58.58-2.58,1.63,0,.54.22.96.67,1.26s1.08.46,1.92.48v-3.36Z"/>
    <path class="cls-1" d="M335.68,160.27c-.74.28-1.11.78-1.11,1.5,0,.62.29,1.12.87,1.5.58.39,1.33.58,2.25.58s1.59-.2,2.1-.58c.51-.39.77-.91.77-1.57,0-.37-.08-.73-.23-1.06s-.36-.62-.63-.85h.79c.35.53.52,1.21.52,2.06,0,.92-.32,1.68-.95,2.29-.63.61-1.42.91-2.38.91-1.03,0-1.89-.31-2.56-.94-.67-.62-1.01-1.42-1.01-2.39,0-.33.05-.67.15-1.04.1-.36.24-.68.41-.95l1,.39v.14Z"/>
    <path class="cls-1" d="M331.43,156.53c.72.06,1.68.1,2.88.1,0-.57-.01-1.04-.04-1.4h.71c-.03.36-.04.83-.04,1.4h4.7c.27,0,.49-.06.66-.17.17-.11.25-.26.25-.43,0-.28-.08-.52-.25-.73v-.07h.51c.13.29.2.61.2.97,0,.51-.13.89-.4,1.13-.27.24-.68.37-1.24.37h-4.42c0,.37.01.7.04.96h-.71c.03-.27.04-.59.04-.96-.85,0-1.57.03-2.16.1l-.72-1.26Z"/>
    <path class="cls-1" d="M332.08,152.27c.23,0,.43.08.59.25s.25.36.25.59-.08.43-.25.59-.36.25-.59.25-.43-.08-.59-.25-.25-.36-.25-.59.08-.43.25-.59.36-.25.59-.25ZM340.81,153.74c-.72-.06-1.8-.1-3.25-.1s-2.53.03-3.25.1v-1.26c.72.06,1.8.1,3.25.1s2.53-.03,3.25-.1v1.26Z"/>
    <path class="cls-1" d="M334.12,147.28c0-.96.31-1.73.94-2.31.63-.59,1.46-.88,2.5-.88s1.87.29,2.5.88c.63.58.94,1.36.94,2.31s-.31,1.73-.94,2.32c-.63.58-1.46.88-2.51.88s-1.88-.29-2.5-.88c-.63-.58-.94-1.36-.94-2.32ZM334.57,147.28c0,.63.26,1.12.79,1.47.52.35,1.26.52,2.21.52s1.68-.17,2.21-.52c.52-.35.79-.84.79-1.47s-.26-1.12-.79-1.47c-.52-.35-1.26-.52-2.21-.52s-1.68.17-2.21.52c-.52.35-.79.84-.79,1.47Z"/>
    <path class="cls-1" d="M340.81,142.2c-.72-.06-1.8-.1-3.25-.1s-2.53.03-3.25.1v-1.16h.96c-.77-.59-1.16-1.33-1.16-2.24,0-.67.2-1.19.61-1.55.41-.36.98-.55,1.71-.55h1.12c1.45,0,2.53-.03,3.25-.1v1.26c-.72-.06-1.8-.1-3.25-.1h-1.12c-1.12,0-1.68.44-1.68,1.33,0,.5.2.95.61,1.35.41.4.87.6,1.39.6h.8c1.45,0,2.53-.03,3.25-.1v1.26Z"/>
  </g>
  <rect class="cls-2" x="211.7" y="91.8" width="30" height="150"/>
  <g>
    <path class="cls-1" d="M221.24,194.8c1.13-.39,2.75-1.03,4.85-1.94,2.42-1.05,4-1.77,4.73-2.17v1.54c-.54.11-1.68.55-3.42,1.31v3.35c1.74.76,2.88,1.2,3.42,1.31v1.05c-.73-.4-2.31-1.13-4.73-2.17-2-.86-3.61-1.5-4.85-1.93v-.36ZM226.7,196.58v-2.74l-3.19,1.37,3.19,1.37Z"/>
    <path class="cls-1" d="M225.31,184.85c-2.43,0-4,.03-4.72.1v-1.26c.72.06,2.42.1,5.11.1s4.39-.03,5.11-.1v1.16h-.99c.79.44,1.19,1.1,1.19,1.99s-.31,1.53-.92,2.03-1.45.75-2.53.75-1.92-.25-2.53-.75-.92-1.17-.92-2.03.4-1.55,1.19-1.99ZM227.57,184.85c-.93,0-1.65.16-2.17.47-.52.31-.77.75-.77,1.31s.25,1.03.75,1.33c.5.3,1.23.46,2.19.46s1.7-.15,2.19-.46c.5-.3.75-.75.75-1.33s-.26-1-.77-1.31c-.52-.31-1.24-.47-2.17-.47Z"/>
    <path class="cls-1" d="M224.77,181.23c-.43-.75-.65-1.55-.65-2.4,0-.69.18-1.22.55-1.6.36-.38.88-.56,1.55-.56h1.35c1.45,0,2.54-.03,3.25-.1v1.16h-1.12c.37.16.68.45.94.86s.38.85.38,1.29c0,.56-.15,1-.45,1.34s-.71.51-1.21.51c-.57,0-1.04-.18-1.41-.55s-.7-.96-.99-1.79l-.59-1.66h-.13c-.57,0-.99.11-1.25.33s-.4.57-.4,1.04c0,.39.1.78.29,1.16.19.38.45.68.76.9v.07h-.85ZM226.82,177.74l.53,1.51c.15.42.36.73.66.95.29.22.64.33,1.04.33.37,0,.67-.1.9-.3.23-.2.34-.47.34-.8,0-.48-.2-.88-.6-1.2s-.89-.49-1.48-.49h-1.39Z"/>
    <path class="cls-1" d="M229.82,173.47c1.85,0,3.14-.03,3.86-.1v1.26c-.72-.06-2.28-.1-4.69-.1s-3.96.03-4.68.1v-1.16h.99c-.79-.44-1.19-1.1-1.19-1.99s.31-1.53.92-2.03c.61-.5,1.45-.74,2.53-.74s1.92.25,2.53.74c.61.49.92,1.17.92,2.03s-.4,1.55-1.19,1.99ZM227.57,173.47c.93,0,1.65-.16,2.17-.47.52-.31.77-.75.77-1.31s-.25-1.03-.75-1.33-1.23-.45-2.19-.45-1.7.15-2.19.45-.75.74-.75,1.33.26,1,.77,1.31c.52.31,1.24.47,2.17.47Z"/>
    <path class="cls-1" d="M221.43,165.58c.72.06,1.68.1,2.88.1,0-.57-.01-1.04-.04-1.4h.71c-.03.36-.04.83-.04,1.4h4.7c.27,0,.49-.06.66-.17.17-.11.25-.26.25-.43,0-.28-.08-.52-.25-.73v-.07h.51c.13.29.2.61.2.97,0,.51-.13.89-.4,1.13-.27.24-.68.37-1.24.37h-4.42c0,.37.01.7.04.96h-.71c.03-.27.04-.59.04-.96-.85,0-1.57.03-2.16.1l-.72-1.26Z"/>
    <path class="cls-1" d="M224.77,162.82c-.43-.75-.65-1.55-.65-2.4,0-.69.18-1.22.55-1.6.36-.38.88-.56,1.55-.56h1.35c1.45,0,2.54-.03,3.25-.1v1.16h-1.12c.37.16.68.45.94.86s.38.85.38,1.29c0,.56-.15,1-.45,1.34s-.71.51-1.21.51c-.57,0-1.04-.18-1.41-.55s-.7-.96-.99-1.79l-.59-1.66h-.13c-.57,0-.99.11-1.25.33s-.4.57-.4,1.04c0,.39.1.78.29,1.16.19.38.45.68.76.9v.07h-.85ZM226.82,159.33l.53,1.51c.15.42.36.73.66.95.29.22.64.33,1.04.33.37,0,.67-.1.9-.3.23-.2.34-.47.34-.8,0-.48-.2-.88-.6-1.2s-.89-.49-1.48-.49h-1.39Z"/>
    <path class="cls-1" d="M221.43,154.96c.72.06,1.68.1,2.88.1,0-.57-.01-1.04-.04-1.4h.71c-.03.36-.04.83-.04,1.4h4.7c.27,0,.49-.06.66-.17.17-.11.25-.26.25-.43,0-.28-.08-.52-.25-.73v-.07h.51c.13.29.2.61.2.97,0,.51-.13.89-.4,1.13-.27.24-.68.37-1.24.37h-4.42c0,.37.01.7.04.96h-.71c.03-.27.04-.59.04-.96-.85,0-1.57.03-2.16.1l-.72-1.26Z"/>
    <path class="cls-1" d="M222.08,150.7c.23,0,.43.08.59.25s.25.36.25.59-.08.43-.25.59-.36.25-.59.25-.43-.08-.59-.25-.25-.36-.25-.59.08-.43.25-.59.36-.25.59-.25ZM230.81,152.17c-.72-.06-1.8-.1-3.25-.1s-2.53.03-3.25.1v-1.26c.72.06,1.8.1,3.25.1s2.53-.03,3.25-.1v1.26Z"/>
    <path class="cls-1" d="M224.12,145.71c0-.96.31-1.73.94-2.31.63-.59,1.46-.88,2.5-.88s1.87.29,2.5.88c.63.58.94,1.36.94,2.31s-.31,1.73-.94,2.32-1.46.88-2.51.88-1.88-.29-2.51-.88-.94-1.36-.94-2.32ZM224.57,145.71c0,.63.26,1.12.79,1.47s1.26.52,2.21.52,1.68-.17,2.21-.52.79-.84.79-1.47-.26-1.12-.79-1.47-1.26-.52-2.21-.52-1.68.17-2.21.52-.79.84-.79,1.47Z"/>
    <path class="cls-1" d="M230.81,140.63c-.72-.06-1.8-.1-3.25-.1s-2.53.03-3.25.1v-1.16h.96c-.77-.59-1.16-1.33-1.16-2.24,0-.67.2-1.19.61-1.55s.98-.55,1.71-.55h1.12c1.44,0,2.53-.03,3.25-.1v1.26c-.72-.06-1.8-.1-3.25-.1h-1.12c-1.12,0-1.68.44-1.68,1.33,0,.5.2.95.61,1.35s.87.6,1.39.6h.8c1.44,0,2.53-.03,3.25-.1v1.26Z"/>
  </g>
  <rect class="cls-4" x="101.7" y="241.8" width="250" height="40"/>
  <g>
    <path class="cls-1" d="M183.74,261.09c-.79-.11-2.04-.16-3.76-.16h-1.36v5.99h1.8c1.48,0,2.74-.07,3.76-.21v1.37c-.85-.08-2.1-.12-3.76-.12s-2.9.04-3.73.12c.14-1.11.21-3.5.21-7.16s-.07-6.05-.21-7.16c.83.08,2.08.12,3.73.12s2.92-.04,3.76-.12v1.37c-1.03-.14-2.28-.21-3.76-.21h-1.8v4.94h1.36c1.72,0,2.98-.05,3.76-.16v1.37Z"/>
    <path class="cls-1" d="M199.72,263.65l-.56-5.56-3.25,6.5c-.43.88-.92,2-1.48,3.36h-.52c-.15-.46-.71-1.69-1.68-3.67l-3.11-6.19-.58,5.56c-.21,1.97-.29,3.4-.24,4.31h-1.49c.24-1.09.55-3.47.94-7.16.36-3.44.54-5.84.54-7.21h.52c.03.07.65,1.31,1.86,3.72l3.87,7.72,3.67-7.43c.77-1.52,1.39-2.86,1.89-4.01h.52c0,1.44.18,3.84.53,7.21.38,3.57.7,5.95.96,7.16h-2.14c.05-.81-.03-2.25-.26-4.31Z"/>
    <path class="cls-1" d="M205.86,253.83c.71.04,1.61.06,2.69.06.36-.01.71-.02,1.08-.03.4-.01.79-.02,1.19-.03,1.15,0,2.09.32,2.81.96.73.64,1.09,1.45,1.09,2.43,0,1.14-.46,2.09-1.4,2.86-.93.77-2.1,1.15-3.5,1.15h-2.04c0,3.36.07,5.61.21,6.73h-2.13c.14-1.12.21-3.47.21-7.05s-.07-5.95-.21-7.08ZM207.79,260.19h1.96c1,0,1.78-.24,2.34-.71.55-.47.83-1.15.83-2.01s-.26-1.54-.79-1.93-1.36-.59-2.51-.59c-.79,0-1.4.05-1.83.16v5.09Z"/>
    <path class="cls-1" d="M219.26,260.93c0,3.57.07,5.91.21,7.03h-2.13c.14-1.12.21-3.47.21-7.03s-.07-5.91-.21-7.03h2.13c-.14,1.12-.21,3.47-.21,7.03Z"/>
    <path class="cls-1" d="M223.37,253.83c.71.04,1.55.06,2.51.06.37-.01.74-.02,1.12-.03.55-.02.99-.03,1.32-.03,1.15,0,2.09.32,2.81.96.73.64,1.09,1.45,1.09,2.43,0,1.09-.42,2-1.28,2.75-.85.75-1.93,1.16-3.24,1.24,3.08,3.89,4.96,6.14,5.63,6.75h-2.78c-.49-.92-2.16-3.16-5.01-6.73h-.26c0,3.36.07,5.61.21,6.73h-2.13c.14-1.12.21-3.48.21-7.08s-.07-5.93-.21-7.05ZM225.3,260.19h1.96c1,0,1.78-.24,2.33-.73.56-.49.83-1.17.83-2.04s-.26-1.52-.78-1.91c-.52-.38-1.37-.57-2.54-.57-.86,0-1.46.05-1.8.16v5.09Z"/>
    <path class="cls-1" d="M237.92,260.93c0,3.57.07,5.91.21,7.03h-2.13c.14-1.12.21-3.47.21-7.03s-.07-5.91-.21-7.03h2.13c-.14,1.12-.21,3.47-.21,7.03Z"/>
    <path class="cls-1" d="M251.87,256.06c-.33-.47-.81-.84-1.43-1.12s-1.27-.42-1.98-.42-1.32.14-1.94.42c-.62.28-1.16.67-1.62,1.19-1.07,1.19-1.6,2.79-1.6,4.8,0,2.13.58,3.77,1.73,4.94.46.47,1,.83,1.62,1.09.61.25,1.25.38,1.9.38,1.7,0,3.03-.6,3.99-1.8h.22v1.78c-1.18.63-2.58.94-4.2.94-.93,0-1.82-.14-2.68-.44-.86-.29-1.61-.71-2.26-1.26-1.59-1.33-2.38-3.21-2.38-5.64,0-2.25.77-4.07,2.31-5.46.66-.59,1.42-1.06,2.28-1.38.86-.33,1.74-.49,2.64-.49.79,0,1.51.07,2.18.21.67.14,1.37.38,2.11.71l-.68,1.54h-.21Z"/>
    <path class="cls-1" d="M257.76,260.93c0,3.57.07,5.91.21,7.03h-2.13c.14-1.12.21-3.47.21-7.03s-.07-5.91-.21-7.03h2.13c-.14,1.12-.21,3.47-.21,7.03Z"/>
    <path class="cls-1" d="M261.33,264.75c.87,1.72,2.12,2.58,3.75,2.58.81,0,1.46-.21,1.94-.62.48-.41.72-.97.72-1.67,0-1.18-.63-2.12-1.89-2.8l-1.72-.94c-1.09-.61-1.87-1.23-2.35-1.88s-.72-1.38-.72-2.22c0-1.02.38-1.88,1.14-2.57.76-.69,1.71-1.04,2.85-1.04,1.33,0,2.54.23,3.61.7l-.67,1.53h-.22c-.28-.42-.66-.74-1.13-.96-.48-.23-1.01-.34-1.59-.34-.72,0-1.29.19-1.72.56s-.65.88-.65,1.5c0,.57.18,1.08.54,1.53s.98.9,1.85,1.37l1.47.8c1.88,1.01,2.82,2.31,2.82,3.91,0,1.23-.39,2.22-1.18,2.96-.79.74-1.81,1.11-3.07,1.11-1.61,0-2.95-.38-4.01-1.13v-2.38h.21Z"/>
    <path class="cls-1" d="M284.91,263.65l-.56-5.56-3.25,6.5c-.43.88-.92,2-1.48,3.36h-.52c-.15-.46-.71-1.69-1.68-3.67l-3.11-6.19-.58,5.56c-.21,1.97-.29,3.4-.24,4.31h-1.49c.24-1.09.55-3.47.94-7.16.36-3.44.54-5.84.54-7.21h.52c.03.07.65,1.31,1.86,3.72l3.87,7.72,3.67-7.43c.77-1.52,1.39-2.86,1.89-4.01h.52c0,1.44.18,3.84.53,7.21.38,3.57.7,5.95.96,7.16h-2.14c.05-.81-.03-2.25-.26-4.31Z"/>
  </g>
</svg>