<?xml version="1.0" encoding="UTF-8"?>
<svg id="Layer_1" data-name="Layer 1" xmlns="http://www.w3.org/2000/svg" version="1.1" viewBox="0 0 254.33 282.3">
  <defs>
    <style>
      .cls-1 {
        fill: #5c725f;
      }

      .cls-1, .cls-2 {
        stroke-width: 0px;
      }

      .cls-2 {
        fill: #231f20;
      }

      .cls-3 {
        fill: #93cd87;
      }

      .cls-3, .cls-4, .cls-5, .cls-6 {
        stroke: #5c725f;
        stroke-miterlimit: 10;
      }

      .cls-4 {
        fill: #ddeedf;
      }

      .cls-5 {
        fill: #51826a;
      }

      .cls-6 {
        fill: #386738;
      }
    </style>
  </defs>
  <rect class="cls-4" x="32.1" y="226.99" width="80" height="15"/>
  <rect class="cls-4" x="32.1" y="212.2" width="80" height="15"/>
  <rect class="cls-4" x="32.1" y="198.19" width="80" height="15"/>
  <rect class="cls-4" x="32.1" y="183.22" width="80" height="15"/>
  <rect class="cls-4" x="32.1" y="168.25" width="80" height="15"/>
  <g>
    <path class="cls-1" d="M50.44,179.08c-.48,0-.91-.09-1.3-.26-.39-.17-.72-.41-1-.73-.28-.31-.49-.68-.64-1.1s-.22-.89-.22-1.39.07-.95.22-1.37.35-.79.63-1.11c.28-.31.61-.56,1-.74s.84-.26,1.33-.26c.39,0,.75.05,1.06.16s.58.25.8.43c.24.2.43.43.57.69.14.27.24.56.28.87h-.92c-.05-.27-.15-.51-.31-.71s-.36-.36-.62-.47-.55-.17-.89-.17c-.47,0-.87.12-1.21.35-.33.23-.58.55-.76.95s-.26.86-.26,1.37.09,1,.28,1.4.44.71.78.94c.33.22.73.34,1.18.34.41,0,.74-.08,1.01-.24.27-.16.47-.38.62-.65.14-.27.23-.56.25-.88h.92c0,.33-.07.66-.22,1s-.34.62-.58.86c-.25.25-.55.43-.89.54-.34.11-.72.17-1.13.17Z"/>
    <path class="cls-1" d="M56.33,179.08c-.48,0-.9-.11-1.26-.34s-.63-.54-.82-.92c-.19-.38-.29-.81-.29-1.29s.1-.89.29-1.28c.19-.38.46-.69.82-.92s.77-.34,1.26-.34.91.11,1.26.34.62.53.81.92c.19.38.28.81.28,1.28s-.09.9-.28,1.29c-.19.39-.46.69-.81.92s-.77.34-1.26.34ZM56.32,178.4c.33,0,.61-.08.83-.25s.39-.39.5-.67c.11-.28.17-.6.17-.94s-.06-.66-.17-.95c-.11-.28-.28-.51-.5-.67s-.5-.25-.83-.25-.6.08-.83.25c-.22.17-.39.39-.51.67-.11.28-.17.6-.17.95s.06.66.17.94.28.5.51.67c.22.17.5.25.83.25Z"/>
    <path class="cls-1" d="M59.58,178.95v-4.83h.83v.72h.03c.1-.18.22-.33.36-.45s.31-.22.49-.29c.18-.07.37-.1.58-.1.29,0,.55.08.77.23s.38.37.48.67h.02c.17-.3.39-.53.66-.67.26-.15.54-.22.84-.22s.56.06.78.18c.22.12.4.3.52.53.13.23.19.52.19.85v3.38h-.83v-3.3c0-.3-.08-.53-.25-.69s-.38-.25-.62-.25c-.2,0-.39.05-.56.16s-.31.26-.42.45c-.11.19-.16.41-.16.66v2.98h-.83v-3.3c0-.3-.08-.53-.23-.69s-.35-.25-.6-.25c-.19,0-.38.05-.56.16s-.34.26-.46.45c-.12.19-.18.41-.18.66v2.98h-.84Z"/>
    <path class="cls-1" d="M67.24,178.95v-4.83h.83v.72h.03c.1-.18.22-.33.36-.45s.31-.22.49-.29c.18-.07.37-.1.58-.1.29,0,.55.08.77.23s.38.37.48.67h.02c.17-.3.39-.53.66-.67.26-.15.54-.22.84-.22s.56.06.78.18c.22.12.4.3.52.53.13.23.19.52.19.85v3.38h-.83v-3.3c0-.3-.08-.53-.25-.69s-.38-.25-.62-.25c-.2,0-.39.05-.56.16s-.31.26-.42.45c-.11.19-.16.41-.16.66v2.98h-.83v-3.3c0-.3-.08-.53-.23-.69s-.35-.25-.6-.25c-.19,0-.38.05-.56.16s-.34.26-.46.45c-.12.19-.18.41-.18.66v2.98h-.84Z"/>
    <path class="cls-1" d="M74.9,173.23v-.97h.87v.97h-.87ZM74.91,178.95v-4.83h.84v4.83h-.84Z"/>
    <path class="cls-1" d="M78.46,178.99c-.21,0-.4-.03-.57-.1-.17-.06-.29-.17-.39-.31-.09-.14-.14-.33-.14-.57v-3.24h-.76v-.65h.76v-1.52h.83v1.52h1v.65h-1v3.05c0,.18.04.29.13.36s.21.09.36.09c.07,0,.15,0,.23-.02s.15-.03.19-.04h.03v.7c-.11.03-.22.05-.34.06-.11.01-.23.02-.34.02Z"/>
    <path class="cls-1" d="M80.06,178.95v-4.83h.83v.72h.03c.1-.18.22-.33.36-.45s.31-.22.49-.29c.18-.07.37-.1.58-.1.29,0,.55.08.77.23s.38.37.48.67h.02c.17-.3.39-.53.66-.67.26-.15.54-.22.84-.22s.56.06.78.18c.22.12.4.3.52.53.13.23.19.52.19.85v3.38h-.83v-3.3c0-.3-.08-.53-.25-.69s-.38-.25-.62-.25c-.2,0-.39.05-.56.16s-.31.26-.42.45c-.11.19-.16.41-.16.66v2.98h-.83v-3.3c0-.3-.08-.53-.23-.69s-.35-.25-.6-.25c-.19,0-.38.05-.56.16s-.34.26-.46.45c-.12.19-.18.41-.18.66v2.98h-.84Z"/>
    <path class="cls-1" d="M89.83,179.08c-.5,0-.92-.11-1.27-.34s-.62-.54-.81-.92c-.19-.39-.28-.81-.28-1.29s.1-.89.29-1.28c.19-.38.46-.69.81-.92.35-.23.75-.34,1.21-.34.36,0,.68.07.95.2s.51.32.7.55c.2.24.35.53.45.86.1.34.15.71.15,1.12h-3.71c.02.31.1.6.22.85s.29.45.51.6.48.22.79.22c.33,0,.61-.07.83-.22.22-.15.37-.35.45-.6h.82c-.07.3-.2.56-.39.79-.19.23-.43.4-.72.53-.29.13-.62.19-.99.19ZM88.34,176.13h2.8c-.01-.31-.08-.58-.18-.8s-.26-.39-.46-.51c-.2-.12-.44-.18-.71-.18-.29,0-.54.06-.74.19s-.36.3-.47.53-.19.48-.23.76Z"/>
    <path class="cls-1" d="M92.93,178.95v-4.83h.83v.69h.03c.12-.16.25-.31.4-.42.15-.12.31-.21.5-.28.19-.07.4-.1.63-.1.34,0,.63.06.87.18.24.12.43.3.56.53.13.23.2.52.2.85v3.38h-.83v-3.27c0-.31-.09-.55-.28-.72-.19-.17-.45-.25-.78-.25-.25,0-.47.06-.66.16-.19.11-.35.26-.45.46-.11.2-.17.42-.17.68v2.94h-.84Z"/>
    <path class="cls-1" d="M99.53,178.99c-.21,0-.4-.03-.57-.1-.17-.06-.29-.17-.39-.31-.09-.14-.14-.33-.14-.57v-3.24h-.76v-.65h.76v-1.52h.83v1.52h1v.65h-1v3.05c0,.18.04.29.13.36s.21.09.36.09c.07,0,.15,0,.23-.02s.15-.03.19-.04h.03v.7c-.11.03-.22.05-.34.06-.11.01-.23.02-.34.02Z"/>
  </g>
  <g>
    <path class="cls-1" d="M61.63,193.35v-6.7h4.58v.81h-3.66v2h3.05v.78h-3.05v3.1h-.92Z"/>
    <path class="cls-1" d="M68.81,193.48c-.48,0-.9-.11-1.26-.34s-.63-.54-.82-.92c-.19-.38-.29-.81-.29-1.29s.1-.89.29-1.28c.19-.38.46-.69.82-.92s.77-.34,1.26-.34.91.11,1.26.34.62.53.81.92c.19.38.28.81.28,1.28s-.09.9-.28,1.29c-.19.39-.46.69-.81.92s-.77.34-1.26.34ZM68.8,192.8c.33,0,.61-.08.83-.25s.39-.39.5-.67c.11-.28.17-.6.17-.94s-.06-.66-.17-.95c-.11-.28-.28-.51-.5-.67s-.5-.25-.83-.25-.6.08-.83.25c-.22.17-.39.39-.51.67-.11.28-.17.6-.17.95s.06.66.17.94.28.5.51.67c.22.17.5.25.83.25Z"/>
    <path class="cls-1" d="M74.15,193.48c-.48,0-.9-.11-1.25-.34-.35-.23-.63-.54-.82-.92-.19-.39-.29-.81-.29-1.29s.1-.89.29-1.28c.19-.38.46-.69.82-.92.35-.23.77-.34,1.25-.34.39,0,.73.07,1.02.21.29.14.53.33.71.59.18.25.3.55.36.9h-.83c-.04-.21-.11-.39-.22-.54s-.25-.27-.42-.35-.38-.12-.61-.12c-.33,0-.6.08-.83.25-.22.17-.39.39-.51.67s-.17.6-.17.94.06.66.17.94.28.5.51.67c.22.17.5.25.83.25.38,0,.68-.1.9-.31.22-.21.34-.49.37-.85h.83c-.04.38-.14.71-.32.99s-.41.49-.71.63c-.3.15-.66.22-1.07.22Z"/>
    <path class="cls-1" d="M78.7,193.46c-.33,0-.62-.06-.87-.19s-.44-.31-.57-.56c-.13-.24-.2-.53-.2-.86v-3.33h.83v3.29c0,.3.09.54.28.71.18.17.44.26.78.26.25,0,.46-.06.64-.17s.32-.27.42-.47c.1-.2.15-.42.15-.67v-2.94h.84v4.83h-.83v-.68h-.02c-.11.16-.24.3-.37.42-.14.12-.29.21-.47.27s-.38.1-.61.1Z"/>
    <path class="cls-1" d="M84.02,193.48c-.44,0-.82-.07-1.13-.2-.31-.13-.56-.32-.73-.56-.17-.24-.27-.53-.3-.85h.85c.05.35.2.6.44.73.25.14.54.2.89.2.38,0,.66-.07.83-.22.17-.15.26-.33.26-.54,0-.18-.05-.31-.14-.41s-.23-.18-.41-.24-.42-.12-.7-.18c-.24-.05-.46-.1-.68-.16s-.41-.14-.58-.24c-.17-.1-.3-.23-.4-.4s-.15-.39-.15-.65.07-.52.21-.72.34-.36.6-.47c.26-.11.58-.17.96-.17.4,0,.74.06,1.02.18s.48.28.63.49.24.46.28.73h-.83c-.02-.17-.08-.31-.17-.42s-.21-.2-.36-.26-.35-.09-.58-.09c-.33,0-.57.07-.71.2-.15.13-.22.29-.22.48,0,.17.05.3.15.39.1.09.25.16.44.22s.42.11.7.16c.24.05.47.1.68.16.21.06.41.15.57.25.17.11.3.25.39.43s.14.41.14.69c0,.33-.08.6-.25.82s-.39.39-.69.5-.63.17-1.01.17Z"/>
  </g>
  <g>
    <path class="cls-1" d="M56.56,208.45c-.51,0-.96-.09-1.37-.26s-.75-.42-1.03-.73-.5-.68-.65-1.1c-.15-.42-.23-.89-.23-1.39s.08-.96.23-1.39c.15-.42.37-.79.65-1.1.28-.31.63-.55,1.03-.73s.86-.26,1.37-.26.96.09,1.36.26.75.42,1.04.73c.29.31.5.68.66,1.1.15.42.23.89.23,1.39s-.08.96-.23,1.39-.37.79-.66,1.1c-.29.31-.63.56-1.04.73s-.86.26-1.36.26ZM56.56,207.64c.38,0,.72-.07,1.01-.2s.53-.32.73-.56.34-.52.44-.85.15-.68.15-1.06-.05-.74-.15-1.07-.25-.61-.44-.85c-.2-.24-.44-.43-.73-.56s-.63-.2-1.01-.2-.72.07-1.01.2-.54.32-.73.56c-.2.24-.35.53-.45.85-.1.33-.15.68-.15,1.07s.05.73.15,1.06c.1.33.25.61.45.85.2.24.44.43.73.56s.63.2,1.01.2Z"/>
    <path class="cls-1" d="M60.85,209.96v-6.47h.83v.74h.03c.12-.18.25-.34.4-.47s.32-.23.51-.3c.19-.07.4-.1.63-.1.41,0,.77.1,1.08.31.31.2.56.5.73.88s.26.83.26,1.36-.08.96-.25,1.35c-.17.38-.41.68-.73.89-.31.21-.69.31-1.12.31-.33,0-.62-.07-.88-.2-.26-.13-.47-.33-.64-.58h-.03c0,.08.01.19.02.33,0,.13,0,.29,0,.48v1.48h-.84ZM63.13,207.76c.3,0,.55-.08.74-.24.2-.16.35-.38.45-.66.1-.28.15-.59.15-.94s-.05-.67-.15-.95-.25-.5-.44-.66c-.2-.16-.44-.24-.74-.24-.34,0-.62.08-.84.25-.22.17-.39.39-.49.67-.11.28-.16.59-.16.93s.05.65.15.93.26.5.48.66c.22.16.5.25.86.25Z"/>
    <path class="cls-1" d="M68.32,208.45c-.5,0-.92-.11-1.27-.34s-.62-.54-.81-.92c-.19-.39-.28-.81-.28-1.29s.1-.89.29-1.28c.19-.38.46-.69.81-.92.35-.23.75-.34,1.21-.34.36,0,.68.07.95.2s.51.32.7.55c.2.24.35.53.45.86.1.34.15.71.15,1.12h-3.71c.02.31.1.6.22.85s.29.45.51.6.48.22.79.22c.33,0,.61-.07.83-.22.22-.15.37-.35.45-.6h.82c-.07.3-.2.56-.39.79-.19.23-.43.4-.72.53-.29.13-.62.19-.99.19ZM66.83,205.5h2.8c-.01-.31-.08-.58-.18-.8s-.26-.39-.46-.51c-.2-.12-.44-.18-.71-.18-.29,0-.54.06-.74.19s-.36.3-.47.53-.19.48-.23.76Z"/>
    <path class="cls-1" d="M71.41,208.32v-4.83h.83v.69h.03c.12-.16.25-.31.4-.42.15-.12.31-.21.5-.28.19-.07.4-.1.63-.1.34,0,.63.06.87.18.24.12.43.3.56.53.13.23.2.52.2.85v3.38h-.83v-3.27c0-.31-.09-.55-.28-.72-.19-.17-.45-.25-.78-.25-.25,0-.47.06-.66.16-.19.11-.35.26-.45.46-.11.2-.17.42-.17.68v2.94h-.84Z"/>
    <path class="cls-1" d="M76.55,208.32v-4.83h.83v.69h.03c.12-.16.25-.31.4-.42.15-.12.31-.21.5-.28.19-.07.4-.1.63-.1.34,0,.63.06.87.18.24.12.43.3.56.53.13.23.2.52.2.85v3.38h-.83v-3.27c0-.31-.09-.55-.28-.72-.19-.17-.45-.25-.78-.25-.25,0-.47.06-.66.16-.19.11-.35.26-.45.46-.11.2-.17.42-.17.68v2.94h-.84Z"/>
    <path class="cls-1" d="M83.79,208.45c-.5,0-.92-.11-1.27-.34s-.62-.54-.81-.92c-.19-.39-.28-.81-.28-1.29s.1-.89.29-1.28c.19-.38.46-.69.81-.92.35-.23.75-.34,1.21-.34.36,0,.68.07.95.2s.51.32.7.55c.2.24.35.53.45.86.1.34.15.71.15,1.12h-3.71c.02.31.1.6.22.85s.29.45.51.6.48.22.79.22c.33,0,.61-.07.83-.22.22-.15.37-.35.45-.6h.82c-.07.3-.2.56-.39.79-.19.23-.43.4-.72.53-.29.13-.62.19-.99.19ZM82.3,205.5h2.8c-.01-.31-.08-.58-.18-.8s-.26-.39-.46-.51c-.2-.12-.44-.18-.71-.18-.29,0-.54.06-.74.19s-.36.3-.47.53-.19.48-.23.76Z"/>
    <path class="cls-1" d="M88.74,208.45c-.44,0-.82-.07-1.13-.2-.31-.13-.56-.32-.73-.56-.17-.24-.27-.53-.3-.85h.85c.05.35.2.6.44.73.25.14.54.2.89.2.38,0,.66-.07.83-.22.17-.15.26-.33.26-.54,0-.18-.05-.31-.14-.41s-.23-.18-.41-.24-.42-.12-.7-.18c-.24-.05-.46-.1-.68-.16s-.41-.14-.58-.24c-.17-.1-.3-.23-.4-.4s-.15-.39-.15-.65.07-.52.21-.72.34-.36.6-.47c.26-.11.58-.17.96-.17.4,0,.74.06,1.02.18s.48.28.63.49.24.46.28.73h-.83c-.02-.17-.08-.31-.17-.42s-.21-.2-.36-.26-.35-.09-.58-.09c-.33,0-.57.07-.71.2-.15.13-.22.29-.22.48,0,.17.05.3.15.39.1.09.25.16.44.22s.42.11.7.16c.24.05.47.1.68.16.21.06.41.15.57.25.17.11.3.25.39.43s.14.41.14.69c0,.33-.08.6-.25.82s-.39.39-.69.5-.63.17-1.01.17Z"/>
    <path class="cls-1" d="M93.44,208.45c-.44,0-.82-.07-1.13-.2-.31-.13-.56-.32-.73-.56-.17-.24-.27-.53-.3-.85h.85c.05.35.2.6.44.73.25.14.54.2.89.2.38,0,.66-.07.83-.22.17-.15.26-.33.26-.54,0-.18-.05-.31-.14-.41s-.23-.18-.41-.24-.42-.12-.7-.18c-.24-.05-.46-.1-.68-.16s-.41-.14-.58-.24c-.17-.1-.3-.23-.4-.4s-.15-.39-.15-.65.07-.52.21-.72.34-.36.6-.47c.26-.11.58-.17.96-.17.4,0,.74.06,1.02.18s.48.28.63.49.24.46.28.73h-.83c-.02-.17-.08-.31-.17-.42s-.21-.2-.36-.26-.35-.09-.58-.09c-.33,0-.57.07-.71.2-.15.13-.22.29-.22.48,0,.17.05.3.15.39.1.09.25.16.44.22s.42.11.7.16c.24.05.47.1.68.16.21.06.41.15.57.25.17.11.3.25.39.43s.14.41.14.69c0,.33-.08.6-.25.82s-.39.39-.69.5-.63.17-1.01.17Z"/>
  </g>
  <g>
    <path class="cls-1" d="M57.88,222.33v-6.7h3.13c.4,0,.75.08,1.05.23.3.15.53.37.7.65.17.28.25.6.25.97,0,.41-.09.75-.28,1.04-.18.29-.5.5-.94.64v.03c.25.07.45.18.59.31.14.13.25.3.31.52s.11.49.13.82c.02.23.04.44.06.61s.04.32.07.44.05.21.08.28c.03.07.07.11.1.14v.04h-.98s-.09-.11-.11-.21-.05-.25-.06-.45c-.02-.2-.04-.48-.06-.84-.03-.47-.15-.8-.36-1s-.53-.29-.97-.29h-1.78v2.79h-.92ZM58.8,218.8h1.92c.45,0,.79-.11,1.02-.32s.34-.5.34-.87c0-.39-.1-.69-.3-.89s-.54-.3-1.01-.3h-1.96v2.37Z"/>
    <path class="cls-1" d="M66.11,222.46c-.5,0-.92-.11-1.27-.34s-.62-.54-.81-.92c-.19-.39-.28-.81-.28-1.29s.1-.89.29-1.28c.19-.38.46-.69.81-.92.35-.23.75-.34,1.21-.34.36,0,.68.07.95.2s.51.32.7.55c.2.24.35.53.45.86.1.34.15.71.15,1.12h-3.71c.02.31.1.6.22.85s.29.45.51.6.48.22.79.22c.33,0,.61-.07.83-.22.22-.15.37-.35.45-.6h.82c-.07.3-.2.56-.39.79-.19.23-.43.4-.72.53-.29.13-.62.19-.99.19ZM64.63,219.51h2.8c-.01-.31-.08-.58-.18-.8s-.26-.39-.46-.51c-.2-.12-.44-.18-.71-.18-.29,0-.54.06-.74.19s-.36.3-.47.53-.19.48-.23.76Z"/>
    <path class="cls-1" d="M71.07,222.46c-.44,0-.82-.07-1.13-.2-.31-.13-.56-.32-.73-.56-.17-.24-.27-.53-.3-.85h.85c.05.35.2.6.44.73.25.14.54.2.89.2.38,0,.66-.07.83-.22.17-.15.26-.33.26-.54,0-.18-.05-.31-.14-.41s-.23-.18-.41-.24-.42-.12-.7-.18c-.24-.05-.46-.1-.68-.16s-.41-.14-.58-.24c-.17-.1-.3-.23-.4-.4s-.15-.39-.15-.65.07-.52.21-.72.34-.36.6-.47c.26-.11.58-.17.96-.17.4,0,.74.06,1.02.18s.48.28.63.49.24.46.28.73h-.83c-.02-.17-.08-.31-.17-.42s-.21-.2-.36-.26-.35-.09-.58-.09c-.33,0-.57.07-.71.2-.15.13-.22.29-.22.48,0,.17.05.3.15.39.1.09.25.16.44.22s.42.11.7.16c.24.05.47.1.68.16.21.06.41.15.57.25.17.11.3.25.39.43s.14.41.14.69c0,.33-.08.6-.25.82s-.39.39-.69.5-.63.17-1.01.17Z"/>
    <path class="cls-1" d="M73.91,223.97v-6.47h.83v.74h.03c.12-.18.25-.34.4-.47s.32-.23.51-.3c.19-.07.4-.1.63-.1.41,0,.77.1,1.08.31.31.2.56.5.73.88s.26.83.26,1.36-.08.96-.25,1.35c-.17.38-.41.68-.73.89-.31.21-.69.31-1.12.31-.33,0-.62-.07-.88-.2-.26-.13-.47-.33-.64-.58h-.03c0,.08.01.19.02.33,0,.13,0,.29,0,.48v1.48h-.84ZM76.19,221.77c.3,0,.55-.08.74-.24.2-.16.35-.38.45-.66.1-.28.15-.59.15-.94s-.05-.67-.15-.95-.25-.5-.44-.66c-.2-.16-.44-.24-.74-.24-.34,0-.62.08-.84.25-.22.17-.39.39-.49.67-.11.28-.16.59-.16.93s.05.65.15.93.26.5.48.66c.22.16.5.25.86.25Z"/>
    <path class="cls-1" d="M81.37,222.46c-.5,0-.92-.11-1.27-.34s-.62-.54-.81-.92c-.19-.39-.28-.81-.28-1.29s.1-.89.29-1.28c.19-.38.46-.69.81-.92.35-.23.75-.34,1.21-.34.36,0,.68.07.95.2s.51.32.7.55c.2.24.35.53.45.86.1.34.15.71.15,1.12h-3.71c.02.31.1.6.22.85s.29.45.51.6.48.22.79.22c.33,0,.61-.07.83-.22.22-.15.37-.35.45-.6h.82c-.07.3-.2.56-.39.79-.19.23-.43.4-.72.53-.29.13-.62.19-.99.19ZM79.89,219.51h2.8c-.01-.31-.08-.58-.18-.8s-.26-.39-.46-.51c-.2-.12-.44-.18-.71-.18-.29,0-.54.06-.74.19s-.36.3-.47.53-.19.48-.23.76Z"/>
    <path class="cls-1" d="M86.57,222.46c-.48,0-.9-.11-1.25-.34-.35-.23-.63-.54-.82-.92-.19-.39-.29-.81-.29-1.29s.1-.89.29-1.28c.19-.38.46-.69.82-.92.35-.23.77-.34,1.25-.34.39,0,.73.07,1.02.21.29.14.53.33.71.59.18.25.3.55.36.9h-.83c-.04-.21-.11-.39-.22-.54s-.25-.27-.42-.35-.38-.12-.61-.12c-.33,0-.6.08-.83.25-.22.17-.39.39-.51.67s-.17.6-.17.94.06.66.17.94.28.5.51.67c.22.17.5.25.83.25.38,0,.68-.1.9-.31.22-.21.34-.49.37-.85h.83c-.04.38-.14.71-.32.99s-.41.49-.71.63c-.3.15-.66.22-1.07.22Z"/>
    <path class="cls-1" d="M91.07,222.37c-.21,0-.4-.03-.57-.1-.17-.06-.29-.17-.39-.31-.09-.14-.14-.33-.14-.57v-3.24h-.76v-.65h.76v-1.52h.83v1.52h1v.65h-1v3.05c0,.18.04.29.13.36s.21.09.36.09c.07,0,.15,0,.23-.02s.15-.03.19-.04h.03v.7c-.11.03-.22.05-.34.06-.11.01-.23.02-.34.02Z"/>
  </g>
  <g>
    <path class="cls-1" d="M59.52,237.26c-.48,0-.91-.09-1.3-.26-.39-.17-.72-.41-1-.73-.28-.31-.49-.68-.64-1.1s-.22-.89-.22-1.39.07-.95.22-1.37.35-.79.63-1.11c.28-.31.61-.56,1-.74s.84-.26,1.33-.26c.39,0,.75.05,1.06.16s.58.25.8.43c.24.2.43.43.57.69.14.27.24.56.28.87h-.92c-.05-.27-.15-.51-.31-.71s-.36-.36-.62-.47-.55-.17-.89-.17c-.47,0-.87.12-1.21.35-.33.23-.58.55-.76.95s-.26.86-.26,1.37.09,1,.28,1.4.44.71.78.94c.33.22.73.34,1.18.34.41,0,.74-.08,1.01-.24.27-.16.47-.38.62-.65.14-.27.23-.56.25-.88h.92c0,.33-.07.66-.22,1s-.34.62-.58.86c-.25.25-.55.43-.89.54-.34.11-.72.17-1.13.17Z"/>
    <path class="cls-1" d="M65.42,237.26c-.48,0-.9-.11-1.26-.34s-.63-.54-.82-.92c-.19-.38-.29-.81-.29-1.29s.1-.89.29-1.28c.19-.38.46-.69.82-.92s.77-.34,1.26-.34.91.11,1.26.34.62.53.81.92c.19.38.28.81.28,1.28s-.09.9-.28,1.29c-.19.39-.46.69-.81.92s-.77.34-1.26.34ZM65.41,236.57c.33,0,.61-.08.83-.25s.39-.39.5-.67c.11-.28.17-.6.17-.94s-.06-.66-.17-.95c-.11-.28-.28-.51-.5-.67s-.5-.25-.83-.25-.6.08-.83.25c-.22.17-.39.39-.51.67-.11.28-.17.6-.17.95s.06.66.17.94.28.5.51.67c.22.17.5.25.83.25Z"/>
    <path class="cls-1" d="M70.27,237.24c-.33,0-.62-.06-.87-.19s-.44-.31-.57-.56c-.13-.24-.2-.53-.2-.86v-3.33h.83v3.29c0,.3.09.54.28.71.18.17.44.26.78.26.25,0,.46-.06.64-.17s.32-.27.42-.47c.1-.2.15-.42.15-.67v-2.94h.84v4.83h-.83v-.68h-.02c-.11.16-.24.3-.37.42-.14.12-.29.21-.47.27s-.38.1-.61.1Z"/>
    <path class="cls-1" d="M73.73,237.13v-4.83h.83v.87h.03c.15-.28.34-.5.58-.68s.52-.26.84-.26c.07,0,.12,0,.17.01.04,0,.09.02.14.04v.79h-.03c-.06-.02-.11-.03-.16-.04-.05,0-.11,0-.18,0-.19,0-.36.03-.53.1s-.31.16-.44.29c-.13.13-.23.28-.3.46-.07.18-.11.38-.11.61v2.63h-.84Z"/>
    <path class="cls-1" d="M78.41,237.23c-.3,0-.58-.05-.83-.15-.25-.1-.45-.25-.59-.46-.15-.21-.22-.46-.22-.77,0-.38.09-.66.26-.86.17-.2.42-.35.73-.44.31-.09.68-.17,1.09-.22.24-.03.44-.06.62-.11s.31-.11.41-.2c.1-.09.14-.22.14-.38,0-.26-.09-.47-.27-.62-.18-.15-.43-.23-.76-.23-.38,0-.67.08-.85.25-.19.17-.29.4-.31.68h-.81c.01-.28.09-.53.24-.76.14-.23.36-.42.65-.57.29-.14.65-.22,1.08-.22.23,0,.44.02.64.06s.38.11.53.2c.2.12.36.29.47.51s.17.49.17.81v2.26c0,.18.03.31.08.41s.15.15.28.15c.03,0,.06,0,.09,0,.03,0,.05-.01.07-.02h.03v.58c-.06.02-.12.03-.19.05s-.16.02-.26.02c-.16,0-.31-.04-.44-.11s-.23-.18-.31-.33c-.07-.15-.11-.34-.11-.58v-.05l.06.29h-.06c-.14.21-.35.4-.61.56-.26.17-.6.25-1.01.25ZM78.61,236.61c.32,0,.59-.07.8-.2s.36-.3.46-.5c.1-.2.15-.39.15-.57v-.79c-.08.05-.18.1-.29.14s-.24.08-.37.12c-.13.03-.26.06-.39.09-.26.04-.49.1-.69.16-.2.06-.35.15-.46.27-.11.12-.16.29-.16.51,0,.21.05.36.14.48.09.11.21.19.36.23.15.04.3.06.46.06Z"/>
    <path class="cls-1" d="M84.07,238.82c-.64,0-1.13-.12-1.48-.36s-.55-.57-.6-1h.78c.04.25.17.43.4.54.23.11.52.17.88.17.43,0,.76-.1.99-.3.23-.2.35-.5.35-.91v-.14c0-.14,0-.27,0-.39,0-.12,0-.22.01-.3h-.02c-.17.24-.36.43-.59.56s-.51.21-.85.21c-.41,0-.77-.1-1.09-.3s-.57-.48-.75-.83c-.18-.36-.27-.77-.27-1.24,0-.5.09-.92.28-1.27.19-.35.44-.62.75-.81s.66-.28,1.04-.28c.23,0,.44.03.62.09s.34.14.48.25.26.25.36.41h.02v-.64h.83v4.64c0,.32-.05.6-.15.84-.1.24-.25.44-.43.6-.19.16-.41.27-.68.35-.27.07-.56.11-.88.11ZM84.03,236.23c.35,0,.63-.08.83-.23s.35-.36.44-.61.13-.55.13-.88-.05-.63-.15-.88c-.1-.24-.26-.43-.47-.56-.21-.13-.48-.2-.8-.2-.29,0-.54.07-.74.21-.2.14-.35.33-.45.59s-.15.55-.15.89.05.64.15.89c.1.25.25.44.45.58.2.14.44.2.74.2Z"/>
    <path class="cls-1" d="M89.48,237.25c-.5,0-.92-.11-1.27-.34s-.62-.54-.81-.92c-.19-.39-.28-.81-.28-1.29s.1-.89.29-1.28c.19-.38.46-.69.81-.92.35-.23.75-.34,1.21-.34.36,0,.68.07.95.2s.51.32.7.55c.2.24.35.53.45.86.1.34.15.71.15,1.12h-3.71c.02.31.1.6.22.85s.29.45.51.6.48.22.79.22c.33,0,.61-.07.83-.22.22-.15.37-.35.45-.6h.82c-.07.3-.2.56-.39.79-.19.23-.43.4-.72.53-.29.13-.62.19-.99.19ZM87.99,234.3h2.8c-.01-.31-.08-.58-.18-.8s-.26-.39-.46-.51c-.2-.12-.44-.18-.71-.18-.29,0-.54.06-.74.19s-.36.3-.47.53-.19.48-.23.76Z"/>
  </g>
  <rect class="cls-4" x="142.1" y="226.9" width="80" height="15"/>
  <rect class="cls-4" x="142.1" y="212.1" width="80" height="15"/>
  <rect class="cls-4" x="142.1" y="198.09" width="80" height="15"/>
  <rect class="cls-4" x="142.1" y="183.12" width="80" height="15"/>
  <rect class="cls-4" x="142.1" y="168.72" width="80" height="15"/>
  <g>
    <path class="cls-1" d="M160.44,178.98c-.48,0-.91-.09-1.3-.26-.39-.17-.72-.41-1-.73-.28-.31-.49-.68-.64-1.1-.15-.42-.22-.89-.22-1.39s.07-.95.22-1.37.35-.79.63-1.11c.28-.31.61-.56,1-.74s.84-.26,1.33-.26c.39,0,.75.05,1.06.16s.58.25.8.43c.24.2.43.43.57.69.14.27.24.56.28.87h-.92c-.05-.27-.15-.51-.31-.71-.16-.2-.36-.36-.62-.47-.25-.11-.55-.17-.89-.17-.47,0-.87.12-1.21.35-.33.23-.58.55-.76.95s-.26.86-.26,1.37.09,1,.28,1.4.44.71.78.94c.33.22.73.34,1.18.34.41,0,.74-.08,1.01-.24.27-.16.47-.38.62-.65.14-.27.23-.56.25-.88h.92c0,.33-.07.66-.21,1s-.34.62-.58.86c-.25.25-.55.43-.89.54-.34.11-.71.17-1.13.17Z"/>
    <path class="cls-1" d="M166.33,178.98c-.48,0-.9-.11-1.26-.34s-.63-.54-.82-.92c-.19-.38-.29-.81-.29-1.29s.1-.89.29-1.28c.19-.38.46-.69.82-.92s.77-.34,1.26-.34.91.11,1.26.34.62.53.81.92c.19.38.28.81.28,1.28s-.09.9-.28,1.29c-.19.39-.46.69-.81.92s-.77.34-1.26.34ZM166.32,178.3c.33,0,.61-.08.83-.25s.39-.39.5-.67c.11-.28.17-.6.17-.94s-.06-.66-.17-.95c-.11-.28-.28-.51-.5-.67s-.5-.25-.83-.25-.6.08-.83.25c-.22.17-.39.39-.51.67-.11.28-.17.6-.17.95s.06.66.17.94c.11.28.28.5.51.67.22.17.5.25.83.25Z"/>
    <path class="cls-1" d="M169.58,178.85v-4.83h.83v.72h.03c.1-.18.22-.33.36-.45s.31-.22.49-.29c.18-.07.37-.1.58-.1.29,0,.55.08.77.23.22.15.38.37.48.67h.02c.17-.3.39-.53.66-.67.26-.15.54-.22.84-.22s.56.06.78.18c.22.12.4.3.52.53.13.23.19.52.19.85v3.38h-.83v-3.3c0-.3-.08-.53-.25-.69s-.38-.25-.62-.25c-.2,0-.39.05-.56.16-.17.11-.31.26-.42.45-.11.19-.16.41-.16.66v2.98h-.83v-3.3c0-.3-.08-.53-.23-.69-.15-.17-.35-.25-.6-.25-.19,0-.38.05-.56.16s-.34.26-.46.45c-.12.19-.18.41-.18.66v2.98h-.84Z"/>
    <path class="cls-1" d="M177.24,178.85v-4.83h.83v.72h.03c.1-.18.22-.33.37-.45s.3-.22.49-.29c.18-.07.37-.1.58-.1.29,0,.55.08.77.23.22.15.38.37.48.67h.02c.17-.3.39-.53.66-.67.26-.15.54-.22.84-.22s.56.06.78.18c.22.12.4.3.53.53.13.23.19.52.19.85v3.38h-.83v-3.3c0-.3-.08-.53-.25-.69s-.38-.25-.62-.25c-.2,0-.39.05-.57.16-.17.11-.31.26-.42.45-.11.19-.16.41-.16.66v2.98h-.83v-3.3c0-.3-.08-.53-.23-.69-.15-.17-.35-.25-.6-.25-.19,0-.38.05-.56.16s-.34.26-.46.45c-.12.19-.18.41-.18.66v2.98h-.84Z"/>
    <path class="cls-1" d="M184.89,173.13v-.97h.88v.97h-.88ZM184.91,178.85v-4.83h.84v4.83h-.84Z"/>
    <path class="cls-1" d="M188.46,178.89c-.21,0-.4-.03-.57-.1-.17-.06-.29-.17-.39-.31-.09-.14-.14-.33-.14-.57v-3.24h-.76v-.65h.76v-1.52h.83v1.52h1v.65h-1v3.05c0,.18.04.29.13.36.09.06.21.09.36.09.07,0,.15,0,.23-.02s.15-.03.19-.04h.03v.7c-.11.03-.22.05-.34.06-.11.01-.23.02-.34.02Z"/>
    <path class="cls-1" d="M190.06,178.85v-4.83h.83v.72h.03c.1-.18.22-.33.36-.45s.31-.22.49-.29c.18-.07.37-.1.58-.1.29,0,.55.08.77.23.22.15.38.37.48.67h.02c.17-.3.39-.53.66-.67.26-.15.54-.22.84-.22s.56.06.78.18c.22.12.4.3.52.53.13.23.19.52.19.85v3.38h-.83v-3.3c0-.3-.08-.53-.25-.69s-.38-.25-.62-.25c-.2,0-.39.05-.56.16-.17.11-.31.26-.42.45-.11.19-.16.41-.16.66v2.98h-.83v-3.3c0-.3-.08-.53-.23-.69-.15-.17-.35-.25-.6-.25-.19,0-.38.05-.56.16s-.34.26-.46.45c-.12.19-.18.41-.18.66v2.98h-.84Z"/>
    <path class="cls-1" d="M199.83,178.98c-.5,0-.92-.11-1.27-.34s-.62-.54-.81-.92c-.19-.39-.28-.81-.28-1.29s.1-.89.29-1.28c.19-.38.46-.69.81-.92.35-.23.75-.34,1.21-.34.36,0,.68.07.95.2s.51.32.7.55c.2.24.35.53.45.86.1.34.15.71.15,1.12h-3.71c.02.31.1.6.22.85s.29.45.5.6.48.22.79.22c.33,0,.61-.07.83-.22.22-.15.37-.35.45-.6h.82c-.07.3-.2.56-.39.79-.19.23-.43.4-.72.53-.29.13-.62.19-.99.19ZM198.34,176.03h2.8c-.01-.31-.08-.58-.18-.8s-.26-.39-.46-.51c-.2-.12-.44-.18-.71-.18-.29,0-.54.06-.74.19s-.36.3-.47.53c-.12.22-.19.48-.23.76Z"/>
    <path class="cls-1" d="M202.93,178.85v-4.83h.83v.69h.03c.12-.16.25-.31.4-.42.15-.12.32-.21.5-.28.19-.07.4-.1.63-.1.34,0,.63.06.87.18.24.12.43.3.56.53.13.23.2.52.2.85v3.38h-.83v-3.27c0-.31-.09-.55-.28-.72-.19-.17-.45-.25-.78-.25-.25,0-.47.06-.66.16-.19.11-.35.26-.46.46-.11.2-.17.42-.17.68v2.94h-.84Z"/>
    <path class="cls-1" d="M209.53,178.89c-.21,0-.4-.03-.57-.1-.17-.06-.29-.17-.39-.31-.09-.14-.14-.33-.14-.57v-3.24h-.76v-.65h.76v-1.52h.83v1.52h1v.65h-1v3.05c0,.18.04.29.13.36.09.06.21.09.36.09.07,0,.15,0,.23-.02s.15-.03.19-.04h.03v.7c-.11.03-.22.05-.34.06-.11.01-.23.02-.34.02Z"/>
  </g>
  <g>
    <path class="cls-1" d="M171.63,193.25v-6.7h4.58v.81h-3.66v2h3.05v.78h-3.05v3.1h-.92Z"/>
    <path class="cls-1" d="M178.81,193.39c-.48,0-.9-.11-1.26-.34s-.63-.54-.82-.92c-.19-.38-.29-.81-.29-1.29s.1-.89.29-1.28c.19-.38.46-.69.82-.92s.77-.34,1.26-.34.91.11,1.26.34.62.53.81.92c.19.38.28.81.28,1.28s-.09.9-.28,1.29c-.19.39-.46.69-.81.92s-.77.34-1.26.34ZM178.8,192.7c.33,0,.61-.08.83-.25s.39-.39.5-.67c.11-.28.17-.6.17-.94s-.06-.66-.17-.95c-.11-.28-.28-.51-.5-.67s-.5-.25-.83-.25-.6.08-.83.25c-.22.17-.39.39-.51.67-.11.28-.17.6-.17.95s.06.66.17.94c.11.28.28.5.51.67.22.17.5.25.83.25Z"/>
    <path class="cls-1" d="M184.15,193.38c-.48,0-.9-.11-1.25-.34-.35-.23-.63-.54-.82-.92-.19-.39-.29-.81-.29-1.29s.1-.89.29-1.28c.19-.38.46-.69.82-.92.35-.23.77-.34,1.25-.34.39,0,.73.07,1.02.21.29.14.53.33.71.59.18.25.3.55.36.9h-.83c-.04-.21-.11-.39-.22-.54s-.25-.27-.42-.35-.38-.12-.61-.12c-.33,0-.6.08-.83.25-.22.17-.39.39-.51.67-.11.28-.17.6-.17.94s.06.66.17.94c.11.28.28.5.51.67.22.17.5.25.83.25.38,0,.68-.1.9-.31.22-.21.34-.49.37-.85h.83c-.04.38-.14.71-.32.99s-.41.49-.71.63c-.3.15-.66.22-1.07.22Z"/>
    <path class="cls-1" d="M188.7,193.36c-.33,0-.62-.06-.87-.19s-.44-.31-.57-.56c-.13-.24-.2-.53-.2-.86v-3.33h.83v3.29c0,.3.09.54.28.71.18.17.44.26.78.26.25,0,.46-.06.64-.17s.32-.27.42-.47c.1-.2.15-.42.15-.67v-2.94h.84v4.83h-.83v-.68h-.02c-.11.16-.24.3-.37.42-.14.12-.29.21-.47.27s-.38.1-.61.1Z"/>
    <path class="cls-1" d="M194.02,193.38c-.44,0-.82-.07-1.13-.2-.31-.13-.56-.32-.73-.56-.17-.24-.27-.53-.3-.85h.85c.05.35.2.6.44.73.25.14.54.2.89.2.38,0,.66-.07.83-.22.17-.15.26-.33.26-.54,0-.18-.05-.31-.14-.41s-.23-.18-.41-.24-.42-.12-.7-.18c-.24-.05-.46-.1-.68-.16s-.41-.14-.58-.24c-.17-.1-.3-.23-.4-.4-.1-.17-.15-.39-.15-.65s.07-.52.21-.72c.14-.2.34-.36.6-.47.26-.11.58-.17.96-.17.4,0,.74.06,1.02.18s.48.28.63.49.24.46.28.73h-.83c-.02-.17-.08-.31-.17-.42-.09-.11-.21-.2-.36-.26s-.35-.09-.58-.09c-.33,0-.57.07-.71.2-.15.13-.22.29-.22.48,0,.17.05.3.15.39.1.09.25.16.44.22s.42.11.7.16c.24.05.47.1.68.16.21.06.41.15.57.25.17.11.3.25.39.43.1.18.14.41.14.69,0,.33-.08.6-.25.82-.17.22-.39.39-.69.5s-.63.17-1.01.17Z"/>
  </g>
  <g>
    <path class="cls-1" d="M166.56,208.35c-.51,0-.96-.09-1.37-.26s-.75-.42-1.03-.73-.5-.68-.65-1.1c-.15-.42-.23-.89-.23-1.39s.08-.96.23-1.39c.15-.42.37-.79.65-1.1.28-.31.63-.55,1.03-.73s.86-.26,1.37-.26.96.09,1.36.26.75.42,1.04.73c.29.31.5.68.66,1.1.15.42.23.89.23,1.39s-.08.96-.23,1.39-.37.79-.66,1.1c-.29.31-.63.56-1.04.73s-.86.26-1.36.26ZM166.56,207.54c.38,0,.72-.07,1.01-.2s.53-.32.73-.56.34-.52.44-.85.15-.68.15-1.06-.05-.74-.15-1.07-.25-.61-.44-.85c-.2-.24-.44-.43-.73-.56s-.62-.2-1.01-.2-.72.07-1.01.2c-.29.13-.54.32-.73.56-.2.24-.35.53-.45.85-.1.33-.15.68-.15,1.07s.05.73.15,1.06c.1.33.25.61.45.85.2.24.44.43.73.56.29.13.63.2,1.01.2Z"/>
    <path class="cls-1" d="M170.85,209.86v-6.47h.83v.74h.03c.12-.18.25-.34.4-.47s.32-.23.5-.3c.19-.07.4-.1.63-.1.41,0,.77.1,1.08.31.31.2.56.5.73.88s.26.83.26,1.36-.08.96-.25,1.35c-.17.38-.41.68-.72.89-.31.21-.69.31-1.12.31-.33,0-.62-.07-.88-.2-.26-.13-.47-.33-.64-.58h-.03c0,.08.01.19.02.33,0,.13,0,.29,0,.48v1.48h-.84ZM173.13,207.66c.3,0,.55-.08.75-.24.2-.16.35-.38.45-.66.1-.28.15-.59.15-.94s-.05-.67-.15-.95c-.1-.28-.25-.5-.44-.66-.2-.16-.44-.24-.74-.24-.34,0-.62.08-.84.25-.22.17-.39.39-.49.67-.11.28-.16.59-.16.93s.05.65.15.93.26.5.48.66c.22.16.5.25.86.25Z"/>
    <path class="cls-1" d="M178.32,208.35c-.5,0-.92-.11-1.27-.34s-.62-.54-.81-.92c-.19-.39-.28-.81-.28-1.29s.1-.89.29-1.28c.19-.38.46-.69.81-.92.35-.23.75-.34,1.21-.34.36,0,.68.07.95.2s.51.32.7.55c.2.24.35.53.45.86.1.34.15.71.15,1.12h-3.71c.02.31.1.6.22.85s.29.45.5.6.48.22.79.22c.33,0,.61-.07.83-.22.22-.15.37-.35.45-.6h.82c-.07.3-.2.56-.39.79-.19.23-.43.4-.72.53-.29.13-.62.19-.99.19ZM176.83,205.4h2.8c-.01-.31-.08-.58-.18-.8s-.26-.39-.46-.51c-.2-.12-.44-.18-.71-.18-.29,0-.54.06-.74.19s-.36.3-.47.53c-.12.22-.19.48-.23.76Z"/>
    <path class="cls-1" d="M181.42,208.22v-4.83h.83v.69h.03c.12-.16.25-.31.4-.42.15-.12.32-.21.5-.28.19-.07.4-.1.63-.1.34,0,.63.06.87.18.24.12.43.3.56.53.13.23.2.52.2.85v3.38h-.83v-3.27c0-.31-.09-.55-.28-.72-.19-.17-.45-.25-.78-.25-.25,0-.47.06-.66.16-.19.11-.35.26-.46.46-.11.2-.17.42-.17.68v2.94h-.84Z"/>
    <path class="cls-1" d="M186.55,208.22v-4.83h.83v.69h.03c.12-.16.25-.31.4-.42.15-.12.31-.21.5-.28.19-.07.4-.1.63-.1.34,0,.63.06.87.18.24.12.43.3.56.53.13.23.2.52.2.85v3.38h-.83v-3.27c0-.31-.09-.55-.28-.72-.19-.17-.45-.25-.78-.25-.25,0-.47.06-.66.16-.19.11-.34.26-.45.46-.11.2-.17.42-.17.68v2.94h-.84Z"/>
    <path class="cls-1" d="M193.79,208.35c-.5,0-.92-.11-1.27-.34s-.62-.54-.81-.92c-.19-.39-.28-.81-.28-1.29s.1-.89.29-1.28c.19-.38.46-.69.81-.92.35-.23.75-.34,1.21-.34.36,0,.68.07.95.2s.51.32.7.55c.2.24.35.53.45.86.1.34.15.71.15,1.12h-3.71c.02.31.1.6.22.85s.29.45.5.6.48.22.79.22c.33,0,.61-.07.83-.22.22-.15.37-.35.45-.6h.82c-.07.3-.2.56-.39.79-.19.23-.43.4-.72.53-.29.13-.62.19-.99.19ZM192.3,205.4h2.8c-.01-.31-.08-.58-.18-.8s-.26-.39-.46-.51c-.2-.12-.44-.18-.71-.18-.29,0-.54.06-.74.19s-.36.3-.47.53c-.12.22-.19.48-.23.76Z"/>
    <path class="cls-1" d="M198.74,208.35c-.44,0-.82-.07-1.13-.2-.31-.13-.56-.32-.73-.56-.17-.24-.27-.53-.3-.85h.85c.05.35.2.6.44.73.25.14.54.2.89.2.38,0,.66-.07.83-.22.17-.15.26-.33.26-.54,0-.18-.05-.31-.14-.41s-.23-.18-.41-.24-.42-.12-.7-.18c-.24-.05-.46-.1-.68-.16s-.41-.14-.58-.24c-.17-.1-.3-.23-.4-.4-.1-.17-.15-.39-.15-.65s.07-.52.21-.72c.14-.2.34-.36.6-.47.26-.11.58-.17.96-.17.4,0,.74.06,1.02.18s.48.28.63.49.24.46.28.73h-.83c-.02-.17-.08-.31-.17-.42-.09-.11-.21-.2-.36-.26s-.35-.09-.58-.09c-.33,0-.57.07-.71.2-.15.13-.22.29-.22.48,0,.17.05.3.15.39.1.09.25.16.44.22s.42.11.7.16c.24.05.47.1.68.16.21.06.41.15.57.25.17.11.3.25.39.43.1.18.14.41.14.69,0,.33-.08.6-.25.82-.17.22-.39.39-.69.5s-.63.17-1.01.17Z"/>
    <path class="cls-1" d="M203.44,208.35c-.44,0-.82-.07-1.13-.2-.31-.13-.56-.32-.73-.56-.17-.24-.27-.53-.3-.85h.85c.05.35.2.6.44.73.25.14.54.2.89.2.38,0,.66-.07.83-.22.17-.15.26-.33.26-.54,0-.18-.04-.31-.14-.41s-.23-.18-.41-.24-.42-.12-.7-.18c-.24-.05-.46-.1-.68-.16s-.41-.14-.58-.24c-.17-.1-.3-.23-.4-.4-.1-.17-.15-.39-.15-.65s.07-.52.21-.72c.14-.2.34-.36.6-.47.26-.11.58-.17.96-.17.4,0,.74.06,1.01.18s.48.28.63.49.24.46.28.73h-.83c-.02-.17-.08-.31-.17-.42-.09-.11-.21-.2-.36-.26s-.35-.09-.58-.09c-.33,0-.57.07-.71.2-.15.13-.22.29-.22.48,0,.17.05.3.15.39.1.09.25.16.44.22s.42.11.7.16c.24.05.47.1.68.16.21.06.41.15.57.25.17.11.29.25.39.43.09.18.14.41.14.69,0,.33-.08.6-.25.82-.17.22-.39.39-.69.5s-.63.17-1.01.17Z"/>
  </g>
  <g>
    <path class="cls-1" d="M167.88,222.23v-6.7h3.13c.4,0,.75.08,1.05.23.3.15.53.37.7.65.17.28.25.6.25.97,0,.41-.09.75-.28,1.04-.18.29-.5.5-.94.64v.03c.25.07.45.18.59.31.14.13.25.3.31.52s.11.49.13.82c.02.23.04.44.06.61s.04.32.07.44.05.21.08.28c.03.07.07.11.1.14v.04h-.98s-.09-.11-.11-.21-.05-.25-.06-.45c-.02-.2-.04-.48-.06-.84-.03-.47-.15-.8-.36-1s-.54-.29-.97-.29h-1.78v2.79h-.92ZM168.8,218.7h1.92c.45,0,.79-.11,1.02-.32s.34-.5.34-.87c0-.39-.1-.69-.3-.89s-.54-.3-1.01-.3h-1.96v2.37Z"/>
    <path class="cls-1" d="M176.11,222.36c-.5,0-.92-.11-1.27-.34s-.62-.54-.81-.92c-.19-.39-.28-.81-.28-1.29s.1-.89.29-1.28c.19-.38.46-.69.81-.92.35-.23.75-.34,1.21-.34.36,0,.68.07.95.2s.51.32.7.55c.2.24.35.53.45.86.1.34.15.71.15,1.12h-3.71c.02.31.1.6.22.85s.29.45.5.6.48.22.79.22c.33,0,.61-.07.83-.22.22-.15.37-.35.45-.6h.82c-.07.3-.2.56-.39.79-.19.23-.43.4-.72.53-.29.13-.62.19-.99.19ZM174.63,219.41h2.8c-.01-.31-.08-.58-.18-.8s-.26-.39-.46-.51c-.2-.12-.44-.18-.71-.18-.29,0-.54.06-.74.19s-.36.3-.47.53c-.12.22-.19.48-.23.76Z"/>
    <path class="cls-1" d="M181.07,222.36c-.44,0-.82-.07-1.13-.2-.31-.13-.56-.32-.73-.56-.17-.24-.27-.53-.3-.85h.85c.05.35.2.6.44.73.25.14.54.2.89.2.38,0,.66-.07.83-.22.17-.15.26-.33.26-.54,0-.18-.05-.31-.14-.41s-.23-.18-.41-.24-.42-.12-.7-.18c-.24-.05-.46-.1-.68-.16s-.41-.14-.58-.24c-.17-.1-.3-.23-.4-.4-.1-.17-.15-.39-.15-.65s.07-.52.21-.72c.14-.2.34-.36.6-.47.26-.11.58-.17.96-.17.4,0,.74.06,1.02.18s.48.28.63.49.24.46.28.73h-.83c-.02-.17-.08-.31-.17-.42-.09-.11-.21-.2-.36-.26s-.35-.09-.58-.09c-.33,0-.57.07-.71.2-.15.13-.22.29-.22.48,0,.17.05.3.15.39.1.09.25.16.44.22s.42.11.7.16c.24.05.47.1.68.16.21.06.41.15.57.25.17.11.3.25.39.43.1.18.14.41.14.69,0,.33-.08.6-.25.82-.17.22-.39.39-.69.5s-.63.17-1.01.17Z"/>
    <path class="cls-1" d="M183.91,223.87v-6.47h.83v.74h.03c.12-.18.25-.34.4-.47s.32-.23.5-.3c.19-.07.4-.1.63-.1.41,0,.77.1,1.08.31.31.2.56.5.73.88s.26.83.26,1.36-.08.96-.25,1.35c-.17.38-.41.68-.72.89-.31.21-.69.31-1.12.31-.33,0-.62-.07-.88-.2-.26-.13-.47-.33-.64-.58h-.03c0,.08.01.19.02.33,0,.13,0,.29,0,.48v1.48h-.84ZM186.19,221.67c.3,0,.55-.08.75-.24.2-.16.35-.38.45-.66.1-.28.15-.59.15-.94s-.05-.67-.15-.95c-.1-.28-.25-.5-.44-.66-.2-.16-.44-.24-.74-.24-.34,0-.62.08-.84.25-.22.17-.39.39-.49.67-.11.28-.16.59-.16.93s.05.65.15.93.26.5.48.66c.22.16.5.25.86.25Z"/>
    <path class="cls-1" d="M191.37,222.36c-.5,0-.92-.11-1.27-.34s-.62-.54-.81-.92c-.19-.39-.28-.81-.28-1.29s.1-.89.29-1.28c.19-.38.46-.69.81-.92.35-.23.75-.34,1.21-.34.36,0,.68.07.95.2s.51.32.7.55c.2.24.35.53.45.86.1.34.15.71.15,1.12h-3.71c.02.31.1.6.22.85s.29.45.5.6.48.22.79.22c.33,0,.61-.07.83-.22.22-.15.37-.35.45-.6h.82c-.07.3-.2.56-.39.79-.19.23-.43.4-.72.53-.29.13-.62.19-.99.19ZM189.89,219.41h2.8c-.01-.31-.08-.58-.18-.8s-.26-.39-.46-.51c-.2-.12-.44-.18-.71-.18-.29,0-.54.06-.74.19s-.36.3-.47.53c-.12.22-.19.48-.23.76Z"/>
    <path class="cls-1" d="M196.57,222.36c-.48,0-.9-.11-1.25-.34-.35-.23-.63-.54-.82-.92-.19-.39-.29-.81-.29-1.29s.1-.89.29-1.28c.19-.38.46-.69.82-.92.35-.23.77-.34,1.25-.34.39,0,.73.07,1.02.21.29.14.53.33.71.59.18.25.3.55.36.9h-.83c-.04-.21-.11-.39-.22-.54s-.25-.27-.42-.35-.38-.12-.61-.12c-.33,0-.6.08-.83.25-.22.17-.39.39-.51.67-.11.28-.17.6-.17.94s.06.66.17.94c.11.28.28.5.51.67.22.17.5.25.83.25.38,0,.68-.1.9-.31.22-.21.34-.49.37-.85h.83c-.04.38-.14.71-.32.99s-.41.49-.71.63c-.3.15-.66.22-1.07.22Z"/>
    <path class="cls-1" d="M201.07,222.27c-.21,0-.4-.03-.57-.1-.17-.06-.29-.17-.39-.31-.09-.14-.14-.33-.14-.57v-3.24h-.76v-.65h.76v-1.52h.83v1.52h1v.65h-1v3.05c0,.18.04.29.13.36.09.06.21.09.36.09.07,0,.15,0,.23-.02s.15-.03.19-.04h.03v.7c-.11.03-.22.05-.34.06-.11.01-.23.02-.34.02Z"/>
  </g>
  <g>
    <path class="cls-1" d="M169.52,237.16c-.48,0-.91-.09-1.3-.26-.39-.17-.72-.41-1-.73-.28-.31-.49-.68-.64-1.1-.15-.42-.22-.89-.22-1.39s.07-.95.22-1.37.35-.79.63-1.11c.28-.31.61-.56,1-.74s.84-.26,1.33-.26c.39,0,.75.05,1.06.16s.58.25.8.43c.24.2.43.43.57.69.14.27.24.56.28.87h-.92c-.05-.27-.15-.51-.31-.71-.16-.2-.36-.36-.62-.47-.25-.11-.55-.17-.89-.17-.47,0-.87.12-1.21.35-.33.23-.58.55-.76.95s-.26.86-.26,1.37.09,1,.28,1.4.44.71.78.94c.33.22.73.34,1.18.34.41,0,.74-.08,1.01-.24.27-.16.47-.38.62-.65.14-.27.23-.56.25-.88h.92c0,.33-.07.66-.21,1s-.34.62-.58.86c-.25.25-.55.43-.89.54-.34.11-.71.17-1.13.17Z"/>
    <path class="cls-1" d="M175.42,237.16c-.48,0-.9-.11-1.26-.34s-.63-.54-.82-.92c-.19-.38-.29-.81-.29-1.29s.1-.89.29-1.28c.19-.38.46-.69.82-.92s.77-.34,1.26-.34.91.11,1.26.34.62.53.81.92c.19.38.28.81.28,1.28s-.09.9-.28,1.29c-.19.39-.46.69-.81.92s-.77.34-1.26.34ZM175.41,236.47c.33,0,.61-.08.83-.25s.39-.39.5-.67c.11-.28.17-.6.17-.94s-.06-.66-.17-.95c-.11-.28-.28-.51-.5-.67s-.5-.25-.83-.25-.6.08-.83.25c-.22.17-.39.39-.51.67-.11.28-.17.6-.17.95s.06.66.17.94c.11.28.28.5.51.67.22.17.5.25.83.25Z"/>
    <path class="cls-1" d="M180.27,237.14c-.33,0-.62-.06-.87-.19s-.44-.31-.57-.56c-.13-.24-.2-.53-.2-.86v-3.33h.83v3.29c0,.3.09.54.28.71.18.17.44.26.78.26.25,0,.46-.06.64-.17s.32-.27.42-.47c.1-.2.15-.42.15-.67v-2.94h.84v4.83h-.83v-.68h-.02c-.11.16-.24.3-.37.42-.14.12-.29.21-.47.27s-.38.1-.61.1Z"/>
    <path class="cls-1" d="M183.74,237.03v-4.83h.83v.87h.03c.15-.28.34-.5.58-.68s.52-.26.84-.26c.07,0,.12,0,.17.01.04,0,.09.02.14.04v.79h-.03c-.06-.02-.11-.03-.16-.04-.05,0-.11,0-.18,0-.19,0-.36.03-.53.1-.17.07-.31.16-.44.29-.13.13-.23.28-.3.46-.07.18-.11.38-.11.61v2.63h-.84Z"/>
    <path class="cls-1" d="M188.41,237.13c-.3,0-.58-.05-.83-.15-.25-.1-.45-.25-.59-.46-.15-.21-.22-.46-.22-.77,0-.38.09-.66.26-.86.17-.2.42-.35.73-.44.31-.09.68-.17,1.09-.22.24-.03.44-.06.62-.11s.31-.11.41-.2c.09-.09.14-.22.14-.38,0-.26-.09-.47-.27-.62-.18-.15-.43-.23-.76-.23-.38,0-.67.08-.85.25-.19.17-.29.4-.31.68h-.81c.01-.28.09-.53.24-.76.14-.23.36-.42.65-.57.29-.14.65-.22,1.08-.22.23,0,.44.02.64.06s.38.11.53.2c.2.12.36.29.47.51s.17.49.17.81v2.26c0,.18.03.31.08.41.05.1.15.15.28.15.03,0,.06,0,.09,0,.03,0,.05-.01.08-.02h.03v.58c-.06.02-.12.03-.19.05-.07.01-.16.02-.26.02-.16,0-.31-.04-.44-.11s-.23-.18-.31-.33c-.07-.15-.11-.34-.11-.58v-.05l.06.29h-.06c-.14.21-.35.4-.61.56-.26.17-.6.25-1.01.25ZM188.61,236.51c.32,0,.59-.07.79-.2s.36-.3.46-.5c.1-.2.15-.39.15-.57v-.79c-.08.05-.18.1-.29.14s-.24.08-.37.12c-.13.03-.26.06-.39.09-.26.04-.49.1-.69.16-.2.06-.35.15-.46.27-.11.12-.17.29-.17.51,0,.21.05.36.14.48.09.11.21.19.36.23.15.04.3.06.46.06Z"/>
    <path class="cls-1" d="M194.07,238.72c-.64,0-1.13-.12-1.48-.36-.35-.24-.55-.57-.59-1h.78c.04.25.17.43.4.54.23.11.52.17.88.17.43,0,.76-.1.99-.3.23-.2.35-.5.35-.91v-.14c0-.14,0-.27,0-.39,0-.12,0-.22.01-.3h-.02c-.17.24-.36.43-.59.56s-.51.21-.85.21c-.41,0-.77-.1-1.09-.3-.32-.2-.57-.48-.75-.83-.18-.36-.27-.77-.27-1.24,0-.5.09-.92.28-1.27.19-.35.44-.62.75-.81s.66-.28,1.04-.28c.23,0,.44.03.62.09.18.06.34.14.48.25.14.11.26.25.36.41h.02v-.64h.83v4.64c0,.32-.05.6-.15.84-.1.24-.25.44-.43.6-.19.16-.41.27-.68.35-.27.07-.56.11-.88.11ZM194.03,236.13c.35,0,.63-.08.83-.23s.35-.36.44-.61c.09-.26.13-.55.13-.88s-.05-.63-.15-.88c-.1-.24-.26-.43-.47-.56-.21-.13-.48-.2-.8-.2-.29,0-.54.07-.74.21-.2.14-.35.33-.45.59s-.15.55-.15.89.05.64.15.89c.1.25.25.44.45.58.2.14.44.2.74.2Z"/>
    <path class="cls-1" d="M199.48,237.16c-.5,0-.92-.11-1.27-.34s-.62-.54-.81-.92c-.19-.39-.28-.81-.28-1.29s.1-.89.29-1.28c.19-.38.46-.69.81-.92.35-.23.75-.34,1.21-.34.36,0,.68.07.95.2s.51.32.7.55c.2.24.35.53.45.86.1.34.15.71.15,1.12h-3.71c.02.31.09.6.21.85s.29.45.51.6.48.22.79.22c.33,0,.61-.07.83-.22.22-.15.37-.35.45-.6h.82c-.07.3-.2.56-.39.79-.19.23-.43.4-.72.53-.29.13-.62.19-.99.19ZM197.99,234.2h2.8c-.01-.31-.08-.58-.18-.8s-.26-.39-.46-.51c-.2-.12-.44-.18-.71-.18-.29,0-.54.06-.74.19s-.36.3-.47.53c-.12.22-.19.48-.23.76Z"/>
  </g>
  <polygon class="cls-6" points="126.9 .62 1.9 91.8 251.9 91.8 126.9 .62"/>
  <g>
    <path class="cls-2" d="M96.77,69.75c-1.46,0-2.67-.24-3.64-.72s-1.71-1.12-2.21-1.94-.79-1.72-.85-2.71h2.12c.09.79.32,1.45.69,1.99.37.54.89.95,1.55,1.23s1.46.42,2.4.42c.7,0,1.32-.1,1.86-.3s.96-.51,1.27-.93.46-.94.46-1.57c0-.68-.19-1.21-.56-1.59-.38-.38-.91-.68-1.59-.9-.69-.22-1.49-.43-2.41-.64-.69-.14-1.34-.32-1.96-.52-.62-.2-1.16-.46-1.64-.78-.48-.32-.85-.73-1.12-1.23s-.41-1.12-.41-1.87c0-.88.23-1.62.69-2.25s1.09-1.1,1.9-1.43c.81-.33,1.75-.5,2.82-.5.96,0,1.8.11,2.5.34s1.29.55,1.77.96c.47.41.85.9,1.12,1.46.27.56.46,1.17.55,1.84h-2.08c-.13-.94-.53-1.67-1.19-2.17-.67-.5-1.55-.75-2.65-.75-1.03,0-1.85.21-2.47.62s-.93,1-.93,1.78c0,.57.17,1.02.52,1.35.35.33.83.59,1.44.78.61.19,1.31.37,2.09.53.76.15,1.48.33,2.17.53s1.31.48,1.85.82.97.79,1.28,1.36c.31.56.47,1.28.47,2.16,0,.98-.25,1.82-.75,2.51-.5.69-1.19,1.21-2.06,1.56s-1.88.53-3,.53Z"/>
    <path class="cls-2" d="M111.91,69.76c-1.11,0-2.12-.2-3.02-.6-.9-.4-1.68-.96-2.32-1.69-.65-.73-1.14-1.59-1.49-2.58s-.52-2.07-.52-3.25.17-2.21.5-3.2.82-1.84,1.47-2.58c.64-.73,1.42-1.31,2.34-1.72s1.95-.62,3.11-.62c.92,0,1.74.12,2.47.37s1.36.58,1.88,1c.56.46,1.01,1,1.34,1.62s.55,1.3.66,2.03h-2.14c-.12-.63-.36-1.18-.72-1.65s-.84-.84-1.44-1.11-1.29-.4-2.09-.4c-1.1,0-2.04.27-2.81.81-.78.54-1.37,1.29-1.77,2.23s-.6,2.01-.6,3.2.22,2.33.65,3.27,1.04,1.67,1.82,2.19c.78.52,1.7.78,2.74.78.95,0,1.74-.19,2.36-.57.62-.38,1.1-.88,1.44-1.51.33-.62.53-1.31.59-2.05h2.14c0,.77-.18,1.55-.5,2.32s-.78,1.45-1.36,2.01c-.59.58-1.28,1-2.07,1.27-.79.26-1.67.39-2.64.39Z"/>
    <path class="cls-2" d="M121.02,69.45v-15.63h7.3c.94,0,1.75.18,2.46.54.7.36,1.25.86,1.64,1.51.39.65.59,1.4.59,2.26,0,.95-.22,1.76-.65,2.42-.43.67-1.17,1.16-2.21,1.48v.06c.59.17,1.05.41,1.38.71.33.3.57.71.72,1.21s.25,1.13.31,1.91c.04.55.08,1.02.13,1.43s.1.75.15,1.03.12.5.19.66c.07.16.15.26.24.32v.1h-2.3c-.12-.1-.21-.27-.27-.49s-.11-.58-.15-1.05c-.04-.48-.09-1.13-.15-1.96-.07-1.1-.35-1.88-.84-2.33s-1.25-.68-2.27-.68h-4.15v6.51h-2.14ZM123.17,61.22h4.47c1.06,0,1.85-.25,2.38-.75.53-.5.79-1.17.79-2.02,0-.92-.24-1.61-.71-2.07-.47-.46-1.26-.7-2.36-.7h-4.57v5.54Z"/>
    <path class="cls-2" d="M141.71,69.72c-1.17,0-2.21-.18-3.11-.55-.91-.37-1.62-.94-2.14-1.73s-.78-1.81-.78-3.08v-10.54h2.14v10.36c0,.86.15,1.57.46,2.11.31.55.75.95,1.34,1.21.58.26,1.29.38,2.13.38s1.5-.13,2.07-.38c.57-.26,1.01-.66,1.32-1.21.3-.55.46-1.25.46-2.11v-10.36h2.14v10.54c0,1.26-.26,2.29-.79,3.08-.53.79-1.25,1.36-2.16,1.73-.91.37-1.93.55-3.08.55Z"/>
    <path class="cls-2" d="M150.72,69.45v-15.63h2.77l3.25,8.49c.16.42.34.91.52,1.47s.36,1.09.51,1.61c.16.52.34,1.13.54,1.81h.04c.21-.68.39-1.28.55-1.8.16-.52.34-1.06.52-1.62s.36-1.05.52-1.48l3.19-8.49h2.86v15.63h-2.06v-9.45c0-.35,0-.75.02-1.21.01-.45.03-.9.04-1.32s.03-.92.06-1.48h-.04c-.14.51-.26.95-.37,1.33s-.23.78-.35,1.18c-.13.4-.25.76-.36,1.06l-3.8,9.9h-1.68l-3.78-9.9c-.12-.3-.24-.65-.36-1.06-.13-.4-.25-.8-.36-1.18-.11-.38-.24-.83-.38-1.33h-.04c.03.56.05,1.05.06,1.48s.03.87.04,1.32c.01.46.02.86.02,1.21v9.45h-1.93Z"/>
  </g>
  <rect class="cls-3" x="2.1" y="91.8" width="30" height="150"/>
  <g>
    <path class="cls-2" d="M21.21,201.92h-9.15v3.42h-1.26v-8.29h1.26v3.43h9.15v1.44Z"/>
    <path class="cls-2" d="M21.21,196.77h-7.52v-1.29h1.36v-.05c-.43-.23-.78-.53-1.05-.91s-.4-.82-.4-1.31c0-.1,0-.19.02-.26s.03-.14.06-.22h1.23v.04c-.03.09-.05.17-.05.25s-.01.17-.01.28c0,.29.05.57.16.82s.26.49.45.69.44.36.72.47.6.17.95.17h4.09v1.31Z"/>
    <path class="cls-2" d="M21.37,189.5c0,.47-.08.9-.24,1.29s-.4.69-.71.92-.72.34-1.2.34c-.58,0-1.03-.13-1.34-.4s-.54-.65-.69-1.13-.26-1.05-.33-1.7c-.04-.37-.1-.69-.16-.96s-.17-.48-.32-.63-.34-.22-.6-.22c-.41,0-.73.14-.96.42s-.35.67-.35,1.19c0,.59.13,1.04.39,1.33s.62.45,1.06.48v1.26c-.43-.02-.82-.15-1.19-.37s-.66-.56-.88-1-.33-1-.33-1.68c0-.36.03-.69.1-1s.17-.58.31-.82c.19-.31.45-.56.79-.74s.76-.27,1.26-.27h3.51c.27,0,.49-.04.64-.12s.23-.23.23-.44c0-.05,0-.09-.01-.14s-.02-.08-.03-.12v-.04h.91c.03.09.05.19.08.3s.03.25.03.4c0,.26-.05.49-.16.69s-.28.37-.51.48-.53.17-.9.17h-.08l.44-.09v.09c.33.22.62.54.88.95s.39.93.39,1.57ZM20.41,189.18c0-.5-.1-.91-.31-1.24s-.47-.56-.77-.72-.6-.24-.89-.24h-1.23c.08.12.15.28.22.46s.13.38.18.58.1.41.13.61c.07.41.15.77.25,1.07s.24.54.42.71.45.26.8.26c.32,0,.57-.07.74-.22s.3-.33.36-.56.1-.47.1-.72Z"/>
    <path class="cls-2" d="M21.21,183.88h-7.52v-1.29h1.07v-.05c-.26-.18-.48-.39-.66-.62s-.33-.49-.43-.78-.15-.62-.15-.98c0-.52.1-.97.29-1.35s.47-.67.83-.87.81-.31,1.33-.31h5.25v1.29h-5.09c-.49,0-.86.15-1.12.44s-.39.7-.39,1.21c0,.39.09.73.26,1.03s.41.54.71.71.66.26,1.06.26h4.58v1.31Z"/>
    <path class="cls-2" d="M21.41,173c0,.69-.1,1.28-.31,1.76s-.5.87-.88,1.13-.82.42-1.32.46v-1.32c.55-.08.93-.31,1.14-.69s.32-.84.32-1.38c0-.6-.12-1.03-.35-1.3s-.51-.4-.84-.4c-.27,0-.49.07-.64.21s-.28.36-.38.64-.19.65-.28,1.09c-.08.37-.16.72-.26,1.06s-.22.64-.37.9-.36.47-.63.62-.6.23-1.02.23-.81-.11-1.12-.32-.55-.53-.72-.94-.26-.91-.26-1.49c0-.63.09-1.16.27-1.58s.44-.75.77-.98.71-.38,1.14-.43v1.3c-.26.04-.48.12-.66.26s-.31.32-.41.56-.14.54-.14.9c0,.51.1.88.31,1.11s.45.35.74.35c.26,0,.46-.08.6-.24s.25-.38.33-.68.17-.66.25-1.09c.07-.37.16-.73.25-1.06s.23-.63.39-.89.39-.46.66-.61.64-.22,1.07-.22c.51,0,.93.13,1.27.39s.6.61.78,1.07.26.98.26,1.57Z"/>
    <path class="cls-2" d="M23.76,168.58h-10.07v-1.29h1.16v-.05c-.29-.19-.53-.4-.73-.63s-.35-.49-.46-.79-.16-.62-.16-.98c0-.64.16-1.2.48-1.69s.77-.86,1.36-1.14,1.3-.41,2.12-.41,1.5.13,2.1.4,1.06.64,1.38,1.13.49,1.07.49,1.75c0,.51-.1.97-.31,1.37s-.51.74-.91.99v.05c.13,0,.3-.02.51-.02s.46-.01.75-.01h2.3v1.31ZM20.34,165.04c0-.46-.12-.85-.37-1.16s-.59-.54-1.02-.69-.92-.23-1.47-.23-1.04.08-1.48.23-.78.38-1.03.69-.38.69-.38,1.16c0,.53.13.96.39,1.31s.61.6,1.04.77.92.25,1.45.25,1.01-.08,1.44-.23.78-.4,1.03-.74.38-.79.38-1.34Z"/>
    <path class="cls-2" d="M21.37,157.99c0,.47-.08.9-.24,1.29s-.4.69-.71.92-.72.34-1.2.34c-.58,0-1.03-.13-1.34-.4s-.54-.65-.69-1.13-.26-1.05-.33-1.7c-.04-.37-.1-.69-.16-.96s-.17-.48-.32-.63-.34-.22-.6-.22c-.41,0-.73.14-.96.42s-.35.67-.35,1.19c0,.59.13,1.04.39,1.33s.62.45,1.06.48v1.26c-.43-.02-.82-.15-1.19-.37s-.66-.56-.88-1-.33-1-.33-1.68c0-.36.03-.69.1-1s.17-.58.31-.82c.19-.31.45-.56.79-.74s.76-.27,1.26-.27h3.51c.27,0,.49-.04.64-.12s.23-.23.23-.44c0-.05,0-.09-.01-.14s-.02-.08-.03-.12v-.04h.91c.03.09.05.19.08.3s.03.25.03.4c0,.26-.05.49-.16.69s-.28.37-.51.48-.53.17-.9.17h-.08l.44-.09v.09c.33.22.62.54.88.95s.39.93.39,1.57ZM20.41,157.67c0-.5-.1-.91-.31-1.24s-.47-.56-.77-.72-.6-.24-.89-.24h-1.23c.08.12.15.28.22.46s.13.38.18.58.1.41.13.61c.07.41.15.77.25,1.07s.24.54.42.71.45.26.8.26c.32,0,.57-.07.74-.22s.3-.33.36-.56.1-.47.1-.72Z"/>
    <path class="cls-2" d="M21.21,152.36h-7.52v-1.29h1.36v-.05c-.43-.23-.78-.53-1.05-.91s-.4-.82-.4-1.31c0-.1,0-.19.02-.26s.03-.14.06-.22h1.23v.04c-.03.09-.05.17-.05.25s-.01.17-.01.28c0,.29.05.57.16.82s.26.49.45.69.44.36.72.47.6.17.95.17h4.09v1.31Z"/>
    <path class="cls-2" d="M21.41,144.08c0,.77-.18,1.43-.53,1.98s-.83.96-1.43,1.25-1.27.43-2,.43-1.39-.15-1.99-.45-1.07-.72-1.43-1.26-.53-1.17-.53-1.88c0-.56.1-1.06.31-1.48s.49-.79.85-1.09c.37-.31.82-.54,1.34-.69s1.11-.23,1.75-.23v5.77c.49-.04.93-.15,1.32-.33s.7-.45.93-.79.34-.75.34-1.23c0-.52-.12-.95-.35-1.3s-.54-.58-.94-.69v-1.27c.46.11.87.31,1.23.61s.63.67.83,1.12.3.97.3,1.54ZM16.82,146.39v-4.35c-.48.02-.9.12-1.24.29s-.61.41-.79.71-.28.68-.28,1.11c0,.46.1.84.3,1.15s.47.55.82.73.74.3,1.19.36Z"/>
    <path class="cls-2" d="M21.21,139.26h-7.52v-1.29h1.07v-.05c-.26-.18-.48-.39-.66-.62s-.33-.49-.43-.78-.15-.62-.15-.98c0-.52.1-.97.29-1.35s.47-.67.83-.87.81-.31,1.33-.31h5.25v1.29h-5.09c-.49,0-.86.15-1.12.44s-.39.7-.39,1.21c0,.39.09.73.26,1.03s.41.54.71.71.66.26,1.06.26h4.58v1.31Z"/>
    <path class="cls-2" d="M21.41,128.01c0,.75-.18,1.4-.53,1.94s-.83.97-1.43,1.27-1.27.45-2,.45-1.39-.15-1.99-.45-1.07-.72-1.43-1.27-.53-1.2-.53-1.94c0-.6.11-1.13.32-1.58s.52-.82.91-1.11.86-.47,1.4-.56v1.3c-.33.06-.61.17-.85.34s-.42.39-.55.66-.19.59-.19.95c0,.51.13.94.39,1.29s.6.61,1.04.79.93.26,1.47.26,1.03-.09,1.47-.26.79-.44,1.04-.79.39-.78.39-1.29c0-.59-.16-1.05-.48-1.39s-.76-.54-1.32-.58v-1.29c.6.05,1.11.22,1.54.49s.76.64.99,1.11.35,1.02.35,1.66Z"/>
    <path class="cls-2" d="M23.84,122.5c0,.14,0,.28-.02.42s-.03.28-.06.4-.05.22-.08.29h-1.11v-.06c.03-.07.06-.18.09-.32s.04-.3.04-.46c0-.17-.03-.33-.08-.46s-.15-.26-.28-.36-.32-.21-.56-.3l-.83-.32-7.27,2.93v-1.42l4.18-1.55c.21-.08.43-.16.67-.24s.46-.14.66-.21.44-.13.69-.19v-.03c-.26-.08-.49-.15-.7-.21s-.42-.13-.66-.21-.46-.15-.67-.22l-4.18-1.5v-1.36l8.2,3.19c.53.21.93.41,1.21.63s.47.44.58.7.16.54.16.86Z"/>
  </g>
  <rect class="cls-3" x="222.1" y="91.8" width="30" height="150"/>
  <g>
    <path class="cls-2" d="M241.21,196.49h-10.42v-1.43h10.42v1.43Z"/>
    <path class="cls-2" d="M241.21,193.06h-7.52v-1.29h1.07v-.05c-.25-.18-.47-.39-.66-.62s-.33-.49-.43-.78-.15-.62-.15-.98c0-.52.1-.97.29-1.35.19-.38.47-.67.83-.87s.81-.31,1.33-.31h5.25v1.29h-5.09c-.49,0-.86.15-1.12.44-.26.29-.39.7-.39,1.21,0,.39.09.73.26,1.03s.41.54.71.71c.31.17.66.26,1.06.26h4.58v1.31Z"/>
    <path class="cls-2" d="M241.41,182.19c0,.69-.1,1.28-.31,1.76-.21.49-.5.87-.88,1.13s-.82.42-1.32.46v-1.32c.55-.08.93-.31,1.14-.69s.32-.84.32-1.38c0-.6-.12-1.03-.34-1.3-.23-.27-.51-.4-.84-.4-.27,0-.49.07-.64.21-.15.14-.28.36-.38.64s-.19.65-.28,1.09c-.08.37-.16.72-.26,1.06-.09.34-.22.64-.37.9-.15.26-.36.47-.62.62-.26.15-.6.23-1.02.23s-.81-.11-1.12-.33c-.31-.22-.55-.53-.72-.94s-.26-.91-.26-1.49c0-.63.09-1.16.27-1.58.18-.42.44-.75.77-.98s.71-.38,1.14-.43v1.3c-.26.04-.48.12-.66.26-.18.13-.31.32-.41.56-.09.24-.14.54-.14.9,0,.51.1.88.31,1.11.21.23.45.34.74.34.26,0,.46-.08.6-.24.14-.16.25-.38.33-.68s.17-.66.25-1.09c.07-.37.16-.73.25-1.06.1-.34.23-.63.39-.89.16-.26.39-.46.66-.61.28-.15.64-.22,1.07-.22.51,0,.93.13,1.28.39.34.26.6.61.78,1.07.17.46.26.98.26,1.57Z"/>
    <path class="cls-2" d="M243.76,177.77h-10.07v-1.29h1.16v-.05c-.29-.19-.53-.4-.73-.63-.2-.23-.35-.49-.46-.79-.11-.29-.16-.62-.16-.98,0-.64.16-1.2.48-1.69.32-.48.77-.86,1.36-1.14.59-.27,1.3-.41,2.12-.41s1.5.13,2.1.4,1.05.64,1.38,1.13c.33.49.49,1.07.49,1.75,0,.51-.1.97-.31,1.37-.21.41-.51.74-.91.99v.05c.13,0,.3-.02.51-.02.21,0,.46,0,.75,0h2.3v1.31ZM240.34,174.22c0-.46-.12-.85-.37-1.16-.25-.31-.59-.54-1.02-.69s-.92-.23-1.47-.23-1.04.08-1.48.23c-.43.15-.78.38-1.03.69s-.38.69-.38,1.16c0,.53.13.96.39,1.31.26.34.61.6,1.04.77.43.17.92.25,1.45.25s1.01-.08,1.44-.23c.43-.16.78-.4,1.03-.74.26-.34.38-.79.38-1.34Z"/>
    <path class="cls-2" d="M241.41,166.16c0,.77-.18,1.43-.53,1.98s-.83.96-1.43,1.25c-.6.29-1.27.43-2,.43s-1.39-.15-1.99-.45-1.07-.72-1.43-1.26c-.36-.54-.53-1.17-.53-1.88,0-.56.1-1.05.31-1.48.21-.43.49-.79.85-1.09.37-.31.82-.54,1.34-.69.53-.15,1.11-.23,1.75-.23v5.77c.49-.04.93-.15,1.32-.33.39-.19.7-.45.93-.79.23-.34.34-.75.34-1.23,0-.52-.12-.95-.34-1.29-.23-.34-.54-.58-.94-.69v-1.27c.46.11.87.31,1.23.61.35.3.63.67.83,1.12s.3.97.3,1.54ZM236.82,168.47v-4.35c-.48.02-.9.12-1.24.29-.34.17-.61.41-.79.71-.18.31-.28.68-.28,1.11,0,.46.1.84.3,1.15.2.31.47.55.82.73.35.18.74.3,1.19.36Z"/>
    <path class="cls-2" d="M241.41,158.08c0,.75-.18,1.4-.53,1.95-.36.55-.83.97-1.43,1.27-.6.3-1.27.45-2,.45s-1.39-.15-1.99-.45c-.59-.3-1.07-.72-1.43-1.27-.36-.55-.53-1.2-.53-1.95,0-.6.11-1.13.32-1.58.21-.45.52-.82.91-1.11.39-.29.86-.47,1.4-.56v1.3c-.33.06-.61.17-.85.34-.24.17-.42.39-.55.66-.13.27-.19.59-.19.95,0,.51.13.94.39,1.29.26.35.6.61,1.04.79.44.18.93.26,1.47.26s1.03-.09,1.47-.26c.44-.17.79-.44,1.04-.79.26-.35.39-.78.39-1.29,0-.59-.16-1.05-.48-1.39s-.76-.54-1.32-.58v-1.29c.6.05,1.11.22,1.54.49.43.27.76.64.99,1.11.23.47.34,1.02.34,1.66Z"/>
    <path class="cls-2" d="M241.27,151.08c0,.33-.05.63-.15.89-.1.26-.26.46-.49.6-.22.14-.52.21-.89.21h-5.04v1.18h-1.01v-1.18h-2.37v-1.29h2.37v-1.55h1.01v1.55h4.74c.27,0,.46-.07.55-.21.1-.14.14-.33.14-.56,0-.11-.01-.23-.03-.36-.02-.13-.04-.23-.06-.3v-.04h1.09c.04.17.07.35.09.53s.03.35.03.53Z"/>
    <path class="cls-2" d="M232.3,148.61h-1.51v-1.36h1.51v1.36ZM241.21,148.58h-7.52v-1.31h7.52v1.31Z"/>
    <path class="cls-2" d="M241.42,142.21c0,.75-.18,1.4-.53,1.96s-.83.98-1.43,1.28c-.6.3-1.27.45-2,.45s-1.39-.15-1.99-.45c-.59-.3-1.07-.72-1.43-1.28s-.53-1.2-.53-1.96.18-1.41.53-1.96.83-.97,1.43-1.26c.59-.29,1.26-.44,1.99-.44s1.4.15,2,.44c.6.29,1.08.71,1.43,1.26s.53,1.2.53,1.96ZM240.35,142.23c0-.51-.13-.95-.39-1.29-.26-.35-.61-.61-1.04-.78-.44-.18-.93-.26-1.47-.26s-1.03.09-1.47.26c-.44.17-.79.44-1.05.78s-.39.78-.39,1.29.13.94.39,1.29c.26.35.61.61,1.05.79.44.18.93.26,1.47.26s1.03-.09,1.47-.26c.44-.17.79-.44,1.04-.79.26-.35.39-.78.39-1.29Z"/>
    <path class="cls-2" d="M241.21,137.17h-7.52v-1.29h1.07v-.05c-.25-.18-.47-.39-.66-.62-.18-.23-.33-.49-.43-.78-.1-.29-.15-.62-.15-.98,0-.52.1-.97.29-1.35.19-.38.47-.67.83-.87s.81-.31,1.33-.31h5.25v1.29h-5.09c-.49,0-.86.15-1.12.44-.26.29-.39.7-.39,1.21,0,.39.09.73.26,1.03s.41.54.71.71c.31.17.66.26,1.06.26h4.58v1.31Z"/>
  </g>
  <rect class="cls-3" x="112.1" y="91.8" width="30" height="150"/>
  <g>
    <path class="cls-2" d="M131.21,199.38l-10.42-3.81v-1.59l10.42-3.84v1.57l-3.04,1.03v4.1l3.04,1.07v1.47ZM127.06,196.45v-3.33l-2.91.99c-.34.11-.68.22-1.02.31s-.74.2-1.2.31v.04c.27.07.52.13.74.19.22.06.46.13.72.21s.51.16.75.25l2.91,1.02Z"/>
    <path class="cls-2" d="M131.41,186.28c0,.67-.16,1.26-.49,1.76s-.78.88-1.38,1.15c-.59.27-1.3.41-2.1.41s-1.53-.14-2.12-.43c-.59-.29-1.04-.68-1.36-1.18s-.48-1.05-.48-1.67c0-.36.05-.68.16-.98s.26-.57.46-.8c.2-.23.43-.43.7-.59v-.03c-.17.01-.38.02-.63.03-.25,0-.5.01-.76.01h-2.63v-1.31h10.42v1.29h-1.11v.03c.41.24.72.55.96.94s.35.85.35,1.38ZM130.33,186.18c0-.54-.12-.98-.37-1.32-.25-.34-.59-.59-1.02-.75-.43-.16-.93-.24-1.48-.24s-1.06.09-1.5.26-.77.43-1.02.78c-.25.34-.37.77-.37,1.27,0,.46.13.85.38,1.16s.6.54,1.03.7.93.23,1.48.23,1.04-.08,1.48-.23.77-.39,1.02-.7.37-.7.37-1.16Z"/>
    <path class="cls-2" d="M131.37,178.6c0,.47-.08.9-.24,1.29s-.4.69-.71.92c-.32.22-.72.34-1.2.34-.58,0-1.03-.13-1.34-.4s-.54-.65-.69-1.13c-.15-.48-.26-1.05-.33-1.7-.04-.37-.1-.69-.16-.96s-.17-.48-.32-.63c-.14-.15-.34-.22-.6-.22-.41,0-.73.14-.96.42s-.35.67-.35,1.19c0,.59.13,1.04.39,1.33.26.29.62.45,1.06.47v1.26c-.43-.02-.82-.15-1.19-.37-.36-.23-.66-.56-.88-1.01-.22-.44-.33-1-.33-1.68,0-.36.03-.69.1-1s.17-.58.31-.82c.19-.31.45-.56.79-.74s.76-.27,1.26-.27h3.51c.27,0,.49-.04.64-.12.15-.08.23-.23.23-.44,0-.05,0-.09-.01-.14s-.02-.08-.03-.12v-.04h.91c.03.09.05.19.08.3.02.11.03.25.03.4,0,.25-.05.49-.16.69s-.28.37-.51.48c-.23.12-.53.17-.9.17h-.08l.44-.09v.09c.33.22.62.54.88.95.26.41.39.93.39,1.57ZM130.41,178.28c0-.5-.1-.91-.31-1.24s-.47-.56-.77-.72c-.31-.16-.6-.24-.89-.24h-1.23c.08.12.15.28.22.46s.13.38.18.58.1.41.13.61c.07.41.15.77.25,1.07s.24.54.42.71c.18.17.45.26.8.26.32,0,.57-.07.74-.22.18-.14.3-.33.36-.56.07-.23.1-.47.1-.72Z"/>
    <path class="cls-2" d="M133.76,172.97h-10.07v-1.29h1.16v-.05c-.29-.19-.53-.4-.73-.63s-.35-.49-.46-.79-.16-.62-.16-.98c0-.64.16-1.2.48-1.69.32-.48.77-.86,1.36-1.14s1.3-.41,2.12-.41,1.5.13,2.1.4,1.06.64,1.38,1.13.49,1.07.49,1.75c0,.51-.1.97-.31,1.37s-.51.74-.91.99v.05c.13,0,.3-.02.51-.02.21,0,.46,0,.75,0h2.3v1.31ZM130.34,169.43c0-.46-.12-.85-.37-1.16-.25-.31-.59-.54-1.02-.69s-.92-.23-1.47-.23-1.04.08-1.48.23c-.43.15-.78.38-1.03.69s-.38.69-.38,1.16c0,.53.13.96.39,1.31.26.34.61.6,1.04.77.44.17.92.25,1.45.25s1.01-.08,1.44-.23.78-.4,1.03-.74c.26-.34.38-.79.38-1.34Z"/>
    <path class="cls-2" d="M131.27,162.42c0,.33-.05.63-.15.89-.1.26-.26.46-.49.6-.22.14-.52.21-.89.21h-5.04v1.18h-1.01v-1.18h-2.37v-1.29h2.37v-1.55h1.01v1.55h4.74c.27,0,.46-.07.55-.21.1-.14.14-.33.14-.56,0-.11-.01-.23-.03-.36s-.04-.23-.06-.3v-.04h1.09c.04.17.07.35.09.53s.03.35.03.53Z"/>
    <path class="cls-2" d="M131.37,157.68c0,.47-.08.9-.24,1.29s-.4.69-.71.92c-.32.22-.72.34-1.2.34-.58,0-1.03-.13-1.34-.4s-.54-.65-.69-1.13c-.15-.48-.26-1.05-.33-1.7-.04-.37-.1-.69-.16-.96s-.17-.48-.32-.63c-.14-.15-.34-.22-.6-.22-.41,0-.73.14-.96.42s-.35.67-.35,1.19c0,.59.13,1.04.39,1.33.26.29.62.45,1.06.47v1.26c-.43-.02-.82-.15-1.19-.37-.36-.23-.66-.56-.88-1.01-.22-.44-.33-1-.33-1.68,0-.36.03-.69.1-1s.17-.58.31-.82c.19-.31.45-.56.79-.74s.76-.27,1.26-.27h3.51c.27,0,.49-.04.64-.12.15-.08.23-.23.23-.44,0-.05,0-.09-.01-.14s-.02-.08-.03-.12v-.04h.91c.03.09.05.19.08.3.02.11.03.25.03.4,0,.25-.05.49-.16.69s-.28.37-.51.48c-.23.12-.53.17-.9.17h-.08l.44-.09v.09c.33.22.62.54.88.95.26.41.39.93.39,1.57ZM130.41,157.36c0-.5-.1-.91-.31-1.24s-.47-.56-.77-.72c-.31-.16-.6-.24-.89-.24h-1.23c.08.12.15.28.22.46s.13.38.18.58.1.41.13.61c.07.41.15.77.25,1.07s.24.54.42.71c.18.17.45.26.8.26.32,0,.57-.07.74-.22.18-.14.3-.33.36-.56.07-.23.1-.47.1-.72Z"/>
    <path class="cls-2" d="M131.27,149.77c0,.33-.05.63-.15.89-.1.26-.26.46-.49.6-.22.14-.52.21-.89.21h-5.04v1.18h-1.01v-1.18h-2.37v-1.29h2.37v-1.55h1.01v1.55h4.74c.27,0,.46-.07.55-.21.1-.14.14-.33.14-.56,0-.11-.01-.23-.03-.36s-.04-.23-.06-.3v-.04h1.09c.04.17.07.35.09.53s.03.35.03.53Z"/>
    <path class="cls-2" d="M122.3,147.3h-1.51v-1.36h1.51v1.36ZM131.21,147.28h-7.52v-1.31h7.52v1.31Z"/>
    <path class="cls-2" d="M131.42,140.91c0,.75-.18,1.4-.53,1.96s-.83.98-1.43,1.28c-.6.3-1.27.45-2,.45s-1.39-.15-1.99-.45c-.59-.3-1.07-.72-1.43-1.28s-.53-1.2-.53-1.96.18-1.41.53-1.96.83-.97,1.43-1.26c.59-.29,1.26-.44,1.99-.44s1.4.15,2,.44c.6.29,1.08.71,1.43,1.26s.53,1.2.53,1.96ZM130.35,140.92c0-.51-.13-.95-.39-1.29s-.6-.61-1.04-.78c-.44-.18-.93-.26-1.47-.26s-1.03.09-1.47.26c-.44.17-.79.44-1.05.78s-.39.78-.39,1.29.13.94.39,1.29c.26.35.61.61,1.05.79.44.18.93.26,1.47.26s1.03-.09,1.47-.26c.44-.17.79-.44,1.04-.79.26-.35.39-.78.39-1.29Z"/>
    <path class="cls-2" d="M131.21,135.86h-7.52v-1.29h1.07v-.05c-.26-.18-.48-.39-.66-.62-.18-.23-.33-.49-.43-.78-.1-.29-.15-.62-.15-.98,0-.52.1-.97.29-1.35.19-.38.47-.67.83-.87s.81-.31,1.33-.31h5.25v1.29h-5.09c-.49,0-.86.15-1.12.44-.26.29-.39.7-.39,1.21,0,.39.09.73.26,1.03s.41.54.71.71c.31.17.66.26,1.06.26h4.58v1.31Z"/>
  </g>
  <rect class="cls-5" x="2.1" y="241.8" width="250" height="40"/>
  <g>
    <path class="cls-2" d="M76.64,267.96v-15.63h11.1v1.9h-8.96v4.72h8.1v1.79h-8.1v5.28h9.2v1.95h-11.34Z"/>
    <path class="cls-2" d="M90.63,267.96v-15.63h2.77l3.25,8.49c.16.42.34.91.52,1.47.18.55.36,1.09.51,1.61.16.52.34,1.13.54,1.81h.04c.21-.68.39-1.28.55-1.8.16-.52.34-1.06.52-1.62s.36-1.05.52-1.48l3.19-8.49h2.86v15.63h-2.06v-9.45c0-.35,0-.75.02-1.21.01-.45.03-.9.04-1.32.01-.43.03-.92.06-1.48h-.04c-.14.51-.26.95-.37,1.33-.11.38-.23.78-.35,1.18-.13.4-.25.76-.36,1.06l-3.8,9.89h-1.68l-3.78-9.89c-.12-.3-.24-.65-.36-1.06s-.25-.8-.36-1.18c-.11-.38-.24-.83-.38-1.33h-.04c.03.56.05,1.05.06,1.48.01.43.03.87.04,1.32.01.46.02.86.02,1.21v9.45h-1.93Z"/>
    <path class="cls-2" d="M109.13,267.96v-15.63h6.57c.83,0,1.56.13,2.19.39.63.26,1.14.64,1.54,1.12.35.41.62.87.82,1.37.2.51.3,1.07.3,1.69,0,.96-.19,1.78-.56,2.47s-.94,1.22-1.69,1.59-1.69.55-2.82.55h-4.19v6.43h-2.16ZM111.29,259.79h3.99c1.06,0,1.85-.25,2.36-.75.51-.5.77-1.19.77-2.06,0-.92-.27-1.61-.8-2.07s-1.28-.7-2.24-.7h-4.07v5.58Z"/>
    <path class="cls-2" d="M122.75,267.96v-15.63h2.14v15.63h-2.14Z"/>
    <path class="cls-2" d="M128.17,267.96v-15.63h7.3c.94,0,1.75.18,2.46.54.7.36,1.25.86,1.64,1.51.39.65.59,1.4.59,2.26,0,.95-.22,1.76-.65,2.42-.43.67-1.17,1.16-2.21,1.48v.06c.59.17,1.05.41,1.38.71.33.3.57.71.72,1.21s.25,1.13.31,1.91c.04.55.08,1.02.13,1.43s.1.75.15,1.03.12.5.19.66c.07.16.15.26.24.32v.1h-2.3c-.12-.1-.21-.27-.27-.49s-.11-.58-.15-1.05c-.04-.48-.09-1.13-.15-1.96-.07-1.1-.35-1.88-.84-2.33s-1.25-.68-2.27-.68h-4.15v6.51h-2.14ZM130.31,259.73h4.47c1.06,0,1.85-.25,2.38-.75.53-.5.79-1.17.79-2.02,0-.92-.24-1.61-.71-2.07-.47-.46-1.26-.7-2.36-.7h-4.57v5.54Z"/>
    <path class="cls-2" d="M142.91,267.96v-15.63h2.14v15.63h-2.14Z"/>
    <path class="cls-2" d="M155.09,268.27c-1.11,0-2.12-.2-3.02-.6-.9-.4-1.68-.96-2.32-1.69-.65-.73-1.14-1.59-1.49-2.58-.34-.99-.52-2.08-.52-3.25s.17-2.21.5-3.2.82-1.84,1.47-2.58c.64-.73,1.42-1.31,2.34-1.72s1.95-.62,3.11-.62c.92,0,1.74.12,2.47.37s1.36.58,1.88,1c.56.46,1.01,1,1.34,1.62.33.62.55,1.3.66,2.03h-2.14c-.12-.63-.36-1.18-.72-1.65-.37-.47-.84-.84-1.44-1.11-.59-.27-1.29-.4-2.09-.4-1.1,0-2.04.27-2.82.81-.78.54-1.37,1.29-1.77,2.23-.4.94-.61,2.01-.61,3.2s.22,2.33.65,3.27c.43.94,1.04,1.67,1.82,2.19.78.52,1.7.79,2.74.79.95,0,1.74-.19,2.36-.57.62-.38,1.1-.88,1.44-1.51.33-.62.53-1.31.59-2.05h2.14c0,.77-.17,1.55-.5,2.32-.33.78-.78,1.45-1.36,2.01-.59.58-1.28,1-2.07,1.27-.79.26-1.67.39-2.64.39Z"/>
    <path class="cls-2" d="M164.24,267.96v-15.63h2.14v15.63h-2.14Z"/>
    <path class="cls-2" d="M175.39,268.26c-1.46,0-2.67-.24-3.64-.72-.97-.48-1.71-1.12-2.21-1.94s-.79-1.72-.85-2.71h2.12c.09.79.32,1.45.69,1.99.37.54.89.95,1.55,1.23.66.28,1.46.42,2.41.42.7,0,1.32-.1,1.86-.3.54-.2.96-.51,1.27-.93.31-.42.46-.94.46-1.57,0-.68-.19-1.21-.56-1.59-.38-.38-.91-.68-1.59-.9-.69-.22-1.49-.43-2.41-.63-.69-.14-1.34-.32-1.96-.52-.62-.2-1.16-.46-1.64-.78-.47-.32-.85-.73-1.12-1.23-.27-.5-.41-1.12-.41-1.87,0-.88.23-1.62.69-2.25s1.09-1.1,1.9-1.43c.81-.33,1.75-.5,2.83-.5.96,0,1.8.11,2.5.34.7.23,1.29.55,1.77.96.47.41.85.9,1.12,1.46.27.56.46,1.17.55,1.84h-2.08c-.13-.94-.53-1.67-1.19-2.17-.67-.5-1.55-.75-2.65-.75-1.03,0-1.85.21-2.47.62-.62.41-.93,1-.93,1.78,0,.57.17,1.02.52,1.35.35.33.83.59,1.44.78.61.19,1.31.37,2.09.53.76.15,1.48.33,2.17.53s1.31.48,1.85.82c.54.34.97.79,1.28,1.36.31.56.47,1.28.47,2.16,0,.98-.25,1.82-.75,2.51-.5.69-1.19,1.21-2.06,1.56-.88.36-1.88.53-3,.53Z"/>
    <path class="cls-2" d="M183.77,267.96v-15.63h2.77l3.25,8.49c.16.42.34.91.52,1.47.18.55.36,1.09.51,1.61.16.52.34,1.13.54,1.81h.04c.21-.68.39-1.28.55-1.8.16-.52.34-1.06.52-1.62s.36-1.05.52-1.48l3.19-8.49h2.86v15.63h-2.06v-9.45c0-.35,0-.75.02-1.21.01-.45.03-.9.04-1.32.01-.43.03-.92.06-1.48h-.04c-.14.51-.26.95-.37,1.33-.11.38-.23.78-.35,1.18-.13.4-.25.76-.36,1.06l-3.8,9.89h-1.68l-3.78-9.89c-.12-.3-.24-.65-.36-1.06-.13-.4-.25-.8-.36-1.18-.11-.38-.24-.83-.38-1.33h-.04c.03.56.05,1.05.06,1.48.01.43.03.87.04,1.32.01.46.02.86.02,1.21v9.45h-1.93Z"/>
  </g>
</svg>