<?xml version="1.0" encoding="UTF-8"?>
<svg xmlns="http://www.w3.org/2000/svg" version="1.1" viewBox="0 0 346 258.7">
  <defs>
    <style>
      .cls-1 {
        stroke: #b6ccbd;
      }

      .cls-1, .cls-2, .cls-3, .cls-4, .cls-5, .cls-6, .cls-7, .cls-8, .cls-9 {
        stroke-miterlimit: 10;
        stroke-width: .2px;
      }

      .cls-1, .cls-3 {
        fill: #ddeedf;
      }

      .cls-10 {
        fill: #58595b;
      }

      .cls-10, .cls-11, .cls-12 {
        stroke-width: 0px;
      }

      .cls-11 {
        fill: #231f20;
      }

      .cls-2 {
        fill: #b6ccbd;
      }

      .cls-2, .cls-3, .cls-4, .cls-6, .cls-7, .cls-9 {
        stroke: #414042;
      }

      .cls-4, .cls-8 {
        fill: #f0f9fe;
      }

      .cls-12 {
        fill: #fff;
      }

      .cls-5 {
        stroke: #f7a6a8;
      }

      .cls-5, .cls-9 {
        fill: #fcd6d6;
      }

      .cls-6 {
        fill: #f7a6a8;
      }

      .cls-7 {
        fill: #aedced;
      }

      .cls-8 {
        stroke: #aedced;
      }
    </style>
  </defs>
  <g id="Shapes">
    <circle id="top_large" data-name="top large" class="cls-8" cx="178.2" cy="77.3" r="60"/>
    <circle id="left_large" data-name="left large" class="cls-5" cx="119.7" cy="178.6" r="60"/>
    <circle id="right_large" data-name="right large" class="cls-1" cx="236.7" cy="179.1" r="60"/>
    <g id="triangle">
      <g>
        <polygon class="cls-12" points="178.2 77.3 119.7 178.6 236.7 178.6 178.2 77.3"/>
        <path class="cls-10" d="M178.2,77.4c-14.4,25.4-43.4,76.3-57.9,101.6,0,0-.6-1.1-.6-1.1,29.2-.2,87.8-.2,117,0,0,0-.6,1.1-.6,1.1-14.5-25.3-43.5-76.3-57.9-101.6h0ZM178.2,77.3c0,.1,59,101.6,58.5,101.4,0,0-117,0-117,0-.5.1,58.6-101.3,58.5-101.4h0Z"/>
      </g>
    </g>
    <path id="top_small" data-name="top small" class="cls-7" d="M178,106.3c-15.6,0-28.3-12.8-28.3-28.6s12.7-28.6,28.3-28.6,28.3,12.8,28.3,28.6-12.7,28.6-28.3,28.6Z"/>
    <path id="left_small" data-name="left small" class="cls-6" d="M118.8,209c-17,0-30.8-13.6-30.8-30.2s13.8-30.2,30.8-30.2,30.8,13.6,30.8,30.2-13.8,30.2-30.8,30.2Z"/>
    <path id="right_small" data-name="right small" class="cls-2" d="M237.7,209c-17.3,0-31.3-13.1-31.3-29.1s14.1-29.1,31.3-29.1,31.3,13.1,31.3,29.1-14.1,29.1-31.3,29.1Z"/>
    <rect class="cls-9" x="17.7" y="128.5" width="62.3" height="32.3" rx="2" ry="2"/>
    <g>
      <path class="cls-11" d="M36.7,140.6c-.8,0-1.5-.1-2.1-.4s-1-.6-1.3-1.1-.5-1-.5-1.5h1.2c0,.4.2.8.4,1.1s.5.5.9.7.8.2,1.4.2.8,0,1.1-.2.6-.3.7-.5.3-.5.3-.9-.1-.7-.3-.9-.5-.4-.9-.5-.9-.2-1.4-.4c-.4,0-.8-.2-1.1-.3s-.7-.3-.9-.4-.5-.4-.6-.7-.2-.6-.2-1.1.1-.9.4-1.3.6-.6,1.1-.8,1-.3,1.6-.3,1,0,1.4.2.7.3,1,.5.5.5.6.8.3.7.3,1.1h-1.2c0-.5-.3-1-.7-1.2s-.9-.4-1.5-.4-1.1.1-1.4.4-.5.6-.5,1,0,.6.3.8.5.3.8.4.7.2,1.2.3c.4,0,.8.2,1.2.3s.7.3,1.1.5.6.5.7.8.3.7.3,1.2-.1,1-.4,1.4-.7.7-1.2.9-1.1.3-1.7.3Z"/>
      <path class="cls-11" d="M44.1,140.6c-.6,0-1.2-.2-1.7-.5s-.8-.7-1.1-1.2-.4-1.1-.4-1.7.1-1.2.4-1.7.6-.9,1.1-1.2,1-.5,1.7-.5,1,0,1.4.3.7.4.9.8.4.7.5,1.2h-1.1c0-.3-.1-.5-.3-.7s-.3-.4-.6-.5-.5-.2-.8-.2-.8.1-1.1.3-.5.5-.7.9-.2.8-.2,1.3,0,.9.2,1.3.4.7.7.9.7.3,1.1.3.9-.1,1.2-.4.5-.7.5-1.1h1.1c0,.5-.2,1-.4,1.3s-.6.6-1,.8-.9.3-1.4.3Z"/>
      <path class="cls-11" d="M48,140.5v-6.4h1.1v1.2h0c.2-.4.5-.7.8-.9s.7-.3,1.1-.3.2,0,.2,0,.1,0,.2,0v1.1h0c0,0-.1,0-.2,0s-.1,0-.2,0c-.2,0-.5,0-.7.1s-.4.2-.6.4-.3.4-.4.6-.1.5-.1.8v3.5h-1.1Z"/>
      <path class="cls-11" d="M54.7,140.6c-.4,0-.8,0-1.2-.3s-.6-.4-.8-.7-.3-.7-.3-1.2v-4.4h1.1v4.4c0,.4.1.7.4,1s.6.3,1,.3.6,0,.9-.2.4-.4.6-.6.2-.6.2-.9v-3.9h1.1v6.4h-1.1v-.9h0c-.1.2-.3.4-.5.6s-.4.3-.6.4-.5.1-.8.1Z"/>
      <path class="cls-11" d="M59.4,140.5v-6.4h1.1v1h0c.1-.2.3-.4.5-.6s.4-.3.6-.4.5-.1.8-.1c.4,0,.7.1,1,.3s.5.5.6.9h0c.2-.4.5-.7.9-.9s.7-.3,1.1-.3.7,0,1,.2.5.4.7.7.3.7.3,1.1v4.5h-1.1v-4.4c0-.4-.1-.7-.3-.9s-.5-.3-.8-.3-.5,0-.8.2-.4.3-.6.6-.2.5-.2.9v4h-1.1v-4.4c0-.4-.1-.7-.3-.9s-.5-.3-.8-.3-.5,0-.8.2-.4.3-.6.6-.2.5-.2.9v4h-1.1Z"/>
      <path class="cls-11" d="M32.1,154.9v-6.4h1.1v1h0c.1-.2.3-.4.5-.6s.4-.3.6-.4.5-.1.8-.1c.4,0,.7.1,1,.3s.5.5.6.9h0c.2-.4.5-.7.9-.9s.7-.3,1.1-.3.7,0,1,.2.5.4.7.7.3.7.3,1.1v4.5h-1.1v-4.4c0-.4-.1-.7-.3-.9s-.5-.3-.8-.3-.5,0-.8.2-.4.3-.6.6-.2.5-.2.9v4h-1.1v-4.4c0-.4-.1-.7-.3-.9s-.5-.3-.8-.3-.5,0-.8.2-.4.3-.6.6-.2.5-.2.9v4h-1.1Z"/>
      <path class="cls-11" d="M44.2,155c-.4,0-.8,0-1.1-.2s-.6-.3-.8-.6-.3-.6-.3-1,.1-.9.3-1.2.6-.5,1-.6.9-.2,1.5-.3c.3,0,.6,0,.8-.1s.4-.1.5-.3.2-.3.2-.5c0-.3-.1-.6-.4-.8s-.6-.3-1-.3-.9.1-1.1.3-.4.5-.4.9h-1.1c0-.4.1-.7.3-1s.5-.6.9-.8.9-.3,1.4-.3.6,0,.9,0,.5.1.7.3c.3.2.5.4.6.7s.2.6.2,1.1v3c0,.2,0,.4.1.5s.2.2.4.2,0,0,.1,0,0,0,0,0h0v.8c0,0-.2,0-.3,0s-.2,0-.3,0c-.2,0-.4,0-.6-.1s-.3-.2-.4-.4-.1-.5-.1-.8h0c0,0,0,.3,0,.3h0c-.2.3-.5.5-.8.8s-.8.3-1.3.3ZM44.5,154.2c.4,0,.8,0,1.1-.3s.5-.4.6-.7.2-.5.2-.8v-1.1c-.1,0-.2.1-.4.2s-.3.1-.5.2-.3,0-.5.1c-.4,0-.7.1-.9.2s-.5.2-.6.4-.2.4-.2.7,0,.5.2.6.3.3.5.3.4,0,.6,0Z"/>
      <path class="cls-11" d="M51.5,155c-.6,0-1.1,0-1.5-.3s-.7-.4-1-.8-.4-.7-.4-1.1h1.1c0,.5.3.8.6,1s.7.3,1.2.3.9,0,1.1-.3.3-.4.3-.7,0-.4-.2-.6-.3-.2-.6-.3-.6-.2-.9-.2c-.3,0-.6-.1-.9-.2s-.5-.2-.8-.3-.4-.3-.5-.5-.2-.5-.2-.9,0-.7.3-1,.5-.5.8-.6.8-.2,1.3-.2,1,0,1.4.2.6.4.8.7.3.6.4,1h-1.1c0-.2-.1-.4-.2-.6s-.3-.3-.5-.3-.5-.1-.8-.1c-.4,0-.8,0-1,.3s-.3.4-.3.6,0,.4.2.5.3.2.6.3.6.1.9.2c.3,0,.6.1.9.2s.5.2.8.3.4.3.5.6.2.5.2.9-.1.8-.3,1.1-.5.5-.9.7-.8.2-1.3.2Z"/>
      <path class="cls-11" d="M57.2,154.9c-.3,0-.5,0-.8-.1s-.4-.2-.5-.4-.2-.4-.2-.8v-4.3h-1v-.9h1v-2h1.1v2h1.3v.9h-1.3v4.1c0,.2,0,.4.2.5s.3.1.5.1.2,0,.3,0,.2,0,.3,0h0v.9c-.1,0-.3,0-.5,0s-.3,0-.5,0Z"/>
      <path class="cls-11" d="M62.1,155c-.7,0-1.2-.2-1.7-.5s-.8-.7-1.1-1.2-.4-1.1-.4-1.7.1-1.2.4-1.7.6-.9,1.1-1.2,1-.5,1.6-.5.9,0,1.3.3.7.4.9.7c.3.3.5.7.6,1.2s.2,1,.2,1.5h-4.9c0,.4.1.8.3,1.1s.4.6.7.8.6.3,1.1.3.8,0,1.1-.3.5-.5.6-.8h1.1c0,.4-.3.7-.5,1.1s-.6.5-1,.7-.8.3-1.3.3ZM60.1,151.1h3.7c0-.4-.1-.8-.2-1.1s-.3-.5-.6-.7-.6-.2-1-.2-.7,0-1,.3-.5.4-.6.7-.3.6-.3,1Z"/>
      <path class="cls-11" d="M66.3,154.9v-6.4h1.1v1.2h0c.2-.4.5-.7.8-.9s.7-.3,1.1-.3.2,0,.2,0,.1,0,.2,0v1.1h0c0,0-.1,0-.2,0s-.1,0-.2,0c-.2,0-.5,0-.7.1s-.4.2-.6.4-.3.4-.4.6-.1.5-.1.8v3.5h-1.1Z"/>
    </g>
    <rect class="cls-9" x="7" y="181.3" width="66.5" height="35.7" rx="2" ry="2"/>
    <g>
      <path class="cls-11" d="M20,196.3v-8.9h3.8c.5,0,.9,0,1.3.2s.7.4.9.6c.2.2.4.5.5.8s.2.6.2,1c0,.5-.1,1-.3,1.4s-.5.7-1,.9-1,.3-1.6.3h-2.4v3.7h-1.2ZM21.3,191.6h2.3c.6,0,1.1-.1,1.3-.4s.4-.7.4-1.2-.2-.9-.5-1.2-.7-.4-1.3-.4h-2.3v3.2Z"/>
      <path class="cls-11" d="M27.6,196.3v-6.4h1.1v1.2h0c.2-.4.5-.7.8-.9s.7-.3,1.1-.3.2,0,.2,0,.1,0,.2,0v1.1h0c0,0-.1,0-.2,0s-.1,0-.2,0c-.2,0-.5,0-.7.1s-.4.2-.6.4-.3.4-.4.6-.1.5-.1.8v3.5h-1.1Z"/>
      <path class="cls-11" d="M34.7,196.5c-.6,0-1.2-.2-1.7-.5s-.8-.7-1.1-1.2-.4-1.1-.4-1.7.1-1.2.4-1.7.6-.9,1.1-1.2,1-.5,1.7-.5,1.2.2,1.7.5.8.7,1.1,1.2.4,1.1.4,1.7-.1,1.2-.4,1.7-.6.9-1.1,1.2-1,.5-1.7.5ZM34.7,195.6c.4,0,.8-.1,1.1-.3s.5-.5.7-.9.2-.8.2-1.3,0-.9-.2-1.3-.4-.7-.7-.9-.7-.3-1.1-.3-.8.1-1.1.3-.5.5-.7.9-.2.8-.2,1.3,0,.9.2,1.3.4.7.7.9.7.3,1.1.3Z"/>
      <path class="cls-11" d="M41.6,196.5c-.6,0-1.1-.1-1.5-.4s-.8-.7-1-1.2-.3-1.1-.3-1.8.1-1.3.4-1.8.6-.9,1-1.2.9-.4,1.4-.4.6,0,.8.1.5.2.7.4.4.4.5.6h0c0-.1,0-.3,0-.5s0-.4,0-.6v-2.3h1.1v8.9h-1.1v-.9h0c-.2.3-.5.6-.8.8s-.7.3-1.2.3ZM41.6,195.6c.5,0,.8-.1,1.1-.3s.5-.5.6-.9.2-.8.2-1.3,0-.9-.2-1.3-.4-.7-.7-.9-.7-.3-1.1-.3-.7.1-1,.3-.5.5-.6.9-.2.8-.2,1.3,0,.9.2,1.3.3.7.6.9.6.3,1,.3Z"/>
      <path class="cls-11" d="M48.4,196.5c-.4,0-.8,0-1.2-.3s-.6-.4-.8-.7-.3-.7-.3-1.2v-4.4h1.1v4.4c0,.4.1.7.4,1s.6.3,1,.3.6,0,.9-.2.4-.4.6-.6.2-.6.2-.9v-3.9h1.1v6.4h-1.1v-.9h0c-.1.2-.3.4-.5.6s-.4.3-.6.4-.5.1-.8.1Z"/>
      <path class="cls-11" d="M55.8,196.5c-.6,0-1.2-.2-1.7-.5s-.8-.7-1.1-1.2-.4-1.1-.4-1.7.1-1.2.4-1.7.6-.9,1.1-1.2,1-.5,1.7-.5,1,0,1.4.3.7.4.9.8.4.7.5,1.2h-1.1c0-.3-.1-.5-.3-.7s-.3-.4-.6-.5-.5-.2-.8-.2-.8.1-1.1.3-.5.5-.7.9-.2.8-.2,1.3,0,.9.2,1.3.4.7.7.9.7.3,1.1.3.9-.1,1.2-.4.5-.7.5-1.1h1.1c0,.5-.2,1-.4,1.3s-.6.6-1,.8-.9.3-1.4.3Z"/>
      <path class="cls-11" d="M61.8,196.4c-.3,0-.5,0-.8-.1s-.4-.2-.5-.4-.2-.4-.2-.8v-4.3h-1v-.9h1v-2h1.1v2h1.3v.9h-1.3v4.1c0,.2,0,.4.2.5s.3.1.5.1.2,0,.3,0,.2,0,.3,0h0v.9c-.1,0-.3,0-.5,0s-.3,0-.5,0Z"/>
      <path class="cls-11" d="M27.4,210.9c-.6,0-1.2-.2-1.7-.5s-.8-.7-1.1-1.2-.4-1.1-.4-1.7.1-1.2.4-1.7.6-.9,1.1-1.2,1-.5,1.7-.5,1.2.2,1.7.5.8.7,1.1,1.2.4,1.1.4,1.7-.1,1.2-.4,1.7-.6.9-1.1,1.2-1,.5-1.7.5ZM27.3,210c.4,0,.8-.1,1.1-.3s.5-.5.7-.9.2-.8.2-1.3,0-.9-.2-1.3-.4-.7-.7-.9-.7-.3-1.1-.3-.8.1-1.1.3-.5.5-.7.9-.2.8-.2,1.3,0,.9.2,1.3.4.7.7.9.7.3,1.1.3Z"/>
      <path class="cls-11" d="M33,210.7l-2-6.4h1.2l1,3.6c0,.2.1.4.2.6s0,.4.1.6,0,.4.1.7h0c0-.2,0-.4.1-.6s0-.4.1-.6.1-.4.2-.6l1-3.6h1.1l1,3.6c0,.2,0,.4.1.6s0,.4.1.6,0,.4.1.7h0c0-.2,0-.5.1-.7s0-.4.1-.6.1-.4.2-.6l1.1-3.6h1.2l-2.1,6.4h-1.1l-.9-3.6c0-.2,0-.3-.1-.5s0-.4-.1-.6,0-.4-.1-.7h0c0,.3,0,.5-.1.7s0,.4-.1.6,0,.4-.1.5l-1,3.6h-1.1Z"/>
      <path class="cls-11" d="M40.9,210.7v-6.4h1.1v.9h0c.2-.2.3-.4.5-.6s.4-.3.7-.4.5-.1.8-.1c.4,0,.8,0,1.2.2s.6.4.7.7.3.7.3,1.1v4.5h-1.1v-4.4c0-.4-.1-.7-.4-1s-.6-.3-1-.3-.6,0-.9.2-.5.4-.6.6-.2.6-.2.9v3.9h-1.1Z"/>
      <path class="cls-11" d="M50.6,210.9c-.7,0-1.2-.2-1.7-.5s-.8-.7-1.1-1.2-.4-1.1-.4-1.7.1-1.2.4-1.7.6-.9,1.1-1.2,1-.5,1.6-.5.9,0,1.3.3.7.4.9.7c.3.3.5.7.6,1.2s.2,1,.2,1.5h-4.9c0,.4.1.8.3,1.1s.4.6.7.8.6.3,1.1.3.8,0,1.1-.3.5-.5.6-.8h1.1c0,.4-.3.7-.5,1.1s-.6.5-1,.7-.8.3-1.3.3ZM48.6,206.9h3.7c0-.4-.1-.8-.2-1.1s-.3-.5-.6-.7-.6-.2-1-.2-.7,0-1,.3-.5.4-.6.7-.3.6-.3,1Z"/>
      <path class="cls-11" d="M54.7,210.7v-6.4h1.1v1.2h0c.2-.4.5-.7.8-.9s.7-.3,1.1-.3.2,0,.2,0,.1,0,.2,0v1.1h0c0,0-.1,0-.2,0s-.1,0-.2,0c-.2,0-.5,0-.7.1s-.4.2-.6.4-.3.4-.4.6-.1.5-.1.8v3.5h-1.1Z"/>
    </g>
    <rect class="cls-9" x="54.7" y="229.5" width="74" height="23.1" rx="2" ry="2"/>
    <g>
      <path class="cls-11" d="M61.8,244.6v-8.9h3.3c.7,0,1.3.1,1.7.3s.9.5,1.2.9.6.9.7,1.4.2,1.2.2,1.8,0,1.3-.3,1.8-.4,1-.8,1.4-.8.7-1.3.9-1.1.3-1.8.3h-3.2ZM63.1,243.5h1.9c.7,0,1.2-.1,1.6-.4s.7-.7.9-1.2.3-1.1.3-1.8,0-1.3-.3-1.8-.5-.9-.9-1.2-.9-.4-1.6-.4h-2v6.8Z"/>
      <path class="cls-11" d="M73.2,244.8c-.7,0-1.2-.2-1.7-.5s-.8-.7-1.1-1.2-.4-1.1-.4-1.7.1-1.2.4-1.7.6-.9,1.1-1.2,1-.5,1.6-.5.9,0,1.3.3.7.4.9.7c.3.3.5.7.6,1.2s.2,1,.2,1.5h-4.9c0,.4.1.8.3,1.1s.4.6.7.8.6.3,1.1.3.8,0,1.1-.3.5-.5.6-.8h1.1c0,.4-.3.7-.5,1.1s-.6.5-1,.7-.8.3-1.3.3ZM71.3,240.8h3.7c0-.4-.1-.8-.2-1.1s-.3-.5-.6-.7-.6-.2-1-.2-.7,0-1,.3-.5.4-.6.7-.3.6-.3,1Z"/>
      <path class="cls-11" d="M78.8,244.6l-2.2-6.4h1.2l1.1,3.5c0,.2.1.4.2.7s.1.5.2.7.1.4.2.7h0c0-.3.1-.5.2-.7s.1-.4.2-.7.1-.5.2-.7l1.2-3.5h1.1l-2.3,6.4h-1.2Z"/>
      <path class="cls-11" d="M85.8,244.8c-.7,0-1.2-.2-1.7-.5s-.8-.7-1.1-1.2-.4-1.1-.4-1.7.1-1.2.4-1.7.6-.9,1.1-1.2,1-.5,1.6-.5.9,0,1.3.3.7.4.9.7c.3.3.5.7.6,1.2s.2,1,.2,1.5h-4.9c0,.4.1.8.3,1.1s.4.6.7.8.6.3,1.1.3.8,0,1.1-.3.5-.5.6-.8h1.1c0,.4-.3.7-.5,1.1s-.6.5-1,.7-.8.3-1.3.3ZM83.9,240.8h3.7c0-.4-.1-.8-.2-1.1s-.3-.5-.6-.7-.6-.2-1-.2-.7,0-1,.3-.5.4-.6.7-.3.6-.3,1Z"/>
      <path class="cls-11" d="M90,244.6v-8.9h1.1v8.9h-1.1Z"/>
      <path class="cls-11" d="M95.5,244.8c-.6,0-1.2-.2-1.7-.5s-.8-.7-1.1-1.2-.4-1.1-.4-1.7.1-1.2.4-1.7.6-.9,1.1-1.2,1-.5,1.7-.5,1.2.2,1.7.5.8.7,1.1,1.2.4,1.1.4,1.7-.1,1.2-.4,1.7-.6.9-1.1,1.2-1,.5-1.7.5ZM95.5,243.8c.4,0,.8-.1,1.1-.3s.5-.5.7-.9.2-.8.2-1.3,0-.9-.2-1.3-.4-.7-.7-.9-.7-.3-1.1-.3-.8.1-1.1.3-.5.5-.7.9-.2.8-.2,1.3,0,.9.2,1.3.4.7.7.9.7.3,1.1.3Z"/>
      <path class="cls-11" d="M99.8,246.8v-8.6h1.1v1h0c.2-.2.3-.5.5-.6s.4-.3.7-.4.5-.1.8-.1c.5,0,1,.1,1.4.4s.7.7,1,1.2.4,1.1.4,1.8-.1,1.3-.3,1.8-.5.9-1,1.2-.9.4-1.5.4-.8,0-1.2-.3-.6-.4-.8-.8h0c0,.1,0,.3,0,.4s0,.4,0,.6v2h-1.1ZM102.9,243.8c.4,0,.7-.1,1-.3s.5-.5.6-.9.2-.8.2-1.3,0-.9-.2-1.3-.3-.7-.6-.9-.6-.3-1-.3-.8.1-1.1.3-.5.5-.7.9-.2.8-.2,1.2,0,.9.2,1.2.3.7.6.9.7.3,1.1.3Z"/>
      <path class="cls-11" d="M109.8,244.8c-.7,0-1.2-.2-1.7-.5s-.8-.7-1.1-1.2-.4-1.1-.4-1.7.1-1.2.4-1.7.6-.9,1.1-1.2,1-.5,1.6-.5.9,0,1.3.3.7.4.9.7c.3.3.5.7.6,1.2s.2,1,.2,1.5h-4.9c0,.4.1.8.3,1.1s.4.6.7.8.6.3,1.1.3.8,0,1.1-.3.5-.5.6-.8h1.1c0,.4-.3.7-.5,1.1s-.6.5-1,.7-.8.3-1.3.3ZM107.8,240.8h3.7c0-.4-.1-.8-.2-1.1s-.3-.5-.6-.7-.6-.2-1-.2-.7,0-1,.3-.5.4-.6.7-.3.6-.3,1Z"/>
      <path class="cls-11" d="M113.9,244.6v-6.4h1.1v1.2h0c.2-.4.5-.7.8-.9s.7-.3,1.1-.3.2,0,.2,0,.1,0,.2,0v1.1h0c0,0-.1,0-.2,0s-.1,0-.2,0c-.2,0-.5,0-.7.1s-.4.2-.6.4-.3.4-.4.6-.1.5-.1.8v3.5h-1.1Z"/>
      <path class="cls-11" d="M120.9,244.8c-.6,0-1.1,0-1.5-.3s-.7-.4-1-.8-.4-.7-.4-1.1h1.1c0,.5.3.8.6,1s.7.3,1.2.3.9,0,1.1-.3.3-.4.3-.7,0-.4-.2-.6-.3-.2-.6-.3-.6-.2-.9-.2c-.3,0-.6-.1-.9-.2s-.5-.2-.8-.3-.4-.3-.5-.5-.2-.5-.2-.9,0-.7.3-1,.5-.5.8-.6.8-.2,1.3-.2,1,0,1.4.2.6.4.8.7.3.6.4,1h-1.1c0-.2-.1-.4-.2-.6s-.3-.3-.5-.3-.5-.1-.8-.1c-.4,0-.8,0-1,.3s-.3.4-.3.6,0,.4.2.5.3.2.6.3.6.1.9.2c.3,0,.6.1.9.2s.5.2.8.3.4.3.5.6.2.5.2.9-.1.8-.3,1.1-.5.5-.9.7-.8.2-1.3.2Z"/>
    </g>
    <rect class="cls-4" x="149.7" y="6.2" width="60" height="20" rx="2" ry="2"/>
    <g>
      <path class="cls-11" d="M167.9,20.7c-.8,0-1.5-.1-2.1-.4s-1-.6-1.3-1.1-.5-1-.5-1.5h1.2c0,.4.2.8.4,1.1s.5.5.9.7.8.2,1.4.2.8,0,1.1-.2.6-.3.7-.5.3-.5.3-.9-.1-.7-.3-.9-.5-.4-.9-.5-.9-.2-1.4-.4c-.4,0-.8-.2-1.1-.3s-.7-.3-.9-.4-.5-.4-.6-.7-.2-.6-.2-1.1.1-.9.4-1.3.6-.6,1.1-.8,1-.3,1.6-.3,1,0,1.4.2.7.3,1,.5.5.5.6.8.3.7.3,1.1h-1.2c0-.5-.3-1-.7-1.2s-.9-.4-1.5-.4-1.1.1-1.4.4-.5.6-.5,1,0,.6.3.8.5.3.8.4.7.2,1.2.3c.4,0,.8.2,1.2.3s.7.3,1.1.5.6.5.7.8.3.7.3,1.2-.1,1-.4,1.4-.7.7-1.2.9-1.1.3-1.7.3Z"/>
      <path class="cls-11" d="M172.5,22.7v-8.6h1.1v1h0c.2-.2.3-.5.5-.6s.4-.3.7-.4.5-.1.8-.1c.5,0,1,.1,1.4.4s.7.7,1,1.2.4,1.1.4,1.8-.1,1.3-.3,1.8-.5.9-1,1.2-.9.4-1.5.4-.8,0-1.2-.3-.6-.4-.8-.8h0c0,.1,0,.3,0,.4s0,.4,0,.6v2h-1.1ZM175.5,19.8c.4,0,.7-.1,1-.3s.5-.5.6-.9.2-.8.2-1.3,0-.9-.2-1.3-.3-.7-.6-.9-.6-.3-1-.3-.8.1-1.1.3-.5.5-.7.9-.2.8-.2,1.2,0,.9.2,1.2.3.7.6.9.7.3,1.1.3Z"/>
      <path class="cls-11" d="M179.7,20.6v-6.4h1.1v1.2h0c.2-.4.5-.7.8-.9s.7-.3,1.1-.3.2,0,.2,0,.1,0,.2,0v1.1h0c0,0-.1,0-.2,0s-.1,0-.2,0c-.2,0-.5,0-.7.1s-.4.2-.6.4-.3.4-.4.6-.1.5-.1.8v3.5h-1.1Z"/>
      <path class="cls-11" d="M184.2,12.9v-1.3h1.2v1.3h-1.2ZM184.2,20.6v-6.4h1.1v6.4h-1.1Z"/>
      <path class="cls-11" d="M186.9,20.6v-6.4h1.1v.9h0c.2-.2.3-.4.5-.6s.4-.3.7-.4.5-.1.8-.1c.4,0,.8,0,1.2.2s.6.4.7.7.3.7.3,1.1v4.5h-1.1v-4.4c0-.4-.1-.7-.4-1s-.6-.3-1-.3-.6,0-.9.2-.5.4-.6.6-.2.6-.2.9v3.9h-1.1Z"/>
      <path class="cls-11" d="M195.7,20.6c-.3,0-.5,0-.8-.1s-.4-.2-.5-.4-.2-.4-.2-.8v-4.3h-1v-.9h1v-2h1.1v2h1.3v.9h-1.3v4.1c0,.2,0,.4.2.5s.3.1.5.1.2,0,.3,0,.2,0,.3,0h0v.9c-.1,0-.3,0-.5,0s-.3,0-.5,0Z"/>
    </g>
    <rect class="cls-4" x="77" y="34.7" width="61.2" height="32" rx="2" ry="2"/>
    <g>
      <path class="cls-11" d="M96.3,48.1v-8.9h3.3c.7,0,1.3.1,1.7.3s.9.5,1.2.9.6.9.7,1.4.2,1.2.2,1.8,0,1.3-.3,1.8-.4,1-.8,1.4-.8.7-1.3.9-1.1.3-1.8.3h-3.2ZM97.5,47h1.9c.7,0,1.2-.1,1.6-.4s.7-.7.9-1.2.3-1.1.3-1.8,0-1.3-.3-1.8-.5-.9-.9-1.2-.9-.4-1.6-.4h-2v6.8Z"/>
      <path class="cls-11" d="M106.7,48.2c-.4,0-.8,0-1.1-.2s-.6-.3-.8-.6-.3-.6-.3-1,.1-.9.3-1.2.6-.5,1-.6.9-.2,1.5-.3c.3,0,.6,0,.8-.1s.4-.1.5-.3.2-.3.2-.5c0-.3-.1-.6-.4-.8s-.6-.3-1-.3-.9.1-1.1.3-.4.5-.4.9h-1.1c0-.4.1-.7.3-1s.5-.6.9-.8.9-.3,1.4-.3.6,0,.9,0,.5.1.7.3c.3.2.5.4.6.7s.2.6.2,1.1v3c0,.2,0,.4.1.5s.2.2.4.2,0,0,.1,0,0,0,0,0h0v.8c0,0-.2,0-.3,0s-.2,0-.3,0c-.2,0-.4,0-.6-.1s-.3-.2-.4-.4-.1-.5-.1-.8h0c0,0,0,.3,0,.3h0c-.2.3-.5.5-.8.8s-.8.3-1.3.3ZM107,47.4c.4,0,.8,0,1.1-.3s.5-.4.6-.7.2-.5.2-.8v-1.1c-.1,0-.2.1-.4.2s-.3.1-.5.2-.3,0-.5.1c-.4,0-.7.1-.9.2s-.5.2-.6.4-.2.4-.2.7,0,.5.2.6.3.3.5.3.4,0,.6,0Z"/>
      <path class="cls-11" d="M111.5,40.5v-1.3h1.2v1.3h-1.2ZM111.5,48.1v-6.4h1.1v6.4h-1.1Z"/>
      <path class="cls-11" d="M114.2,48.1v-8.9h1.1v8.9h-1.1Z"/>
      <path class="cls-11" d="M117.7,50.4c-.1,0-.2,0-.4,0s-.2,0-.3,0-.2,0-.2,0v-1h0c0,0,.2,0,.3,0s.3,0,.4,0,.3,0,.4,0,.2-.1.3-.2.2-.3.3-.5l.3-.7-2.5-6.2h1.2l1.3,3.6c0,.2.1.4.2.6s.1.4.2.6.1.4.2.6h0c0-.2.1-.4.2-.6s.1-.4.2-.6.1-.4.2-.6l1.3-3.6h1.2l-2.7,7c-.2.5-.4.8-.5,1s-.4.4-.6.5-.5.1-.7.1Z"/>
      <path class="cls-11" d="M94.8,62.7c-.6,0-1.1,0-1.5-.3s-.7-.4-1-.8-.4-.7-.4-1.1h1.1c0,.5.3.8.6,1s.7.3,1.2.3.9,0,1.1-.3.3-.4.3-.7,0-.4-.2-.6-.3-.2-.6-.3-.6-.2-.9-.2c-.3,0-.6-.1-.9-.2s-.5-.2-.8-.3-.4-.3-.5-.5-.2-.5-.2-.9,0-.7.3-1,.5-.5.8-.6.8-.2,1.3-.2,1,0,1.4.2.6.4.8.7.3.6.4,1h-1.1c0-.2-.1-.4-.2-.6s-.3-.3-.5-.3-.5-.1-.8-.1c-.4,0-.8,0-1,.3s-.3.4-.3.6,0,.4.2.5.3.2.6.3.6.1.9.2c.3,0,.6.1.9.2s.5.2.8.3.4.3.5.6.2.5.2.9-.1.8-.3,1.1-.5.5-.9.7-.8.2-1.3.2Z"/>
      <path class="cls-11" d="M101.5,62.7c-.6,0-1.2-.2-1.7-.5s-.8-.7-1.1-1.2-.4-1.1-.4-1.7.1-1.2.4-1.7.6-.9,1.1-1.2,1-.5,1.7-.5,1,0,1.4.3.7.4.9.8.4.7.5,1.2h-1.1c0-.3-.1-.5-.3-.7s-.3-.4-.6-.5-.5-.2-.8-.2-.8.1-1.1.3-.5.5-.7.9-.2.8-.2,1.3,0,.9.2,1.3.4.7.7.9.7.3,1.1.3.9-.1,1.2-.4.5-.7.5-1.1h1.1c0,.5-.2,1-.4,1.3s-.6.6-1,.8-.9.3-1.4.3Z"/>
      <path class="cls-11" d="M105.4,62.5v-6.4h1.1v1.2h0c.2-.4.5-.7.8-.9s.7-.3,1.1-.3.2,0,.2,0,.1,0,.2,0v1.1h0c0,0-.1,0-.2,0s-.1,0-.2,0c-.2,0-.5,0-.7.1s-.4.2-.6.4-.3.4-.4.6-.1.5-.1.8v3.5h-1.1Z"/>
      <path class="cls-11" d="M112.1,62.6c-.4,0-.8,0-1.2-.3s-.6-.4-.8-.7-.3-.7-.3-1.2v-4.4h1.1v4.4c0,.4.1.7.4,1s.6.3,1,.3.6,0,.9-.2.4-.4.6-.6.2-.6.2-.9v-3.9h1.1v6.4h-1.1v-.9h0c-.1.2-.3.4-.5.6s-.4.3-.6.4-.5.1-.8.1Z"/>
      <path class="cls-11" d="M116.7,62.5v-6.4h1.1v1h0c.1-.2.3-.4.5-.6s.4-.3.6-.4.5-.1.8-.1c.4,0,.7.1,1,.3s.5.5.6.9h0c.2-.4.5-.7.9-.9s.7-.3,1.1-.3.7,0,1,.2.5.4.7.7.3.7.3,1.1v4.5h-1.1v-4.4c0-.4-.1-.7-.3-.9s-.5-.3-.8-.3-.5,0-.8.2-.4.3-.6.6-.2.5-.2.9v4h-1.1v-4.4c0-.4-.1-.7-.3-.9s-.5-.3-.8-.3-.5,0-.8.2-.4.3-.6.6-.2.5-.2.9v4h-1.1Z"/>
    </g>
    <rect class="cls-4" x="64.3" y="81.9" width="72.3" height="32.1" rx="2" ry="2"/>
    <g>
      <path class="cls-11" d="M90.1,94c-.8,0-1.5-.1-2.1-.4s-1-.6-1.3-1.1-.5-1-.5-1.5h1.2c0,.4.2.8.4,1.1s.5.5.9.7.8.2,1.4.2.8,0,1.1-.2.6-.3.7-.5.3-.5.3-.9-.1-.7-.3-.9-.5-.4-.9-.5-.9-.2-1.4-.4c-.4,0-.8-.2-1.1-.3s-.7-.3-.9-.4-.5-.4-.6-.7-.2-.6-.2-1.1.1-.9.4-1.3.6-.6,1.1-.8,1-.3,1.6-.3,1,0,1.4.2.7.3,1,.5.5.5.6.8.3.7.3,1.1h-1.2c0-.5-.3-1-.7-1.2s-.9-.4-1.5-.4-1.1.1-1.4.4-.5.6-.5,1,0,.6.3.8.5.3.8.4.7.2,1.2.3c.4,0,.8.2,1.2.3s.7.3,1.1.5.6.5.7.8.3.7.3,1.2-.1,1-.4,1.4-.7.7-1.2.9-1.1.3-1.7.3Z"/>
      <path class="cls-11" d="M94.7,96v-8.6h1.1v1h0c.2-.2.3-.5.5-.6s.4-.3.7-.4.5-.1.8-.1c.5,0,1,.1,1.4.4s.7.7,1,1.2.4,1.1.4,1.8-.1,1.3-.3,1.8-.5.9-1,1.2-.9.4-1.5.4-.8,0-1.2-.3-.6-.4-.8-.8h0c0,.1,0,.3,0,.4s0,.4,0,.6v2h-1.1ZM97.8,93.1c.4,0,.7-.1,1-.3s.5-.5.6-.9.2-.8.2-1.3,0-.9-.2-1.3-.3-.7-.6-.9-.6-.3-1-.3-.8.1-1.1.3-.5.5-.7.9-.2.8-.2,1.2,0,.9.2,1.2.3.7.6.9.7.3,1.1.3Z"/>
      <path class="cls-11" d="M101.9,93.9v-6.4h1.1v1.2h0c.2-.4.5-.7.8-.9s.7-.3,1.1-.3.2,0,.2,0,.1,0,.2,0v1.1h0c0,0-.1,0-.2,0s-.1,0-.2,0c-.2,0-.5,0-.7.1s-.4.2-.6.4-.3.4-.4.6-.1.5-.1.8v3.5h-1.1Z"/>
      <path class="cls-11" d="M106.4,86.2v-1.3h1.2v1.3h-1.2ZM106.4,93.9v-6.4h1.1v6.4h-1.1Z"/>
      <path class="cls-11" d="M109.1,93.9v-6.4h1.1v.9h0c.2-.2.3-.4.5-.6s.4-.3.7-.4.5-.1.8-.1c.4,0,.8,0,1.2.2s.6.4.7.7.3.7.3,1.1v4.5h-1.1v-4.4c0-.4-.1-.7-.4-1s-.6-.3-1-.3-.6,0-.9.2-.5.4-.6.6-.2.6-.2.9v3.9h-1.1Z"/>
      <path class="cls-11" d="M117.9,93.9c-.3,0-.5,0-.8-.1s-.4-.2-.5-.4-.2-.4-.2-.8v-4.3h-1v-.9h1v-2h1.1v2h1.3v.9h-1.3v4.1c0,.2,0,.4.2.5s.3.1.5.1.2,0,.3,0,.2,0,.3,0h0v.9c-.1,0-.3,0-.5,0s-.3,0-.5,0Z"/>
      <path class="cls-11" d="M79.9,110.4v-8.6h1.1v1h0c.2-.2.3-.5.5-.6s.4-.3.7-.4.5-.1.8-.1c.5,0,1,.1,1.4.4s.7.7,1,1.2.4,1.1.4,1.8-.1,1.3-.3,1.8-.5.9-1,1.2-.9.4-1.5.4-.8,0-1.2-.3-.6-.4-.8-.8h0c0,.1,0,.3,0,.4s0,.4,0,.6v2h-1.1ZM82.9,107.5c.4,0,.7-.1,1-.3s.5-.5.6-.9.2-.8.2-1.3,0-.9-.2-1.3-.3-.7-.6-.9-.6-.3-1-.3-.8.1-1.1.3-.5.5-.7.9-.2.8-.2,1.2,0,.9.2,1.2.3.7.6.9.7.3,1.1.3Z"/>
      <path class="cls-11" d="M87.1,108.3v-8.9h1.1v8.9h-1.1Z"/>
      <path class="cls-11" d="M91.7,108.4c-.4,0-.8,0-1.1-.2s-.6-.3-.8-.6-.3-.6-.3-1,.1-.9.3-1.2.6-.5,1-.6.9-.2,1.5-.3c.3,0,.6,0,.8-.1s.4-.1.5-.3.2-.3.2-.5c0-.3-.1-.6-.4-.8s-.6-.3-1-.3-.9.1-1.1.3-.4.5-.4.9h-1.1c0-.4.1-.7.3-1s.5-.6.9-.8.9-.3,1.4-.3.6,0,.9,0,.5.1.7.3c.3.2.5.4.6.7s.2.6.2,1.1v3c0,.2,0,.4.1.5s.2.2.4.2,0,0,.1,0,0,0,0,0h0v.8c0,0-.2,0-.3,0s-.2,0-.3,0c-.2,0-.4,0-.6-.1s-.3-.2-.4-.4-.1-.5-.1-.8h0c0,0,0,.3,0,.3h0c-.2.3-.5.5-.8.8s-.8.3-1.3.3ZM92,107.6c.4,0,.8,0,1.1-.3s.5-.4.6-.7.2-.5.2-.8v-1.1c-.1,0-.2.1-.4.2s-.3.1-.5.2-.3,0-.5.1c-.4,0-.7.1-.9.2s-.5.2-.6.4-.2.4-.2.7,0,.5.2.6.3.3.5.3.4,0,.6,0Z"/>
      <path class="cls-11" d="M96.5,108.3v-6.4h1.1v.9h0c.2-.2.3-.4.5-.6s.4-.3.7-.4.5-.1.8-.1c.4,0,.8,0,1.2.2s.6.4.7.7.3.7.3,1.1v4.5h-1.1v-4.4c0-.4-.1-.7-.4-1s-.6-.3-1-.3-.6,0-.9.2-.5.4-.6.6-.2.6-.2.9v3.9h-1.1Z"/>
      <path class="cls-11" d="M103.4,108.3v-6.4h1.1v.9h0c.2-.2.3-.4.5-.6s.4-.3.7-.4.5-.1.8-.1c.4,0,.8,0,1.2.2s.6.4.7.7.3.7.3,1.1v4.5h-1.1v-4.4c0-.4-.1-.7-.4-1s-.6-.3-1-.3-.6,0-.9.2-.5.4-.6.6-.2.6-.2.9v3.9h-1.1Z"/>
      <path class="cls-11" d="M110.2,100.6v-1.3h1.2v1.3h-1.2ZM110.2,108.3v-6.4h1.1v6.4h-1.1Z"/>
      <path class="cls-11" d="M112.9,108.3v-6.4h1.1v.9h0c.2-.2.3-.4.5-.6s.4-.3.7-.4.5-.1.8-.1c.4,0,.8,0,1.2.2s.6.4.7.7.3.7.3,1.1v4.5h-1.1v-4.4c0-.4-.1-.7-.4-1s-.6-.3-1-.3-.6,0-.9.2-.5.4-.6.6-.2.6-.2.9v3.9h-1.1Z"/>
      <path class="cls-11" d="M122.4,110.5c-.8,0-1.5-.2-2-.5s-.7-.8-.8-1.3h1c0,.3.2.6.5.7s.7.2,1.2.2,1-.1,1.3-.4.5-.7.5-1.2v-.2c0-.2,0-.4,0-.5s0-.3,0-.4h0c-.2.3-.5.6-.8.8s-.7.3-1.1.3-1-.1-1.5-.4-.8-.6-1-1.1-.4-1-.4-1.6.1-1.2.4-1.7.6-.8,1-1.1.9-.4,1.4-.4.6,0,.8.1.5.2.6.3.3.3.5.6h0v-.9h1.1v6.2c0,.4,0,.8-.2,1.1s-.3.6-.6.8c-.2.2-.6.4-.9.5s-.7.1-1.2.1ZM122.4,107.1c.5,0,.8-.1,1.1-.3s.5-.5.6-.8.2-.7.2-1.2,0-.8-.2-1.2-.3-.6-.6-.8-.6-.3-1.1-.3-.7,0-1,.3-.5.4-.6.8-.2.7-.2,1.2,0,.9.2,1.2.3.6.6.8.6.3,1,.3Z"/>
    </g>
    <rect class="cls-4" x="203.2" y="40.3" width="89.8" height="17.7" rx="2" ry="2"/>
    <g>
      <path class="cls-11" d="M209.6,52.3v-8.9h4.2c.5,0,1,.1,1.4.3s.7.5.9.9.3.8.3,1.3-.1,1-.4,1.4-.7.7-1.3.8h0c.3.1.6.3.8.4s.3.4.4.7.1.6.2,1.1c0,.3,0,.6,0,.8s0,.4,0,.6,0,.3.1.4,0,.2.1.2h0c0,0-1.3,0-1.3,0,0,0-.1-.2-.2-.3s0-.3,0-.6,0-.6,0-1.1c0-.6-.2-1.1-.5-1.3s-.7-.4-1.3-.4h-2.4v3.7h-1.2ZM210.8,47.6h2.6c.6,0,1.1-.1,1.4-.4s.5-.7.5-1.2-.1-.9-.4-1.2-.7-.4-1.3-.4h-2.6v3.2Z"/>
      <path class="cls-11" d="M220.5,52.5c-.7,0-1.2-.2-1.7-.5s-.8-.7-1.1-1.2-.4-1.1-.4-1.7.1-1.2.4-1.7.6-.9,1.1-1.2,1-.5,1.6-.5.9,0,1.3.3.7.4.9.7c.3.3.5.7.6,1.2s.2,1,.2,1.5h-4.9c0,.4.1.8.3,1.1s.4.6.7.8.6.3,1.1.3.8,0,1.1-.3.5-.5.6-.8h1.1c0,.4-.3.7-.5,1.1s-.6.5-1,.7-.8.3-1.3.3ZM218.6,48.5h3.7c0-.4-.1-.8-.2-1.1s-.3-.5-.6-.7-.6-.2-1-.2-.7,0-1,.3-.5.4-.6.7-.3.6-.3,1Z"/>
      <path class="cls-11" d="M226.6,52.3c-.3,0-.5,0-.8-.1s-.4-.2-.5-.4-.2-.4-.2-.8v-4.3h-1v-.9h1v-2h1.1v2h1.3v.9h-1.3v4.1c0,.2,0,.4.2.5s.3.1.5.1.2,0,.3,0,.2,0,.3,0h0v.9c-.1,0-.3,0-.5,0s-.3,0-.5,0Z"/>
      <path class="cls-11" d="M228.8,52.3v-6.4h1.1v1.2h0c.2-.4.5-.7.8-.9s.7-.3,1.1-.3.2,0,.2,0,.1,0,.2,0v1.1h0c0,0-.1,0-.2,0s-.1,0-.2,0c-.2,0-.5,0-.7.1s-.4.2-.6.4-.3.4-.4.6-.1.5-.1.8v3.5h-1.1Z"/>
      <path class="cls-11" d="M235.9,52.5c-.6,0-1.2-.2-1.7-.5s-.8-.7-1.1-1.2-.4-1.1-.4-1.7.1-1.2.4-1.7.6-.9,1.1-1.2,1-.5,1.7-.5,1.2.2,1.7.5.8.7,1.1,1.2.4,1.1.4,1.7-.1,1.2-.4,1.7-.6.9-1.1,1.2-1,.5-1.7.5ZM235.9,51.6c.4,0,.8-.1,1.1-.3s.5-.5.7-.9.2-.8.2-1.3,0-.9-.2-1.3-.4-.7-.7-.9-.7-.3-1.1-.3-.8.1-1.1.3-.5.5-.7.9-.2.8-.2,1.3,0,.9.2,1.3.4.7.7.9.7.3,1.1.3Z"/>
      <path class="cls-11" d="M242.7,52.5c-.6,0-1.1,0-1.5-.3s-.7-.4-1-.8-.4-.7-.4-1.1h1.1c0,.5.3.8.6,1s.7.3,1.2.3.9,0,1.1-.3.3-.4.3-.7,0-.4-.2-.6-.3-.2-.6-.3-.6-.2-.9-.2c-.3,0-.6-.1-.9-.2s-.5-.2-.8-.3-.4-.3-.5-.5-.2-.5-.2-.9,0-.7.3-1,.5-.5.8-.6.8-.2,1.3-.2,1,0,1.4.2.6.4.8.7.3.6.4,1h-1.1c0-.2-.1-.4-.2-.6s-.3-.3-.5-.3-.5-.1-.8-.1c-.4,0-.8,0-1,.3s-.3.4-.3.6,0,.4.2.5.3.2.6.3.6.1.9.2c.3,0,.6.1.9.2s.5.2.8.3.4.3.5.6.2.5.2.9-.1.8-.3,1.1-.5.5-.9.7-.8.2-1.3.2Z"/>
      <path class="cls-11" d="M246.5,54.5v-8.6h1.1v1h0c.2-.2.3-.5.5-.6s.4-.3.7-.4.5-.1.8-.1c.5,0,1,.1,1.4.4s.7.7,1,1.2.4,1.1.4,1.8-.1,1.3-.3,1.8-.5.9-1,1.2-.9.4-1.5.4-.8,0-1.2-.3-.6-.4-.8-.8h0c0,.1,0,.3,0,.4s0,.4,0,.6v2h-1.1ZM249.5,51.5c.4,0,.7-.1,1-.3s.5-.5.6-.9.2-.8.2-1.3,0-.9-.2-1.3-.3-.7-.6-.9-.6-.3-1-.3-.8.1-1.1.3-.5.5-.7.9-.2.8-.2,1.2,0,.9.2,1.2.3.7.6.9.7.3,1.1.3Z"/>
      <path class="cls-11" d="M256.4,52.5c-.7,0-1.2-.2-1.7-.5s-.8-.7-1.1-1.2-.4-1.1-.4-1.7.1-1.2.4-1.7.6-.9,1.1-1.2,1-.5,1.6-.5.9,0,1.3.3.7.4.9.7c.3.3.5.7.6,1.2s.2,1,.2,1.5h-4.9c0,.4.1.8.3,1.1s.4.6.7.8.6.3,1.1.3.8,0,1.1-.3.5-.5.6-.8h1.1c0,.4-.3.7-.5,1.1s-.6.5-1,.7-.8.3-1.3.3ZM254.4,48.5h3.7c0-.4-.1-.8-.2-1.1s-.3-.5-.6-.7-.6-.2-1-.2-.7,0-1,.3-.5.4-.6.7-.3.6-.3,1Z"/>
      <path class="cls-11" d="M263.3,52.5c-.6,0-1.2-.2-1.7-.5s-.8-.7-1.1-1.2-.4-1.1-.4-1.7.1-1.2.4-1.7.6-.9,1.1-1.2,1-.5,1.7-.5,1,0,1.4.3.7.4.9.8.4.7.5,1.2h-1.1c0-.3-.1-.5-.3-.7s-.3-.4-.6-.5-.5-.2-.8-.2-.8.1-1.1.3-.5.5-.7.9-.2.8-.2,1.3,0,.9.2,1.3.4.7.7.9.7.3,1.1.3.9-.1,1.2-.4.5-.7.5-1.1h1.1c0,.5-.2,1-.4,1.3s-.6.6-1,.8-.9.3-1.4.3Z"/>
      <path class="cls-11" d="M269.3,52.3c-.3,0-.5,0-.8-.1s-.4-.2-.5-.4-.2-.4-.2-.8v-4.3h-1v-.9h1v-2h1.1v2h1.3v.9h-1.3v4.1c0,.2,0,.4.2.5s.3.1.5.1.2,0,.3,0,.2,0,.3,0h0v.9c-.1,0-.3,0-.5,0s-.3,0-.5,0Z"/>
      <path class="cls-11" d="M271.4,44.7v-1.3h1.2v1.3h-1.2ZM271.5,52.3v-6.4h1.1v6.4h-1.1Z"/>
      <path class="cls-11" d="M275.7,52.3l-2.2-6.4h1.2l1.1,3.5c0,.2.1.4.2.7s.1.5.2.7.1.4.2.7h0c0-.3.1-.5.2-.7s.1-.4.2-.7.1-.5.2-.7l1.2-3.5h1.1l-2.3,6.4h-1.2Z"/>
      <path class="cls-11" d="M282.7,52.5c-.7,0-1.2-.2-1.7-.5s-.8-.7-1.1-1.2-.4-1.1-.4-1.7.1-1.2.4-1.7.6-.9,1.1-1.2,1-.5,1.6-.5.9,0,1.3.3.7.4.9.7c.3.3.5.7.6,1.2s.2,1,.2,1.5h-4.9c0,.4.1.8.3,1.1s.4.6.7.8.6.3,1.1.3.8,0,1.1-.3.5-.5.6-.8h1.1c0,.4-.3.7-.5,1.1s-.6.5-1,.7-.8.3-1.3.3ZM280.7,48.5h3.7c0-.4-.1-.8-.2-1.1s-.3-.5-.6-.7-.6-.2-1-.2-.7,0-1,.3-.5.4-.6.7-.3.6-.3,1Z"/>
    </g>
    <rect class="cls-4" x="213.3" y="80.2" width="81.6" height="22.3" rx="2" ry="2"/>
    <g>
      <path class="cls-11" d="M222.3,94.7c-.8,0-1.5-.1-2.1-.4s-1-.6-1.3-1.1-.5-1-.5-1.5h1.2c0,.4.2.8.4,1.1s.5.5.9.7.8.2,1.4.2.8,0,1.1-.2.6-.3.7-.5.3-.5.3-.9-.1-.7-.3-.9-.5-.4-.9-.5-.9-.2-1.4-.4c-.4,0-.8-.2-1.1-.3s-.7-.3-.9-.4-.5-.4-.6-.7-.2-.6-.2-1.1.1-.9.4-1.3.6-.6,1.1-.8,1-.3,1.6-.3,1,0,1.4.2.7.3,1,.5.5.5.6.8.3.7.3,1.1h-1.2c0-.5-.3-1-.7-1.2s-.9-.4-1.5-.4-1.1.1-1.4.4-.5.6-.5,1,0,.6.3.8.5.3.8.4.7.2,1.2.3c.4,0,.8.2,1.2.3s.7.3,1.1.5.6.5.7.8.3.7.3,1.2-.1,1-.4,1.4-.7.7-1.2.9-1.1.3-1.7.3Z"/>
      <path class="cls-11" d="M227,96.8v-8.6h1.1v1h0c.2-.2.3-.5.5-.6s.4-.3.7-.4.5-.1.8-.1c.5,0,1,.1,1.4.4s.7.7,1,1.2.4,1.1.4,1.8-.1,1.3-.3,1.8-.5.9-1,1.2-.9.4-1.5.4-.8,0-1.2-.3-.6-.4-.8-.8h0c0,.1,0,.3,0,.4s0,.4,0,.6v2h-1.1ZM230,93.8c.4,0,.7-.1,1-.3s.5-.5.6-.9.2-.8.2-1.3,0-.9-.2-1.3-.3-.7-.6-.9-.6-.3-1-.3-.8.1-1.1.3-.5.5-.7.9-.2.8-.2,1.2,0,.9.2,1.2.3.7.6.9.7.3,1.1.3Z"/>
      <path class="cls-11" d="M234.1,94.6v-6.4h1.1v1.2h0c.2-.4.5-.7.8-.9s.7-.3,1.1-.3.2,0,.2,0,.1,0,.2,0v1.1h0c0,0-.1,0-.2,0s-.1,0-.2,0c-.2,0-.5,0-.7.1s-.4.2-.6.4-.3.4-.4.6-.1.5-.1.8v3.5h-1.1Z"/>
      <path class="cls-11" d="M238.7,86.9v-1.3h1.2v1.3h-1.2ZM238.7,94.6v-6.4h1.1v6.4h-1.1Z"/>
      <path class="cls-11" d="M241.3,94.6v-6.4h1.1v.9h0c.2-.2.3-.4.5-.6s.4-.3.7-.4.5-.1.8-.1c.4,0,.8,0,1.2.2s.6.4.7.7.3.7.3,1.1v4.5h-1.1v-4.4c0-.4-.1-.7-.4-1s-.6-.3-1-.3-.6,0-.9.2-.5.4-.6.6-.2.6-.2.9v3.9h-1.1Z"/>
      <path class="cls-11" d="M250.1,94.6c-.3,0-.5,0-.8-.1s-.4-.2-.5-.4-.2-.4-.2-.8v-4.3h-1v-.9h1v-2h1.1v2h1.3v.9h-1.3v4.1c0,.2,0,.4.2.5s.3.1.5.1.2,0,.3,0,.2,0,.3,0h0v.9c-.1,0-.3,0-.5,0s-.3,0-.5,0Z"/>
      <path class="cls-11" d="M255.5,94.6v-6.4h1.1v1.2h0c.2-.4.5-.7.8-.9s.7-.3,1.1-.3.2,0,.2,0,.1,0,.2,0v1.1h0c0,0-.1,0-.2,0s-.1,0-.2,0c-.2,0-.5,0-.7.1s-.4.2-.6.4-.3.4-.4.6-.1.5-.1.8v3.5h-1.1Z"/>
      <path class="cls-11" d="M262.6,94.7c-.7,0-1.2-.2-1.7-.5s-.8-.7-1.1-1.2-.4-1.1-.4-1.7.1-1.2.4-1.7.6-.9,1.1-1.2,1-.5,1.6-.5.9,0,1.3.3.7.4.9.7c.3.3.5.7.6,1.2s.2,1,.2,1.5h-4.9c0,.4.1.8.3,1.1s.4.6.7.8.6.3,1.1.3.8,0,1.1-.3.5-.5.6-.8h1.1c0,.4-.3.7-.5,1.1s-.6.5-1,.7-.8.3-1.3.3ZM260.6,90.8h3.7c0-.4-.1-.8-.2-1.1s-.3-.5-.6-.7-.6-.2-1-.2-.7,0-1,.3-.5.4-.6.7-.3.6-.3,1Z"/>
      <path class="cls-11" d="M268.1,94.6l-2.2-6.4h1.2l1.1,3.5c0,.2.1.4.2.7s.1.5.2.7.1.4.2.7h0c0-.3.1-.5.2-.7s.1-.4.2-.7.1-.5.2-.7l1.2-3.5h1.1l-2.3,6.4h-1.2Z"/>
      <path class="cls-11" d="M272.5,86.9v-1.3h1.2v1.3h-1.2ZM272.5,94.6v-6.4h1.1v6.4h-1.1Z"/>
      <path class="cls-11" d="M278,94.7c-.7,0-1.2-.2-1.7-.5s-.8-.7-1.1-1.2-.4-1.1-.4-1.7.1-1.2.4-1.7.6-.9,1.1-1.2,1-.5,1.6-.5.9,0,1.3.3.7.4.9.7c.3.3.5.7.6,1.2s.2,1,.2,1.5h-4.9c0,.4.1.8.3,1.1s.4.6.7.8.6.3,1.1.3.8,0,1.1-.3.5-.5.6-.8h1.1c0,.4-.3.7-.5,1.1s-.6.5-1,.7-.8.3-1.3.3ZM276,90.8h3.7c0-.4-.1-.8-.2-1.1s-.3-.5-.6-.7-.6-.2-1-.2-.7,0-1,.3-.5.4-.6.7-.3.6-.3,1Z"/>
      <path class="cls-11" d="M283.4,94.6l-2-6.4h1.2l1,3.6c0,.2.1.4.2.6s0,.4.1.6,0,.4.1.7h0c0-.2,0-.4.1-.6s0-.4.1-.6.1-.4.2-.6l1-3.6h1.1l1,3.6c0,.2,0,.4.1.6s0,.4.1.6,0,.4.1.7h0c0-.2,0-.5.1-.7s0-.4.1-.6.1-.4.2-.6l1.1-3.6h1.2l-2.1,6.4h-1.1l-.9-3.6c0-.2,0-.3-.1-.5s0-.4-.1-.6,0-.4-.1-.7h0c0,.3,0,.5-.1.7s0,.4-.1.6,0,.4-.1.5l-1,3.6h-1.1Z"/>
    </g>
    <rect class="cls-3" x="276.7" y="134" width="59.3" height="37" rx="2" ry="2"/>
    <g>
      <path class="cls-11" d="M294.9,148.8c-.8,0-1.5-.1-2.1-.4s-1-.6-1.3-1.1-.5-1-.5-1.5h1.2c0,.4.2.8.4,1.1s.5.5.9.7.8.2,1.4.2.8,0,1.1-.2.6-.3.7-.5.3-.5.3-.9-.1-.7-.3-.9-.5-.4-.9-.5-.9-.2-1.4-.4c-.4,0-.8-.2-1.1-.3s-.7-.3-.9-.4-.5-.4-.6-.7-.2-.6-.2-1.1.1-.9.4-1.3.6-.6,1.1-.8,1-.3,1.6-.3,1,0,1.4.2.7.3,1,.5.5.5.6.8.3.7.3,1.1h-1.2c0-.5-.3-1-.7-1.2s-.9-.4-1.5-.4-1.1.1-1.4.4-.5.6-.5,1,0,.6.3.8.5.3.8.4.7.2,1.2.3c.4,0,.8.2,1.2.3s.7.3,1.1.5.6.5.7.8.3.7.3,1.2-.1,1-.4,1.4-.7.7-1.2.9-1.1.3-1.7.3Z"/>
      <path class="cls-11" d="M299.5,150.8v-8.6h1.1v1h0c.2-.2.3-.5.5-.6s.4-.3.7-.4.5-.1.8-.1c.5,0,1,.1,1.4.4s.7.7,1,1.2.4,1.1.4,1.8-.1,1.3-.3,1.8-.5.9-1,1.2-.9.4-1.5.4-.8,0-1.2-.3-.6-.4-.8-.8h0c0,.1,0,.3,0,.4s0,.4,0,.6v2h-1.1ZM302.5,147.8c.4,0,.7-.1,1-.3s.5-.5.6-.9.2-.8.2-1.3,0-.9-.2-1.3-.3-.7-.6-.9-.6-.3-1-.3-.8.1-1.1.3-.5.5-.7.9-.2.8-.2,1.2,0,.9.2,1.2.3.7.6.9.7.3,1.1.3Z"/>
      <path class="cls-11" d="M306.7,148.6v-6.4h1.1v1.2h0c.2-.4.5-.7.8-.9s.7-.3,1.1-.3.2,0,.2,0,.1,0,.2,0v1.1h0c0,0-.1,0-.2,0s-.1,0-.2,0c-.2,0-.5,0-.7.1s-.4.2-.6.4-.3.4-.4.6-.1.5-.1.8v3.5h-1.1Z"/>
      <path class="cls-11" d="M311.2,141v-1.3h1.2v1.3h-1.2ZM311.2,148.6v-6.4h1.1v6.4h-1.1Z"/>
      <path class="cls-11" d="M313.9,148.6v-6.4h1.1v.9h0c.2-.2.3-.4.5-.6s.4-.3.7-.4.5-.1.8-.1c.4,0,.8,0,1.2.2s.6.4.7.7.3.7.3,1.1v4.5h-1.1v-4.4c0-.4-.1-.7-.4-1s-.6-.3-1-.3-.6,0-.9.2-.5.4-.6.6-.2.6-.2.9v3.9h-1.1Z"/>
      <path class="cls-11" d="M322.7,148.6c-.3,0-.5,0-.8-.1s-.4-.2-.5-.4-.2-.4-.2-.8v-4.3h-1v-.9h1v-2h1.1v2h1.3v.9h-1.3v4.1c0,.2,0,.4.2.5s.3.1.5.1.2,0,.3,0,.2,0,.3,0h0v.9c-.1,0-.3,0-.5,0s-.3,0-.5,0Z"/>
      <path class="cls-11" d="M289.2,163.2c-.4,0-.8,0-1.2-.3s-.6-.5-.8-.8h0v.9h-1.1v-8.9h1.1v2.3c0,.2,0,.5,0,.7s0,.4,0,.5h0c.1-.2.3-.4.5-.6s.4-.3.7-.4.5-.2.9-.2c.5,0,1,.1,1.4.4s.7.7,1,1.2.3,1.1.3,1.8-.1,1.3-.3,1.8-.5.9-1,1.2-.9.4-1.5.4ZM289.1,162.2c.4,0,.7-.1,1-.3s.5-.5.6-.9.2-.8.2-1.3,0-.9-.2-1.3-.3-.7-.6-.9-.6-.3-1-.3-.8.1-1.1.3-.5.5-.7.9-.2.8-.2,1.2,0,.9.2,1.3.4.7.7.9.7.3,1.1.3Z"/>
      <path class="cls-11" d="M295.1,163.1c-.4,0-.8,0-1.1-.2s-.6-.3-.8-.6-.3-.6-.3-1,.1-.9.3-1.2.6-.5,1-.6.9-.2,1.5-.3c.3,0,.6,0,.8-.1s.4-.1.5-.3.2-.3.2-.5c0-.3-.1-.6-.4-.8s-.6-.3-1-.3-.9.1-1.1.3-.4.5-.4.9h-1.1c0-.4.1-.7.3-1s.5-.6.9-.8.9-.3,1.4-.3.6,0,.9,0,.5.1.7.3c.3.2.5.4.6.7s.2.6.2,1.1v3c0,.2,0,.4.1.5s.2.2.4.2,0,0,.1,0,0,0,0,0h0v.8c0,0-.2,0-.3,0s-.2,0-.3,0c-.2,0-.4,0-.6-.1s-.3-.2-.4-.4-.1-.5-.1-.8h0c0,0,0,.3,0,.3h0c-.2.3-.5.5-.8.8s-.8.3-1.3.3ZM295.4,162.3c.4,0,.8,0,1.1-.3s.5-.4.6-.7.2-.5.2-.8v-1.1c-.1,0-.2.1-.4.2s-.3.1-.5.2-.3,0-.5.1c-.4,0-.7.1-.9.2s-.5.2-.6.4-.2.4-.2.7,0,.5.2.6.3.3.5.3.4,0,.6,0Z"/>
      <path class="cls-11" d="M302.7,163.2c-.6,0-1.2-.2-1.7-.5s-.8-.7-1.1-1.2-.4-1.1-.4-1.7.1-1.2.4-1.7.6-.9,1.1-1.2,1-.5,1.7-.5,1,0,1.4.3.7.4.9.8.4.7.5,1.2h-1.1c0-.3-.1-.5-.3-.7s-.3-.4-.6-.5-.5-.2-.8-.2-.8.1-1.1.3-.5.5-.7.9-.2.8-.2,1.3,0,.9.2,1.3.4.7.7.9.7.3,1.1.3.9-.1,1.2-.4.5-.7.5-1.1h1.1c0,.5-.2,1-.4,1.3s-.6.6-1,.8-.9.3-1.4.3Z"/>
      <path class="cls-11" d="M306.7,163v-8.9h1.1v4.2c0,.1,0,.3,0,.5s0,.4,0,.5l2.8-2.7h1.4l-2.5,2.3,2.7,4.1h-1.3l-2.2-3.4-.9.9v2.5h-1.1Z"/>
      <path class="cls-11" d="M313.2,163v-8.9h1.1v8.9h-1.1Z"/>
      <path class="cls-11" d="M318.7,163.2c-.6,0-1.2-.2-1.7-.5s-.8-.7-1.1-1.2-.4-1.1-.4-1.7.1-1.2.4-1.7.6-.9,1.1-1.2,1-.5,1.7-.5,1.2.2,1.7.5.8.7,1.1,1.2.4,1.1.4,1.7-.1,1.2-.4,1.7-.6.9-1.1,1.2-1,.5-1.7.5ZM318.7,162.3c.4,0,.8-.1,1.1-.3s.5-.5.7-.9.2-.8.2-1.3,0-.9-.2-1.3-.4-.7-.7-.9-.7-.3-1.1-.3-.8.1-1.1.3-.5.5-.7.9-.2.8-.2,1.3,0,.9.2,1.3.4.7.7.9.7.3,1.1.3Z"/>
      <path class="cls-11" d="M325.8,165.3c-.8,0-1.5-.2-2-.5s-.7-.8-.8-1.3h1c0,.3.2.6.5.7s.7.2,1.2.2,1-.1,1.3-.4.5-.7.5-1.2v-.2c0-.2,0-.4,0-.5s0-.3,0-.4h0c-.2.3-.5.6-.8.8s-.7.3-1.1.3-1-.1-1.5-.4-.8-.6-1-1.1-.4-1-.4-1.6.1-1.2.4-1.7.6-.8,1-1.1.9-.4,1.4-.4.6,0,.8.1.5.2.6.3.3.3.5.6h0v-.9h1.1v6.2c0,.4,0,.8-.2,1.1s-.3.6-.6.8c-.2.2-.6.4-.9.5s-.7.1-1.2.1ZM325.7,161.8c.5,0,.8-.1,1.1-.3s.5-.5.6-.8.2-.7.2-1.2,0-.8-.2-1.2-.3-.6-.6-.8-.6-.3-1.1-.3-.7,0-1,.3-.5.4-.6.8-.2.7-.2,1.2,0,.9.2,1.2.3.6.6.8.6.3,1,.3Z"/>
    </g>
    <rect class="cls-3" x="279.3" y="203.6" width="60" height="20" rx="2" ry="2"/>
    <g>
      <path class="cls-11" d="M289,217.9v-8.9h3.8c.5,0,.9,0,1.2.2s.7.3.9.6c.2.2.3.4.4.7s.2.6.2.9c0,.5-.1.9-.4,1.2s-.6.5-1.1.7h0c.5.2,1,.4,1.3.8s.5.8.5,1.4,0,.7-.2,1-.3.5-.5.8c-.3.3-.6.5-1,.6s-.8.2-1.3.2h-4ZM290.3,212.8h2.4c.5,0,.9-.1,1.2-.4s.4-.6.4-1,0-.5-.2-.7-.3-.4-.5-.5-.5-.2-.8-.2h-2.6v2.7ZM290.3,216.9h2.7c.3,0,.6,0,.8-.1s.4-.2.6-.3c.1-.1.2-.3.3-.4s.1-.4.1-.6c0-.4,0-.7-.2-.9s-.4-.4-.6-.5-.6-.2-.9-.2h-2.6v3.1Z"/>
      <path class="cls-11" d="M299.1,218.1c-.4,0-.8,0-1.1-.2s-.6-.3-.8-.6-.3-.6-.3-1,.1-.9.3-1.2.6-.5,1-.6.9-.2,1.5-.3c.3,0,.6,0,.8-.1s.4-.1.5-.3.2-.3.2-.5c0-.3-.1-.6-.4-.8s-.6-.3-1-.3-.9.1-1.1.3-.4.5-.4.9h-1.1c0-.4.1-.7.3-1s.5-.6.9-.8.9-.3,1.4-.3.6,0,.9,0,.5.1.7.3c.3.2.5.4.6.7s.2.6.2,1.1v3c0,.2,0,.4.1.5s.2.2.4.2,0,0,.1,0,0,0,0,0h0v.8c0,0-.2,0-.3,0s-.2,0-.3,0c-.2,0-.4,0-.6-.1s-.3-.2-.4-.4-.1-.5-.1-.8h0c0,0,0,.3,0,.3h0c-.2.3-.5.5-.8.8s-.8.3-1.3.3ZM299.4,217.3c.4,0,.8,0,1.1-.3s.5-.4.6-.7.2-.5.2-.8v-1.1c-.1,0-.2.1-.4.2s-.3.1-.5.2-.3,0-.5.1c-.4,0-.7.1-.9.2s-.5.2-.6.4-.2.4-.2.7,0,.5.2.6.3.3.5.3.4,0,.6,0Z"/>
      <path class="cls-11" d="M306.7,218.1c-.6,0-1.2-.2-1.7-.5s-.8-.7-1.1-1.2-.4-1.1-.4-1.7.1-1.2.4-1.7.6-.9,1.1-1.2,1-.5,1.7-.5,1,0,1.4.3.7.4.9.8.4.7.5,1.2h-1.1c0-.3-.1-.5-.3-.7s-.3-.4-.6-.5-.5-.2-.8-.2-.8.1-1.1.3-.5.5-.7.9-.2.8-.2,1.3,0,.9.2,1.3.4.7.7.9.7.3,1.1.3.9-.1,1.2-.4.5-.7.5-1.1h1.1c0,.5-.2,1-.4,1.3s-.6.6-1,.8-.9.3-1.4.3Z"/>
      <path class="cls-11" d="M310.6,217.9v-8.9h1.1v4.2c0,.1,0,.3,0,.5s0,.4,0,.5l2.8-2.7h1.4l-2.5,2.3,2.7,4.1h-1.3l-2.2-3.4-.9.9v2.5h-1.1Z"/>
      <path class="cls-11" d="M317.2,217.9v-8.9h1.1v8.9h-1.1Z"/>
      <path class="cls-11" d="M322.7,218.1c-.6,0-1.2-.2-1.7-.5s-.8-.7-1.1-1.2-.4-1.1-.4-1.7.1-1.2.4-1.7.6-.9,1.1-1.2,1-.5,1.7-.5,1.2.2,1.7.5.8.7,1.1,1.2.4,1.1.4,1.7-.1,1.2-.4,1.7-.6.9-1.1,1.2-1,.5-1.7.5ZM322.6,217.2c.4,0,.8-.1,1.1-.3s.5-.5.7-.9.2-.8.2-1.3,0-.9-.2-1.3-.4-.7-.7-.9-.7-.3-1.1-.3-.8.1-1.1.3-.5.5-.7.9-.2.8-.2,1.3,0,.9.2,1.3.4.7.7.9.7.3,1.1.3Z"/>
      <path class="cls-11" d="M329.7,220.2c-.8,0-1.5-.2-2-.5s-.7-.8-.8-1.3h1c0,.3.2.6.5.7s.7.2,1.2.2,1-.1,1.3-.4.5-.7.5-1.2v-.2c0-.2,0-.4,0-.5s0-.3,0-.4h0c-.2.3-.5.6-.8.8s-.7.3-1.1.3-1-.1-1.5-.4-.8-.6-1-1.1-.4-1-.4-1.6.1-1.2.4-1.7.6-.8,1-1.1.9-.4,1.4-.4.6,0,.8.1.5.2.6.3.3.3.5.6h0v-.9h1.1v6.2c0,.4,0,.8-.2,1.1s-.3.6-.6.8c-.2.2-.6.4-.9.5s-.7.1-1.2.1ZM329.7,216.7c.5,0,.8-.1,1.1-.3s.5-.5.6-.8.2-.7.2-1.2,0-.8-.2-1.2-.3-.6-.6-.8-.6-.3-1.1-.3-.7,0-1,.3-.5.4-.6.8-.2.7-.2,1.2,0,.9.2,1.2.3.6.6.8.6.3,1,.3Z"/>
    </g>
    <rect class="cls-3" x="168.3" y="227.3" width="71.3" height="22.1" rx="2" ry="2"/>
    <g>
      <path class="cls-11" d="M176.8,241.5v-8.9h1.2v8.9h-1.2Z"/>
      <path class="cls-11" d="M179.7,241.5v-6.4h1.1v.9h0c.2-.2.3-.4.5-.6s.4-.3.7-.4.5-.1.8-.1c.4,0,.8,0,1.2.2s.6.4.7.7.3.7.3,1.1v4.5h-1.1v-4.4c0-.4-.1-.7-.4-1s-.6-.3-1-.3-.6,0-.9.2-.5.4-.6.6-.2.6-.2.9v3.9h-1.1Z"/>
      <path class="cls-11" d="M189.4,241.7c-.6,0-1.2-.2-1.7-.5s-.8-.7-1.1-1.2-.4-1.1-.4-1.7.1-1.2.4-1.7.6-.9,1.1-1.2,1-.5,1.7-.5,1,0,1.4.3.7.4.9.8.4.7.5,1.2h-1.1c0-.3-.1-.5-.3-.7s-.3-.4-.6-.5-.5-.2-.8-.2-.8.1-1.1.3-.5.5-.7.9-.2.8-.2,1.3,0,.9.2,1.3.4.7.7.9.7.3,1.1.3.9-.1,1.2-.4.5-.7.5-1.1h1.1c0,.5-.2,1-.4,1.3s-.6.6-1,.8-.9.3-1.4.3Z"/>
      <path class="cls-11" d="M193.3,241.5v-6.4h1.1v1.2h0c.2-.4.5-.7.8-.9s.7-.3,1.1-.3.2,0,.2,0,.1,0,.2,0v1.1h0c0,0-.1,0-.2,0s-.1,0-.2,0c-.2,0-.5,0-.7.1s-.4.2-.6.4-.3.4-.4.6-.1.5-.1.8v3.5h-1.1Z"/>
      <path class="cls-11" d="M200.4,241.7c-.7,0-1.2-.2-1.7-.5s-.8-.7-1.1-1.2-.4-1.1-.4-1.7.1-1.2.4-1.7.6-.9,1.1-1.2,1-.5,1.6-.5.9,0,1.3.3.7.4.9.7c.3.3.5.7.6,1.2s.2,1,.2,1.5h-4.9c0,.4.1.8.3,1.1s.4.6.7.8.6.3,1.1.3.8,0,1.1-.3.5-.5.6-.8h1.1c0,.4-.3.7-.5,1.1s-.6.5-1,.7-.8.3-1.3.3ZM198.4,237.8h3.7c0-.4-.1-.8-.2-1.1s-.3-.5-.6-.7-.6-.2-1-.2-.7,0-1,.3-.5.4-.6.7-.3.6-.3,1Z"/>
      <path class="cls-11" d="M204.5,241.5v-6.4h1.1v1h0c.1-.2.3-.4.5-.6s.4-.3.6-.4.5-.1.8-.1c.4,0,.7.1,1,.3s.5.5.6.9h0c.2-.4.5-.7.9-.9s.7-.3,1.1-.3.7,0,1,.2.5.4.7.7.3.7.3,1.1v4.5h-1.1v-4.4c0-.4-.1-.7-.3-.9s-.5-.3-.8-.3-.5,0-.8.2-.4.3-.6.6-.2.5-.2.9v4h-1.1v-4.4c0-.4-.1-.7-.3-.9s-.5-.3-.8-.3-.5,0-.8.2-.4.3-.6.6-.2.5-.2.9v4h-1.1Z"/>
      <path class="cls-11" d="M217.6,241.7c-.7,0-1.2-.2-1.7-.5s-.8-.7-1.1-1.2-.4-1.1-.4-1.7.1-1.2.4-1.7.6-.9,1.1-1.2,1-.5,1.6-.5.9,0,1.3.3.7.4.9.7c.3.3.5.7.6,1.2s.2,1,.2,1.5h-4.9c0,.4.1.8.3,1.1s.4.6.7.8.6.3,1.1.3.8,0,1.1-.3.5-.5.6-.8h1.1c0,.4-.3.7-.5,1.1s-.6.5-1,.7-.8.3-1.3.3ZM215.6,237.8h3.7c0-.4-.1-.8-.2-1.1s-.3-.5-.6-.7-.6-.2-1-.2-.7,0-1,.3-.5.4-.6.7-.3.6-.3,1Z"/>
      <path class="cls-11" d="M221.7,241.5v-6.4h1.1v.9h0c.2-.2.3-.4.5-.6s.4-.3.7-.4.5-.1.8-.1c.4,0,.8,0,1.2.2s.6.4.7.7.3.7.3,1.1v4.5h-1.1v-4.4c0-.4-.1-.7-.4-1s-.6-.3-1-.3-.6,0-.9.2-.5.4-.6.6-.2.6-.2.9v3.9h-1.1Z"/>
      <path class="cls-11" d="M230.5,241.6c-.3,0-.5,0-.8-.1s-.4-.2-.5-.4-.2-.4-.2-.8v-4.3h-1v-.9h1v-2h1.1v2h1.3v.9h-1.3v4.1c0,.2,0,.4.2.5s.3.1.5.1.2,0,.3,0,.2,0,.3,0h0v.9c-.1,0-.3,0-.5,0s-.3,0-.5,0Z"/>
    </g>
  </g>
  <g id="Text">
    <g>
      <path class="cls-11" d="M151,158.6c-1.2,0-2.3-.2-3.1-.6s-1.5-1-1.9-1.7-.7-1.5-.7-2.3h1.8c0,.7.3,1.2.6,1.7s.8.8,1.3,1.1,1.3.4,2.1.4,1.1,0,1.6-.3.8-.4,1.1-.8.4-.8.4-1.3-.2-1-.5-1.4-.8-.6-1.4-.8-1.3-.4-2.1-.5c-.6-.1-1.2-.3-1.7-.4s-1-.4-1.4-.7-.7-.6-1-1.1-.4-1-.4-1.6.2-1.4.6-1.9.9-.9,1.6-1.2,1.5-.4,2.4-.4,1.5,0,2.1.3,1.1.5,1.5.8.7.8,1,1.2.4,1,.5,1.6h-1.8c-.1-.8-.5-1.4-1-1.9s-1.3-.6-2.3-.6-1.6.2-2.1.5-.8.9-.8,1.5.1.9.4,1.2.7.5,1.2.7,1.1.3,1.8.5c.7.1,1.3.3,1.9.5s1.1.4,1.6.7.8.7,1.1,1.2.4,1.1.4,1.8-.2,1.6-.6,2.1-1,1-1.8,1.3-1.6.5-2.6.5Z"/>
      <path class="cls-11" d="M163.9,158.6c-1,0-1.8-.2-2.6-.5s-1.4-.8-2-1.5-1-1.4-1.3-2.2-.4-1.8-.4-2.8.1-1.9.4-2.7.7-1.6,1.3-2.2,1.2-1.1,2-1.5,1.7-.5,2.7-.5,1.5.1,2.1.3,1.2.5,1.6.9c.5.4.9.9,1.1,1.4s.5,1.1.6,1.7h-1.8c0-.5-.3-1-.6-1.4s-.7-.7-1.2-.9-1.1-.3-1.8-.3-1.7.2-2.4.7-1.2,1.1-1.5,1.9-.5,1.7-.5,2.7.2,2,.6,2.8.9,1.4,1.6,1.9,1.5.7,2.4.7,1.5-.2,2-.5.9-.8,1.2-1.3.5-1.1.5-1.8h1.8c0,.7-.1,1.3-.4,2s-.7,1.2-1.2,1.7c-.5.5-1.1.9-1.8,1.1s-1.4.3-2.3.3Z"/>
      <path class="cls-11" d="M171.8,158.3v-13.4h6.3c.8,0,1.5.2,2.1.5.6.3,1.1.7,1.4,1.3.3.6.5,1.2.5,1.9s-.2,1.5-.6,2.1-1,1-1.9,1.3h0c.5.2.9.4,1.2.7.3.3.5.6.6,1s.2,1,.3,1.6c0,.5,0,.9.1,1.2s0,.6.1.9.1.4.2.6c0,.1.1.2.2.3h0c0,0-2,0-2,0,0,0-.2-.2-.2-.4s0-.5-.1-.9c0-.4,0-1-.1-1.7,0-.9-.3-1.6-.7-2s-1.1-.6-1.9-.6h-3.6v5.6h-1.8ZM173.6,151.3h3.8c.9,0,1.6-.2,2-.6s.7-1,.7-1.7-.2-1.4-.6-1.8-1.1-.6-2-.6h-3.9v4.7Z"/>
      <path class="cls-11" d="M189.5,158.5c-1,0-1.9-.2-2.7-.5-.8-.3-1.4-.8-1.8-1.5s-.7-1.6-.7-2.6v-9h1.8v8.9c0,.7.1,1.3.4,1.8s.6.8,1.1,1c.5.2,1.1.3,1.8.3s1.3-.1,1.8-.3.9-.6,1.1-1c.3-.5.4-1.1.4-1.8v-8.9h1.8v9c0,1.1-.2,2-.7,2.6-.5.7-1.1,1.2-1.9,1.5s-1.7.5-2.6.5Z"/>
      <path class="cls-11" d="M197.2,158.3v-13.4h2.4l2.8,7.3c.1.4.3.8.4,1.3s.3.9.4,1.4.3,1,.5,1.6h0c.2-.6.3-1.1.5-1.5s.3-.9.4-1.4.3-.9.4-1.3l2.7-7.3h2.5v13.4h-1.8v-8.1c0-.3,0-.6,0-1s0-.8,0-1.1,0-.8,0-1.3h0c-.1.4-.2.8-.3,1.1s-.2.7-.3,1c-.1.3-.2.6-.3.9l-3.3,8.5h-1.4l-3.2-8.5c0-.3-.2-.6-.3-.9-.1-.3-.2-.7-.3-1,0-.3-.2-.7-.3-1.1h0c0,.5,0,.9,0,1.3s0,.7,0,1.1,0,.7,0,1v8.1h-1.7Z"/>
    </g>
    <g>
      <path class="cls-12" d="M178.8,75.5c-.6,0-1.1-.1-1.6-.3s-.8-.5-1.1-.9-.4-.8-.5-1.2h1.1c0,.3.2.5.3.8s.4.4.6.5.6.2,1,.2.7,0,1-.2.5-.4.7-.7.2-.6.2-1.1,0-.8-.3-1.1-.4-.5-.7-.7-.6-.2-.9-.2-.6,0-.8.1-.4.2-.6.3-.3.2-.4.4h-1.1l.9-4.5h4.6v1h-3.7l-.6,2.5h0c.2-.2.5-.4.8-.6s.7-.2,1.1-.2.9.1,1.4.3.8.6,1,1,.4,1,.4,1.6-.1,1.1-.4,1.6-.6.8-1.1,1-1,.4-1.6.4Z"/>
      <path class="cls-12" d="M164,89.9c-.7,0-1.2-.2-1.7-.5s-.8-.7-1.1-1.2-.4-1.1-.4-1.7.1-1.2.4-1.7.6-.9,1.1-1.2,1-.5,1.6-.5.9,0,1.3.3.7.4.9.7c.3.3.5.7.6,1.2s.2,1,.2,1.5h-4.9c0,.4.1.8.3,1.1s.4.6.7.8.6.3,1.1.3.8,0,1.1-.3.5-.5.6-.8h1.1c0,.4-.3.7-.5,1.1s-.6.5-1,.7-.8.3-1.3.3ZM162.1,85.9h3.7c0-.4-.1-.8-.2-1.1s-.3-.5-.6-.7-.6-.2-1-.2-.7,0-1,.3-.5.4-.6.7-.3.6-.3,1Z"/>
      <path class="cls-12" d="M169.6,89.7l-2.2-6.4h1.2l1.1,3.5c0,.2.1.4.2.7s.1.5.2.7.1.4.2.7h0c0-.3.1-.5.2-.7s.1-.4.2-.7.1-.5.2-.7l1.2-3.5h1.1l-2.3,6.4h-1.2Z"/>
      <path class="cls-12" d="M176.7,89.9c-.7,0-1.2-.2-1.7-.5s-.8-.7-1.1-1.2-.4-1.1-.4-1.7.1-1.2.4-1.7.6-.9,1.1-1.2,1-.5,1.6-.5.9,0,1.3.3.7.4.9.7c.3.3.5.7.6,1.2s.2,1,.2,1.5h-4.9c0,.4.1.8.3,1.1s.4.6.7.8.6.3,1.1.3.8,0,1.1-.3.5-.5.6-.8h1.1c0,.4-.3.7-.5,1.1s-.6.5-1,.7-.8.3-1.3.3ZM174.7,85.9h3.7c0-.4-.1-.8-.2-1.1s-.3-.5-.6-.7-.6-.2-1-.2-.7,0-1,.3-.5.4-.6.7-.3.6-.3,1Z"/>
      <path class="cls-12" d="M180.8,89.7v-6.4h1.1v.9h0c.2-.2.3-.4.5-.6s.4-.3.7-.4.5-.1.8-.1c.4,0,.8,0,1.2.2s.6.4.7.7.3.7.3,1.1v4.5h-1.1v-4.4c0-.4-.1-.7-.4-1s-.6-.3-1-.3-.6,0-.9.2-.5.4-.6.6-.2.6-.2.9v3.9h-1.1Z"/>
      <path class="cls-12" d="M189.6,89.7c-.3,0-.5,0-.8-.1s-.4-.2-.5-.4-.2-.4-.2-.8v-4.3h-1v-.9h1v-2h1.1v2h1.3v.9h-1.3v4.1c0,.2,0,.4.2.5s.3.1.5.1.2,0,.3,0,.2,0,.3,0h0v.9c-.1,0-.3,0-.5,0s-.3,0-.5,0Z"/>
      <path class="cls-12" d="M194.2,89.9c-.6,0-1.1,0-1.5-.3s-.7-.4-1-.8-.4-.7-.4-1.1h1.1c0,.5.3.8.6,1s.7.3,1.2.3.9,0,1.1-.3.3-.4.3-.7,0-.4-.2-.6-.3-.2-.6-.3-.6-.2-.9-.2c-.3,0-.6-.1-.9-.2s-.5-.2-.8-.3-.4-.3-.5-.5-.2-.5-.2-.9,0-.7.3-1,.5-.5.8-.6.8-.2,1.3-.2,1,0,1.4.2.6.4.8.7.3.6.4,1h-1.1c0-.2-.1-.4-.2-.6s-.3-.3-.5-.3-.5-.1-.8-.1c-.4,0-.8,0-1,.3s-.3.4-.3.6,0,.4.2.5.3.2.6.3.6.1.9.2c.3,0,.6.1.9.2s.5.2.8.3.4.3.5.6.2.5.2.9-.1.8-.3,1.1-.5.5-.9.7-.8.2-1.3.2Z"/>
    </g>
    <g>
      <path class="cls-12" d="M120.4,167.7c-.6,0-1.2-.1-1.7-.3s-.9-.6-1.2-1-.5-1-.5-1.6h1.1c0,.4.1.8.3,1.1s.4.5.8.7.7.2,1.2.2.7,0,1-.2.5-.3.7-.6.2-.6.2-1,0-.6-.3-.9-.4-.4-.7-.5-.7-.2-1.2-.2h-.5v-.9h.5c.4,0,.8,0,1.1-.2s.5-.3.6-.5.2-.5.2-.8,0-.6-.2-.8-.4-.4-.6-.5-.6-.2-.9-.2-.7,0-1,.2-.5.4-.7.6-.2.6-.2.9h-1.1c0-.5.1-1,.4-1.4s.6-.7,1.1-1,1-.4,1.6-.4,1,0,1.5.3.8.5,1,.8.4.8.4,1.3-.1.9-.4,1.1-.6.5-1,.6h0c.6.2,1,.5,1.3.8s.4.8.4,1.4,0,.8-.2,1.1-.4.6-.7.8-.6.4-1,.5-.8.2-1.2.2Z"/>
      <path class="cls-12" d="M98.3,182.1c-.4,0-.8,0-1.1-.2s-.6-.3-.8-.6-.3-.6-.3-1,.1-.9.3-1.2.6-.5,1-.6.9-.2,1.5-.3c.3,0,.6,0,.8-.1s.4-.2.5-.3.2-.3.2-.5c0-.3-.1-.6-.4-.8s-.6-.3-1-.3-.9.1-1.1.3-.4.5-.4.9h-1.1c0-.4.1-.7.3-1s.5-.6.9-.8.9-.3,1.4-.3.6,0,.9,0,.5.1.7.3c.3.2.5.4.6.7s.2.6.2,1.1v3c0,.2,0,.4.1.5s.2.2.4.2,0,0,.1,0,0,0,0,0h0v.8c0,0-.2,0-.3,0s-.2,0-.3,0c-.2,0-.4,0-.6-.1s-.3-.2-.4-.4-.1-.5-.1-.8h0c0,0,0,.3,0,.3h0c-.2.3-.5.5-.8.8s-.8.3-1.3.3ZM98.6,181.3c.4,0,.8,0,1.1-.3s.5-.4.6-.7.2-.5.2-.8v-1.1c-.1,0-.2.1-.4.2s-.3.1-.5.2-.3,0-.5.1c-.4,0-.7.1-.9.2s-.5.2-.6.4-.2.4-.2.7,0,.5.2.6.3.3.5.3.4,0,.6,0Z"/>
      <path class="cls-12" d="M106,182.1c-.6,0-1.2-.2-1.7-.5s-.8-.7-1.1-1.2-.4-1.1-.4-1.7.1-1.2.4-1.7.6-.9,1.1-1.2,1-.5,1.7-.5,1,0,1.4.3.7.4.9.8.4.7.5,1.2h-1.1c0-.3-.1-.5-.3-.7s-.3-.4-.6-.5-.5-.2-.8-.2-.8.1-1.1.3-.5.5-.7.9-.2.8-.2,1.3,0,.9.2,1.3.4.7.7.9.7.3,1.1.3.9-.1,1.2-.4.5-.7.5-1.1h1.1c0,.5-.2,1-.4,1.3s-.6.6-1,.8-.9.3-1.4.3Z"/>
      <path class="cls-12" d="M112.7,182.1c-.6,0-1.2-.2-1.7-.5s-.8-.7-1.1-1.2-.4-1.1-.4-1.7.1-1.2.4-1.7.6-.9,1.1-1.2,1-.5,1.7-.5,1,0,1.4.3.7.4.9.8.4.7.5,1.2h-1.1c0-.3-.1-.5-.3-.7s-.3-.4-.6-.5-.5-.2-.8-.2-.8.1-1.1.3-.5.5-.7.9-.2.8-.2,1.3,0,.9.2,1.3.4.7.7.9.7.3,1.1.3.9-.1,1.2-.4.5-.7.5-1.1h1.1c0,.5-.2,1-.4,1.3s-.6.6-1,.8-.9.3-1.4.3Z"/>
      <path class="cls-12" d="M119.4,182.1c-.6,0-1.2-.2-1.7-.5s-.8-.7-1.1-1.2-.4-1.1-.4-1.7.1-1.2.4-1.7.6-.9,1.1-1.2,1-.5,1.7-.5,1.2.2,1.7.5.8.7,1.1,1.2.4,1.1.4,1.7-.1,1.2-.4,1.7-.6.9-1.1,1.2-1,.5-1.7.5ZM119.4,181.2c.4,0,.8-.1,1.1-.3s.5-.5.7-.9.2-.8.2-1.3,0-.9-.2-1.3-.4-.7-.7-.9-.7-.3-1.1-.3-.8.1-1.1.3-.5.5-.7.9-.2.8-.2,1.3,0,.9.2,1.3.4.7.7.9.7.3,1.1.3Z"/>
      <path class="cls-12" d="M125.9,182.1c-.4,0-.8,0-1.2-.3s-.6-.4-.8-.7-.3-.7-.3-1.2v-4.4h1.1v4.4c0,.4.1.7.4,1s.6.3,1,.3.6,0,.9-.2.4-.4.6-.6.2-.6.2-.9v-3.9h1.1v6.4h-1.1v-.9h0c-.1.2-.3.4-.5.6s-.4.3-.6.4-.5.1-.8.1Z"/>
      <path class="cls-12" d="M130.5,182v-6.4h1.1v.9h0c.2-.2.3-.4.5-.6s.4-.3.7-.4.5-.1.8-.1c.4,0,.8,0,1.2.2s.6.4.7.7.3.7.3,1.1v4.5h-1.1v-4.4c0-.4-.1-.7-.4-1s-.6-.3-1-.3-.6,0-.9.2-.5.4-.6.6-.2.6-.2.9v3.9h-1.1Z"/>
      <path class="cls-12" d="M139.3,182c-.3,0-.5,0-.8-.1s-.4-.2-.5-.4-.2-.4-.2-.8v-4.3h-1v-.9h1v-2h1.1v2h1.3v.9h-1.3v4.1c0,.2,0,.4.2.5s.3.1.5.1.2,0,.3,0,.2,0,.3,0h0v.9c-.1,0-.3,0-.5,0s-.3,0-.5,0Z"/>
      <path class="cls-12" d="M141.1,179.1v-1h3.3v1h-3.3Z"/>
      <path class="cls-12" d="M102.1,196.5c-.4,0-.8,0-1.1-.2s-.6-.3-.8-.6-.3-.6-.3-1,.1-.9.3-1.2.6-.5,1-.6.9-.2,1.5-.3c.3,0,.6,0,.8-.1s.4-.1.5-.3.2-.3.2-.5c0-.3-.1-.6-.4-.8s-.6-.3-1-.3-.9.1-1.1.3-.4.5-.4.9h-1.1c0-.4.1-.7.3-1s.5-.6.9-.8.9-.3,1.4-.3.6,0,.9,0,.5.1.7.3c.3.2.5.4.6.7s.2.6.2,1.1v3c0,.2,0,.4.1.5s.2.2.4.2,0,0,.1,0,0,0,0,0h0v.8c0,0-.2,0-.3,0s-.2,0-.3,0c-.2,0-.4,0-.6-.1s-.3-.2-.4-.4-.1-.5-.1-.8h0c0,0,0,.3,0,.3h0c-.2.3-.5.5-.8.8s-.8.3-1.3.3ZM102.3,195.7c.4,0,.8,0,1.1-.3s.5-.4.6-.7.2-.5.2-.8v-1.1c-.1,0-.2.1-.4.2s-.3.1-.5.2-.3,0-.5.1c-.4,0-.7.1-.9.2s-.5.2-.6.4-.2.4-.2.7,0,.5.2.6.3.3.5.3.4,0,.6,0Z"/>
      <path class="cls-12" d="M110,196.5c-.4,0-.8,0-1.2-.3s-.6-.5-.8-.8h0v.9h-1.1v-8.9h1.1v2.3c0,.2,0,.5,0,.7s0,.4,0,.5h0c.1-.2.3-.4.5-.6s.4-.3.7-.4.5-.2.9-.2c.5,0,1,.1,1.4.4s.7.7,1,1.2.3,1.1.3,1.8-.1,1.3-.3,1.8-.5.9-1,1.2-.9.4-1.5.4ZM109.9,195.6c.4,0,.7-.1,1-.3s.5-.5.6-.9.2-.8.2-1.3,0-.9-.2-1.3-.3-.7-.6-.9-.6-.3-1-.3-.8.1-1.1.3-.5.5-.7.9-.2.8-.2,1.2,0,.9.2,1.3.4.7.7.9.7.3,1.1.3Z"/>
      <path class="cls-12" d="M114,188.7v-1.3h1.2v1.3h-1.2ZM114,196.4v-6.4h1.1v6.4h-1.1Z"/>
      <path class="cls-12" d="M116.7,196.4v-8.9h1.1v8.9h-1.1Z"/>
      <path class="cls-12" d="M119.4,188.7v-1.3h1.2v1.3h-1.2ZM119.4,196.4v-6.4h1.1v6.4h-1.1Z"/>
      <path class="cls-12" d="M124.1,196.4c-.3,0-.5,0-.8-.1s-.4-.2-.5-.4-.2-.4-.2-.8v-4.3h-1v-.9h1v-2h1.1v2h1.3v.9h-1.3v4.1c0,.2,0,.4.2.5s.3.1.5.1.2,0,.3,0,.2,0,.3,0h0v.9c-.1,0-.3,0-.5,0s-.3,0-.5,0Z"/>
      <path class="cls-12" d="M126.2,188.7v-1.3h1.2v1.3h-1.2ZM126.3,196.4v-6.4h1.1v6.4h-1.1Z"/>
      <path class="cls-12" d="M131.7,196.5c-.7,0-1.2-.2-1.7-.5s-.8-.7-1.1-1.2-.4-1.1-.4-1.7.1-1.2.4-1.7.6-.9,1.1-1.2,1-.5,1.6-.5.9,0,1.3.3.7.4.9.7c.3.3.5.7.6,1.2s.2,1,.2,1.5h-4.9c0,.4.1.8.3,1.1s.4.6.7.8.6.3,1.1.3.8,0,1.1-.3.5-.5.6-.8h1.1c0,.4-.3.7-.5,1.1s-.6.5-1,.7-.8.3-1.3.3ZM129.7,192.6h3.7c0-.4-.1-.8-.2-1.1s-.3-.5-.6-.7-.6-.2-1-.2-.7,0-1,.3-.5.4-.6.7-.3.6-.3,1Z"/>
      <path class="cls-12" d="M138.3,196.5c-.6,0-1.1,0-1.5-.3s-.7-.4-1-.8-.4-.7-.4-1.1h1.1c0,.5.3.8.6,1s.7.3,1.2.3.9,0,1.1-.3.3-.4.3-.7,0-.4-.2-.6-.3-.2-.6-.3-.6-.2-.9-.2c-.3,0-.6-.1-.9-.2s-.5-.2-.8-.3-.4-.3-.5-.5-.2-.5-.2-.9,0-.7.3-1,.5-.5.8-.6.8-.2,1.3-.2,1,0,1.4.2.6.4.8.7.3.6.4,1h-1.1c0-.2-.1-.4-.2-.6s-.3-.3-.5-.3-.5-.1-.8-.1c-.4,0-.8,0-1,.3s-.3.4-.3.6,0,.4.2.5.3.2.6.3.6.1.9.2c.3,0,.6.1.9.2s.5.2.8.3.4.3.5.6.2.5.2.9-.1.8-.3,1.1-.5.5-.9.7-.8.2-1.3.2Z"/>
    </g>
    <g>
      <path class="cls-12" d="M237.1,175c-.6,0-1.2-.1-1.7-.3s-.9-.6-1.2-1-.5-1-.5-1.6h1.1c0,.4.1.8.3,1.1s.4.5.8.7.7.2,1.2.2.7,0,1-.2.5-.3.7-.6.2-.6.2-1,0-.6-.3-.9-.4-.4-.7-.5-.7-.2-1.2-.2h-.5v-.9h.5c.4,0,.8,0,1.1-.2s.5-.3.6-.5.2-.5.2-.8,0-.6-.2-.8-.4-.4-.6-.5-.6-.2-.9-.2-.7,0-1,.2-.5.4-.7.6-.2.6-.2.9h-1.1c0-.5.1-1,.4-1.4s.6-.7,1.1-1,1-.4,1.6-.4,1,0,1.5.3.8.5,1,.8.4.8.4,1.3-.1.9-.4,1.1-.6.5-1,.6h0c.6.2,1,.5,1.3.8s.4.8.4,1.4,0,.8-.2,1.1-.4.6-.7.8-.6.4-1,.5-.8.2-1.2.2Z"/>
      <path class="cls-12" d="M214.6,189.3c-.4,0-.8,0-1.1-.2s-.6-.3-.8-.6-.3-.6-.3-1,.1-.9.3-1.2.6-.5,1-.6.9-.2,1.5-.3c.3,0,.6,0,.8-.1s.4-.1.5-.3.2-.3.2-.5c0-.3-.1-.6-.4-.8s-.6-.3-1-.3-.9.1-1.1.3-.4.5-.4.9h-1.1c0-.4.1-.7.3-1s.5-.6.9-.8.9-.3,1.4-.3.6,0,.9,0,.5.1.7.3c.3.2.5.4.6.7s.2.6.2,1.1v3c0,.2,0,.4.1.5s.2.2.4.2,0,0,.1,0,0,0,0,0h0v.8c0,0-.2,0-.3,0s-.2,0-.3,0c-.2,0-.4,0-.6-.1s-.3-.2-.4-.4-.1-.5-.1-.8h0c0,0,0,.3,0,.3h0c-.2.3-.5.5-.8.8s-.8.3-1.3.3ZM214.9,188.5c.4,0,.8,0,1.1-.3s.5-.4.6-.7.2-.5.2-.8v-1.1c-.1,0-.2.1-.4.2s-.3.1-.5.2-.3,0-.5.1c-.4,0-.7.1-.9.2s-.5.2-.6.4-.2.4-.2.7,0,.5.2.6.3.3.5.3.4,0,.6,0Z"/>
      <path class="cls-12" d="M219.4,189.2v-6.4h1.1v1.2h0c.2-.4.5-.7.8-.9s.7-.3,1.1-.3.2,0,.2,0,.1,0,.2,0v1.1h0c0,0-.1,0-.2,0s-.1,0-.2,0c-.2,0-.5,0-.7.1s-.4.2-.6.4-.3.4-.4.6-.1.5-.1.8v3.5h-1.1Z"/>
      <path class="cls-12" d="M226.1,189.2c-.3,0-.5,0-.8-.1s-.4-.2-.5-.4-.2-.4-.2-.8v-4.3h-1v-.9h1v-2h1.1v2h1.3v.9h-1.3v4.1c0,.2,0,.4.2.5s.3.1.5.1.2,0,.3,0,.2,0,.3,0h0v.9c-.1,0-.3,0-.5,0s-.3,0-.5,0Z"/>
      <path class="cls-12" d="M230.9,189.4c-.7,0-1.2-.2-1.7-.5s-.8-.7-1.1-1.2-.4-1.1-.4-1.7.1-1.2.4-1.7.6-.9,1.1-1.2,1-.5,1.6-.5.9,0,1.3.3.7.4.9.7c.3.3.5.7.6,1.2s.2,1,.2,1.5h-4.9c0,.4.1.8.3,1.1s.4.6.7.8.6.3,1.1.3.8,0,1.1-.3.5-.5.6-.8h1.1c0,.4-.3.7-.5,1.1s-.6.5-1,.7-.8.3-1.3.3ZM229,185.4h3.7c0-.4-.1-.8-.2-1.1s-.3-.5-.6-.7-.6-.2-1-.2-.7,0-1,.3-.5.4-.6.7-.3.6-.3,1Z"/>
      <path class="cls-12" d="M235.5,189.2v-5.6h-1v-.9h1v-.9c0-.3,0-.6.1-.8s.2-.4.3-.5c.2-.1.4-.2.6-.3s.5,0,.8,0,.2,0,.3,0,.2,0,.3,0v.9c0,0-.1,0-.2,0h-.2c-.4,0-.6,0-.7.2s-.2.3-.2.6v.8h1.3v.9h-1.3v5.6h-1.1Z"/>
      <path class="cls-12" d="M240.9,189.3c-.4,0-.8,0-1.1-.2s-.6-.3-.8-.6-.3-.6-.3-1,.1-.9.3-1.2.6-.5,1-.6.9-.2,1.5-.3c.3,0,.6,0,.8-.1s.4-.1.5-.3.2-.3.2-.5c0-.3-.1-.6-.4-.8s-.6-.3-1-.3-.9.1-1.1.3-.4.5-.4.9h-1.1c0-.4.1-.7.3-1s.5-.6.9-.8.9-.3,1.4-.3.6,0,.9,0,.5.1.7.3c.3.2.5.4.6.7s.2.6.2,1.1v3c0,.2,0,.4.1.5s.2.2.4.2,0,0,.1,0,0,0,0,0h0v.8c0,0-.2,0-.3,0s-.2,0-.3,0c-.2,0-.4,0-.6-.1s-.3-.2-.4-.4-.1-.5-.1-.8h0c0,0,0,.3,0,.3h0c-.2.3-.5.5-.8.8s-.8.3-1.3.3ZM241.2,188.5c.4,0,.8,0,1.1-.3s.5-.4.6-.7.2-.5.2-.8v-1.1c-.1,0-.2.1-.4.2s-.3.1-.5.2-.3,0-.5.1c-.4,0-.7.1-.9.2s-.5.2-.6.4-.2.4-.2.7,0,.5.2.6.3.3.5.3.4,0,.6,0Z"/>
      <path class="cls-12" d="M248.5,189.4c-.6,0-1.2-.2-1.7-.5s-.8-.7-1.1-1.2-.4-1.1-.4-1.7.1-1.2.4-1.7.6-.9,1.1-1.2,1-.5,1.7-.5,1,0,1.4.3.7.4.9.8.4.7.5,1.2h-1.1c0-.3-.1-.5-.3-.7s-.3-.4-.6-.5-.5-.2-.8-.2-.8.1-1.1.3-.5.5-.7.9-.2.8-.2,1.3,0,.9.2,1.3.4.7.7.9.7.3,1.1.3.9-.1,1.2-.4.5-.7.5-1.1h1.1c0,.5-.2,1-.4,1.3s-.6.6-1,.8-.9.3-1.4.3Z"/>
      <path class="cls-12" d="M254.5,189.2c-.3,0-.5,0-.8-.1s-.4-.2-.5-.4-.2-.4-.2-.8v-4.3h-1v-.9h1v-2h1.1v2h1.3v.9h-1.3v4.1c0,.2,0,.4.2.5s.3.1.5.1.2,0,.3,0,.2,0,.3,0h0v.9c-.1,0-.3,0-.5,0s-.3,0-.5,0Z"/>
      <path class="cls-12" d="M259.1,189.4c-.6,0-1.1,0-1.5-.3s-.7-.4-1-.8-.4-.7-.4-1.1h1.1c0,.5.3.8.6,1s.7.3,1.2.3.9,0,1.1-.3.3-.4.3-.7,0-.4-.2-.6-.3-.2-.6-.3-.6-.2-.9-.2c-.3,0-.6-.1-.9-.2s-.5-.2-.8-.3-.4-.3-.5-.5-.2-.5-.2-.9,0-.7.3-1,.5-.5.8-.6.8-.2,1.3-.2,1,0,1.4.2.6.4.8.7.3.6.4,1h-1.1c0-.2-.1-.4-.2-.6s-.3-.3-.5-.3-.5-.1-.8-.1c-.4,0-.8,0-1,.3s-.3.4-.3.6,0,.4.2.5.3.2.6.3.6.1.9.2c.3,0,.6.1.9.2s.5.2.8.3.4.3.5.6.2.5.2.9-.1.8-.3,1.1-.5.5-.9.7-.8.2-1.3.2Z"/>
    </g>
  </g>
</svg>