<?xml version="1.0" encoding="UTF-8"?>
<svg id="Layer_1" data-name="Layer 1" xmlns="http://www.w3.org/2000/svg" version="1.1" viewBox="0 0 329.1 245.5">
  <defs>
    <style>
      .cls-1 {
        fill: #58595b;
      }

      .cls-1, .cls-2, .cls-3 {
        stroke-width: 0px;
      }

      .cls-4 {
        stroke: #f7a6a8;
      }

      .cls-4, .cls-5, .cls-6, .cls-7, .cls-8, .cls-9, .cls-10, .cls-11, .cls-12 {
        stroke-miterlimit: 10;
        stroke-width: .2px;
      }

      .cls-4, .cls-12 {
        fill: #fcd6d6;
      }

      .cls-5 {
        fill: #b6ccbd;
      }

      .cls-5, .cls-6, .cls-9, .cls-10, .cls-11, .cls-12 {
        stroke: #414042;
      }

      .cls-6 {
        fill: #f7a6a8;
      }

      .cls-7 {
        stroke: #b6ccbd;
      }

      .cls-7, .cls-10 {
        fill: #ddeedf;
      }

      .cls-8 {
        stroke: #aedced;
      }

      .cls-8, .cls-11 {
        fill: #f0f9fe;
      }

      .cls-9 {
        fill: #aedced;
      }

      .cls-2 {
        fill: #231f20;
      }

      .cls-3 {
        fill: #fff;
      }
    </style>
  </defs>
  <g id="Shapes">
    <circle id="top_large" data-name="top large" class="cls-8" cx="167.9" cy="70.1" r="60"/>
    <circle id="left_large" data-name="left large" class="cls-4" cx="109.4" cy="171.4" r="60"/>
    <circle id="right_large" data-name="right large" class="cls-7" cx="226.4" cy="171.9" r="60"/>
    <g id="triangle">
      <g>
        <polygon class="cls-3" points="167.9 70.1 109.4 171.4 226.4 171.4 167.9 70.1"/>
        <path class="cls-1" d="M167.9,70.2c-14.4,25.4-43.4,76.3-57.9,101.6l-.6-1.1c29.2-.2,87.8-.2,117,0l-.6,1.1c-14.5-25.3-43.5-76.3-57.9-101.6h0ZM167.9,70.1c0,.1,59,101.6,58.5,101.4h-117c-.5.1,58.6-101.3,58.5-101.4h0Z"/>
      </g>
    </g>
    <path id="top_small" data-name="top small" class="cls-9" d="M167.9,95.1c-13.8,0-25-11.2-25-25s11.2-25,25-25,25,11.2,25,25-11.2,25-25,25Z"/>
    <path id="left_small" data-name="left small" class="cls-6" d="M109.4,196.4c-13.8,0-25-11.2-25-25s11.2-25,25-25,25,11.2,25,25-11.2,25-25,25Z"/>
    <path id="right_small" data-name="right small" class="cls-5" d="M226.4,196.9c-13.8,0-25-11.2-25-25s11.2-25,25-25,25,11.2,25,25-11.2,25-25,25Z"/>
    <rect class="cls-12" x="9.7" y="125.4" width="60" height="20" rx="2" ry="2"/>
    <g>
      <path class="cls-2" d="M32.5,130.7c-.2-.4-.4-.5-.7-.5s-.3,0-.3.1c0,0-.1.1-.1.2,0,.1,0,.3.3.4l.5.3c.3.1.5.3.6.5.1.2.2.4.2.7s-.1.6-.3.8c-.2.2-.5.3-.9.3s-.3,0-.5,0c-.2,0-.3-.1-.4-.2v-.7h0c.1.2.2.4.4.5.2.1.3.2.5.2s.3,0,.4-.1c0,0,.2-.2.2-.3,0-.2,0-.4-.3-.5l-.6-.3c-.4-.2-.7-.6-.7-1s0-.5.3-.7c.2-.2.5-.3.8-.3s.8,0,1,.3l-.2.6h0Z"/>
      <path class="cls-2" d="M36,130.8c0-.2-.2-.4-.3-.5s-.3-.2-.4-.2c-.6,0-.9.5-.9,1.5s0,.8.2,1c.2.2.4.3.7.3s.7-.2.9-.5v.5c-.1,0-.3.1-.5.2-.2,0-.4,0-.6,0-.5,0-1-.1-1.3-.5-.3-.3-.5-.7-.5-1.2s.2-1,.5-1.3.8-.5,1.3-.5.3,0,.6.1.4.1.5.2l-.3.6h0Z"/>
      <path class="cls-2" d="M37,131.6c0-.7,0-1.3,0-1.6h.9v.6c0-.2.2-.4.4-.5s.3-.2.5-.2.2,0,.3,0v.8h0c-.1,0-.3-.1-.5-.1-.4,0-.7.2-.7.7v.3c0,.7,0,1.3,0,1.6h-.9c0-.4,0-.9,0-1.6h0Z"/>
      <path class="cls-2" d="M42.7,131.6c0,.7,0,1.3,0,1.6h-.9v-.4c-.3.3-.6.5-1,.5s-.6-.1-.8-.3-.3-.5-.3-.9v-.6c0-.7,0-1.3,0-1.6h.9c0,.4,0,.9,0,1.6v.6c0,.2,0,.4.1.5,0,.1.2.2.4.2s.4,0,.6-.2c.1-.1.2-.4.2-.6v-.4c0-.7,0-1.3,0-1.6h.9c0,.4,0,.9,0,1.6h0Z"/>
      <path class="cls-2" d="M43.6,131.6c0-.7,0-1.3,0-1.6h.9v.4c.3-.3.6-.5,1-.5.5,0,.8.2,1,.6.3-.4.7-.6,1.1-.6.7,0,1.1.4,1.1,1.2v.6c0,.7,0,1.3,0,1.6h-.9c0-.4,0-.9,0-1.6v-.6c0-.2,0-.4-.1-.5s-.2-.1-.4-.1-.4,0-.5.2-.2.4-.2.6v.4c0,.7,0,1.3,0,1.6h-.9c0-.4,0-.9,0-1.6v-.6c0-.2,0-.4-.1-.5s-.2-.1-.4-.1-.4,0-.5.2-.2.4-.2.6v.4c0,.7,0,1.3,0,1.6h-.9c0-.4,0-.9,0-1.6h0Z"/>
      <path class="cls-2" d="M29.8,140c0-.7,0-1.3,0-1.6h.9v.4c.3-.3.6-.5,1-.5.5,0,.8.2,1,.6.3-.4.7-.6,1.1-.6.7,0,1.1.4,1.1,1.2v.6c0,.7,0,1.3,0,1.6h-.9c0-.4,0-.9,0-1.6v-.6c0-.2,0-.4-.1-.5s-.2-.1-.4-.1-.4,0-.5.2-.2.4-.2.6v.4c0,.7,0,1.3,0,1.6h-.9c0-.4,0-.9,0-1.6v-.6c0-.2,0-.4-.1-.5s-.2-.1-.4-.1-.4,0-.5.2-.2.4-.2.6v.4c0,.7,0,1.3,0,1.6h-.9c0-.4,0-.9,0-1.6h0Z"/>
      <path class="cls-2" d="M35.8,138.5c.3-.2.7-.2,1.1-.2.9,0,1.4.4,1.4,1.1v.7c0,.7,0,1.3,0,1.6h-.9v-.4c-.2.4-.6.5-1,.5s-.5,0-.7-.2-.3-.4-.3-.6,0-.5.3-.7.5-.4.9-.5l.7-.3v-.2c0-.4-.2-.6-.5-.6s-.7.2-1.1.5h0v-.6h0ZM37.4,139.7l-.6.2c-.2,0-.3.1-.3.2s0,.2,0,.4,0,.3.1.5.2.2.3.2c.2,0,.3,0,.4-.2s.2-.3.2-.5v-.8h0Z"/>
      <path class="cls-2" d="M40.8,139.1c-.2-.4-.4-.5-.7-.5s-.3,0-.3.1c0,0-.1.1-.1.2,0,.2,0,.3.3.4l.5.3c.3.1.5.3.6.5s.2.4.2.7-.1.6-.3.8-.5.3-.9.3-.3,0-.5,0c-.2,0-.3-.1-.4-.2v-.7h0c.1.2.2.4.4.5.2.1.3.2.5.2s.3,0,.4-.1c0,0,.2-.2.2-.3,0-.2,0-.4-.3-.5l-.6-.3c-.4-.2-.7-.6-.7-1s0-.5.3-.7c.2-.2.5-.3.8-.3s.8,0,1,.3l-.2.6h0Z"/>
      <path class="cls-2" d="M42.9,137c0,.4,0,.8,0,1.4.4,0,.6,0,.7,0v.4c0,0-.3,0-.7,0v2.4c0,.2,0,.3.3.3s.2,0,.2,0c0,0,.1-.1.2-.2h0v.4c-.2,0-.4.1-.6.1-.3,0-.6,0-.7-.2s-.2-.4-.2-.7v-2.1c-.2,0-.4,0-.5,0v-.4c0,0,.3,0,.5,0,0-.4,0-.8,0-1.1l.9-.4h0Z"/>
      <path class="cls-2" d="M45,140c0,.5,0,.9.2,1.1s.3.3.6.3.7-.2.9-.5v.5c-.3.2-.7.3-1.1.3s-.8-.1-1.1-.4c-.3-.3-.5-.7-.5-1.3s.1-.9.4-1.3c.3-.3.6-.5,1.1-.5s.8.1,1.1.4.4.7.4,1.3h-1.9ZM45,139.7h1c0-.4,0-.7-.1-.9s-.2-.3-.4-.3-.3.1-.4.3c0,.2-.1.5-.1.8h0Z"/>
      <path class="cls-2" d="M47.7,140c0-.7,0-1.3,0-1.6h.9v.6c0-.2.2-.4.4-.5s.3-.2.5-.2.2,0,.3,0v.8h0c-.1,0-.3-.1-.5-.1-.4,0-.7.2-.7.7v.3c0,.7,0,1.3,0,1.6h-.9c0-.4,0-.9,0-1.6h0Z"/>
    </g>
    <rect class="cls-12" x=".1" y="181.3" width="60" height="20" rx="2" ry="2"/>
    <g>
      <path class="cls-2" d="M19.4,188.9c0,.7,0,1.3,0,1.6h-.9c0-.4,0-.9,0-1.6v-1.4c0-.7,0-1.3,0-1.6h.9v.3c.1-.1.2-.2.4-.3.1,0,.3-.1.5-.1.4,0,.8.1,1,.5.2.3.4.7.4,1.3s-.1,1-.4,1.3c-.2.3-.6.5-1,.5s-.3,0-.5-.1c-.1,0-.3-.2-.4-.3h0c0,.1,0,.2,0,.2ZM19.4,187.5c0,.4,0,.8.2,1s.3.4.5.4.4-.1.5-.3.2-.6.2-1,0-.8-.2-1-.3-.3-.5-.3-.4.1-.5.4-.2.6-.2,1Z"/>
      <path class="cls-2" d="M22.4,187.5c0-.7,0-1.3,0-1.6h.9v.6c0-.2.2-.4.4-.5s.3-.2.5-.2.2,0,.3,0v.8h0c-.1,0-.3-.1-.5-.1-.4,0-.7.2-.7.7v.3c0,.7,0,1.3,0,1.6h-.9c0-.4,0-.9,0-1.6h0Z"/>
      <path class="cls-2" d="M26.6,185.8c.5,0,.9.2,1.2.5.3.3.4.7.4,1.2s-.2.9-.4,1.2c-.3.3-.7.5-1.2.5s-.9-.2-1.2-.5-.4-.7-.4-1.2.2-.9.4-1.2.7-.5,1.2-.5ZM26.6,186.1c-.2,0-.4.1-.5.3s-.2.6-.2,1.1,0,.9.2,1.1.3.3.5.3.4-.1.5-.3.2-.6.2-1.1,0-.9-.2-1.1c0-.2-.3-.3-.5-.3h0Z"/>
      <path class="cls-2" d="M32,184c0,.4,0,.9,0,1.6v1.9c0,.7,0,1.3,0,1.6h-.9v-.3c-.1.1-.2.2-.4.3-.1,0-.3.1-.5.1-.4,0-.8-.1-1-.5-.2-.3-.4-.7-.4-1.3s.1-1,.4-1.3c.2-.3.6-.5,1-.5s.3,0,.5.1c.1,0,.3.2.4.3v-.6c0-.7,0-1.3,0-1.6h1ZM31.1,187.5c0-.4,0-.8-.2-1s-.3-.4-.5-.4-.4.1-.5.3-.2.6-.2,1,0,.8.2,1c0,.2.3.3.5.3s.4-.1.5-.4.2-.6.2-1Z"/>
      <path class="cls-2" d="M35.9,187.5c0,.7,0,1.3,0,1.6h-.9v-.4c-.3.3-.6.5-1,.5s-.6-.1-.8-.3-.3-.5-.3-.9v-.6c0-.7,0-1.3,0-1.6h.9c0,.4,0,.9,0,1.6v.6c0,.2,0,.4.1.5,0,.1.2.2.4.2s.4,0,.6-.2c.1-.1.2-.4.2-.6v-.4c0-.7,0-1.3,0-1.6h.9c0,.4,0,.9,0,1.6h0Z"/>
      <path class="cls-2" d="M39.3,186.7c0-.2-.2-.4-.3-.5s-.3-.2-.4-.2c-.6,0-.9.5-.9,1.5s0,.8.2,1c.2.2.4.3.7.3s.7-.2.9-.5v.5c-.1,0-.3.1-.5.2-.2,0-.4,0-.6,0-.5,0-1-.1-1.3-.5-.3-.3-.5-.7-.5-1.2s.2-1,.5-1.3.8-.5,1.3-.5.3,0,.6.1.4.1.5.2l-.3.6h0Z"/>
      <path class="cls-2" d="M41.4,184.4c0,.4,0,.8,0,1.4.4,0,.6,0,.7,0v.4c0,0-.3,0-.7,0v2.4c0,.2,0,.3.3.3s.2,0,.2,0,.1-.1.2-.2h0v.4c-.2,0-.4.1-.6.1-.3,0-.6,0-.7-.2s-.2-.4-.2-.7v-2.1c-.2,0-.4,0-.5,0v-.4c0,0,.3,0,.5,0,0-.4,0-.8,0-1.1l.9-.4h0Z"/>
      <path class="cls-2" d="M22.3,194.2c.5,0,.9.2,1.2.5.3.3.4.7.4,1.2s-.2.9-.4,1.2c-.3.3-.7.5-1.2.5s-.9-.2-1.2-.5-.4-.7-.4-1.2.2-.9.4-1.2.7-.5,1.2-.5ZM22.3,194.5c-.2,0-.4.1-.5.3s-.2.6-.2,1.1,0,.9.2,1.1.3.3.5.3.4-.1.5-.3.2-.6.2-1.1,0-.9-.2-1.1-.3-.3-.5-.3h0Z"/>
      <path class="cls-2" d="M25.6,197.5c0-.3-.3-.8-.6-1.6-.3-.7-.5-1.3-.6-1.6h1c.2.5.4,1.3.8,2.3.5-1.3.8-2.1.8-2.3h.6c0,.3.3,1,.8,2.3.4-1,.7-1.7.8-2.3h.4c0,.2-.3.7-.6,1.6-.3.8-.5,1.3-.6,1.6h-.6c0-.1,0-.2-.1-.4,0-.2-.3-.8-.7-1.9-.4,1.1-.7,1.8-.8,2.3h-.6Z"/>
      <path class="cls-2" d="M30.2,195.9c0-.7,0-1.3,0-1.6h.9v.4c.3-.3.6-.5,1-.5s.6.1.8.3.3.5.3.9v.6c0,.7,0,1.3,0,1.6h-.9c0-.4,0-.9,0-1.6v-.6c0-.2,0-.4-.1-.5,0-.1-.2-.2-.4-.2s-.4,0-.6.2c-.1.1-.2.4-.2.6v.4c0,.7,0,1.3,0,1.6h-.9c0-.4,0-.9,0-1.6h0Z"/>
      <path class="cls-2" d="M34.9,195.9c0,.5,0,.9.2,1.1s.3.3.6.3.7-.2.9-.5v.5c-.3.2-.7.3-1.1.3s-.8-.1-1.1-.4c-.3-.3-.5-.7-.5-1.3s.1-.9.4-1.3c.3-.3.6-.5,1.1-.5s.8.1,1.1.4.4.7.4,1.3h-1.9ZM34.9,195.6h1c0-.4,0-.7-.1-.9s-.2-.3-.4-.3-.3.1-.4.3c0,.2-.1.5-.1.8h0Z"/>
      <path class="cls-2" d="M37.6,195.9c0-.7,0-1.3,0-1.6h.9v.6c0-.2.2-.4.4-.5s.3-.2.5-.2.2,0,.3,0v.8h0c-.1,0-.3-.1-.5-.1-.4,0-.7.2-.7.7v.3c0,.7,0,1.3,0,1.6h-.9c0-.4,0-.9,0-1.6h0Z"/>
    </g>
    <rect class="cls-12" x="51.4" y="225.3" width="60" height="20" rx="2" ry="2"/>
    <g>
      <path class="cls-2" d="M68.4,232.3c0,.4,0,.9,0,1.6v1.9c0,.7,0,1.3,0,1.6h-.9v-.3c-.1.1-.2.2-.4.3-.1,0-.3.1-.5.1-.4,0-.8-.1-1-.5s-.4-.7-.4-1.3.1-1,.4-1.3c.2-.3.6-.5,1-.5s.3,0,.5.1c.1,0,.3.2.4.3v-.6c0-.7,0-1.3,0-1.6h1ZM67.5,235.7c0-.4,0-.8-.2-1s-.3-.4-.5-.4-.4.1-.5.3-.2.6-.2,1,0,.8.2,1,.3.3.5.3.4-.1.5-.4.2-.6.2-1Z"/>
      <path class="cls-2" d="M70.1,235.8c0,.5,0,.8.2,1.1s.3.3.6.3.6-.2.9-.5v.5c-.3.2-.6.3-1.1.3s-.8-.1-1.1-.4c-.3-.3-.5-.7-.5-1.3s.1-.9.4-1.3c.3-.3.6-.5,1.1-.5s.8.1,1.1.4.4.7.4,1.3h-1.9ZM70.1,235.4h1c0-.4,0-.7-.1-.9s-.2-.3-.4-.3-.3.1-.4.3c0,.2-.1.5-.1.8h0Z"/>
      <path class="cls-2" d="M73.7,237.4c0-.2-.3-.8-.6-1.6-.3-.8-.6-1.4-.7-1.6h1c0,.3.4,1.1.9,2.4.5-1.3.8-2.1.9-2.4h.4c-.1.2-.3.8-.7,1.6-.3.7-.5,1.3-.6,1.6h-.7Z"/>
      <path class="cls-2" d="M77.1,235.8c0,.5,0,.8.2,1.1s.3.3.6.3.6-.2.9-.5v.5c-.3.2-.6.3-1.1.3s-.8-.1-1.1-.4c-.3-.3-.5-.7-.5-1.3s.1-.9.4-1.3c.3-.3.6-.5,1.1-.5s.8.1,1.1.4.4.7.4,1.3h-1.9ZM77.1,235.4h1c0-.4,0-.7-.1-.9s-.2-.3-.4-.3-.3.1-.4.3c0,.2-.1.5-.1.8h0Z"/>
      <path class="cls-2" d="M79.8,237.4c0-.4,0-.9,0-1.6v-1.9c0-.7,0-1.3,0-1.6h.9c0,.4,0,.9,0,1.6v1.9c0,.7,0,1.3,0,1.6h-.9Z"/>
      <path class="cls-2" d="M83.2,234c.5,0,.9.2,1.2.5.3.3.4.7.4,1.2s-.1.9-.4,1.2-.7.5-1.2.5-.9-.2-1.2-.5-.4-.7-.4-1.2.1-.9.4-1.2.7-.5,1.2-.5ZM83.2,234.3c-.2,0-.4.1-.5.3s-.1.6-.1,1.1,0,.9.1,1.1c.1.2.3.3.5.3s.4-.1.5-.3c.1-.2.1-.6.1-1.1s0-.9-.1-1.1c-.1-.2-.3-.3-.5-.3h0Z"/>
      <path class="cls-2" d="M86.4,237.2c0,.7,0,1.3,0,1.6h-.9c0-.4,0-.9,0-1.6v-1.4c0-.7,0-1.3,0-1.6h.9v.3c.1-.1.2-.2.4-.3.1,0,.3-.1.5-.1.4,0,.8.1,1,.5.2.3.4.7.4,1.3s-.1,1-.4,1.3c-.2.3-.6.5-1,.5s-.3,0-.5-.1c-.1,0-.3-.2-.4-.3h0v.2ZM86.4,235.7c0,.4,0,.8.2,1s.3.4.5.4.4-.1.5-.3c.1-.2.1-.5.1-1s0-.8-.1-1-.3-.3-.5-.3-.4.1-.5.4-.2.6-.2,1Z"/>
      <path class="cls-2" d="M90.3,235.8c0,.5,0,.8.2,1.1s.3.3.6.3.6-.2.9-.5v.5c-.3.2-.6.3-1.1.3s-.8-.1-1.1-.4c-.3-.3-.5-.7-.5-1.3s.1-.9.4-1.3c.3-.3.6-.5,1.1-.5s.8.1,1.1.4.4.7.4,1.3h-1.9ZM90.3,235.4h1c0-.4,0-.7-.1-.9s-.2-.3-.4-.3-.3.1-.4.3c0,.2-.1.5-.1.8h0Z"/>
      <path class="cls-2" d="M93,235.7c0-.7,0-1.3,0-1.6h.9v.6c.1-.2.2-.4.4-.5s.4-.2.5-.2.2,0,.3,0v.8h0c-.1,0-.3-.1-.5-.1-.4,0-.7.2-.7.7v.3c0,.7,0,1.3,0,1.6h-.9c0-.4,0-.9,0-1.6h0Z"/>
      <path class="cls-2" d="M97.4,234.8c-.2-.4-.4-.5-.7-.5s-.3,0-.4.1c0,0-.1.1-.1.2,0,.1.1.3.3.4l.5.3c.3.1.5.3.6.5.1.2.2.4.2.7s-.1.6-.3.8-.5.3-.9.3-.4,0-.5,0c-.2,0-.3-.1-.4-.2v-.7h0c.1.2.2.4.4.5.2.1.3.2.5.2s.3,0,.4-.1c.1,0,.2-.2.2-.3,0-.2-.1-.4-.3-.5l-.6-.3c-.4-.2-.7-.6-.7-1s.1-.5.3-.7c.2-.2.5-.3.8-.3s.8,0,1,.3l-.2.6h0Z"/>
    </g>
    <rect class="cls-11" x="139.4" y=".1" width="60" height="20" rx="2" ry="2"/>
    <g>
      <path class="cls-2" d="M162.8,9.6c-.2-.4-.4-.5-.7-.5s-.3,0-.4.1-.1.1-.1.2c0,.1.1.3.3.4l.5.3c.3.1.5.3.6.5.1.2.2.4.2.7s-.1.6-.3.8c-.2.2-.5.3-.9.3s-.4,0-.5,0c-.2,0-.3-.1-.4-.2v-.7h0c.1.2.2.4.4.5.2.1.3.2.5.2s.3,0,.4-.1c.1,0,.2-.2.2-.3,0-.2-.1-.4-.3-.5l-.6-.3c-.4-.2-.7-.5-.7-1s.1-.5.3-.7c.2-.2.5-.3.8-.3s.8,0,1,.3l-.2.5h0Z"/>
      <path class="cls-2" d="M164.7,12c0,.7,0,1.3,0,1.6h-.9c0-.4,0-.9,0-1.6v-1.4c0-.7,0-1.3,0-1.6h.9v.3c.1-.1.2-.2.4-.3.1,0,.3-.1.5-.1.4,0,.8.1,1,.5s.4.7.4,1.3-.1,1-.4,1.3c-.2.3-.6.5-1,.5s-.3,0-.5,0c-.1,0-.3-.2-.4-.3h0v.2ZM164.7,10.5c0,.4,0,.8.2,1s.3.4.5.4.4-.1.5-.3.1-.6.1-1,0-.8-.1-1c-.1-.2-.3-.3-.5-.3s-.4.1-.5.4-.2.6-.2,1Z"/>
      <path class="cls-2" d="M167.7,10.5c0-.7,0-1.3,0-1.6h.9v.6c.1-.2.2-.4.4-.5s.4-.2.5-.2.2,0,.3,0v.8h0c-.1,0-.3-.1-.5-.1-.4,0-.7.2-.7.7v.3c0,.7,0,1.3,0,1.6h-.9c0-.4,0-.9,0-1.6h0Z"/>
      <path class="cls-2" d="M170.4,7.6c0-.1,0-.3.1-.4.1-.1.2-.1.4-.1s.3,0,.4.1c.1.1.1.2.1.4s0,.3-.1.4c-.1.1-.2.1-.4.1s-.3,0-.4-.1c-.1-.1-.1-.2-.1-.4h0ZM170.5,10.5c0-.7,0-1.3,0-1.6h.9c0,.4,0,.9,0,1.6s0,1.3,0,1.6h-.9c0-.3,0-.9,0-1.6Z"/>
      <path class="cls-2" d="M172.4,10.5c0-.7,0-1.3,0-1.6h.9v.4c.3-.3.6-.5,1-.5s.6.1.8.3c.2.2.3.5.3.9v.6c0,.7,0,1.3,0,1.6h-.9c0-.4,0-.9,0-1.6v-.6c0-.2,0-.4-.1-.5s-.2-.2-.4-.2-.4,0-.6.2-.2.4-.2.6v.4c0,.7,0,1.3,0,1.6h-.9c0-.4,0-.9,0-1.6h0Z"/>
      <path class="cls-2" d="M177.3,7.5c0,.4,0,.8,0,1.4.4,0,.6,0,.7,0v.4c-.1,0-.3,0-.7,0v2.4c0,.2,0,.3.3.3s.1,0,.2,0,.1-.1.2-.2h0v.4c-.2,0-.4,0-.6,0-.3,0-.6,0-.7-.2-.2-.2-.2-.4-.2-.7v-2.1c-.2,0-.4,0-.5,0v-.4c.1,0,.3,0,.5,0,0-.4,0-.8,0-1.1l.9-.4h0Z"/>
    </g>
    <rect class="cls-11" x="67.8" y="33" width="60" height="20" rx="2" ry="2"/>
    <g>
      <path class="cls-2" d="M93.9,35.8c0,.4,0,.9,0,1.6v1.9c0,.7,0,1.3,0,1.6h-.9v-.3c-.1.2-.2.2-.4.3-.1,0-.3,0-.5,0-.4,0-.8-.2-1-.5-.2-.3-.4-.7-.4-1.3s.1-1,.4-1.3c.2-.3.6-.5,1-.5s.3,0,.5,0c.1,0,.3.2.4.3v-.5c0-.7,0-1.3,0-1.6h.9ZM93,39.3c0-.4,0-.8-.2-1s-.3-.3-.5-.3-.4.1-.5.3-.1.6-.1,1,0,.8.1,1c.1.2.3.3.5.3s.4-.1.5-.3.2-.6.2-1Z"/>
      <path class="cls-2" d="M94.9,37.8c.4-.2.7-.2,1.1-.2.9,0,1.4.3,1.4,1v.7c0,.7,0,1.3,0,1.6h-.9v-.4c-.2.3-.6.5-1,.5s-.5,0-.7-.2-.3-.4-.3-.6.1-.5.3-.7c.2-.2.5-.4.9-.5l.7-.3v-.2c0-.4-.2-.6-.5-.6s-.7.2-1.1.5h0v-.5h0ZM96.6,39l-.6.2c-.1,0-.3.1-.3.2,0,0,0,.2,0,.4s0,.3.1.5.2.2.3.2c.1,0,.3,0,.4-.2.1-.2.2-.3.2-.5v-.8h0Z"/>
      <path class="cls-2" d="M98.3,36.3c0-.1,0-.3.1-.4.1,0,.2-.2.4-.2s.3,0,.4.2.1.2.1.4,0,.3-.1.4-.2.2-.4.2-.3,0-.4-.2-.1-.2-.1-.4h0ZM98.4,39.3c0-.7,0-1.3,0-1.6h.9c0,.4,0,.9,0,1.6s0,1.3,0,1.6h-.9c0-.3,0-.9,0-1.6Z"/>
      <path class="cls-2" d="M100.3,40.9c0-.4,0-.9,0-1.6v-1.9c0-.7,0-1.3,0-1.6h.9c0,.4,0,.9,0,1.6v1.9c0,.7,0,1.3,0,1.6h-.9Z"/>
      <path class="cls-2" d="M103.3,40.9l-.5-1.3c-.4-.8-.6-1.5-.9-2h1c.1.4.4,1.1.8,2.2.5-1.1.8-1.8.9-2.2h.4c0,.1-.2.3-.3.5s-.4.8-.8,1.8c-.5,1.2-.9,2-1,2.4h-.5c.2-.4.5-.9.7-1.4h0Z"/>
      <path class="cls-2" d="M90.7,46.8c-.2-.3-.4-.5-.7-.5s-.3,0-.4,0-.1.2-.1.2c0,.2.1.3.3.4l.5.3c.3.1.5.3.6.5.1.2.2.4.2.7s-.1.6-.3.8-.5.3-.9.3-.4,0-.5,0c-.2,0-.3,0-.4-.2v-.7h0c.1.2.2.3.4.5.2.1.3.2.5.2s.3,0,.4-.1c.1,0,.2-.2.2-.3,0-.2-.1-.4-.3-.5l-.6-.3c-.4-.2-.7-.6-.7-1s.1-.5.3-.7.5-.3.8-.3.8,0,1,.3l-.2.6h0Z"/>
      <path class="cls-2" d="M94.2,46.9c0-.2-.2-.3-.3-.4s-.3-.2-.4-.2c-.6,0-.9.5-.9,1.5s0,.8.2,1,.4.3.7.3.7-.2.9-.5v.5c-.1,0-.3.2-.5.2-.2,0-.4,0-.6,0-.5,0-1-.2-1.3-.4s-.5-.7-.5-1.2.2-1,.5-1.3.8-.5,1.4-.5.4,0,.6,0,.4.1.5.2l-.3.6h0Z"/>
      <path class="cls-2" d="M95.2,47.7c0-.7,0-1.3,0-1.6h.9v.6c.1-.2.2-.4.4-.5s.4-.2.5-.2.2,0,.3,0v.8h0c-.1,0-.3-.1-.5-.1-.4,0-.7.2-.7.7v.3c0,.7,0,1.3,0,1.6h-.9c0-.4,0-.9,0-1.6h0Z"/>
      <path class="cls-2" d="M100.9,47.7c0,.7,0,1.3,0,1.6h-.9v-.4c-.3.3-.6.5-1,.5s-.6,0-.8-.3c-.2-.2-.3-.5-.3-.9v-.6c0-.7,0-1.3,0-1.6h.9c0,.4,0,.9,0,1.6v.6c0,.2,0,.4.1.5s.2.2.4.2.4,0,.6-.2.2-.3.2-.6v-.4c0-.7,0-1.3,0-1.6h.9c0,.4,0,.9,0,1.6h0Z"/>
      <path class="cls-2" d="M101.8,47.7c0-.7,0-1.3,0-1.6h.9v.4c.3-.3.6-.5,1-.5.5,0,.8.2,1,.6.3-.4.7-.6,1.1-.6.7,0,1.1.4,1.1,1.2v.6c0,.7,0,1.3,0,1.6h-.9c0-.4,0-.9,0-1.6v-.6c0-.2,0-.4-.1-.5s-.2-.2-.4-.2-.4,0-.5.2-.2.4-.2.6v.4c0,.7,0,1.3,0,1.6h-.9c0-.4,0-.9,0-1.6v-.6c0-.2,0-.4-.1-.5s-.2-.2-.4-.2-.4,0-.5.2-.2.4-.2.6v.4c0,.7,0,1.3,0,1.6h-.9c0-.4,0-.9,0-1.6h0Z"/>
    </g>
    <rect class="cls-11" x="61.6" y="78.8" width="60" height="20" rx="2" ry="2"/>
    <g>
      <path class="cls-2" d="M85,84.1c-.2-.3-.4-.5-.7-.5s-.3,0-.4,0-.1.2-.1.2c0,.2.1.3.3.4l.5.3c.3.1.5.3.6.5.1.2.2.4.2.7s-.1.6-.3.8-.5.3-.9.3-.4,0-.5,0c-.2,0-.3,0-.4-.2v-.7h0c.1.2.2.3.4.5.2.1.3.2.5.2s.3,0,.4-.1c.1,0,.2-.2.2-.3,0-.2-.1-.4-.3-.5l-.6-.3c-.4-.2-.7-.6-.7-1s.1-.5.3-.7.5-.3.8-.3.8,0,1,.3l-.2.6h0Z"/>
      <path class="cls-2" d="M86.9,86.5c0,.7,0,1.3,0,1.6h-.9c0-.4,0-.9,0-1.6v-1.4c0-.7,0-1.3,0-1.6h.9v.3c.1-.2.2-.2.4-.3.1,0,.3,0,.5,0,.4,0,.8.2,1,.5s.4.7.4,1.3-.1,1-.4,1.3c-.2.3-.6.5-1,.5s-.3,0-.5,0c-.1,0-.3-.2-.4-.3h0v.2ZM86.9,85c0,.4,0,.8.2,1s.3.3.5.3.4-.1.5-.3.1-.6.1-1,0-.8-.1-1c-.1-.2-.3-.3-.5-.3s-.4.1-.5.3-.2.6-.2,1Z"/>
      <path class="cls-2" d="M89.9,85c0-.7,0-1.3,0-1.6h.9v.6c.1-.2.2-.4.4-.5s.4-.2.5-.2.2,0,.3,0v.8h0c-.1,0-.3-.1-.5-.1-.4,0-.7.2-.7.7v.3c0,.7,0,1.3,0,1.6h-.9c0-.4,0-.9,0-1.6h0Z"/>
      <path class="cls-2" d="M92.6,82.1c0-.1,0-.3.1-.4.1,0,.2-.2.4-.2s.3,0,.4.2.1.2.1.4,0,.3-.1.4-.2.2-.4.2-.3,0-.4-.2-.1-.2-.1-.4h0ZM92.7,85c0-.7,0-1.3,0-1.6h.9c0,.4,0,.9,0,1.6s0,1.3,0,1.6h-.9c0-.3,0-.9,0-1.6Z"/>
      <path class="cls-2" d="M94.6,85c0-.7,0-1.3,0-1.6h.9v.4c.3-.3.6-.5,1-.5s.6,0,.8.3c.2.2.3.5.3.9v.6c0,.7,0,1.3,0,1.6h-.9c0-.4,0-.9,0-1.6v-.6c0-.2,0-.4-.1-.5s-.2-.2-.4-.2-.4,0-.6.2-.2.3-.2.6v.4c0,.7,0,1.3,0,1.6h-.9c0-.4,0-.9,0-1.6h0Z"/>
      <path class="cls-2" d="M99.6,82c0,.4,0,.8,0,1.4.4,0,.6,0,.7,0v.4c-.1,0-.3,0-.7,0v2.4c0,.2,0,.3.3.3s.1,0,.2,0,.1-.1.2-.2h0v.4c-.2,0-.4,0-.6,0-.3,0-.6,0-.7-.2s-.2-.4-.2-.7v-2.1c-.2,0-.4,0-.5,0v-.4c.1,0,.3,0,.5,0,0-.4,0-.8,0-1.1l.9-.4h0Z"/>
      <path class="cls-2" d="M79.7,94.9c0,.7,0,1.3,0,1.6h-.9c0-.4,0-.9,0-1.6v-1.4c0-.7,0-1.3,0-1.6h.9v.3c.1-.2.2-.2.4-.3.1,0,.3,0,.5,0,.4,0,.8.2,1,.5s.4.7.4,1.3-.1,1-.4,1.3c-.2.3-.6.5-1,.5s-.3,0-.5,0c-.1,0-.3-.2-.4-.3h0v.2ZM79.7,93.4c0,.4,0,.8.2,1s.3.3.5.3.4-.1.5-.3.1-.6.1-1,0-.8-.1-1c-.1-.2-.3-.3-.5-.3s-.4.1-.5.3-.2.6-.2,1Z"/>
      <path class="cls-2" d="M82.8,95.1c0-.4,0-.9,0-1.6v-1.9c0-.7,0-1.3,0-1.6h.9c0,.4,0,.9,0,1.6v1.9c0,.7,0,1.3,0,1.6h-.9Z"/>
      <path class="cls-2" d="M84.8,92c.4-.2.7-.2,1.1-.2.9,0,1.4.3,1.4,1.1v.7c0,.7,0,1.3,0,1.6h-.9v-.4c-.2.3-.6.5-1,.5s-.5,0-.7-.2-.3-.4-.3-.6.1-.5.3-.7c.2-.2.5-.4.9-.5l.7-.3v-.2c0-.4-.2-.6-.5-.6s-.7.2-1.1.5h0v-.6h0ZM86.4,93.2l-.6.2c-.1,0-.3.1-.3.2,0,0,0,.2,0,.4s0,.3.1.5c0,.1.2.2.3.2.1,0,.3,0,.4-.2.1-.2.2-.3.2-.5v-.8h0Z"/>
      <path class="cls-2" d="M88.2,93.4c0-.7,0-1.3,0-1.6h.9v.4c.3-.3.6-.5,1-.5s.6,0,.8.3c.2.2.3.5.3.9v.6c0,.7,0,1.3,0,1.6h-.9c0-.4,0-.9,0-1.6v-.6c0-.2,0-.4-.1-.5s-.2-.2-.4-.2-.4,0-.6.2-.2.3-.2.6v.4c0,.7,0,1.3,0,1.6h-.9c0-.4,0-.9,0-1.6h0Z"/>
      <path class="cls-2" d="M92.1,93.4c0-.7,0-1.3,0-1.6h.9v.4c.3-.3.6-.5,1-.5s.6,0,.8.3c.2.2.3.5.3.9v.6c0,.7,0,1.3,0,1.6h-.9c0-.4,0-.9,0-1.6v-.6c0-.2,0-.4-.1-.5s-.2-.2-.4-.2-.4,0-.6.2-.2.3-.2.6v.4c0,.7,0,1.3,0,1.6h-.9c0-.4,0-.9,0-1.6h0Z"/>
      <path class="cls-2" d="M95.9,90.5c0-.1,0-.3.1-.4.1,0,.2-.2.4-.2s.3,0,.4.2.1.2.1.4,0,.3-.1.4-.2.2-.4.2-.3,0-.4-.2-.1-.2-.1-.4h0ZM96,93.4c0-.7,0-1.3,0-1.6h.9c0,.4,0,.9,0,1.6s0,1.3,0,1.6h-.9c0-.3,0-.9,0-1.6Z"/>
      <path class="cls-2" d="M97.9,93.4c0-.7,0-1.3,0-1.6h.9v.4c.3-.3.6-.5,1-.5s.6,0,.8.3c.2.2.3.5.3.9v.6c0,.7,0,1.3,0,1.6h-.9c0-.4,0-.9,0-1.6v-.6c0-.2,0-.4-.1-.5s-.2-.2-.4-.2-.4,0-.6.2-.2.3-.2.6v.4c0,.7,0,1.3,0,1.6h-.9c0-.4,0-.9,0-1.6h0Z"/>
      <path class="cls-2" d="M103.7,94.3c.3,0,.5,0,.7.3s.3.4.3.7-.2.6-.5.9c-.4.3-.8.4-1.4.4s-.7,0-1-.2c-.2-.1-.4-.3-.4-.5s0-.3.2-.4.3-.2.6-.3c-.1,0-.2,0-.3-.2s-.1-.2-.1-.3c0-.3.2-.6.6-.8-.2,0-.4-.2-.6-.4-.1-.2-.2-.4-.2-.6s.1-.6.3-.8c.2-.2.5-.3.9-.3s.4,0,.6,0c.1,0,.3,0,.6,0,.2,0,.4,0,.6,0v.5c-.2,0-.5,0-.7,0,.1.2.2.4.2.7s-.1.6-.4.8c-.2.2-.5.3-.9.3h-.2c-.2,0-.2.2-.2.3s0,0,0,.1c0,0,0,0,.1,0h1.1ZM102.7,95.1c-.3.2-.5.4-.5.6s0,.3.2.4c.1,0,.3.1.6.1s.5,0,.7-.2c.2-.1.3-.3.3-.5,0-.3-.2-.4-.5-.4h-.8ZM102.9,92c-.1,0-.3,0-.3.2,0,.1-.1.3-.1.6s0,.5.1.6.2.2.3.2.2,0,.3-.2.1-.3.1-.6,0-.5-.1-.6c0-.1-.2-.2-.3-.2Z"/>
    </g>
    <rect class="cls-11" x="206.4" y="33" width="60" height="20" rx="2" ry="2"/>
    <g>
      <path class="cls-2" d="M216.8,43.5c0-.7,0-1.3,0-1.6h.9v.6c.1-.2.2-.4.4-.5s.4-.2.5-.2.2,0,.3,0v.8h0c-.1,0-.3-.1-.5-.1-.5,0-.7.2-.7.7v.3c0,.7,0,1.3,0,1.6h-1c0-.4,0-.9,0-1.6h0Z"/>
      <path class="cls-2" d="M220.3,43.5c0,.5,0,.8.2,1.1s.3.3.6.3.6-.2.9-.5v.5c-.3.2-.6.3-1.1.3s-.8-.1-1.1-.4c-.3-.3-.5-.7-.5-1.3s.1-.9.4-1.3.6-.5,1.1-.5.8.2,1,.5.4.7.4,1.3c0,0-1.9,0-1.9,0ZM220.3,43.2h1c0-.4,0-.7-.1-.8,0-.2-.2-.3-.4-.3s-.3,0-.4.3c0,.2-.1.5-.1.8h0Z"/>
      <path class="cls-2" d="M224.1,40.4c0,.4,0,.8,0,1.4.4,0,.6,0,.7,0v.4c-.1,0-.3,0-.7,0v2.4c0,.2,0,.3.3.3s.1,0,.2,0,.1-.1.2-.2h0v.4c-.2,0-.4,0-.6,0-.3,0-.6,0-.7-.2-.2-.2-.2-.4-.2-.7v-2.1c-.2,0-.4,0-.5,0v-.4c.1,0,.3,0,.5,0,0-.4,0-.8,0-1.1l1-.4h0Z"/>
      <path class="cls-2" d="M225.4,43.5c0-.7,0-1.3,0-1.6h.9v.6c.1-.2.2-.4.4-.5.2-.1.4-.2.5-.2s.2,0,.3,0v.8h0c-.1,0-.3-.1-.5-.1-.5,0-.7.2-.7.7v.3c0,.7,0,1.3,0,1.6h-1c0-.4,0-.9,0-1.6h0Z"/>
      <path class="cls-2" d="M229.6,41.7c.5,0,.9.2,1.2.5.3.3.5.7.5,1.2s-.1.9-.5,1.2c-.3.3-.7.5-1.2.5s-.9-.2-1.2-.5-.5-.7-.5-1.2.1-.9.5-1.2.7-.5,1.2-.5ZM229.6,42c-.2,0-.4.1-.5.3-.1.2-.1.6-.1,1.1s0,.9.1,1.1.3.3.5.3.4-.1.5-.3.1-.6.1-1.1,0-.9-.1-1.1c-.1-.2-.3-.3-.5-.3Z"/>
      <path class="cls-2" d="M233.6,42.6c-.2-.3-.4-.5-.7-.5s-.3,0-.4,0c0,0-.1.2-.1.2,0,.2.1.3.3.4l.5.3c.3.1.5.3.6.5.1.2.2.4.2.7s-.1.6-.3.8-.5.3-.9.3-.4,0-.5,0c-.2,0-.3,0-.4-.2v-.7h0c.1.2.2.3.4.5.2.1.3.2.5.2s.3,0,.4-.1c.1,0,.2-.2.2-.3,0-.2-.1-.4-.3-.5l-.6-.3c-.4-.2-.7-.5-.7-1s.1-.5.3-.7c.2-.2.5-.3.8-.3s.8,0,1,.3l-.2.5h0Z"/>
      <path class="cls-2" d="M235.5,44.9c0,.7,0,1.3,0,1.6h-1c0-.4,0-.9,0-1.6v-1.4c0-.7,0-1.3,0-1.6h.9v.3c.1-.2.2-.2.4-.3.1,0,.3,0,.5,0,.4,0,.8.2,1,.5.2.3.4.7.4,1.3s-.1,1-.4,1.3c-.2.3-.6.5-1,.5s-.3,0-.5,0-.3-.2-.4-.3h0c0,.1,0,.1,0,.1ZM235.5,43.5c0,.4,0,.8.2,1,.1.2.3.3.5.3s.4-.1.5-.3.1-.6.1-1,0-.8-.1-1-.3-.3-.5-.3-.4.1-.5.3c-.1.2-.2.6-.2,1Z"/>
      <path class="cls-2" d="M239.4,43.5c0,.5,0,.8.2,1.1s.3.3.6.3.6-.2.9-.5v.5c-.3.2-.6.3-1.1.3s-.8-.1-1.1-.4c-.3-.3-.5-.7-.5-1.3s.1-.9.4-1.3.6-.5,1.1-.5.8.2,1,.5.4.7.4,1.3c0,0-1.9,0-1.9,0ZM239.4,43.2h1c0-.4,0-.7-.1-.8,0-.2-.2-.3-.4-.3s-.3,0-.4.3c0,.2-.1.5-.1.8h0Z"/>
      <path class="cls-2" d="M244.5,42.7c0-.2-.2-.3-.3-.5s-.3-.2-.5-.2c-.6,0-.9.5-.9,1.5s0,.8.2,1,.4.3.7.3.7-.2.9-.5v.5c-.1,0-.3.2-.5.2-.2,0-.4,0-.6,0-.5,0-1-.2-1.3-.4-.3-.3-.5-.7-.5-1.2s.2-1,.5-1.3.8-.5,1.4-.5.4,0,.6,0,.4.1.5.2l-.3.6h0Z"/>
      <path class="cls-2" d="M246.6,40.4c0,.4,0,.8,0,1.4.4,0,.6,0,.7,0v.4c-.1,0-.3,0-.7,0v2.4c0,.2,0,.3.3.3s.1,0,.2,0,.1-.1.2-.2h0v.4c-.2,0-.4,0-.6,0-.3,0-.6,0-.7-.2-.2-.2-.2-.4-.2-.7v-2.1c-.2,0-.4,0-.5,0v-.4c.1,0,.3,0,.5,0,0-.4,0-.8,0-1.1l1-.4h0Z"/>
      <path class="cls-2" d="M247.9,40.5c0-.1,0-.3.1-.4s.2-.2.4-.2.3,0,.4.2c.1,0,.1.2.1.4s0,.3-.1.4-.2.2-.4.2-.3,0-.4-.2c-.1,0-.1-.2-.1-.4h0ZM248,43.5c0-.7,0-1.3,0-1.6h1c0,.4,0,.9,0,1.6s0,1.3,0,1.6h-1c0-.3,0-.9,0-1.6Z"/>
      <path class="cls-2" d="M250.8,45.1c0-.2-.3-.8-.6-1.6-.3-.8-.6-1.3-.7-1.6h1c0,.3.4,1.1.9,2.4.5-1.3.8-2.1.9-2.4h.4c-.1.2-.3.8-.7,1.6-.3.7-.5,1.3-.6,1.6h-.7Z"/>
      <path class="cls-2" d="M254.2,43.5c0,.5,0,.8.2,1.1s.3.3.6.3.6-.2.9-.5v.5c-.3.2-.6.3-1.1.3s-.8-.1-1.1-.4c-.3-.3-.5-.7-.5-1.3s.1-.9.4-1.3.6-.5,1.1-.5.8.2,1,.5.4.7.4,1.3h-1.9ZM254.2,43.2h1c0-.4,0-.7-.1-.8,0-.2-.2-.3-.4-.3s-.3,0-.4.3c0,.2-.1.5-.1.8h0Z"/>
    </g>
    <rect class="cls-11" x="213.4" y="75.3" width="60" height="20" rx="2" ry="2"/>
    <g>
      <path class="cls-2" d="M225.5,84.8c-.2-.3-.4-.5-.7-.5s-.3,0-.4,0c0,0-.1.2-.1.2,0,.2.1.3.3.4l.5.3c.3.1.5.3.6.5.1.2.2.4.2.7s-.1.6-.3.8-.5.3-.9.3-.4,0-.5,0c-.2,0-.3,0-.4-.2v-.7h0c.1.2.2.3.4.5.2.1.3.2.5.2s.3,0,.4-.1.2-.2.2-.3c0-.2-.1-.4-.3-.5l-.6-.3c-.4-.2-.7-.6-.7-1s.1-.5.3-.7c.2-.2.5-.3.8-.3s.8,0,1,.3l-.2.6h0Z"/>
      <path class="cls-2" d="M227.4,87.2c0,.7,0,1.3,0,1.6h-1c0-.4,0-.9,0-1.6v-1.4c0-.7,0-1.3,0-1.6h.9v.3c.1-.2.2-.2.4-.3.1,0,.3,0,.5,0,.4,0,.8.2,1,.5s.4.7.4,1.3-.1,1-.4,1.3c-.2.3-.6.5-1,.5s-.3,0-.5,0c-.1,0-.3-.2-.4-.3h0c0,.1,0,.2,0,.2ZM227.4,85.7c0,.4,0,.8.2,1,.1.2.3.3.5.3s.4-.1.5-.3.1-.6.1-1,0-.8-.1-1-.3-.3-.5-.3-.4.1-.5.3c-.1.2-.2.6-.2,1Z"/>
      <path class="cls-2" d="M230.4,85.7c0-.7,0-1.3,0-1.6h.9v.6c.1-.2.2-.4.4-.5s.4-.2.5-.2.2,0,.3,0v.8h0c-.1,0-.3-.1-.5-.1-.5,0-.7.2-.7.7v.3c0,.7,0,1.3,0,1.6h-1c0-.4,0-.9,0-1.6h0Z"/>
      <path class="cls-2" d="M233.1,82.8c0-.1,0-.3.1-.4.1,0,.2-.2.4-.2s.3,0,.4.2.1.2.1.4,0,.3-.1.4c-.1,0-.2.2-.4.2s-.3,0-.4-.2-.1-.2-.1-.4h0ZM233.2,85.7c0-.7,0-1.3,0-1.6h1c0,.4,0,.9,0,1.6s0,1.3,0,1.6h-1c0-.3,0-.9,0-1.6Z"/>
      <path class="cls-2" d="M235.1,85.7c0-.7,0-1.3,0-1.6h.9v.4c.3-.3.6-.5,1-.5s.6,0,.8.3c.2.2.3.5.3.9v.6c0,.7,0,1.3,0,1.6h-1c0-.4,0-.9,0-1.6v-.6c0-.2,0-.4-.1-.5s-.2-.2-.4-.2-.4,0-.5.2-.2.3-.2.6v.4c0,.7,0,1.3,0,1.6h-1c0-.4,0-.9,0-1.6h0Z"/>
      <path class="cls-2" d="M240,82.7c0,.4,0,.8,0,1.4.4,0,.6,0,.7,0v.4c-.1,0-.3,0-.7,0v2.4c0,.2,0,.3.3.3s.1,0,.2,0,.1-.1.2-.2h0v.4c-.2,0-.4,0-.6,0-.3,0-.6,0-.7-.2-.2-.2-.2-.4-.2-.7v-2.1c-.2,0-.4,0-.5,0v-.4c.1,0,.3,0,.5,0,0-.4,0-.8,0-1.1l1-.4h0Z"/>
      <path class="cls-2" d="M243.3,85.7c0-.7,0-1.3,0-1.6h.9v.6c.1-.2.2-.4.4-.5s.4-.2.5-.2.2,0,.3,0v.8h0c-.1,0-.3-.1-.5-.1-.5,0-.7.2-.7.7v.3c0,.7,0,1.3,0,1.6h-1c0-.4,0-.9,0-1.6h0Z"/>
      <path class="cls-2" d="M246.8,85.8c0,.5,0,.8.2,1.1s.3.3.6.3.6-.2.9-.5v.5c-.3.2-.6.3-1.1.3s-.8-.1-1.1-.4c-.3-.3-.5-.7-.5-1.3s.1-.9.4-1.3.6-.5,1.1-.5.8.2,1,.4c.2.3.4.7.4,1.3h-1.9ZM246.8,85.4h1c0-.4,0-.7-.1-.8,0-.2-.2-.3-.4-.3s-.3,0-.4.3c0,.2-.1.5-.1.8h0Z"/>
      <path class="cls-2" d="M250.4,87.4c0-.2-.3-.8-.6-1.6-.3-.8-.6-1.3-.7-1.6h1c0,.3.4,1.1.9,2.4.5-1.3.8-2.1.9-2.4h.4c-.1.2-.3.8-.7,1.6-.3.7-.5,1.3-.6,1.6h-.7Z"/>
      <path class="cls-2" d="M253,82.8c0-.1,0-.3.1-.4.1,0,.2-.2.4-.2s.3,0,.4.2.1.2.1.4,0,.3-.1.4c-.1,0-.2.2-.4.2s-.3,0-.4-.2-.1-.2-.1-.4h0ZM253,85.7c0-.7,0-1.3,0-1.6h1c0,.4,0,.9,0,1.6s0,1.3,0,1.6h-1c0-.3,0-.9,0-1.6Z"/>
      <path class="cls-2" d="M255.7,85.8c0,.5,0,.8.2,1.1s.3.3.6.3.6-.2.9-.5v.5c-.3.2-.6.3-1.1.3s-.8-.1-1.1-.4c-.3-.3-.5-.7-.5-1.3s.1-.9.4-1.3.6-.5,1.1-.5.8.2,1,.4c.2.3.4.7.4,1.3h-1.9ZM255.7,85.4h1c0-.4,0-.7-.1-.8,0-.2-.2-.3-.4-.3s-.3,0-.4.3c0,.2-.1.5-.1.8h0Z"/>
      <path class="cls-2" d="M259.3,87.4c0-.3-.3-.8-.6-1.6-.3-.7-.5-1.3-.6-1.6h1c.2.5.4,1.3.8,2.3.5-1.3.8-2.1.8-2.3h.6c0,.3.4,1,.8,2.3.4-1,.7-1.7.8-2.3h.4c-.1.2-.3.7-.6,1.6-.3.8-.5,1.3-.5,1.6h-.6c0,0,0-.2-.1-.4s-.3-.8-.7-1.9c-.4,1.1-.7,1.8-.8,2.3h-.6Z"/>
    </g>
    <rect class="cls-10" x="266.4" y="133.5" width="60" height="20" rx="2" ry="2"/>
    <g>
      <path class="cls-2" d="M289.7,138.9c-.2-.4-.4-.5-.7-.5s-.3,0-.4.1c0,0-.1.1-.1.2,0,.2.1.3.3.4l.5.3c.3.1.5.3.6.5.1.2.2.4.2.7s-.1.6-.3.8c-.2.2-.5.3-.9.3s-.4,0-.5,0c-.2,0-.3-.1-.4-.2v-.7h0c.1.2.2.4.4.5.2.1.3.2.5.2s.3,0,.4-.1.2-.2.2-.3c0-.2-.1-.4-.3-.5l-.6-.3c-.4-.2-.7-.6-.7-1s.1-.5.3-.7c.2-.2.5-.3.8-.3s.8,0,1,.3l-.2.6h0Z"/>
      <path class="cls-2" d="M291.7,141.2c0,.7,0,1.3,0,1.6h-1c0-.4,0-.9,0-1.6v-1.4c0-.7,0-1.3,0-1.6h.9v.3c.1-.1.2-.2.4-.3.1,0,.3-.1.5-.1.4,0,.8.1,1,.5s.4.7.4,1.3-.1,1-.4,1.3c-.2.3-.6.5-1,.5s-.3,0-.5-.1c-.1,0-.3-.2-.4-.3h0c0,.1,0,.2,0,.2ZM291.7,139.8c0,.4,0,.8.2,1,.1.2.3.4.5.4s.4-.1.5-.3.1-.6.1-1,0-.8-.1-1c-.1-.2-.3-.3-.5-.3s-.4.1-.5.4c-.1.2-.2.6-.2,1Z"/>
      <path class="cls-2" d="M294.7,139.8c0-.7,0-1.3,0-1.6h.9v.6c.1-.2.2-.4.4-.5s.4-.2.5-.2.2,0,.3,0v.8h0c-.1,0-.3-.1-.5-.1-.5,0-.7.2-.7.7v.3c0,.7,0,1.3,0,1.6h-1c0-.4,0-.9,0-1.6h0Z"/>
      <path class="cls-2" d="M297.4,136.8c0-.1,0-.3.1-.4.1-.1.2-.1.4-.1s.3,0,.4.1.1.2.1.4,0,.3-.1.4-.2.1-.4.1-.3,0-.4-.1c-.1-.1-.1-.2-.1-.4h0ZM297.5,139.8c0-.7,0-1.3,0-1.6h1c0,.4,0,.9,0,1.6s0,1.3,0,1.6h-1c0-.3,0-.9,0-1.6Z"/>
      <path class="cls-2" d="M299.4,139.8c0-.7,0-1.3,0-1.6h.9v.4c.3-.3.6-.5,1-.5s.6.1.8.3.3.5.3.9v.6c0,.7,0,1.3,0,1.6h-1c0-.4,0-.9,0-1.6v-.6c0-.2,0-.4-.1-.5,0-.1-.2-.2-.4-.2s-.4,0-.5.2c-.1.1-.2.4-.2.6v.4c0,.7,0,1.3,0,1.6h-1c0-.4,0-.9,0-1.6h0Z"/>
      <path class="cls-2" d="M304.3,136.7c0,.4,0,.8,0,1.4.4,0,.6,0,.7,0v.4c-.1,0-.3,0-.7,0v2.4c0,.2,0,.3.3.3s.1,0,.2,0c0,0,.1-.1.2-.2h0v.4c-.2,0-.4.1-.6.1-.3,0-.6,0-.7-.2-.2-.2-.2-.4-.2-.7v-2.1c-.2,0-.4,0-.5,0v-.4c.1,0,.3,0,.5,0,0-.4,0-.8,0-1.1l1-.4h0Z"/>
      <path class="cls-2" d="M285.8,149.5v.3h-.9c0-.4,0-.9,0-1.6v-1.9c0-.7,0-1.3,0-1.6h1c0,.4,0,.9,0,1.6v.6c.1-.1.2-.2.4-.3.1,0,.3-.1.5-.1.4,0,.8.1,1,.5.2.3.4.7.4,1.3s-.1,1-.4,1.3c-.2.3-.6.5-1,.5s-.3,0-.5-.1-.3-.2-.4-.3h0ZM285.8,148.2c0,.4,0,.8.2,1,.1.2.3.4.5.4s.4-.1.5-.3.1-.6.1-1,0-.8-.1-1c-.1-.2-.3-.3-.5-.3s-.4.1-.5.4c-.1.2-.2.6-.2,1Z"/>
      <path class="cls-2" d="M288.9,146.7c.4-.2.7-.2,1.1-.2.9,0,1.4.4,1.4,1.1v.7c0,.7,0,1.3,0,1.6h-.9v-.4c-.2.4-.6.5-1,.5s-.5,0-.7-.2-.3-.4-.3-.6.1-.5.3-.7c.2-.2.5-.4.9-.5l.7-.3v-.2c0-.4-.2-.6-.5-.6s-.7.2-1.1.5h0v-.6h0ZM290.6,147.9l-.6.2c-.1,0-.3.1-.3.2s0,.2,0,.4,0,.3.1.5.2.2.3.2c.1,0,.3,0,.4-.2.1-.1.2-.3.2-.5v-.8h0Z"/>
      <path class="cls-2" d="M294.8,147.3c0-.2-.2-.4-.3-.5-.1-.1-.3-.2-.5-.2-.6,0-.9.5-.9,1.5s0,.8.2,1,.4.3.7.3.7-.2.9-.5v.5c-.1,0-.3.1-.5.2-.2,0-.4,0-.6,0-.5,0-1-.1-1.3-.5-.3-.3-.5-.7-.5-1.2s.2-1,.5-1.3.8-.5,1.4-.5.4,0,.6.1.4.1.5.2l-.3.6h0Z"/>
      <path class="cls-2" d="M298.6,146.5c-.3.2-.7.6-1.2,1.1.7,1.2,1.1,1.9,1.3,2.2h-1.1c-.3-.5-.6-1.1-1-1.7h0c0,.8,0,1.4,0,1.7h-1c0-.4,0-.9,0-1.6v-1.9c0-.7,0-1.3,0-1.6h1c0,.4,0,.9,0,1.6v1.6c.5-.5.9-.9,1.2-1.3h.7Z"/>
      <path class="cls-2" d="M299.4,149.8c0-.4,0-.9,0-1.6v-1.9c0-.7,0-1.3,0-1.6h1c0,.4,0,.9,0,1.6v1.9c0,.7,0,1.3,0,1.6h-1Z"/>
      <path class="cls-2" d="M302.8,146.4c.5,0,.9.2,1.2.5.3.3.5.7.5,1.2s-.1.9-.5,1.2c-.3.3-.7.5-1.2.5s-.9-.2-1.2-.5-.5-.7-.5-1.2.1-.9.5-1.2.7-.5,1.2-.5ZM302.8,146.7c-.2,0-.4.1-.5.3-.1.2-.1.6-.1,1.1s0,.9.1,1.1.3.3.5.3.4-.1.5-.3.1-.6.1-1.1,0-.9-.1-1.1c-.1-.2-.3-.3-.5-.3h0Z"/>
      <path class="cls-2" d="M307.1,149c.3,0,.5,0,.7.3.2.2.3.4.3.6s-.2.6-.5.9c-.4.3-.8.4-1.4.4s-.7,0-1-.2c-.2-.1-.4-.3-.4-.5s0-.3.2-.4c.1-.1.3-.2.6-.3-.1,0-.2-.1-.3-.2,0,0-.1-.2-.1-.3,0-.3.2-.6.6-.8-.2,0-.4-.2-.6-.4s-.2-.4-.2-.6.1-.6.3-.8c.2-.2.5-.3.9-.3s.4,0,.6.1c.1,0,.3,0,.6,0s.4,0,.6,0v.5c-.2,0-.5,0-.7,0,.1.2.2.4.2.7s-.1.6-.4.8-.5.3-.9.3h-.2c-.2,0-.2.2-.2.3s0,0,0,.1c0,0,0,0,.1,0h1ZM306.1,149.8c-.3.1-.5.4-.5.6s0,.3.2.4c.1,0,.3.1.6.1s.5,0,.7-.2c.2-.1.3-.3.3-.5,0-.3-.2-.5-.5-.5h-.8ZM306.3,146.7c-.1,0-.3,0-.3.2,0,.1-.1.3-.1.6s0,.5.1.6.2.2.3.2.2,0,.3-.2.1-.3.1-.6,0-.5-.1-.6-.2-.2-.3-.2Z"/>
    </g>
    <rect class="cls-10" x="268.9" y="196.4" width="60" height="20" rx="2" ry="2"/>
    <g>
      <path class="cls-2" d="M288.4,208.2v.3h-.9c0-.4,0-.9,0-1.6v-1.9c0-.7,0-1.3,0-1.6h1c0,.4,0,.9,0,1.6v.6c.1-.1.2-.2.4-.3.1,0,.3-.1.5-.1.4,0,.8.1,1,.5.2.3.4.7.4,1.3s-.1,1-.4,1.3c-.2.3-.6.5-1,.5s-.3,0-.5-.1-.3-.2-.4-.3h0ZM288.4,206.8c0,.4,0,.8.2,1,.1.2.3.4.5.4s.4-.1.5-.3.1-.6.1-1,0-.8-.1-1c-.1-.2-.3-.3-.5-.3s-.4.1-.5.4c-.1.2-.2.6-.2,1Z"/>
      <path class="cls-2" d="M291.5,205.4c.4-.2.7-.2,1.1-.2.9,0,1.4.4,1.4,1.1v.7c0,.7,0,1.3,0,1.6h-.9v-.4c-.2.4-.6.5-1,.5s-.5,0-.7-.2-.3-.4-.3-.6.1-.5.3-.7c.2-.2.5-.4.9-.5l.7-.3v-.2c0-.4-.2-.6-.5-.6s-.7.2-1.1.5h0v-.6h0ZM293.2,206.6l-.6.2c-.1,0-.3.1-.3.2s0,.2,0,.4,0,.3.1.5.2.2.3.2c.1,0,.3,0,.4-.2.1-.1.2-.3.2-.5v-.8h0Z"/>
      <path class="cls-2" d="M297.4,206c0-.2-.2-.4-.3-.5-.1-.1-.3-.2-.5-.2-.6,0-.9.5-.9,1.5s0,.8.2,1,.4.3.7.3.7-.2.9-.5v.5c-.1,0-.3.1-.5.2-.2,0-.4,0-.6,0-.5,0-1-.1-1.3-.4-.3-.3-.5-.7-.5-1.2s.2-1,.5-1.3.8-.5,1.4-.5.4,0,.6.1.4.1.5.2l-.3.6h0Z"/>
      <path class="cls-2" d="M301.2,205.2c-.3.2-.7.6-1.2,1.1.7,1.2,1.1,1.9,1.3,2.2h-1.1c-.3-.5-.6-1.1-1-1.7h0c0,.8,0,1.4,0,1.7h-1c0-.4,0-.9,0-1.6v-1.9c0-.7,0-1.3,0-1.6h1c0,.4,0,.9,0,1.6v1.6c.5-.5.9-.9,1.2-1.3h.7Z"/>
      <path class="cls-2" d="M302,208.5c0-.4,0-.9,0-1.6v-1.9c0-.7,0-1.3,0-1.6h1c0,.4,0,.9,0,1.6v1.9c0,.7,0,1.3,0,1.6h-1Z"/>
      <path class="cls-2" d="M305.4,205.1c.5,0,.9.2,1.2.5.3.3.5.7.5,1.2s-.1.9-.5,1.2c-.3.3-.7.5-1.2.5s-.9-.2-1.2-.5-.5-.7-.5-1.2.1-.9.5-1.2.7-.5,1.2-.5ZM305.4,205.4c-.2,0-.4.1-.5.3-.1.2-.1.6-.1,1.1s0,.9.1,1.1.3.3.5.3.4-.1.5-.3.1-.6.1-1.1,0-.9-.1-1.1-.3-.3-.5-.3h0Z"/>
      <path class="cls-2" d="M309.7,207.7c.3,0,.5,0,.7.3.2.2.3.4.3.6s-.2.6-.5.9c-.4.3-.8.4-1.4.4s-.7,0-1-.2c-.2-.1-.4-.3-.4-.5s0-.3.2-.4c.1-.1.3-.2.6-.3-.1,0-.2-.1-.3-.2,0,0-.1-.2-.1-.3,0-.3.2-.6.6-.8-.2,0-.4-.2-.6-.4s-.2-.4-.2-.6.1-.6.3-.8c.2-.2.5-.3.9-.3s.4,0,.6.1c.1,0,.3,0,.6,0,.2,0,.4,0,.6,0v.5c-.2,0-.5,0-.7,0,.1.2.2.4.2.7s-.1.6-.4.8-.5.3-.9.3h-.2c-.2,0-.2.2-.2.3s0,0,0,.1c0,0,0,0,.1,0h1ZM308.6,208.5c-.3.1-.5.4-.5.6s0,.3.2.4.3.1.6.1.5,0,.7-.2c.2-.1.3-.3.3-.5,0-.3-.2-.4-.5-.4h-.8ZM308.9,205.4c-.1,0-.3,0-.3.2,0,.1-.1.3-.1.6s0,.5.1.6.2.2.3.2.2,0,.3-.2.1-.3.1-.6,0-.5-.1-.6-.2-.2-.3-.2Z"/>
    </g>
    <rect class="cls-10" x="162.9" y="222.3" width="60" height="20" rx="2" ry="2"/>
    <g>
      <path class="cls-2" d="M177.8,229.7c0-.1,0-.3.1-.4s.2-.1.4-.1.3,0,.4.1.1.2.1.4,0,.3-.1.4-.2.1-.4.1-.3,0-.4-.1-.1-.2-.1-.4h0ZM177.8,232.7c0-.7,0-1.3,0-1.6h.9c0,.4,0,.9,0,1.6s0,1.3,0,1.6h-.9c0-.3,0-.9,0-1.6Z"/>
      <path class="cls-2" d="M179.7,232.7c0-.7,0-1.3,0-1.6h.9v.4c.3-.3.6-.5,1-.5s.6.1.8.3.3.5.3.9v.6c0,.7,0,1.3,0,1.6h-.9c0-.4,0-.9,0-1.6v-.6c0-.2,0-.4-.1-.5,0-.1-.2-.2-.4-.2s-.4,0-.6.2-.2.4-.2.6v.4c0,.7,0,1.3,0,1.6h-.9c0-.4,0-.9,0-1.6h0Z"/>
      <path class="cls-2" d="M186.1,231.9c0-.2-.2-.4-.3-.4-.1-.1-.3-.2-.4-.2-.6,0-.9.5-.9,1.5s0,.8.2,1,.4.3.7.3.7-.2.9-.5v.5c-.1,0-.3.1-.5.2-.2,0-.4,0-.6,0-.5,0-1-.1-1.3-.4s-.5-.7-.5-1.2.2-1,.5-1.3.8-.5,1.4-.5.4,0,.6.1.4.1.5.2l-.3.6h0Z"/>
      <path class="cls-2" d="M187.1,232.7c0-.7,0-1.3,0-1.6h.9v.6c.1-.2.2-.4.4-.5s.4-.2.5-.2.2,0,.3,0v.8h0c-.1,0-.3-.1-.5-.1-.4,0-.7.2-.7.7v.3c0,.7,0,1.3,0,1.6h-.9c0-.4,0-.9,0-1.6h0Z"/>
      <path class="cls-2" d="M190.6,232.7c0,.5,0,.9.2,1.1s.3.3.6.3.6-.2.9-.5v.5c-.3.2-.6.3-1.1.3s-.8-.1-1.1-.4c-.3-.3-.5-.7-.5-1.3s.1-.9.4-1.3c.3-.3.6-.5,1.1-.5s.8.1,1.1.4.4.7.4,1.3h-1.9ZM190.6,232.4h1c0-.4,0-.7-.1-.9,0-.2-.2-.3-.4-.3s-.3.1-.4.3-.1.5-.1.8h0Z"/>
      <path class="cls-2" d="M193.3,232.7c0-.7,0-1.3,0-1.6h.9v.4c.3-.3.6-.5,1-.5.5,0,.8.2,1,.6.3-.4.7-.6,1.1-.6.7,0,1,.4,1,1.2v.6c0,.7,0,1.3,0,1.6h-.9c0-.4,0-.9,0-1.6v-.6c0-.2,0-.4-.1-.5s-.2-.1-.4-.1-.4,0-.5.2-.2.4-.2.6v.4c0,.7,0,1.3,0,1.6h-.9c0-.4,0-.9,0-1.6v-.6c0-.2,0-.4-.1-.5s-.2-.1-.4-.1-.4,0-.5.2-.2.4-.2.6v.4c0,.7,0,1.3,0,1.6h-.9c0-.4,0-.9,0-1.6h0Z"/>
      <path class="cls-2" d="M200,232.7c0,.5,0,.9.2,1.1s.3.3.6.3.6-.2.9-.5v.5c-.3.2-.6.3-1.1.3s-.8-.1-1.1-.4c-.3-.3-.5-.7-.5-1.3s.1-.9.4-1.3c.3-.3.6-.5,1.1-.5s.8.1,1,.4.4.7.4,1.3h-1.9ZM200,232.4h1c0-.4,0-.7-.1-.9,0-.2-.2-.3-.4-.3s-.3.1-.4.3-.1.5-.1.8h0Z"/>
      <path class="cls-2" d="M202.7,232.7c0-.7,0-1.3,0-1.6h.9v.4c.3-.3.6-.5,1-.5s.6.1.8.3.3.5.3.9v.6c0,.7,0,1.3,0,1.6h-1c0-.4,0-.9,0-1.6v-.6c0-.2,0-.4-.1-.5,0-.1-.2-.2-.4-.2s-.4,0-.5.2c-.1.1-.2.4-.2.6v.4c0,.7,0,1.3,0,1.6h-1c0-.4,0-.9,0-1.6h0Z"/>
      <path class="cls-2" d="M207.6,229.6c0,.4,0,.8,0,1.4.4,0,.6,0,.7,0v.4c-.1,0-.3,0-.7,0v2.4c0,.2,0,.3.3.3s.1,0,.2,0c0,0,.1-.1.2-.2h0v.4c-.2,0-.4.1-.6.1-.3,0-.6,0-.7-.2-.2-.2-.2-.4-.2-.7v-2.1c-.2,0-.4,0-.5,0v-.4c.1,0,.3,0,.5,0,0-.4,0-.8,0-1.1l1-.4h0Z"/>
    </g>
  </g>
  <g id="Text">
    <g>
      <path class="cls-2" d="M138.1,140c.3.7.8,1.3,1.3,1.7s1.1.6,1.7.6,1-.1,1.4-.4.5-.7.5-1.2c0-.8-.4-1.4-1.2-1.8l-1.3-.7c-1-.6-1.7-1.1-2.1-1.8s-.7-1.4-.7-2.2.3-1.8,1-2.4,1.5-.9,2.6-.9,2.2.2,3.1.6l-.7,1.8h-.2c-.6-.9-1.3-1.3-2.2-1.3s-.8.1-1.1.4-.4.6-.4,1,.1.7.4,1,.6.6,1.2.9l1.2.7c.8.4,1.4,1,1.9,1.7s.7,1.4.7,2.1c0,1.1-.3,2-1,2.7s-1.6,1-2.7,1-1.2,0-1.8-.2-1.2-.3-1.6-.5v-2.8h.2,0Z"/>
      <path class="cls-2" d="M156,133.7c-.6-1.1-1.6-1.6-2.7-1.6s-1.9.4-2.5,1.3-.9,2.1-.9,3.8.3,3,.9,3.8,1.5,1.3,2.6,1.3,1.2-.1,1.8-.4,1-.6,1.4-1.1h.2v1.9c-1,.5-2.2.8-3.6.8s-1.6-.1-2.3-.4-1.4-.6-1.9-1.1c-1.4-1.1-2-2.8-2-4.8s.7-3.5,2-4.7c.6-.5,1.2-.9,2-1.2s1.5-.4,2.2-.4,1.3,0,1.9.2,1.2.3,1.8.6l-.7,2h-.2Z"/>
      <path class="cls-2" d="M165.1,143.3c-.5-1.1-1.4-2.8-2.9-5.2h0c0,2.5,0,4.3.2,5.2h-2.9c.1-1,.2-3,.2-6s0-5.1-.2-6.1c.4,0,1.1,0,1.8,0,.4,0,.9,0,1.4,0,.7,0,1.2,0,1.6,0,1.2,0,2.1.3,2.7.8s1,1.3,1,2.3-.3,1.6-.8,2.3-1.2,1-2.1,1.2c1.6,2.7,2.7,4.6,3.5,5.5h-3.4,0ZM162.1,136.8h.7c.8,0,1.4-.2,1.7-.5s.6-.9.6-1.7-.1-1.3-.4-1.6-.7-.5-1.3-.5-1,0-1.3.1v4.2h0Z"/>
      <path class="cls-2" d="M173.3,131.2c-.1,1-.2,3-.2,6v1.5c0,1.1.3,1.9.8,2.4s1.4.8,2.6.8,1.9-.3,2.5-.8.9-1.3.9-2.4v-1.5c0-3.1,0-5.1-.2-6h1.6c-.1,1-.2,3-.2,6v1.5c0,1.5-.5,2.7-1.4,3.5s-2.2,1.3-3.9,1.3-3-.4-3.9-1.2-1.4-2-1.4-3.6v-1.5c0-3.1,0-5.1-.2-6h2.9Z"/>
      <path class="cls-2" d="M186.5,136.1l-.2,2.1c-.3,2.7-.4,4.4-.3,5.1h-1.6c.2-.9.5-2.9.8-6,.3-3.1.5-5.2.4-6.1h1.7c.1.4.3,1,.6,1.8s.9,2.1,1.8,4.2l1.2,2.9,1.3-2.9c.8-1.8,1.3-3.1,1.6-3.9s.6-1.5.7-2.1h1.7c0,1.1.1,3.1.5,6.1.3,3.1.6,5.1.8,6h-2.9c0-1.1,0-2.8-.3-5.1l-.2-2.1-1,2.3c-1.1,2.6-1.8,4.2-1.9,5h-1.7c-.2-.6-.8-2.3-2-5l-.9-2.2h0Z"/>
    </g>
    <g>
      <path class="cls-3" d="M166,66.7h.1c.4.7.8,1,1.4,1s.7-.2.9-.4c.2-.3.3-.7.3-1.3s-.1-.9-.3-1.1-.5-.4-.9-.4-.7.1-1.1.3h-.2v-3.4c.3,0,.9,0,1.8,0s1.4,0,1.8,0v1.2c-.4,0-1,0-1.8,0h-1.2v1.7c.4-.2.8-.3,1.3-.3s1.1.2,1.5.6c.4.4.6.9.6,1.5s-.2,1.3-.7,1.7-1,.6-1.8.6-.6,0-.9-.1-.6-.2-.8-.3v-1.1h0Z"/>
      <path class="cls-3" d="M155.8,77.8c0,.7,0,1.2.3,1.5s.5.5.9.5.9-.2,1.3-.7v.7c-.4.3-.9.4-1.6.4s-1.1-.2-1.6-.6c-.5-.4-.7-1.1-.7-1.8s.2-1.3.6-1.8.9-.7,1.5-.7,1.1.2,1.5.7.5,1,.5,1.8c0,0-2.8,0-2.8,0ZM155.8,77.3h1.4c0-.6,0-1-.2-1.2s-.3-.4-.5-.4-.4.1-.5.4-.2.7-.2,1.2Z"/>
      <path class="cls-3" d="M161,80.1c-.1-.3-.4-1.1-.9-2.3-.5-1.2-.8-1.9-1-2.3h1.5c.1.5.6,1.6,1.3,3.4.8-1.9,1.2-3,1.3-3.4h.6c-.2.3-.5,1.1-1,2.3-.4,1.1-.7,1.8-.9,2.3h-1Z"/>
      <path class="cls-3" d="M165.8,77.8c0,.7,0,1.2.3,1.5s.5.5.9.5.9-.2,1.3-.7v.7c-.4.3-.9.4-1.6.4s-1.1-.2-1.6-.6c-.5-.4-.7-1.1-.7-1.8s.2-1.3.6-1.8.9-.7,1.5-.7,1.1.2,1.5.7.5,1,.5,1.8c0,0-2.8,0-2.8,0ZM165.8,77.3h1.4c0-.6,0-1-.2-1.2s-.3-.4-.5-.4-.4.1-.5.4-.2.7-.2,1.2Z"/>
      <path class="cls-3" d="M169.6,77.8c0-1,0-1.8,0-2.3h1.3v.6c.4-.5.9-.7,1.5-.7s.9.1,1.2.4.4.7.4,1.2v.8c0,1,0,1.8,0,2.3h-1.4c0-.5,0-1.3,0-2.3v-.8c0-.3,0-.6-.2-.8s-.3-.2-.6-.2-.6,0-.8.3-.3.5-.3.9v.6c0,1,0,1.8,0,2.3h-1.4c0-.5,0-1.3,0-2.3h0Z"/>
      <path class="cls-3" d="M176.7,73.4c0,.5,0,1.2,0,2.1.5,0,.8,0,1,0v.5c-.1,0-.5,0-1,0v3.4c0,.3.1.5.4.5s.2,0,.3,0c.1,0,.2-.2.3-.3h0v.6c-.2,0-.5.1-.8.1s-.8-.1-1-.3-.4-.6-.4-1v-2.9c-.3,0-.6,0-.7,0v-.5c.1,0,.4,0,.7,0,0-.6,0-1.1,0-1.5l1.4-.5h0Z"/>
      <path class="cls-3" d="M180.9,76.5c-.3-.5-.6-.7-1-.7s-.4,0-.5.1-.2.2-.2.4c0,.2.1.4.4.5l.8.4c.4.2.7.4.9.7s.3.6.3.9-.2.8-.5,1.1-.8.4-1.3.4-.5,0-.8,0c-.3,0-.5-.1-.6-.2v-1h.1c.2.3.4.5.6.7.2.2.5.2.7.2s.4,0,.6-.2c.1-.1.2-.3.2-.4,0-.3-.1-.5-.4-.7l-.9-.4c-.6-.3-.9-.8-.9-1.4s.1-.8.4-1,.6-.4,1.1-.4,1.1.1,1.5.4l-.4.8h-.1,0Z"/>
    </g>
    <g>
      <path class="cls-3" d="M107.8,155.2l-.4-.9c.3-.2.6-.4.9-.6.4-.1.7-.2,1-.2.6,0,1.1.1,1.4.4.3.3.5.7.5,1.2s-.1.7-.3,1-.5.5-.9.6c.5,0,.8.2,1.1.5.3.3.4.6.4,1.1,0,.7-.2,1.2-.6,1.6s-1,.6-1.8.6-1.2-.1-1.7-.3v-1.1h.1c.4.6.9.9,1.5.9s1.1-.5,1.1-1.6-.3-1.3-.9-1.3-.4,0-.6,0v-.6c0,0,.2,0,.4,0,.3,0,.5-.1.7-.4s.3-.6.3-1c0-.8-.2-1.2-.7-1.2s-.9.4-1.2,1.1h-.1Z"/>
      <path class="cls-3" d="M92.9,167.9c.5-.2,1-.4,1.6-.4,1.3,0,2,.5,2,1.5v1c0,1,0,1.8,0,2.3h-1.3v-.6c-.3.5-.8.8-1.4.8s-.7-.1-.9-.3-.4-.5-.4-.9.1-.7.4-1,.7-.5,1.3-.8l1-.4v-.3c0-.6-.3-.9-.8-.9s-1,.2-1.5.7h0v-.8h0ZM95.3,169.6l-.9.3c-.2,0-.4.2-.4.3,0,.1-.1.3-.1.6s0,.5.2.7c.1.2.2.3.4.3.2,0,.4-.1.6-.3.2-.2.3-.4.3-.7v-1.1h0Z"/>
      <path class="cls-3" d="M101.3,168.9c-.1-.3-.3-.5-.5-.6s-.4-.2-.6-.2c-.8,0-1.2.7-1.2,2.1s.1,1.1.3,1.5.6.5,1.1.5.9-.2,1.3-.7v.7c-.2.1-.4.2-.7.3-.3,0-.6.1-.9.1-.8,0-1.4-.2-1.9-.6s-.7-1-.7-1.7.2-1.4.7-1.9,1.1-.7,1.9-.7.5,0,.8.1c.3,0,.6.2.8.3l-.4.8h-.1Z"/>
      <path class="cls-3" d="M106.3,168.9c-.1-.3-.3-.5-.5-.6s-.4-.2-.6-.2c-.8,0-1.2.7-1.2,2.1s.1,1.1.3,1.5.6.5,1.1.5.9-.2,1.3-.7v.7c-.2.1-.4.2-.7.3-.3,0-.6.1-.9.1-.8,0-1.4-.2-1.9-.6s-.7-1-.7-1.7.2-1.4.7-1.9,1.1-.7,1.9-.7.5,0,.8.1c.3,0,.6.2.8.3l-.4.8h-.1Z"/>
      <path class="cls-3" d="M109.9,167.6c.7,0,1.2.2,1.7.7s.6,1,.6,1.8-.2,1.3-.6,1.8-1,.7-1.7.7-1.3-.2-1.7-.7-.6-1-.6-1.8.2-1.3.6-1.8,1-.7,1.7-.7ZM109.9,168c-.4,0-.6.2-.7.5s-.2.8-.2,1.6,0,1.2.2,1.6.4.5.7.5.6-.2.7-.5c.1-.3.2-.8.2-1.6s0-1.2-.2-1.6-.4-.5-.7-.5h0Z"/>
      <path class="cls-3" d="M117.6,170c0,1,0,1.8,0,2.3h-1.3v-.6c-.4.5-.9.7-1.5.7s-.9-.1-1.2-.4-.4-.7-.4-1.2v-.8c0-1,0-1.8,0-2.3h1.4c0,.5,0,1.3,0,2.3v.8c0,.4,0,.6.2.8s.3.2.6.2.6-.1.8-.3c.2-.2.3-.5.3-.9v-.6c0-1,0-1.8,0-2.3h1.4c0,.5,0,1.3,0,2.3h0Z"/>
      <path class="cls-3" d="M118.9,170c0-1,0-1.8,0-2.3h1.3v.6c.4-.5.9-.7,1.5-.7s.9.1,1.2.4.4.7.4,1.2v.8c0,1,0,1.8,0,2.3h-1.4c0-.5,0-1.3,0-2.3v-.8c0-.4,0-.6-.2-.8s-.3-.2-.6-.2-.6.1-.8.3c-.2.2-.3.5-.3.9v.6c0,1,0,1.8,0,2.3h-1.4c0-.5,0-1.3,0-2.3h0Z"/>
      <path class="cls-3" d="M124,170.2v-.9h2.5v.9h-2.5Z"/>
      <path class="cls-3" d="M92.9,177.7c0,.5,0,1.2,0,2.1.5,0,.8,0,1,0v.5c-.1,0-.5,0-1,0v3.4c0,.3.1.5.4.5s.2,0,.3-.1c.1,0,.2-.1.3-.3h0v.6c-.2,0-.5.1-.8.1s-.8-.1-1-.4-.4-.6-.4-1v-2.9c-.3,0-.6,0-.7,0v-.5c.1,0,.4,0,.7,0,0-.6,0-1.1,0-1.5l1.4-.5h0Z"/>
      <path class="cls-3" d="M94.9,179.9c.5-.2,1-.4,1.6-.4,1.3,0,2,.5,2,1.5v1c0,1,0,1.8,0,2.3h-1.3v-.6c-.3.5-.8.8-1.4.8s-.7-.1-.9-.3-.4-.5-.4-.9.1-.7.4-1,.7-.5,1.3-.8l1-.4v-.3c0-.6-.3-.9-.8-.9s-1,.2-1.5.7h0v-.8h0ZM97.2,181.6l-.9.3c-.2,0-.4.2-.4.3,0,.1-.1.3-.1.6s0,.5.2.7c.1.2.2.3.4.3.2,0,.4-.1.6-.3.2-.2.3-.4.3-.7v-1.1h0Z"/>
      <path class="cls-3" d="M101,183.9v.4h-1.3c0-.5,0-1.3,0-2.3v-2.7c0-1,0-1.8,0-2.3h1.4c0,.5,0,1.3,0,2.3v.8c.2-.2.4-.4.5-.4.2,0,.4-.1.7-.1.6,0,1.1.2,1.5.7s.5,1,.5,1.8-.2,1.4-.5,1.8c-.4.4-.9.7-1.5.7s-.5,0-.7-.1c-.2,0-.4-.2-.5-.4ZM101,182c0,.6,0,1.1.2,1.4s.4.5.7.5.6-.1.7-.4c.1-.3.2-.8.2-1.5s0-1.2-.2-1.5-.4-.4-.7-.4-.5.2-.7.5-.2.8-.2,1.4Z"/>
      <path class="cls-3" d="M105.3,177.8c0-.2,0-.4.2-.5.1-.1.3-.2.5-.2s.4,0,.5.2.2.3.2.5,0,.4-.2.5-.3.2-.5.2-.4,0-.5-.2-.2-.3-.2-.5h0ZM105.4,182c0-1.1,0-1.8,0-2.3h1.4c0,.5,0,1.3,0,2.3s0,1.8,0,2.3h-1.4c0-.5,0-1.3,0-2.3Z"/>
      <path class="cls-3" d="M108.1,184.4c0-.5,0-1.3,0-2.3v-2.7c0-1,0-1.8,0-2.3h1.4c0,.5,0,1.3,0,2.3v2.7c0,1,0,1.8,0,2.3h-1.4Z"/>
      <path class="cls-3" d="M110.8,177.8c0-.2,0-.4.2-.5.1-.1.3-.2.5-.2s.4,0,.5.2.2.3.2.5,0,.4-.2.5-.3.2-.5.2-.4,0-.5-.2-.2-.3-.2-.5h0ZM111,182c0-1.1,0-1.8,0-2.3h1.4c0,.5,0,1.3,0,2.3s0,1.8,0,2.3h-1.4c0-.5,0-1.3,0-2.3Z"/>
      <path class="cls-3" d="M115.2,177.7c0,.5,0,1.2,0,2.1.5,0,.8,0,1,0v.5c-.1,0-.5,0-1,0v3.4c0,.3.1.5.4.5s.2,0,.3-.1c.1,0,.2-.1.3-.3h0v.6c-.2,0-.5.1-.8.1s-.8-.1-1-.4-.4-.6-.4-1v-2.9c-.3,0-.6,0-.7,0v-.5c.1,0,.4,0,.7,0,0-.6,0-1.1,0-1.5l1.4-.5h0Z"/>
      <path class="cls-3" d="M116.9,177.8c0-.2,0-.4.2-.5.1-.1.3-.2.5-.2s.4,0,.5.2.2.3.2.5,0,.4-.2.5-.3.2-.5.2-.4,0-.5-.2-.2-.3-.2-.5h0ZM117.1,182c0-1.1,0-1.8,0-2.3h1.4c0,.5,0,1.3,0,2.3s0,1.8,0,2.3h-1.4c0-.5,0-1.3,0-2.3Z"/>
      <path class="cls-3" d="M120.9,182.1c0,.7,0,1.2.3,1.5s.5.5.9.5.9-.2,1.3-.7v.7c-.4.3-.9.4-1.6.4s-1.1-.2-1.6-.6c-.5-.4-.7-1.1-.7-1.8s.2-1.4.6-1.8.9-.7,1.5-.7,1.1.2,1.5.6.5,1,.5,1.8h-2.8ZM120.9,181.6h1.4c0-.6,0-1-.2-1.2s-.3-.4-.5-.4-.4.1-.5.4-.2.7-.2,1.2h0Z"/>
      <path class="cls-3" d="M127.1,180.7c-.3-.5-.6-.7-1-.7s-.4,0-.5.1-.2.2-.2.4c0,.2.1.4.4.5l.8.4c.4.2.7.4.9.7.2.2.3.6.3.9s-.2.8-.5,1.1c-.3.3-.8.4-1.3.4s-.5,0-.8,0c-.3,0-.5-.1-.6-.2v-1h.1c.2.3.4.5.6.7.2.2.5.2.7.2s.4,0,.6-.2c.1-.1.2-.2.2-.4,0-.3-.1-.5-.4-.7l-.9-.4c-.6-.3-.9-.8-.9-1.4s.1-.8.4-1,.6-.4,1.1-.4,1.1.1,1.5.4l-.4.8h-.1,0Z"/>
    </g>
    <g>
      <path class="cls-3" d="M224.4,162.4l-.4-.9c.3-.2.6-.4,1-.6s.7-.2,1-.2c.6,0,1.1.1,1.4.4.3.3.5.7.5,1.2s-.1.7-.3,1-.5.5-.9.6c.5,0,.8.2,1.1.5.3.3.4.6.4,1.1,0,.7-.2,1.2-.6,1.6-.4.4-1,.6-1.8.6s-1.2-.1-1.7-.3v-1.1h.1c.4.6.9.9,1.5.9s1.1-.5,1.1-1.6-.3-1.3-1-1.3-.4,0-.6,0v-.6c0,0,.2,0,.4,0,.3,0,.5-.1.7-.4s.3-.6.3-1c0-.8-.2-1.2-.7-1.2s-.9.4-1.2,1.1h-.1Z"/>
      <path class="cls-3" d="M208,175.2c.5-.2,1-.4,1.6-.4,1.3,0,2,.5,2,1.5v1c0,1,0,1.8,0,2.3h-1.3v-.6c-.3.5-.8.8-1.4.8s-.7-.1-1-.3-.4-.5-.4-.9.1-.7.4-1,.7-.5,1.3-.8l1-.4v-.3c0-.6-.3-.9-.8-.9s-1,.2-1.5.7h0v-.8h0ZM210.3,176.9l-.9.3c-.2,0-.4.2-.5.3,0,.1-.1.3-.1.6s0,.5.2.7c.1.2.2.3.4.3.2,0,.4-.1.6-.3.2-.2.3-.4.3-.7v-1.1h0Z"/>
      <path class="cls-3" d="M212.8,177.3c0-1,0-1.8,0-2.3h1.3v.9c.1-.3.3-.5.6-.7.2-.2.5-.3.7-.3s.2,0,.4,0v1.2h0c-.2-.1-.4-.2-.7-.2-.6,0-1,.3-1,1v.5c0,1,0,1.8,0,2.3h-1.4c0-.5,0-1.3,0-2.3h0Z"/>
      <path class="cls-3" d="M218.2,172.9c0,.5,0,1.2,0,2.1.5,0,.8,0,1,0v.5c-.1,0-.5,0-1,0v3.4c0,.3.1.5.4.5s.2,0,.3-.1c.1,0,.2-.1.3-.3h0v.6c-.2,0-.5.1-.8.1s-.8-.1-1-.4-.4-.6-.4-1v-2.9c-.3,0-.6,0-.7,0v-.5c.1,0,.4,0,.7,0,0-.6,0-1.1,0-1.5l1.4-.5h0Z"/>
      <path class="cls-3" d="M221.2,177.3c0,.7,0,1.2.3,1.5s.5.5.9.5.9-.2,1.3-.7v.7c-.4.3-.9.4-1.6.4s-1.1-.2-1.6-.6c-.5-.4-.7-1.1-.7-1.8s.2-1.4.6-1.8.9-.7,1.5-.7,1.1.2,1.5.6.5,1,.5,1.8h-2.8,0ZM221.2,176.8h1.4c0-.6,0-1-.2-1.2s-.3-.4-.5-.4-.4.1-.5.4c-.1.3-.2.7-.2,1.2h0Z"/>
      <path class="cls-3" d="M225.3,179.6c0-.5,0-1.3,0-2.3v-1.9c-.4,0-.6,0-.8,0v-.5c.1,0,.4,0,.8,0v-.3c0-.5.2-1,.5-1.6.4-.5.8-.8,1.1-.8s.5,0,.6.1v.8h0c-.2-.1-.4-.2-.6-.2s-.4.1-.4.4v1.5c.5,0,.8,0,.9,0v.5c-.1,0-.5,0-.9,0v1.9c0,1,0,1.8,0,2.3h-1.4Z"/>
      <path class="cls-3" d="M228.5,175.2c.5-.2,1-.4,1.6-.4,1.3,0,2,.5,2,1.5v1c0,1,0,1.8,0,2.3h-1.3v-.6c-.3.5-.8.8-1.4.8s-.7-.1-1-.3-.4-.5-.4-.9.1-.7.4-1,.7-.5,1.3-.8l1-.4v-.3c0-.6-.3-.9-.8-.9s-1,.2-1.5.7h0v-.8h0ZM230.9,176.9l-.9.3c-.2,0-.4.2-.5.3,0,.1-.1.3-.1.6s0,.5.2.7c.1.2.2.3.4.3.2,0,.4-.1.6-.3.2-.2.3-.4.3-.7v-1.1h0Z"/>
      <path class="cls-3" d="M236.9,176.1c-.1-.3-.3-.5-.5-.6s-.4-.2-.6-.2c-.8,0-1.2.7-1.2,2.1s.1,1.1.3,1.5.6.5,1,.5,1-.2,1.3-.7v.7c-.2.1-.4.2-.7.3-.3,0-.6.1-.9.1-.8,0-1.4-.2-1.9-.6s-.7-1-.7-1.7.2-1.4.7-1.9,1.1-.7,1.9-.7.5,0,.8.1c.3,0,.6.2.8.3l-.4.8h-.1Z"/>
      <path class="cls-3" d="M239.9,172.9c0,.5,0,1.2,0,2.1.5,0,.8,0,1,0v.5c-.1,0-.5,0-1,0v3.4c0,.3.1.5.4.5s.2,0,.3-.1c.1,0,.2-.1.3-.3h0v.6c-.2,0-.5.1-.8.1s-.8-.1-1-.4-.4-.6-.4-1v-2.9c-.3,0-.6,0-.7,0v-.5c.1,0,.4,0,.7,0,0-.6,0-1.1,0-1.5l1.4-.5h0Z"/>
      <path class="cls-3" d="M244.1,176c-.3-.5-.6-.7-1-.7s-.4,0-.5.1-.2.2-.2.4c0,.2.1.4.4.5l.8.4c.4.2.7.4.9.7.2.3.3.6.3.9s-.2.8-.5,1.1c-.3.3-.8.4-1.3.4s-.5,0-.8,0c-.3,0-.5-.1-.6-.2v-1h.1c.2.3.4.5.6.7s.5.2.7.2.5,0,.6-.2c.1-.1.2-.3.2-.4,0-.3-.1-.5-.4-.7l-.9-.4c-.6-.3-.9-.8-.9-1.4s.1-.8.4-1,.6-.4,1.1-.4,1.1.1,1.5.4l-.4.8h-.1,0Z"/>
    </g>
  </g>
</svg>