<?xml version="1.0" encoding="UTF-8"?>
<svg id="Layer_1" data-name="Layer 1" xmlns="http://www.w3.org/2000/svg" version="1.1" xmlns:xlink="http://www.w3.org/1999/xlink" viewBox="0 0 453 282.3">
  <defs>
    <style>
      .cls-1 {
        fill: url(#linear-gradient);
      }

      .cls-1, .cls-2, .cls-3, .cls-4 {
        stroke-width: 0px;
      }

      .cls-2 {
        fill: #231f20;
      }

      .cls-3 {
        fill: url(#linear-gradient-2);
      }

      .cls-4 {
        fill: url(#linear-gradient-3);
      }
    </style>
    <linearGradient id="linear-gradient" x1="226.5" y1="0" x2="226.5" y2="180" gradientUnits="userSpaceOnUse">
      <stop offset="0" stop-color="#b978b3" stop-opacity=".6"/>
      <stop offset="1" stop-color="#9b51a0" stop-opacity=".6"/>
    </linearGradient>
    <linearGradient id="linear-gradient-2" x1="293.83" y1="102.3" x2="293.83" y2="282.3" gradientUnits="userSpaceOnUse">
      <stop offset="0" stop-color="#fbd794" stop-opacity=".6"/>
      <stop offset="1" stop-color="#fee725" stop-opacity=".6"/>
    </linearGradient>
    <linearGradient id="linear-gradient-3" x1="159.24" y1="102.3" x2="159.24" y2="282.3" gradientUnits="userSpaceOnUse">
      <stop offset="0" stop-color="#d7e698" stop-opacity=".6"/>
      <stop offset="1" stop-color="#a5cd50" stop-opacity=".6"/>
    </linearGradient>
  </defs>
  <circle class="cls-1" cx="226.5" cy="90" r="90"/>
  <g>
    <path class="cls-2" d="M159.32,75.87c.71.04,1.61.06,2.69.06.36-.01.71-.02,1.08-.03.4-.01.79-.02,1.19-.03,1.15,0,2.09.32,2.81.96.73.64,1.09,1.45,1.09,2.43,0,1.13-.46,2.09-1.39,2.86-.93.77-2.1,1.15-3.5,1.15h-2.04c0,3.36.07,5.61.21,6.73h-2.13c.14-1.12.21-3.47.21-7.05s-.07-5.95-.21-7.08ZM161.25,82.23h1.96c1,0,1.78-.24,2.34-.71.55-.47.83-1.15.83-2.01s-.26-1.54-.79-1.93-1.36-.59-2.51-.59c-.79,0-1.4.05-1.83.16v5.09Z"/>
    <path class="cls-2" d="M170.48,90c.1-1.08.14-2.7.14-4.87s-.05-3.8-.14-4.87h1.74v1.98c.94-1.52,1.87-2.28,2.79-2.28.38,0,.69.06.92.17v1.8h-.1c-.27-.28-.65-.42-1.15-.42-.53,0-1.06.26-1.59.77-.58.56-.87,1.21-.87,1.94v.9c0,2.17.05,3.79.14,4.87h-1.89Z"/>
    <path class="cls-2" d="M181.77,79.96c1.44,0,2.59.47,3.47,1.42.88.94,1.32,2.19,1.32,3.75s-.44,2.81-1.32,3.75c-.88.94-2.04,1.42-3.47,1.42s-2.6-.47-3.48-1.41-1.31-2.19-1.31-3.76.44-2.82,1.31-3.76c.88-.94,2.03-1.41,3.48-1.41ZM181.77,80.64c-.95,0-1.69.39-2.2,1.18s-.78,1.89-.78,3.31.26,2.53.78,3.31,1.25,1.18,2.2,1.18,1.69-.39,2.2-1.18.78-1.89.78-3.31-.26-2.53-.78-3.31-1.25-1.18-2.2-1.18Z"/>
    <path class="cls-2" d="M195.8,81.75c0-3.64-.05-6-.14-7.08h1.89c-.1,1.07-.14,3.63-.14,7.67s.05,6.58.14,7.66h-1.74v-1.49c-.66,1.19-1.65,1.78-2.98,1.78s-2.3-.46-3.05-1.37-1.12-2.18-1.12-3.79.37-2.88,1.12-3.79,1.76-1.37,3.05-1.37,2.33.59,2.98,1.78ZM195.8,85.13c0-1.39-.23-2.48-.7-3.25s-1.12-1.16-1.96-1.16-1.54.37-1.99,1.12-.68,1.84-.68,3.29.23,2.55.68,3.29,1.12,1.12,1.99,1.12,1.5-.39,1.96-1.16.7-1.86.7-3.25Z"/>
    <path class="cls-2" d="M209.19,80.26c-.1,1.07-.14,2.7-.14,4.87s.05,3.79.14,4.87h-1.74v-1.45c-.88,1.16-2,1.74-3.36,1.74-1,0-1.78-.31-2.33-.92s-.82-1.47-.82-2.57v-1.68c0-2.17-.05-3.8-.14-4.87h1.89c-.1,1.07-.14,2.7-.14,4.87v1.68c0,1.68.66,2.52,1.99,2.52.75,0,1.42-.3,2.02-.91s.9-1.31.9-2.09v-1.2c0-2.17-.05-3.8-.14-4.87h1.89Z"/>
    <path class="cls-2" d="M219.09,82.3c-.42-1.11-1.17-1.66-2.25-1.66-.92,0-1.67.43-2.26,1.3s-.87,1.99-.87,3.38.29,2.38.88,3.15c.58.77,1.37,1.15,2.35,1.15.56,0,1.09-.11,1.59-.34s.92-.54,1.27-.94v1.18c-.79.52-1.82.78-3.09.78-1.38,0-2.53-.47-3.44-1.42-.91-.95-1.37-2.13-1.37-3.56,0-1.55.47-2.83,1.4-3.84.94-1.01,2.13-1.51,3.59-1.51.49,0,1.01.08,1.55.23.54.15,1.02.36,1.43.61l-.58,1.5h-.21Z"/>
    <path class="cls-2" d="M224.7,75.93c-.1,1.07-.14,2.52-.14,4.33.86,0,1.56-.02,2.1-.06v1.07c-.54-.04-1.24-.06-2.1-.06v7.05c0,.41.08.74.25.99.17.25.38.37.65.37.42,0,.78-.13,1.1-.38h.1v.76c-.43.2-.92.3-1.46.3-.77,0-1.33-.2-1.7-.6-.37-.4-.55-1.02-.55-1.86v-6.63c-.56,0-1.04.02-1.45.06v-1.07c.4.04.88.06,1.45.06,0-1.28-.05-2.36-.14-3.24l1.89-1.09Z"/>
    <path class="cls-2" d="M241.48,75.63c2.27,0,4.08.67,5.44,1.99,1.36,1.33,2.04,3.11,2.04,5.34s-.68,4.01-2.04,5.34c-1.36,1.33-3.17,1.99-5.44,1.99s-4.08-.66-5.44-1.99c-1.36-1.33-2.04-3.11-2.04-5.34s.68-4.01,2.04-5.34c1.36-1.33,3.17-1.99,5.44-1.99ZM241.48,76.56c-1.78,0-3.15.66-4.12,1.97-.86,1.17-1.29,2.65-1.29,4.44s.43,3.27,1.29,4.43c.97,1.32,2.34,1.98,4.12,1.98s3.15-.66,4.12-1.98c.86-1.16,1.29-2.64,1.29-4.43s-.43-3.27-1.29-4.44c-.97-1.31-2.34-1.97-4.12-1.97Z"/>
    <path class="cls-2" d="M254.98,90c-.31-.98-.95-2.61-1.94-4.91-1.07-2.54-1.8-4.15-2.18-4.83h2.04c.49,1.39.93,2.54,1.32,3.47l1.52,3.59,1.57-3.91c.51-1.24.93-2.39,1.26-3.45h.34c.19.62.63,1.79,1.32,3.51l1.57,3.91,1.54-3.69c.49-1.2.93-2.34,1.32-3.42h1.28c-.36.63-1.08,2.23-2.16,4.81-.92,2.18-1.55,3.82-1.89,4.93h-.82c-.14-.46-.58-1.6-1.3-3.42l-1.34-3.33-1.38,3.35c-.52,1.25-.93,2.39-1.24,3.4h-.82Z"/>
    <path class="cls-2" d="M268.35,90c.1-1.08.14-2.7.14-4.87s-.05-3.8-.14-4.87h1.74v1.45c.88-1.16,2-1.74,3.36-1.74,1,0,1.78.31,2.33.92.55.61.82,1.47.82,2.57v1.68c0,2.17.05,3.79.14,4.87h-1.89c.1-1.08.14-2.7.14-4.87v-1.68c0-1.68-.66-2.52-1.99-2.52-.75,0-1.42.3-2.02.91s-.9,1.31-.9,2.09v1.2c0,2.17.05,3.79.14,4.87h-1.89Z"/>
    <path class="cls-2" d="M281,85.19c0,1.44.28,2.53.83,3.29.55.76,1.34,1.14,2.37,1.14.55,0,1.12-.12,1.69-.37.57-.25,1.04-.58,1.39-.99v1.18c-.38.25-.88.45-1.53.62s-1.27.25-1.88.25c-1.48,0-2.63-.45-3.46-1.34-.82-.89-1.23-2.15-1.23-3.79s.41-2.83,1.22-3.78c.81-.95,1.88-1.43,3.21-1.43s2.4.46,3.15,1.37c.74.91,1.12,2.2,1.12,3.86h-6.89ZM286.06,84.51c-.05-2.58-.87-3.88-2.44-3.88-.81,0-1.44.33-1.89,1-.45.67-.69,1.63-.72,2.88h5.04Z"/>
    <path class="cls-2" d="M290.29,90c.1-1.08.14-2.7.14-4.87s-.05-3.8-.14-4.87h1.74v1.98c.94-1.52,1.87-2.28,2.79-2.28.38,0,.69.06.92.17v1.8h-.1c-.27-.28-.65-.42-1.15-.42-.53,0-1.06.26-1.59.77-.58.56-.87,1.21-.87,1.94v.9c0,2.17.05,3.79.14,4.87h-1.89Z"/>
  </g>
  <g>
    <circle class="cls-3" cx="293.83" cy="192.3" r="90"/>
    <g>
      <path class="cls-2" d="M266.97,182.63c.87,1.72,2.12,2.58,3.75,2.58.81,0,1.46-.21,1.94-.62.48-.41.72-.97.72-1.67,0-1.18-.63-2.12-1.89-2.8l-1.72-.94c-1.09-.61-1.87-1.23-2.35-1.88s-.72-1.38-.72-2.22c0-1.02.38-1.88,1.14-2.57.76-.69,1.71-1.04,2.85-1.04,1.33,0,2.54.23,3.61.7l-.67,1.53h-.22c-.28-.42-.66-.74-1.13-.96-.48-.23-1.01-.34-1.59-.34-.72,0-1.29.19-1.72.56s-.65.88-.65,1.5c0,.57.18,1.08.54,1.53s.98.9,1.85,1.37l1.47.8c1.88,1.01,2.82,2.31,2.82,3.91,0,1.23-.39,2.22-1.18,2.96-.79.74-1.81,1.11-3.07,1.11-1.61,0-2.95-.38-4.01-1.13v-2.38h.21Z"/>
      <path class="cls-2" d="M284.07,178.14c-.42-1.11-1.17-1.66-2.25-1.66-.92,0-1.67.43-2.26,1.3-.58.86-.87,1.99-.87,3.38s.29,2.38.88,3.15c.58.77,1.37,1.15,2.35,1.15.56,0,1.09-.11,1.59-.34s.92-.54,1.27-.94v1.18c-.79.52-1.82.78-3.09.78-1.38,0-2.53-.47-3.44-1.42-.91-.95-1.37-2.13-1.37-3.56,0-1.55.47-2.83,1.4-3.84.94-1.01,2.13-1.51,3.59-1.51.49,0,1.01.08,1.55.23.54.15,1.02.36,1.43.61l-.58,1.5h-.21Z"/>
      <path class="cls-2" d="M287.59,185.84c.1-1.08.14-2.7.14-4.87s-.05-3.8-.14-4.87h1.74v1.98c.94-1.52,1.87-2.28,2.79-2.28.38,0,.69.06.92.17v1.8h-.1c-.27-.28-.65-.42-1.15-.42-.53,0-1.06.26-1.59.77-.58.56-.87,1.21-.87,1.94v.9c0,2.17.05,3.79.14,4.87h-1.89Z"/>
      <path class="cls-2" d="M302.94,176.1c-.1,1.07-.14,2.7-.14,4.87s.05,3.79.14,4.87h-1.74v-1.45c-.88,1.16-2,1.74-3.36,1.74-1.01,0-1.78-.31-2.33-.92-.55-.61-.82-1.47-.82-2.57v-1.68c0-2.17-.05-3.8-.14-4.87h1.89c-.1,1.07-.14,2.7-.14,4.87v1.68c0,1.68.66,2.52,1.99,2.52.75,0,1.42-.3,2.02-.91.6-.61.9-1.31.9-2.09v-1.2c0-2.17-.05-3.8-.14-4.87h1.89Z"/>
      <path class="cls-2" d="M306.51,185.84c.1-1.08.14-2.7.14-4.87s-.05-3.8-.14-4.87h1.74v1.63c.4-.62.88-1.1,1.44-1.43.56-.33,1.15-.5,1.79-.5,1.46,0,2.38.69,2.76,2.08.9-1.39,2.04-2.08,3.42-2.08,1.93,0,2.9,1.16,2.9,3.49v1.68c0,2.17.05,3.79.14,4.87h-1.89c.09-1.08.14-2.7.14-4.87v-1.68c0-.87-.14-1.51-.42-1.92-.28-.4-.73-.61-1.34-.61-.73,0-1.38.3-1.95.9-.57.6-.85,1.3-.85,2.1v1.2c0,2.17.05,3.79.14,4.87h-1.89c.1-1.08.14-2.7.14-4.87v-1.68c0-.87-.14-1.51-.43-1.92-.28-.4-.73-.61-1.34-.61-.72,0-1.37.3-1.94.9-.57.6-.85,1.3-.85,2.1v1.2c0,2.17.05,3.79.14,4.87h-1.89Z"/>
      <path class="cls-2" d="M278.29,206.74l-.56-5.56-3.25,6.5c-.43.88-.92,2-1.48,3.36h-.52c-.15-.46-.71-1.69-1.68-3.67l-3.11-6.19-.58,5.56c-.21,1.97-.29,3.4-.24,4.31h-1.49c.24-1.09.55-3.47.94-7.16.36-3.44.54-5.84.54-7.21h.52c.03.07.65,1.31,1.86,3.72l3.87,7.72,3.67-7.43c.77-1.52,1.39-2.86,1.89-4.01h.52c0,1.44.18,3.84.53,7.21.38,3.57.7,5.95.96,7.16h-2.14c.05-.81-.03-2.25-.26-4.31Z"/>
      <path class="cls-2" d="M284.31,201.98c1.12-.65,2.32-.97,3.6-.97,1.03,0,1.83.27,2.39.82.56.55.85,1.32.85,2.33v2.02c0,2.18.05,3.8.14,4.87h-1.74v-1.68c-.24.55-.67,1.02-1.29,1.4-.62.38-1.27.57-1.94.57-.83,0-1.5-.23-2.01-.68-.51-.45-.76-1.06-.76-1.82,0-.85.27-1.56.82-2.12.55-.56,1.44-1.05,2.69-1.49l2.49-.88v-.2c0-.85-.16-1.48-.49-1.88-.33-.4-.85-.59-1.56-.59-.59,0-1.17.14-1.74.44-.57.29-1.02.67-1.35,1.13h-.1v-1.27ZM289.55,205.05l-2.27.8c-.62.22-1.1.55-1.43.98-.33.44-.5.96-.5,1.56,0,.56.15,1.01.46,1.35.3.34.71.51,1.2.51.72,0,1.32-.3,1.8-.9.49-.6.73-1.34.73-2.22v-2.08Z"/>
      <path class="cls-2" d="M298.9,203.08c-.35-.94-1.1-1.4-2.26-1.4-.54,0-.97.13-1.29.39-.32.26-.48.61-.48,1.05,0,.74.48,1.3,1.44,1.68l1.95.8c.64.27,1.14.64,1.49,1.12.35.48.53,1.02.53,1.63,0,.9-.33,1.62-1,2.17-.66.54-1.57.81-2.71.81-.51,0-1.04-.06-1.57-.19-.54-.13-.97-.29-1.31-.49v-1.74h.11c.31.53.73.96,1.28,1.27.55.32,1.12.47,1.72.47.65,0,1.16-.15,1.54-.45s.56-.7.56-1.21c0-.41-.11-.75-.34-1.04-.23-.28-.59-.52-1.09-.73l-1.82-.75c-1.43-.6-2.14-1.53-2.14-2.8,0-.75.31-1.39.93-1.91.62-.52,1.39-.78,2.31-.78,1.1,0,2.07.23,2.9.7l-.55,1.38h-.21Z"/>
      <path class="cls-2" d="M304.27,196.97c-.1,1.07-.14,2.52-.14,4.33.86,0,1.56-.02,2.1-.06v1.07c-.54-.04-1.24-.06-2.1-.06v7.05c0,.41.08.74.25.99.17.25.38.38.65.38.42,0,.78-.13,1.1-.38h.1v.76c-.43.2-.92.3-1.46.3-.77,0-1.33-.2-1.7-.6-.37-.4-.55-1.02-.55-1.86v-6.63c-.56,0-1.04.02-1.45.06v-1.07c.4.04.88.06,1.45.06,0-1.28-.05-2.36-.14-3.24l1.89-1.09Z"/>
      <path class="cls-2" d="M309.22,206.23c0,1.44.28,2.53.83,3.29.55.76,1.34,1.14,2.37,1.14.55,0,1.12-.12,1.69-.38.57-.25,1.04-.58,1.39-.99v1.18c-.38.25-.88.45-1.53.62s-1.27.25-1.88.25c-1.48,0-2.63-.45-3.46-1.34-.82-.89-1.23-2.15-1.23-3.79s.41-2.83,1.22-3.78c.81-.95,1.88-1.43,3.21-1.43s2.4.46,3.15,1.37c.74.91,1.12,2.2,1.12,3.86h-6.89ZM314.29,205.56c-.05-2.58-.87-3.88-2.44-3.88-.81,0-1.44.33-1.89,1-.45.67-.69,1.63-.72,2.88h5.04Z"/>
      <path class="cls-2" d="M318.51,211.04c.1-1.08.14-2.7.14-4.87s-.05-3.8-.14-4.87h1.74v1.98c.94-1.52,1.87-2.28,2.79-2.28.38,0,.69.06.92.17v1.8h-.1c-.27-.28-.65-.42-1.15-.42-.53,0-1.06.26-1.59.77-.58.56-.87,1.21-.87,1.94v.9c0,2.17.05,3.79.14,4.87h-1.89Z"/>
    </g>
  </g>
  <circle class="cls-4" cx="159.24" cy="192.3" r="90"/>
  <g>
    <path class="cls-2" d="M102.72,178.23c.41-.01.82-.02,1.23-.03.66-.02,1.22-.03,1.66-.03,2.27,0,4.08.63,5.42,1.9,1.35,1.27,2.02,2.96,2.02,5.09s-.67,3.99-2,5.27c-1.34,1.29-3.15,1.93-5.44,1.93-.39,0-.9-.01-1.54-.03-.45-.01-.9-.02-1.35-.03-1.08,0-1.98.02-2.69.06.14-1.12.21-3.49.21-7.1s-.07-5.97-.21-7.1c.71.04,1.61.06,2.69.06ZM101.97,191.02c.16.05.53.11,1.11.16.58.05,1,.08,1.27.08,2.34,0,4.03-.48,5.08-1.44s1.57-2.51,1.57-4.66c0-1.98-.55-3.46-1.65-4.43-1.1-.97-2.77-1.46-5.01-1.46-1.03,0-1.83.08-2.38.24v11.51Z"/>
    <path class="cls-2" d="M117.06,187.49c0,1.44.28,2.53.83,3.29s1.34,1.14,2.37,1.14c.55,0,1.12-.12,1.69-.38.57-.25,1.04-.58,1.39-.99v1.18c-.38.25-.89.45-1.53.62s-1.27.25-1.88.25c-1.48,0-2.64-.45-3.46-1.34-.82-.89-1.23-2.15-1.23-3.79s.41-2.83,1.22-3.78,1.88-1.43,3.21-1.43,2.4.46,3.15,1.37c.75.91,1.12,2.2,1.12,3.86h-6.89ZM122.12,186.81c-.05-2.58-.87-3.88-2.44-3.88-.81,0-1.44.33-1.89,1-.45.67-.69,1.63-.72,2.88h5.04Z"/>
    <path class="cls-2" d="M129.68,192.3c-.17-.62-.84-2.26-2-4.91-1.11-2.52-1.86-4.13-2.25-4.83h2.08c.21.74.65,1.89,1.32,3.45l1.6,3.71,1.6-3.71c.67-1.56,1.11-2.71,1.32-3.45h1.32c-.45.81-1.19,2.41-2.2,4.81-1.04,2.45-1.69,4.1-1.96,4.93h-.84Z"/>
    <path class="cls-2" d="M138.06,187.49c0,1.44.28,2.53.83,3.29s1.34,1.14,2.37,1.14c.55,0,1.12-.12,1.69-.38.57-.25,1.04-.58,1.39-.99v1.18c-.38.25-.89.45-1.53.62s-1.27.25-1.88.25c-1.48,0-2.64-.45-3.46-1.34-.82-.89-1.23-2.15-1.23-3.79s.41-2.83,1.22-3.78,1.88-1.43,3.21-1.43,2.4.46,3.15,1.37c.75.91,1.12,2.2,1.12,3.86h-6.89ZM143.12,186.81c-.05-2.58-.87-3.88-2.44-3.88-.81,0-1.44.33-1.89,1-.45.67-.69,1.63-.72,2.88h5.04Z"/>
    <path class="cls-2" d="M147.79,192.3c.1-1.08.14-3.63.14-7.66s-.05-6.6-.14-7.67h1.89c-.1,1.07-.14,3.63-.14,7.67s.05,6.58.14,7.66h-1.89Z"/>
    <path class="cls-2" d="M157.48,182.26c1.44,0,2.59.47,3.47,1.42.88.94,1.32,2.19,1.32,3.75s-.44,2.81-1.32,3.75c-.88.94-2.04,1.41-3.47,1.41s-2.6-.47-3.48-1.41c-.88-.94-1.31-2.19-1.31-3.76s.44-2.82,1.31-3.76c.88-.94,2.03-1.41,3.48-1.41ZM157.48,182.94c-.95,0-1.69.39-2.2,1.18s-.78,1.89-.78,3.31.26,2.53.78,3.31,1.25,1.18,2.2,1.18,1.69-.39,2.2-1.18.78-1.89.78-3.31-.26-2.53-.78-3.31-1.25-1.18-2.2-1.18Z"/>
    <path class="cls-2" d="M166.81,190.81c0,2.78.05,4.71.14,5.79h-1.89c.1-1.08.14-3.42.14-7.03s-.05-5.94-.14-7.01h1.74v1.49c.66-1.19,1.65-1.79,2.98-1.79s2.3.46,3.04,1.38c.74.92,1.11,2.18,1.11,3.79s-.37,2.88-1.11,3.79c-.74.92-1.76,1.37-3.04,1.37s-2.33-.59-2.98-1.78ZM166.81,187.43c0,1.39.23,2.48.7,3.25s1.12,1.16,1.96,1.16,1.54-.37,1.99-1.12.68-1.84.68-3.29-.23-2.55-.68-3.29-1.11-1.12-1.99-1.12-1.5.39-1.96,1.16-.7,1.86-.7,3.25Z"/>
    <path class="cls-2" d="M176.79,192.3c.1-1.08.14-2.7.14-4.87s-.05-3.8-.14-4.87h1.74v1.63c.4-.62.88-1.1,1.44-1.43.56-.33,1.15-.5,1.79-.5,1.46,0,2.38.69,2.76,2.08.9-1.39,2.04-2.08,3.42-2.08,1.93,0,2.9,1.16,2.9,3.49v1.68c0,2.17.05,3.79.14,4.87h-1.89c.1-1.08.14-2.7.14-4.87v-1.68c0-.87-.14-1.51-.43-1.92-.28-.4-.73-.6-1.34-.6-.73,0-1.38.3-1.95.9s-.85,1.3-.85,2.1v1.2c0,2.17.05,3.79.14,4.87h-1.89c.1-1.08.14-2.7.14-4.87v-1.68c0-.87-.14-1.51-.43-1.92s-.73-.6-1.34-.6c-.72,0-1.37.3-1.94.9s-.85,1.3-.85,2.1v1.2c0,2.17.05,3.79.14,4.87h-1.89Z"/>
    <path class="cls-2" d="M195.25,187.49c0,1.44.28,2.53.83,3.29s1.34,1.14,2.37,1.14c.55,0,1.12-.12,1.69-.38.57-.25,1.04-.58,1.39-.99v1.18c-.38.25-.89.45-1.53.62s-1.27.25-1.88.25c-1.48,0-2.64-.45-3.46-1.34-.82-.89-1.23-2.15-1.23-3.79s.41-2.83,1.22-3.78,1.88-1.43,3.21-1.43,2.4.46,3.15,1.37c.75.91,1.12,2.2,1.12,3.86h-6.89ZM200.31,186.81c-.05-2.58-.87-3.88-2.44-3.88-.81,0-1.44.33-1.89,1-.45.67-.69,1.63-.72,2.88h5.04Z"/>
    <path class="cls-2" d="M204.78,192.3c.1-1.08.14-2.7.14-4.87s-.05-3.8-.14-4.87h1.74v1.45c.88-1.16,2-1.74,3.36-1.74,1,0,1.78.31,2.33.92.55.61.82,1.47.82,2.57v1.68c0,2.17.05,3.79.14,4.87h-1.89c.1-1.08.14-2.7.14-4.87v-1.68c0-1.68-.66-2.52-1.99-2.52-.75,0-1.42.3-2.02.91s-.9,1.31-.9,2.09v1.2c0,2.17.05,3.79.14,4.87h-1.89Z"/>
    <path class="cls-2" d="M218.31,178.23c-.1,1.07-.14,2.52-.14,4.33.86,0,1.56-.02,2.1-.06v1.07c-.54-.04-1.24-.06-2.1-.06v7.05c0,.41.08.74.25.99.17.25.38.38.65.38.42,0,.78-.13,1.1-.38h.1v.76c-.43.2-.92.3-1.46.3-.77,0-1.33-.2-1.7-.6-.37-.4-.55-1.02-.55-1.86v-6.63c-.56,0-1.04.02-1.45.06v-1.07c.4.04.89.06,1.45.06,0-1.28-.05-2.36-.14-3.24l1.89-1.09Z"/>
    <path class="cls-2" d="M141.05,204.48v5.99c0,3.57.07,5.91.21,7.03h-2.13c.14-1.12.21-3.47.21-7.03v-5.99c-1.97,0-3.4.07-4.29.21v-1.37c1.07.08,2.78.12,5.15.12s4.08-.04,5.15-.12v1.37c-.89-.14-2.32-.21-4.29-.21Z"/>
    <path class="cls-2" d="M148.78,212.69c0,1.44.28,2.53.83,3.29s1.34,1.14,2.37,1.14c.55,0,1.12-.12,1.69-.38.57-.25,1.04-.58,1.39-.99v1.18c-.38.25-.89.45-1.53.62s-1.27.25-1.88.25c-1.48,0-2.64-.45-3.46-1.34-.82-.89-1.23-2.15-1.23-3.79s.41-2.83,1.22-3.78,1.88-1.43,3.21-1.43,2.4.46,3.15,1.37c.75.91,1.12,2.2,1.12,3.86h-6.89ZM153.85,212.01c-.05-2.58-.87-3.88-2.44-3.88-.81,0-1.44.33-1.89,1-.45.67-.69,1.63-.72,2.88h5.04Z"/>
    <path class="cls-2" d="M158.47,208.44c1.12-.65,2.32-.97,3.6-.97,1.03,0,1.83.27,2.39.82.56.55.85,1.32.85,2.33v2.02c0,2.18.05,3.8.14,4.87h-1.74v-1.68c-.24.55-.67,1.02-1.29,1.4-.62.38-1.27.57-1.94.57-.83,0-1.5-.23-2.01-.68-.51-.45-.76-1.06-.76-1.82,0-.85.27-1.56.82-2.12.55-.56,1.44-1.05,2.69-1.49l2.49-.88v-.2c0-.85-.16-1.48-.49-1.88-.33-.4-.85-.59-1.56-.59-.59,0-1.17.14-1.74.44-.57.29-1.02.67-1.35,1.13h-.1v-1.27ZM163.71,211.51l-2.27.8c-.62.22-1.1.55-1.43.98-.33.44-.5.96-.5,1.56,0,.56.15,1.01.46,1.35.3.34.71.51,1.2.51.72,0,1.32-.3,1.8-.9.49-.6.73-1.34.73-2.22v-2.08Z"/>
    <path class="cls-2" d="M168.42,217.5c.1-1.08.14-2.7.14-4.87s-.05-3.8-.14-4.87h1.74v1.63c.4-.62.88-1.1,1.44-1.43.56-.33,1.15-.5,1.79-.5,1.46,0,2.38.69,2.76,2.08.9-1.39,2.04-2.08,3.42-2.08,1.93,0,2.9,1.16,2.9,3.49v1.68c0,2.17.05,3.79.14,4.87h-1.89c.1-1.08.14-2.7.14-4.87v-1.68c0-.87-.14-1.51-.43-1.92-.28-.4-.73-.6-1.34-.6-.73,0-1.38.3-1.95.9s-.85,1.3-.85,2.1v1.2c0,2.17.05,3.79.14,4.87h-1.89c.1-1.08.14-2.7.14-4.87v-1.68c0-.87-.14-1.51-.43-1.92s-.73-.6-1.34-.6c-.72,0-1.37.3-1.94.9s-.85,1.3-.85,2.1v1.2c0,2.17.05,3.79.14,4.87h-1.89Z"/>
  </g>
</svg>