<?xml version="1.0" encoding="UTF-8"?>
<svg xmlns="http://www.w3.org/2000/svg" version="1.1" viewBox="0 0 453 282.3">
  <defs>
    <style>
      .cls-1 {
        stroke: #b6ccbd;
      }

      .cls-1, .cls-2, .cls-3, .cls-4, .cls-5, .cls-6, .cls-7, .cls-8, .cls-9 {
        stroke-miterlimit: 10;
        stroke-width: .25px;
      }

      .cls-1, .cls-3 {
        fill: #ddeedf;
      }

      .cls-10 {
        fill: #58595b;
      }

      .cls-10, .cls-11, .cls-12 {
        stroke-width: 0px;
      }

      .cls-11 {
        fill: #231f20;
      }

      .cls-2 {
        fill: #b6ccbd;
      }

      .cls-2, .cls-3, .cls-4, .cls-6, .cls-7, .cls-9 {
        stroke: #414042;
      }

      .cls-4, .cls-8 {
        fill: #f0f9fe;
      }

      .cls-12 {
        fill: #fff;
      }

      .cls-5 {
        stroke: #f7a6a8;
      }

      .cls-5, .cls-9 {
        fill: #fcd6d6;
      }

      .cls-6 {
        fill: #f7a6a8;
      }

      .cls-7 {
        fill: #aedced;
      }

      .cls-8 {
        stroke: #aedced;
      }
    </style>
  </defs>
  <g id="Shapes">
    <circle id="top_large" data-name="top large" class="cls-8" cx="226.5" cy="90" r="60"/>
    <circle id="left_large" data-name="left large" class="cls-5" cx="168" cy="191.3" r="60"/>
    <circle id="right_large" data-name="right large" class="cls-1" cx="285" cy="191.8" r="60"/>
    <g id="triangle">
      <g>
        <polygon class="cls-12" points="226.5 90 168 191.3 285 191.3 226.5 90"/>
        <path class="cls-10" d="M226.5,90.05c-14.35,25.38-43.41,76.32-57.88,101.61,0,0-.62-1.07-.62-1.07,29.16-.19,87.84-.17,117,0,0,0-.61,1.06-.61,1.06-14.5-25.27-43.52-76.25-57.89-101.6h0ZM226.5,89.95c-.07.13,59,101.57,58.5,101.43,0,0-117,0-117,0-.52.14,58.58-101.31,58.5-101.43h0Z"/>
      </g>
    </g>
    <path id="top_small" data-name="top small" class="cls-7" d="M226.5,115c-13.79,0-25-11.21-25-25s11.21-25,25-25,25,11.21,25,25-11.21,25-25,25Z"/>
    <path id="left_small" data-name="left small" class="cls-6" d="M168,216.3c-13.79,0-25-11.21-25-25s11.21-25,25-25,25,11.21,25,25-11.21,25-25,25Z"/>
    <path id="right_small" data-name="right small" class="cls-2" d="M285,216.8c-13.79,0-25-11.21-25-25s11.21-25,25-25,25,11.21,25,25-11.21,25-25,25Z"/>
    <rect class="cls-9" x="68.3" y="145.28" width="60" height="20" rx="2" ry="2"/>
    <g>
      <path class="cls-11" d="M91.12,150.59c-.2-.35-.43-.52-.7-.52-.15,0-.26.03-.35.1-.09.06-.13.15-.13.25,0,.15.1.28.3.38l.54.26c.28.13.48.29.6.47.13.18.19.4.19.66,0,.32-.11.57-.33.76-.22.19-.53.28-.93.28-.18,0-.35-.02-.54-.06-.18-.04-.33-.1-.44-.16v-.7h.07c.11.2.25.35.41.47.16.11.33.17.5.17s.31-.04.42-.12c.1-.08.16-.18.16-.3,0-.21-.1-.37-.29-.46l-.62-.29c-.44-.21-.66-.55-.66-1,0-.29.1-.53.3-.71.2-.18.46-.27.78-.27.42,0,.77.09,1.04.27l-.25.55h-.07Z"/>
      <path class="cls-11" d="M94.62,150.69c-.08-.2-.19-.35-.33-.46-.14-.11-.29-.16-.45-.16-.57,0-.86.5-.86,1.49,0,.46.08.81.24,1.03.16.22.4.34.74.34.35,0,.66-.16.94-.49v.51c-.12.08-.28.15-.47.2-.2.05-.4.07-.62.07-.54,0-.98-.15-1.3-.46-.32-.3-.49-.71-.49-1.21,0-.55.17-.98.5-1.3.33-.32.78-.48,1.35-.48.16,0,.35.03.57.1.22.07.4.14.54.22l-.28.59h-.07Z"/>
      <path class="cls-11" d="M95.67,151.5c0-.72-.02-1.27-.05-1.62h.9v.62c.1-.2.24-.37.42-.51.18-.14.35-.21.52-.21.09,0,.18.01.26.03v.81h-.03c-.12-.08-.28-.13-.49-.13-.45,0-.67.22-.67.67v.33c0,.72.02,1.26.05,1.62h-.95c.03-.36.05-.9.05-1.62Z"/>
      <path class="cls-11" d="M101.33,151.5c0,.72.02,1.26.05,1.62h-.9v-.41c-.29.34-.63.51-1.02.51-.36,0-.63-.1-.82-.3-.19-.2-.29-.49-.29-.86v-.56c0-.72-.02-1.27-.05-1.62h.95c-.03.36-.05.9-.05,1.62v.56c0,.24.04.42.12.52.08.11.22.16.41.16.24,0,.42-.07.55-.22.13-.15.19-.35.19-.62v-.4c0-.72-.02-1.27-.05-1.62h.95c-.03.36-.05.9-.05,1.62Z"/>
      <path class="cls-11" d="M102.28,151.5c0-.72-.02-1.27-.05-1.62h.9v.41c.29-.34.62-.51.98-.51.51,0,.83.2.96.61.31-.41.67-.61,1.07-.61.7,0,1.05.39,1.05,1.16v.56c0,.72.02,1.26.05,1.62h-.95c.03-.36.05-.9.05-1.62v-.56c0-.25-.04-.43-.11-.53-.07-.1-.2-.15-.38-.15-.21,0-.38.08-.5.23-.12.15-.19.36-.19.62v.4c0,.72.02,1.26.05,1.62h-.95c.03-.36.05-.9.05-1.62v-.56c0-.25-.04-.43-.11-.53-.07-.1-.2-.15-.38-.15-.21,0-.38.08-.5.23-.12.15-.19.36-.19.62v.4c0,.72.02,1.26.05,1.62h-.95c.03-.36.05-.9.05-1.62Z"/>
      <path class="cls-11" d="M88.47,159.9c0-.72-.02-1.27-.05-1.62h.9v.41c.29-.34.62-.51.98-.51.51,0,.83.2.96.61.31-.41.67-.61,1.07-.61.7,0,1.05.39,1.05,1.16v.56c0,.72.02,1.26.05,1.62h-.95c.03-.36.05-.9.05-1.62v-.56c0-.25-.04-.43-.11-.53-.07-.1-.2-.15-.38-.15-.21,0-.38.08-.5.23-.12.15-.19.36-.19.62v.4c0,.72.02,1.26.05,1.62h-.95c.03-.36.05-.9.05-1.62v-.56c0-.25-.04-.43-.11-.53-.07-.1-.2-.15-.38-.15-.21,0-.38.08-.5.23-.12.15-.19.36-.19.62v.4c0,.72.02,1.26.05,1.62h-.95c.03-.36.05-.9.05-1.62Z"/>
      <path class="cls-11" d="M94.4,158.42c.35-.16.73-.25,1.12-.25.92,0,1.38.35,1.38,1.05v.67c0,.72.02,1.26.05,1.62h-.9v-.43c-.24.35-.56.53-.97.53-.27,0-.5-.08-.67-.24-.17-.16-.26-.36-.26-.62,0-.26.1-.49.29-.68s.5-.37.94-.54l.67-.26v-.21c0-.41-.18-.61-.54-.61s-.72.17-1.07.51h-.03v-.55ZM96.04,159.62l-.61.24c-.15.06-.26.13-.32.22-.06.09-.09.22-.09.39,0,.18.04.34.12.47s.17.19.27.19c.15,0,.3-.07.43-.22.13-.15.2-.31.2-.49v-.81Z"/>
      <path class="cls-11" d="M99.48,158.99c-.2-.35-.43-.52-.7-.52-.15,0-.26.03-.35.1-.09.06-.13.15-.13.25,0,.16.1.28.3.38l.54.26c.28.13.48.29.6.47s.19.4.19.66c0,.32-.11.57-.33.76s-.53.28-.93.28c-.18,0-.35-.02-.54-.06-.18-.04-.33-.1-.44-.16v-.7h.07c.11.2.25.35.41.47.16.11.33.17.5.17s.31-.04.42-.12c.1-.08.16-.18.16-.3,0-.21-.1-.37-.29-.46l-.62-.29c-.44-.21-.66-.55-.66-.99,0-.29.1-.53.3-.71.2-.18.46-.27.78-.27.42,0,.77.09,1.04.27l-.25.55h-.07Z"/>
      <path class="cls-11" d="M101.58,156.83c-.03.36-.05.84-.05,1.44.36,0,.59,0,.69-.02v.36c-.1-.01-.34-.02-.69-.02v2.41c0,.21.09.32.27.32.07,0,.15-.02.22-.07.07-.04.13-.11.18-.18h.03v.45c-.17.07-.36.1-.58.1-.32,0-.56-.08-.72-.25s-.25-.4-.25-.71v-2.06c-.23,0-.39,0-.5.02v-.36c.1.01.27.02.5.02,0-.41-.02-.77-.05-1.08l.95-.36Z"/>
      <path class="cls-11" d="M103.67,159.91c0,.49.06.85.19,1.08s.34.34.63.34c.34,0,.65-.16.93-.48v.49c-.27.19-.65.29-1.13.29-.44,0-.81-.14-1.1-.42-.33-.31-.49-.74-.49-1.29s.14-.94.41-1.26c.27-.32.63-.48,1.07-.48s.8.15,1.05.45c.25.3.37.73.37,1.28h-1.93ZM103.67,159.59h.96c0-.39-.04-.68-.11-.85s-.19-.27-.36-.27c-.15,0-.28.1-.36.3-.09.2-.13.47-.13.83Z"/>
      <path class="cls-11" d="M106.36,159.9c0-.72-.02-1.27-.05-1.62h.9v.62c.1-.2.24-.37.42-.51.18-.14.35-.21.52-.21.09,0,.18.01.26.03v.81h-.03c-.12-.08-.28-.13-.49-.13-.45,0-.67.22-.67.67v.33c0,.72.02,1.26.05,1.62h-.95c.03-.36.05-.9.05-1.62Z"/>
    </g>
    <rect class="cls-9" x="58.77" y="201.13" width="60" height="20" rx="2" ry="2"/>
    <g>
      <path class="cls-11" d="M78.04,208.79c0,.72.02,1.26.05,1.62h-.95c.03-.36.05-.9.05-1.62v-1.44c0-.72-.02-1.27-.05-1.62h.9v.31c.12-.15.25-.25.38-.32.13-.06.29-.1.48-.1.43,0,.77.15,1.02.46.25.31.38.73.38,1.26s-.13.96-.38,1.26c-.25.31-.59.46-1.02.46-.18,0-.34-.03-.48-.1-.13-.07-.26-.17-.38-.32v.13ZM78.04,207.36c0,.43.06.77.17,1s.27.35.47.35c.23,0,.4-.11.5-.32.1-.21.15-.55.15-1.03s-.05-.82-.15-1.03-.27-.32-.5-.32c-.2,0-.36.12-.47.35s-.17.57-.17,1Z"/>
      <path class="cls-11" d="M81.08,207.36c0-.72-.02-1.27-.05-1.62h.9v.62c.1-.2.24-.37.42-.51.18-.14.35-.21.52-.21.09,0,.18.01.26.03v.81h-.03c-.12-.08-.28-.13-.49-.13-.45,0-.67.22-.67.67v.33c0,.72.02,1.26.05,1.62h-.95c.03-.36.05-.9.05-1.62Z"/>
      <path class="cls-11" d="M85.28,205.63c.48,0,.88.16,1.18.47.3.32.45.73.45,1.25s-.15.93-.45,1.25c-.3.32-.69.47-1.18.47s-.88-.16-1.18-.47-.45-.73-.45-1.25.15-.94.45-1.25.69-.47,1.18-.47ZM85.28,205.93c-.24,0-.42.11-.52.33-.1.22-.15.59-.15,1.1s.05.88.15,1.1c.1.22.27.33.52.33s.41-.11.51-.33c.1-.22.15-.59.15-1.09s-.05-.87-.15-1.1c-.1-.22-.27-.33-.51-.33Z"/>
      <path class="cls-11" d="M90.69,203.87c-.03.36-.05.9-.05,1.62v1.86c0,.72.02,1.26.05,1.62h-.9v-.31c-.12.15-.25.25-.38.32-.13.06-.29.1-.48.1-.43,0-.77-.15-1.02-.46-.25-.31-.38-.73-.38-1.26s.13-.96.38-1.26c.25-.31.59-.46,1.02-.46.18,0,.34.03.48.1.13.07.26.17.38.32v-.55c0-.72-.02-1.27-.05-1.62h.95ZM89.78,207.36c0-.44-.06-.77-.17-1s-.27-.35-.47-.35c-.23,0-.4.11-.5.32s-.15.56-.15,1.03.05.82.15,1.03c.1.21.27.32.5.32.2,0,.36-.12.47-.35s.17-.57.17-1Z"/>
      <path class="cls-11" d="M94.53,207.36c0,.72.02,1.26.05,1.62h-.9v-.41c-.29.34-.63.51-1.02.51-.36,0-.63-.1-.82-.3-.19-.2-.29-.49-.29-.86v-.56c0-.72-.02-1.27-.05-1.62h.95c-.03.36-.05.9-.05,1.62v.56c0,.24.04.42.12.52.08.11.22.16.41.16.24,0,.42-.07.55-.22.13-.15.19-.35.19-.62v-.4c0-.72-.02-1.27-.05-1.62h.95c-.03.36-.05.9-.05,1.62Z"/>
      <path class="cls-11" d="M97.93,206.54c-.08-.2-.19-.35-.33-.46-.14-.11-.29-.16-.45-.16-.57,0-.86.5-.86,1.49,0,.46.08.81.24,1.03.16.22.4.34.74.34.35,0,.66-.16.94-.49v.51c-.12.08-.28.15-.47.2-.2.05-.4.07-.62.07-.54,0-.98-.15-1.3-.46-.32-.3-.49-.71-.49-1.21,0-.55.17-.98.5-1.3.33-.32.78-.48,1.35-.48.16,0,.35.03.57.1.22.07.4.14.54.22l-.28.59h-.07Z"/>
      <path class="cls-11" d="M100.04,204.29c-.03.36-.05.84-.05,1.44.36,0,.59,0,.69-.02v.36c-.1-.01-.34-.02-.69-.02v2.41c0,.21.09.32.27.32.07,0,.15-.02.22-.07.07-.05.13-.11.18-.18h.03v.45c-.17.07-.36.1-.58.1-.32,0-.56-.08-.72-.25s-.25-.4-.25-.71v-2.06c-.23,0-.39,0-.5.02v-.36c.1.01.27.02.5.02,0-.41-.02-.77-.05-1.08l.95-.36Z"/>
      <path class="cls-11" d="M80.99,214.03c.48,0,.88.16,1.18.47.3.32.45.73.45,1.25s-.15.93-.45,1.25c-.3.32-.69.47-1.18.47s-.88-.16-1.18-.47-.45-.73-.45-1.25.15-.94.45-1.25.69-.47,1.18-.47ZM80.99,214.33c-.24,0-.42.11-.52.33-.1.22-.15.59-.15,1.1s.05.88.15,1.1c.1.22.27.33.52.33s.41-.11.51-.33c.1-.22.15-.59.15-1.1s-.05-.87-.15-1.09c-.1-.22-.27-.33-.51-.33Z"/>
      <path class="cls-11" d="M84.26,217.38c-.09-.3-.28-.84-.57-1.64-.27-.74-.48-1.27-.64-1.61h1c.17.53.44,1.31.8,2.33.49-1.29.76-2.07.82-2.33h.59c.08.26.35,1.03.8,2.33.38-.96.66-1.74.82-2.33h.4c-.1.2-.3.74-.63,1.61-.27.75-.46,1.29-.55,1.64h-.63c-.03-.11-.07-.24-.12-.4-.06-.16-.28-.78-.67-1.86-.4,1.06-.66,1.81-.79,2.26h-.63Z"/>
      <path class="cls-11" d="M88.86,215.76c0-.72-.02-1.27-.05-1.62h.9v.41c.29-.34.63-.51,1.02-.51.36,0,.63.1.82.3.19.2.29.49.29.86v.56c0,.72.02,1.26.05,1.62h-.95c.03-.36.05-.9.05-1.62v-.56c0-.24-.04-.42-.12-.52-.08-.11-.22-.16-.41-.16-.24,0-.42.07-.55.22-.13.15-.19.35-.19.62v.4c0,.72.02,1.26.05,1.62h-.95c.03-.36.05-.9.05-1.62Z"/>
      <path class="cls-11" d="M93.56,215.77c0,.49.06.85.19,1.08s.34.34.63.34c.34,0,.65-.16.93-.48v.49c-.27.19-.65.29-1.13.29-.44,0-.81-.14-1.1-.42-.33-.31-.49-.74-.49-1.29s.14-.94.41-1.26c.27-.32.63-.48,1.07-.48s.8.15,1.05.45c.25.3.37.73.37,1.28h-1.93ZM93.56,215.45h.96c0-.39-.04-.68-.11-.85s-.19-.27-.36-.27c-.15,0-.28.1-.36.3-.09.2-.13.47-.13.83Z"/>
      <path class="cls-11" d="M96.25,215.76c0-.72-.02-1.27-.05-1.62h.9v.62c.1-.2.24-.37.42-.51.18-.14.35-.21.52-.21.09,0,.18.01.26.03v.81h-.03c-.12-.08-.28-.13-.49-.13-.45,0-.67.22-.67.67v.33c0,.72.02,1.26.05,1.62h-.95c.03-.36.05-.9.05-1.62Z"/>
    </g>
    <rect class="cls-9" x="110.07" y="245.2" width="60" height="20" rx="2" ry="2"/>
    <g>
      <path class="cls-11" d="M127,252.14c-.03.36-.05.9-.05,1.62v1.86c0,.72.02,1.26.05,1.62h-.9v-.31c-.12.15-.25.25-.38.32-.13.06-.29.1-.48.1-.43,0-.77-.15-1.02-.46-.25-.31-.38-.73-.38-1.26s.13-.96.38-1.26c.25-.31.59-.46,1.02-.46.18,0,.34.03.48.1.13.07.26.17.38.32v-.55c0-.72-.02-1.27-.05-1.62h.95ZM126.1,255.62c0-.44-.06-.77-.17-1s-.27-.35-.47-.35c-.23,0-.4.11-.5.32s-.15.56-.15,1.03.05.82.15,1.03c.1.21.27.32.5.32.2,0,.36-.12.47-.35s.17-.57.17-1Z"/>
      <path class="cls-11" d="M128.71,255.64c0,.49.06.85.19,1.08s.34.34.63.34c.34,0,.65-.16.93-.48v.49c-.27.19-.65.29-1.13.29-.44,0-.81-.14-1.1-.42-.33-.31-.49-.74-.49-1.29s.14-.94.41-1.26c.27-.32.63-.47,1.07-.47s.8.15,1.05.45c.25.3.37.73.37,1.28h-1.93ZM128.71,255.32h.96c0-.39-.04-.68-.11-.85s-.19-.27-.36-.27c-.15,0-.28.1-.36.29-.09.2-.13.47-.13.83Z"/>
      <path class="cls-11" d="M132.35,257.25c-.07-.23-.28-.78-.63-1.64-.33-.81-.56-1.35-.69-1.61h1.03c.09.33.39,1.13.91,2.41.53-1.31.84-2.11.92-2.41h.43c-.11.22-.34.76-.68,1.61-.3.73-.5,1.28-.6,1.64h-.68Z"/>
      <path class="cls-11" d="M135.71,255.64c0,.49.06.85.19,1.08s.34.34.63.34c.34,0,.65-.16.93-.48v.49c-.27.19-.65.29-1.13.29-.44,0-.81-.14-1.1-.42-.33-.31-.49-.74-.49-1.29s.14-.94.41-1.26c.27-.32.63-.47,1.07-.47s.8.15,1.05.45c.25.3.37.73.37,1.28h-1.93ZM135.71,255.32h.96c0-.39-.04-.68-.11-.85s-.19-.27-.36-.27c-.15,0-.28.1-.36.29-.09.2-.13.47-.13.83Z"/>
      <path class="cls-11" d="M138.42,257.25c.03-.36.05-.9.05-1.62v-1.86c0-.72-.02-1.27-.05-1.62h.95c-.03.36-.05.9-.05,1.62v1.86c0,.72.02,1.26.05,1.62h-.95Z"/>
      <path class="cls-11" d="M141.82,253.9c.48,0,.88.16,1.18.47.3.32.45.73.45,1.25s-.15.93-.45,1.25c-.3.32-.69.47-1.18.47s-.88-.16-1.18-.47-.45-.73-.45-1.25.15-.94.45-1.25.69-.47,1.18-.47ZM141.82,254.2c-.24,0-.42.11-.52.33-.1.22-.15.59-.15,1.1s.05.88.15,1.1c.1.22.27.33.52.33s.41-.11.51-.33c.1-.22.15-.59.15-1.09s-.05-.87-.15-1.1c-.1-.22-.27-.33-.51-.33Z"/>
      <path class="cls-11" d="M145.09,257.06c0,.72.02,1.26.05,1.62h-.95c.03-.36.05-.9.05-1.62v-1.44c0-.72-.02-1.27-.05-1.62h.9v.31c.12-.15.25-.25.38-.32.13-.06.29-.1.48-.1.43,0,.77.15,1.02.46.25.31.38.73.38,1.26s-.13.96-.38,1.26c-.25.31-.59.46-1.02.46-.18,0-.34-.03-.48-.1-.13-.07-.26-.17-.38-.32v.13ZM145.09,255.62c0,.43.06.77.17,1s.27.35.47.35c.23,0,.4-.11.5-.32.1-.21.15-.55.15-1.03s-.05-.82-.15-1.03-.27-.32-.5-.32c-.2,0-.36.12-.47.35s-.17.57-.17,1Z"/>
      <path class="cls-11" d="M148.94,255.64c0,.49.06.85.19,1.08s.34.34.63.34c.34,0,.65-.16.93-.48v.49c-.27.19-.65.29-1.13.29-.44,0-.81-.14-1.1-.42-.33-.31-.49-.74-.49-1.29s.14-.94.41-1.26c.27-.32.63-.47,1.07-.47s.8.15,1.05.45c.25.3.37.73.37,1.28h-1.93ZM148.94,255.32h.96c0-.39-.04-.68-.11-.85s-.19-.27-.36-.27c-.15,0-.28.1-.36.29-.09.2-.13.47-.13.83Z"/>
      <path class="cls-11" d="M151.63,255.62c0-.72-.02-1.27-.05-1.62h.9v.62c.1-.2.24-.37.42-.51.18-.14.35-.21.52-.21.09,0,.18.01.26.03v.81h-.03c-.12-.08-.28-.13-.49-.13-.45,0-.67.22-.67.67v.33c0,.72.02,1.26.05,1.62h-.95c.03-.36.05-.9.05-1.62Z"/>
      <path class="cls-11" d="M156.03,254.71c-.2-.35-.43-.52-.7-.52-.15,0-.26.03-.35.1-.09.06-.13.15-.13.25,0,.15.1.28.3.38l.54.26c.28.13.48.29.6.47.13.18.19.4.19.66,0,.32-.11.57-.33.76-.22.19-.53.28-.93.28-.18,0-.35-.02-.54-.06-.18-.04-.33-.1-.44-.16v-.7h.07c.11.2.25.35.41.47.16.11.33.17.5.17s.31-.04.42-.12c.1-.08.16-.18.16-.3,0-.21-.1-.37-.29-.46l-.62-.29c-.44-.21-.66-.55-.66-1,0-.29.1-.53.3-.71.2-.18.46-.27.78-.27.42,0,.77.09,1.04.27l-.25.55h-.07Z"/>
    </g>
    <rect class="cls-4" x="198" y="20" width="60" height="20" rx="2" ry="2"/>
    <g>
      <path class="cls-11" d="M221.4,29.51c-.2-.35-.43-.52-.7-.52-.15,0-.26.03-.35.1s-.13.15-.13.25c0,.15.1.28.3.38l.54.26c.28.13.48.29.6.47.13.18.19.4.19.66,0,.32-.11.57-.33.76-.22.19-.53.28-.93.28-.18,0-.35-.02-.54-.06-.18-.04-.33-.1-.44-.16v-.7h.07c.11.2.25.35.41.47.16.11.33.17.5.17s.31-.04.42-.12c.1-.08.16-.18.16-.3,0-.21-.1-.37-.29-.46l-.62-.29c-.44-.21-.66-.55-.66-.99,0-.29.1-.53.3-.71.2-.18.46-.27.78-.27.42,0,.77.09,1.04.27l-.25.55h-.07Z"/>
      <path class="cls-11" d="M223.3,31.86c0,.72.02,1.26.05,1.62h-.95c.03-.36.05-.9.05-1.62v-1.44c0-.72-.02-1.27-.05-1.62h.9v.31c.12-.15.25-.25.38-.32.13-.06.29-.1.48-.1.43,0,.77.15,1.02.46.25.31.38.73.38,1.26s-.13.96-.38,1.26c-.25.31-.59.46-1.02.46-.18,0-.34-.03-.48-.1-.13-.07-.26-.17-.38-.32v.13ZM223.3,30.42c0,.44.06.77.17,1s.27.35.47.35c.23,0,.4-.11.5-.32.1-.21.15-.56.15-1.03s-.05-.82-.15-1.03c-.1-.21-.27-.32-.5-.32-.2,0-.36.12-.47.35s-.17.57-.17,1Z"/>
      <path class="cls-11" d="M226.34,30.42c0-.72-.02-1.27-.05-1.62h.9v.62c.1-.2.24-.37.42-.51s.35-.21.52-.21c.09,0,.18.01.26.03v.81h-.03c-.12-.08-.28-.13-.49-.13-.45,0-.67.22-.67.67v.33c0,.72.02,1.26.05,1.62h-.95c.03-.36.05-.9.05-1.62Z"/>
      <path class="cls-11" d="M229.04,27.46c0-.14.05-.27.15-.37.1-.1.22-.15.37-.15s.27.05.37.15c.1.1.15.22.15.37s-.05.27-.15.37c-.1.1-.22.15-.37.15s-.27-.05-.37-.15c-.1-.1-.15-.22-.15-.36ZM229.13,30.42c0-.74-.02-1.28-.05-1.62h.95c-.03.36-.05.9-.05,1.62s.02,1.26.05,1.62h-.95c.03-.34.05-.88.05-1.62Z"/>
      <path class="cls-11" d="M231.01,30.42c0-.72-.02-1.27-.05-1.62h.9v.41c.29-.34.63-.51,1.02-.51.36,0,.63.1.82.3.19.2.29.49.29.86v.56c0,.72.02,1.26.05,1.62h-.95c.03-.36.05-.9.05-1.62v-.56c0-.24-.04-.42-.12-.52s-.22-.16-.41-.16c-.24,0-.42.07-.55.22s-.19.35-.19.62v.4c0,.72.02,1.26.05,1.62h-.95c.03-.36.05-.9.05-1.62Z"/>
      <path class="cls-11" d="M235.96,27.36c-.03.36-.05.84-.05,1.44.36,0,.59,0,.69-.02v.36c-.11-.01-.34-.02-.69-.02v2.41c0,.21.09.32.27.32.07,0,.15-.02.22-.07.07-.05.13-.11.18-.18h.03v.45c-.17.07-.36.1-.58.1-.32,0-.56-.08-.72-.25-.17-.16-.25-.4-.25-.71v-2.06c-.23,0-.39,0-.5.02v-.36c.1.01.27.02.5.02,0-.41-.02-.77-.05-1.08l.95-.36Z"/>
    </g>
    <rect class="cls-4" x="126.48" y="52.92" width="60" height="20" rx="2" ry="2"/>
    <g>
      <path class="cls-11" d="M152.56,55.66c-.03.36-.05.9-.05,1.62v1.86c0,.72.02,1.26.05,1.62h-.9v-.31c-.12.15-.25.25-.38.32-.13.06-.29.1-.48.1-.43,0-.77-.15-1.02-.46-.25-.31-.38-.73-.38-1.26s.13-.96.38-1.26c.25-.31.59-.46,1.02-.46.18,0,.34.03.48.1.13.07.26.17.38.32v-.55c0-.72-.02-1.27-.05-1.62h.95ZM151.66,59.14c0-.44-.06-.77-.17-1s-.27-.35-.47-.35c-.23,0-.4.11-.5.32-.1.21-.15.56-.15,1.03s.05.82.15,1.03c.1.21.27.32.5.32.2,0,.36-.12.47-.35s.17-.57.17-1Z"/>
      <path class="cls-11" d="M153.55,57.67c.35-.16.73-.25,1.12-.25.92,0,1.38.35,1.38,1.05v.67c0,.72.02,1.26.05,1.62h-.9v-.43c-.24.35-.56.53-.97.53-.27,0-.5-.08-.67-.24s-.26-.36-.26-.62c0-.26.1-.49.29-.68.19-.19.5-.37.94-.53l.67-.26v-.21c0-.41-.18-.61-.54-.61s-.72.17-1.07.51h-.03v-.55ZM155.2,58.86l-.61.24c-.15.06-.26.13-.32.22-.06.09-.09.22-.09.39,0,.18.04.34.12.47.08.13.17.19.27.19.15,0,.3-.07.43-.22.13-.15.2-.31.2-.49v-.81Z"/>
      <path class="cls-11" d="M156.94,56.17c0-.14.05-.27.15-.37.1-.1.22-.15.37-.15s.27.05.37.15.15.22.15.37-.05.27-.15.37-.22.15-.37.15-.27-.05-.37-.15-.15-.22-.15-.36ZM157.03,59.14c0-.74-.02-1.28-.05-1.62h.95c-.03.36-.05.9-.05,1.62s.02,1.26.05,1.62h-.95c.03-.34.05-.88.05-1.62Z"/>
      <path class="cls-11" d="M158.93,60.77c.03-.36.05-.9.05-1.62v-1.86c0-.72-.02-1.27-.05-1.62h.95c-.03.36-.05.9-.05,1.62v1.86c0,.72.02,1.26.05,1.62h-.95Z"/>
      <path class="cls-11" d="M161.94,60.77l-.52-1.26c-.35-.85-.64-1.51-.88-1.99h1.04c.11.41.39,1.13.83,2.17.5-1.1.81-1.82.93-2.17h.44c-.07.12-.17.29-.28.53s-.39.83-.82,1.8c-.53,1.17-.86,1.95-.99,2.36h-.5c.24-.4.48-.88.73-1.44Z"/>
      <path class="cls-11" d="M149.3,66.63c-.2-.35-.43-.52-.7-.52-.15,0-.26.03-.35.1s-.13.15-.13.25c0,.15.1.28.3.38l.54.26c.28.13.48.29.6.47.13.18.19.4.19.66,0,.32-.11.57-.33.76-.22.19-.53.28-.93.28-.18,0-.35-.02-.54-.06-.18-.04-.33-.1-.44-.16v-.7h.07c.11.2.25.35.41.47.16.11.33.17.5.17s.31-.04.42-.12c.1-.08.16-.18.16-.3,0-.21-.1-.37-.29-.46l-.62-.29c-.44-.21-.66-.55-.66-.99,0-.29.1-.53.3-.71.2-.18.46-.27.78-.27.42,0,.77.09,1.04.27l-.25.55h-.07Z"/>
      <path class="cls-11" d="M152.8,66.73c-.08-.2-.19-.35-.33-.45s-.29-.16-.45-.16c-.57,0-.86.5-.86,1.49,0,.46.08.81.24,1.03.16.22.4.34.74.34.35,0,.66-.16.94-.49v.51c-.12.08-.28.15-.47.2-.2.05-.4.07-.62.07-.54,0-.98-.15-1.3-.45s-.49-.71-.49-1.21c0-.55.17-.98.5-1.3.33-.32.78-.48,1.35-.48.16,0,.35.03.57.1.22.07.4.14.54.22l-.28.59h-.07Z"/>
      <path class="cls-11" d="M153.85,67.54c0-.72-.02-1.27-.05-1.62h.9v.62c.1-.2.24-.37.42-.51.18-.14.35-.21.52-.21.09,0,.18.01.26.03v.81h-.03c-.12-.08-.28-.13-.49-.13-.45,0-.67.22-.67.67v.33c0,.72.02,1.26.05,1.62h-.95c.03-.36.05-.9.05-1.62Z"/>
      <path class="cls-11" d="M159.51,67.54c0,.72.02,1.26.05,1.62h-.9v-.41c-.29.34-.63.51-1.02.51-.36,0-.63-.1-.82-.3-.19-.2-.29-.49-.29-.86v-.56c0-.72-.02-1.27-.05-1.62h.95c-.03.36-.05.9-.05,1.62v.56c0,.24.04.42.12.52.08.1.22.16.41.16.24,0,.42-.07.55-.22.13-.15.19-.35.19-.62v-.4c0-.72-.02-1.27-.05-1.62h.95c-.03.36-.05.9-.05,1.62Z"/>
      <path class="cls-11" d="M160.46,67.54c0-.72-.02-1.27-.05-1.62h.9v.41c.29-.34.62-.51.98-.51.51,0,.83.2.96.61.31-.41.67-.61,1.07-.61.7,0,1.05.39,1.05,1.16v.56c0,.72.02,1.26.05,1.62h-.95c.03-.36.05-.9.05-1.62v-.56c0-.25-.04-.43-.11-.53-.07-.1-.2-.15-.38-.15-.21,0-.38.08-.5.23-.12.15-.19.36-.19.62v.4c0,.72.02,1.26.05,1.62h-.95c.03-.36.05-.9.05-1.62v-.56c0-.25-.04-.43-.11-.53-.07-.1-.2-.15-.38-.15-.21,0-.38.08-.5.23-.12.15-.19.36-.19.62v.4c0,.72.02,1.26.05,1.62h-.95c.03-.36.05-.9.05-1.62Z"/>
    </g>
    <rect class="cls-4" x="120.24" y="98.68" width="60" height="20" rx="2" ry="2"/>
    <g>
      <path class="cls-11" d="M143.64,104c-.2-.35-.43-.52-.7-.52-.15,0-.26.03-.35.1s-.13.15-.13.25c0,.15.1.28.3.38l.54.26c.28.13.48.29.6.47.13.18.19.4.19.66,0,.32-.11.57-.33.76-.22.19-.53.28-.93.28-.18,0-.35-.02-.54-.06-.18-.04-.33-.1-.44-.16v-.7h.07c.11.2.25.35.41.47.16.11.33.17.5.17s.31-.04.42-.12c.1-.08.16-.18.16-.3,0-.21-.1-.37-.29-.46l-.62-.29c-.44-.21-.66-.55-.66-.99,0-.29.1-.53.3-.71.2-.18.46-.27.78-.27.42,0,.77.09,1.04.27l-.25.55h-.07Z"/>
      <path class="cls-11" d="M145.54,106.34c0,.72.02,1.26.05,1.62h-.95c.03-.36.05-.9.05-1.62v-1.44c0-.72-.02-1.27-.05-1.62h.9v.31c.12-.15.25-.25.38-.32.13-.06.29-.1.48-.1.43,0,.77.15,1.02.46.25.31.38.73.38,1.26s-.13.96-.38,1.26c-.25.31-.59.46-1.02.46-.18,0-.34-.03-.48-.1-.13-.07-.26-.17-.38-.32v.13ZM145.54,104.91c0,.44.06.77.17,1s.27.35.47.35c.23,0,.4-.11.5-.32.1-.21.15-.56.15-1.03s-.05-.82-.15-1.03c-.1-.21-.27-.32-.5-.32-.2,0-.36.12-.47.35s-.17.57-.17,1Z"/>
      <path class="cls-11" d="M148.58,104.91c0-.72-.02-1.27-.05-1.62h.9v.62c.1-.2.24-.37.42-.51.18-.14.35-.21.52-.21.09,0,.18.01.26.03v.81h-.03c-.12-.08-.28-.13-.49-.13-.45,0-.67.22-.67.67v.33c0,.72.02,1.26.05,1.62h-.95c.03-.36.05-.9.05-1.62Z"/>
      <path class="cls-11" d="M151.29,101.94c0-.14.05-.27.15-.37.1-.1.22-.15.37-.15s.27.05.37.15.15.22.15.37-.05.27-.15.37-.22.15-.37.15-.27-.05-.37-.15-.15-.22-.15-.36ZM151.38,104.91c0-.74-.02-1.28-.05-1.62h.95c-.03.36-.05.9-.05,1.62s.02,1.26.05,1.62h-.95c.03-.34.05-.88.05-1.62Z"/>
      <path class="cls-11" d="M153.25,104.91c0-.72-.02-1.27-.05-1.62h.9v.41c.29-.34.63-.51,1.02-.51.36,0,.63.1.82.3.19.2.29.49.29.86v.56c0,.72.02,1.26.05,1.62h-.95c.03-.36.05-.9.05-1.62v-.56c0-.24-.04-.42-.12-.52-.08-.1-.22-.16-.41-.16-.24,0-.42.07-.55.22-.13.15-.19.35-.19.62v.4c0,.72.02,1.26.05,1.62h-.95c.03-.36.05-.9.05-1.62Z"/>
      <path class="cls-11" d="M158.2,101.84c-.03.36-.05.84-.05,1.44.36,0,.59,0,.69-.02v.36c-.1-.01-.34-.02-.69-.02v2.41c0,.21.09.32.27.32.07,0,.15-.02.22-.07.07-.05.13-.11.18-.18h.03v.45c-.17.07-.36.1-.58.1-.32,0-.56-.08-.72-.25s-.25-.4-.25-.71v-2.06c-.23,0-.39,0-.5.02v-.36c.1.01.27.02.5.02,0-.41-.02-.77-.05-1.08l.95-.36Z"/>
      <path class="cls-11" d="M138.34,114.74c0,.72.02,1.26.05,1.62h-.95c.03-.36.05-.9.05-1.62v-1.44c0-.72-.02-1.27-.05-1.62h.9v.31c.12-.15.25-.25.38-.32.13-.06.29-.1.48-.1.43,0,.77.15,1.02.46.25.31.38.73.38,1.26s-.13.96-.38,1.26c-.25.31-.59.46-1.02.46-.18,0-.34-.03-.48-.1-.13-.07-.26-.17-.38-.32v.13ZM138.34,113.31c0,.44.06.77.17,1s.27.35.47.35c.23,0,.4-.11.5-.32.1-.21.15-.56.15-1.03s-.05-.82-.15-1.03c-.1-.21-.27-.32-.5-.32-.2,0-.36.12-.47.35s-.17.57-.17,1Z"/>
      <path class="cls-11" d="M141.41,114.93c.03-.36.05-.9.05-1.62v-1.86c0-.72-.02-1.27-.05-1.62h.95c-.03.36-.05.9-.05,1.62v1.86c0,.72.02,1.26.05,1.62h-.95Z"/>
      <path class="cls-11" d="M143.42,111.83c.35-.16.73-.25,1.12-.25.92,0,1.38.35,1.38,1.05v.67c0,.72.02,1.26.05,1.62h-.9v-.43c-.24.35-.56.53-.97.53-.27,0-.5-.08-.67-.24s-.26-.36-.26-.62c0-.26.1-.49.29-.68.19-.19.5-.37.94-.53l.67-.26v-.21c0-.41-.18-.61-.54-.61s-.72.17-1.07.51h-.03v-.55ZM145.06,113.03l-.61.24c-.15.06-.26.13-.32.22-.06.09-.09.22-.09.39,0,.18.04.34.12.47.08.13.17.19.27.19.15,0,.3-.07.43-.22.13-.15.2-.31.2-.49v-.81Z"/>
      <path class="cls-11" d="M146.83,113.31c0-.72-.02-1.27-.05-1.62h.9v.41c.29-.34.63-.51,1.02-.51.36,0,.63.1.82.3.19.2.29.49.29.86v.56c0,.72.02,1.26.05,1.62h-.95c.03-.36.05-.9.05-1.62v-.56c0-.24-.04-.42-.12-.52-.08-.1-.22-.16-.41-.16-.24,0-.42.07-.55.22-.13.15-.19.35-.19.62v.4c0,.72.02,1.26.05,1.62h-.95c.03-.36.05-.9.05-1.62Z"/>
      <path class="cls-11" d="M150.72,113.31c0-.72-.02-1.27-.05-1.62h.9v.41c.29-.34.63-.51,1.02-.51.36,0,.63.1.82.3.19.2.29.49.29.86v.56c0,.72.02,1.26.05,1.62h-.95c.03-.36.05-.9.05-1.62v-.56c0-.24-.04-.42-.12-.52-.08-.1-.22-.16-.41-.16-.24,0-.42.07-.55.22-.13.15-.19.35-.19.62v.4c0,.72.02,1.26.05,1.62h-.95c.03-.36.05-.9.05-1.62Z"/>
      <path class="cls-11" d="M154.59,110.34c0-.14.05-.27.15-.37.1-.1.22-.15.37-.15s.27.05.37.15.15.22.15.37-.05.27-.15.37-.22.15-.37.15-.27-.05-.37-.15-.15-.22-.15-.36ZM154.68,113.31c0-.74-.02-1.28-.05-1.62h.95c-.03.36-.05.9-.05,1.62s.02,1.26.05,1.62h-.95c.03-.34.05-.88.05-1.62Z"/>
      <path class="cls-11" d="M156.56,113.31c0-.72-.02-1.27-.05-1.62h.9v.41c.29-.34.63-.51,1.02-.51.36,0,.63.1.82.3.19.2.29.49.29.86v.56c0,.72.02,1.26.05,1.62h-.95c.03-.36.05-.9.05-1.62v-.56c0-.24-.04-.42-.12-.52-.08-.1-.22-.16-.41-.16-.24,0-.42.07-.55.22-.13.15-.19.35-.19.62v.4c0,.72.02,1.26.05,1.62h-.95c.03-.36.05-.9.05-1.62Z"/>
      <path class="cls-11" d="M162.31,114.19c.3,0,.54.09.73.27.19.18.29.39.29.65,0,.34-.17.63-.51.87-.36.26-.83.39-1.42.39-.4,0-.72-.07-.96-.21-.25-.14-.37-.32-.37-.54,0-.17.06-.3.17-.41.11-.11.32-.21.62-.33-.14-.04-.25-.1-.34-.18s-.13-.18-.13-.28c0-.3.21-.56.62-.77-.24-.08-.43-.2-.56-.37-.13-.17-.2-.38-.2-.63,0-.32.11-.58.34-.77.23-.2.54-.29.93-.29.23,0,.43.03.59.1.14,0,.32-.01.56-.03.24-.02.43-.04.57-.07v.46c-.24-.04-.47-.06-.68-.06.15.18.23.41.23.67,0,.31-.12.57-.35.77-.23.2-.54.3-.92.3-.09,0-.16,0-.21,0-.16.08-.24.19-.24.31,0,.05.02.09.05.12.04.03.08.05.14.05h1.04ZM161.31,114.93c-.33.15-.5.36-.5.61,0,.19.06.32.19.41.12.08.32.13.59.13s.52-.08.72-.23c.19-.14.28-.29.28-.46,0-.3-.17-.45-.52-.45h-.76ZM161.52,111.88c-.15,0-.26.06-.32.18-.07.12-.1.32-.1.59s.03.46.1.58.17.18.32.18.25-.06.32-.18.1-.32.1-.58-.03-.47-.1-.59c-.07-.12-.17-.18-.32-.18Z"/>
    </g>
    <rect class="cls-4" x="265" y="52.92" width="60" height="20" rx="2" ry="2"/>
    <g>
      <path class="cls-11" d="M275.44,63.34c0-.72-.02-1.27-.05-1.62h.9v.62c.1-.2.24-.37.42-.51s.35-.21.52-.21c.09,0,.18.01.26.03v.81h-.03c-.12-.08-.28-.13-.49-.13-.45,0-.67.22-.67.67v.33c0,.72.02,1.26.05,1.62h-.95c.03-.36.05-.9.05-1.62Z"/>
      <path class="cls-11" d="M278.97,63.36c0,.49.06.85.19,1.08s.34.34.63.34c.34,0,.65-.16.93-.48v.49c-.27.19-.65.29-1.13.29-.44,0-.81-.14-1.1-.42-.33-.31-.49-.74-.49-1.29s.14-.94.41-1.26c.27-.32.63-.48,1.07-.48s.8.15,1.05.45c.25.3.37.73.37,1.28h-1.93ZM278.97,63.03h.96c0-.39-.04-.68-.11-.85-.07-.18-.19-.27-.36-.27-.15,0-.28.1-.36.3-.09.2-.13.47-.13.83Z"/>
      <path class="cls-11" d="M282.72,60.28c-.03.36-.05.84-.05,1.44.36,0,.59,0,.69-.02v.36c-.11-.01-.34-.02-.69-.02v2.41c0,.21.09.32.27.32.07,0,.15-.02.22-.07.07-.05.13-.11.18-.18h.03v.45c-.17.07-.36.1-.58.1-.32,0-.56-.08-.72-.25-.17-.16-.25-.4-.25-.71v-2.06c-.23,0-.39,0-.5.02v-.36c.1.01.27.02.5.02,0-.41-.02-.77-.05-1.08l.95-.36Z"/>
      <path class="cls-11" d="M284,63.34c0-.72-.02-1.27-.05-1.62h.9v.62c.1-.2.24-.37.42-.51.18-.14.35-.21.52-.21.09,0,.17.01.26.03v.81h-.03c-.12-.08-.28-.13-.49-.13-.45,0-.67.22-.67.67v.33c0,.72.02,1.26.05,1.62h-.95c.03-.36.05-.9.05-1.62Z"/>
      <path class="cls-11" d="M288.2,61.62c.48,0,.88.16,1.18.47.3.32.45.73.45,1.25s-.15.93-.45,1.25c-.3.32-.7.47-1.18.47s-.88-.16-1.18-.47-.45-.73-.45-1.25.15-.94.45-1.25.69-.47,1.18-.47ZM288.2,61.91c-.24,0-.42.11-.52.33-.1.22-.15.59-.15,1.1s.05.88.15,1.1c.1.22.27.33.52.33s.41-.11.51-.33c.1-.22.15-.59.15-1.1s-.05-.87-.15-1.1c-.1-.22-.27-.33-.51-.33Z"/>
      <path class="cls-11" d="M292.29,62.43c-.2-.35-.43-.52-.7-.52-.15,0-.26.03-.35.1-.09.06-.13.15-.13.25,0,.15.1.28.3.38l.54.26c.28.13.48.29.61.47.12.18.19.4.19.66,0,.32-.11.57-.33.76-.22.19-.53.28-.93.28-.18,0-.36-.02-.54-.06-.18-.04-.33-.1-.44-.16v-.7h.07c.11.2.25.35.41.47.16.11.33.17.5.17s.31-.04.42-.12c.1-.08.16-.18.16-.3,0-.21-.1-.37-.29-.46l-.62-.29c-.44-.21-.66-.55-.66-.99,0-.29.1-.53.3-.71.2-.18.46-.27.78-.27.42,0,.77.09,1.04.27l-.25.55h-.07Z"/>
      <path class="cls-11" d="M294.19,64.78c0,.72.02,1.26.05,1.62h-.95c.03-.36.05-.9.05-1.62v-1.44c0-.72-.02-1.27-.05-1.62h.9v.31c.12-.15.25-.25.38-.32.13-.06.29-.1.47-.1.43,0,.77.15,1.02.46.25.31.38.73.38,1.26s-.13.96-.38,1.26c-.25.31-.59.46-1.02.46-.18,0-.34-.03-.47-.1-.13-.07-.26-.17-.38-.32v.13ZM294.19,63.34c0,.44.06.77.17,1,.11.23.27.35.47.35.24,0,.4-.11.5-.32.1-.21.15-.56.15-1.03s-.05-.82-.15-1.03c-.1-.21-.27-.32-.5-.32-.2,0-.36.12-.47.35-.11.23-.17.57-.17,1Z"/>
      <path class="cls-11" d="M298.04,63.36c0,.49.06.85.19,1.08s.34.34.63.34c.34,0,.65-.16.93-.48v.49c-.27.19-.65.29-1.13.29-.44,0-.81-.14-1.1-.42-.33-.31-.49-.74-.49-1.29s.14-.94.41-1.26c.27-.32.63-.48,1.07-.48s.8.15,1.05.45c.25.3.37.73.37,1.28h-1.93ZM298.04,63.03h.96c0-.39-.04-.68-.11-.85-.07-.18-.19-.27-.36-.27-.15,0-.28.1-.36.3-.09.2-.13.47-.13.83Z"/>
      <path class="cls-11" d="M303.18,62.53c-.08-.2-.19-.35-.33-.45s-.29-.16-.45-.16c-.57,0-.86.5-.86,1.49,0,.46.08.81.24,1.03.16.22.4.34.74.34.35,0,.66-.16.94-.49v.51c-.12.08-.28.15-.47.2-.2.05-.4.07-.62.07-.54,0-.98-.15-1.3-.45-.32-.3-.49-.71-.49-1.21,0-.55.17-.98.5-1.3.33-.32.78-.48,1.35-.48.16,0,.35.03.57.1.22.07.4.14.54.22l-.28.59h-.07Z"/>
      <path class="cls-11" d="M305.29,60.28c-.03.36-.05.84-.05,1.44.36,0,.59,0,.69-.02v.36c-.11-.01-.34-.02-.69-.02v2.41c0,.21.09.32.27.32.07,0,.15-.02.22-.07.07-.05.13-.11.18-.18h.03v.45c-.17.07-.36.1-.58.1-.32,0-.56-.08-.72-.25-.17-.16-.25-.4-.25-.71v-2.06c-.23,0-.39,0-.5.02v-.36c.1.01.27.02.5.02,0-.41-.02-.77-.05-1.08l.95-.36Z"/>
      <path class="cls-11" d="M306.54,60.38c0-.14.05-.27.15-.37.1-.1.22-.15.37-.15s.27.05.37.15c.1.1.15.22.15.37s-.05.27-.15.37c-.1.1-.22.15-.37.15s-.27-.05-.37-.15c-.1-.1-.15-.22-.15-.36ZM306.63,63.34c0-.74-.02-1.28-.05-1.62h.95c-.03.36-.05.9-.05,1.62s.02,1.26.05,1.62h-.95c.03-.34.05-.88.05-1.62Z"/>
      <path class="cls-11" d="M309.46,64.97c-.07-.23-.28-.78-.63-1.64-.33-.81-.56-1.35-.69-1.61h1.03c.09.33.39,1.13.91,2.41.53-1.31.84-2.11.92-2.41h.43c-.11.22-.34.76-.68,1.61-.3.73-.5,1.28-.6,1.64h-.68Z"/>
      <path class="cls-11" d="M312.81,63.36c0,.49.07.85.2,1.08s.34.34.63.34c.34,0,.65-.16.93-.48v.49c-.27.19-.65.29-1.13.29-.44,0-.81-.14-1.1-.42-.33-.31-.49-.74-.49-1.29s.14-.94.41-1.26c.27-.32.63-.48,1.07-.48s.8.15,1.05.45c.25.3.37.73.37,1.28h-1.93ZM312.81,63.03h.96c0-.39-.04-.68-.11-.85-.07-.18-.19-.27-.36-.27-.16,0-.28.1-.36.3-.09.2-.13.47-.13.83Z"/>
    </g>
    <rect class="cls-4" x="272" y="95.2" width="60" height="20" rx="2" ry="2"/>
    <g>
      <path class="cls-11" d="M284.12,104.71c-.2-.35-.43-.52-.7-.52-.15,0-.26.03-.35.1-.09.06-.13.15-.13.25,0,.15.1.28.3.38l.54.26c.28.13.48.29.6.47.13.18.19.4.19.66,0,.32-.11.57-.33.76-.22.19-.53.28-.93.28-.17,0-.35-.02-.54-.06-.18-.04-.33-.1-.44-.16v-.7h.07c.11.2.25.35.41.47.16.11.33.17.5.17s.32-.04.42-.12.16-.18.16-.3c0-.21-.1-.37-.29-.46l-.62-.29c-.44-.21-.66-.55-.66-.99,0-.29.1-.53.3-.71.2-.18.46-.27.78-.27.42,0,.77.09,1.04.27l-.25.55h-.07Z"/>
      <path class="cls-11" d="M286.02,107.06c0,.72.02,1.26.05,1.62h-.95c.03-.36.05-.9.05-1.62v-1.44c0-.72-.02-1.27-.05-1.62h.9v.31c.12-.15.25-.25.38-.32.13-.06.29-.1.48-.1.43,0,.77.15,1.02.46.25.31.38.73.38,1.26s-.13.96-.38,1.26c-.25.31-.59.46-1.02.46-.18,0-.34-.03-.48-.1-.13-.07-.26-.17-.38-.32v.13ZM286.02,105.62c0,.44.06.77.17,1,.11.23.27.35.47.35.23,0,.4-.11.5-.32.1-.21.15-.56.15-1.03s-.05-.82-.15-1.03c-.1-.21-.27-.32-.5-.32-.2,0-.36.12-.47.35-.11.23-.17.57-.17,1Z"/>
      <path class="cls-11" d="M289.06,105.62c0-.72-.02-1.27-.05-1.62h.9v.62c.1-.2.24-.37.42-.51s.35-.21.52-.21c.09,0,.18.01.26.03v.81h-.03c-.12-.08-.28-.13-.49-.13-.45,0-.67.22-.67.67v.33c0,.72.02,1.26.05,1.62h-.95c.03-.36.05-.9.05-1.62Z"/>
      <path class="cls-11" d="M291.76,102.66c0-.14.05-.27.15-.37.1-.1.22-.15.37-.15s.27.05.37.15c.1.1.15.22.15.37s-.05.27-.15.37c-.1.1-.22.15-.37.15s-.27-.05-.37-.15c-.1-.1-.15-.22-.15-.36ZM291.86,105.62c0-.74-.02-1.28-.05-1.62h.95c-.03.36-.05.9-.05,1.62s.02,1.26.05,1.62h-.95c.03-.34.05-.88.05-1.62Z"/>
      <path class="cls-11" d="M293.73,105.62c0-.72-.02-1.27-.05-1.62h.9v.41c.29-.34.63-.51,1.02-.51.36,0,.63.1.82.3.19.2.29.49.29.86v.56c0,.72.02,1.26.05,1.62h-.95c.03-.36.05-.9.05-1.62v-.56c0-.24-.04-.42-.12-.52s-.22-.16-.41-.16c-.24,0-.42.07-.55.22s-.19.35-.19.62v.4c0,.72.02,1.26.05,1.62h-.95c.03-.36.05-.9.05-1.62Z"/>
      <path class="cls-11" d="M298.68,102.56c-.03.36-.05.84-.05,1.44.36,0,.59,0,.69-.02v.36c-.11-.01-.34-.02-.69-.02v2.41c0,.21.09.32.27.32.07,0,.15-.02.22-.07.07-.05.13-.11.18-.18h.03v.45c-.17.07-.36.1-.58.1-.32,0-.56-.08-.72-.25-.17-.16-.25-.4-.25-.71v-2.06c-.23,0-.39,0-.5.02v-.36c.1.01.27.02.5.02,0-.41-.02-.77-.05-1.08l.95-.36Z"/>
      <path class="cls-11" d="M301.9,105.62c0-.72-.02-1.27-.05-1.62h.9v.62c.1-.2.24-.37.42-.51s.35-.21.52-.21c.09,0,.18.01.26.03v.81h-.03c-.12-.08-.28-.13-.49-.13-.45,0-.67.22-.67.67v.33c0,.72.02,1.26.05,1.62h-.95c.03-.36.05-.9.05-1.62Z"/>
      <path class="cls-11" d="M305.43,105.64c0,.49.06.85.19,1.08s.34.34.63.34c.34,0,.65-.16.93-.48v.49c-.27.19-.65.29-1.13.29-.44,0-.81-.14-1.1-.42-.33-.31-.49-.74-.49-1.29s.14-.94.41-1.26c.27-.32.63-.48,1.07-.48s.8.15,1.05.45c.25.3.37.73.37,1.28h-1.93ZM305.43,105.31h.96c0-.39-.04-.68-.11-.85-.07-.18-.19-.27-.36-.27-.15,0-.28.1-.36.3-.09.2-.13.47-.13.83Z"/>
      <path class="cls-11" d="M309.07,107.25c-.07-.23-.28-.78-.62-1.64-.33-.81-.56-1.35-.69-1.61h1.03c.09.33.39,1.13.91,2.41.53-1.31.84-2.11.92-2.41h.43c-.11.22-.34.76-.68,1.61-.3.73-.5,1.28-.61,1.64h-.68Z"/>
      <path class="cls-11" d="M311.6,102.66c0-.14.05-.27.15-.37.1-.1.22-.15.37-.15s.27.05.37.15c.1.1.15.22.15.37s-.05.27-.15.37c-.1.1-.22.15-.37.15s-.27-.05-.37-.15c-.1-.1-.15-.22-.15-.36ZM311.69,105.62c0-.74-.02-1.28-.05-1.62h.95c-.03.36-.05.9-.05,1.62s.02,1.26.05,1.62h-.95c.03-.34.05-.88.05-1.62Z"/>
      <path class="cls-11" d="M314.37,105.64c0,.49.07.85.2,1.08s.34.34.63.34c.34,0,.65-.16.93-.48v.49c-.27.19-.65.29-1.13.29-.44,0-.81-.14-1.1-.42-.33-.31-.49-.74-.49-1.29s.14-.94.41-1.26c.27-.32.63-.48,1.07-.48s.8.15,1.05.45c.25.3.37.73.37,1.28h-1.93ZM314.37,105.31h.96c0-.39-.04-.68-.11-.85-.07-.18-.19-.27-.36-.27-.16,0-.28.1-.36.3-.09.2-.13.47-.13.83Z"/>
      <path class="cls-11" d="M317.91,107.25c-.09-.3-.28-.84-.57-1.64-.27-.74-.48-1.27-.64-1.61h1c.17.53.44,1.31.8,2.33.49-1.29.76-2.07.82-2.33h.59c.08.26.35,1.03.8,2.33.38-.96.66-1.74.82-2.33h.4c-.1.2-.3.74-.62,1.61-.27.75-.46,1.29-.55,1.64h-.63c-.03-.1-.07-.24-.12-.4s-.28-.78-.67-1.86c-.4,1.06-.66,1.81-.79,2.26h-.63Z"/>
    </g>
    <rect class="cls-3" x="325" y="153.41" width="60" height="20" rx="2" ry="2"/>
    <g>
      <path class="cls-11" d="M348.39,158.73c-.2-.35-.43-.52-.7-.52-.15,0-.26.03-.35.1-.09.06-.13.15-.13.25,0,.16.1.28.3.38l.54.26c.28.13.48.29.6.47.13.18.19.4.19.66,0,.32-.11.57-.33.76-.22.19-.53.28-.93.28-.17,0-.35-.02-.54-.06-.18-.04-.33-.1-.44-.16v-.7h.07c.11.2.25.35.41.47.16.11.33.17.5.17s.32-.04.42-.12c.1-.08.16-.18.16-.3,0-.21-.1-.37-.29-.46l-.62-.29c-.44-.21-.66-.55-.66-.99,0-.29.1-.53.3-.71.2-.18.46-.27.78-.27.42,0,.77.09,1.04.27l-.25.55h-.07Z"/>
      <path class="cls-11" d="M350.3,161.07c0,.72.02,1.26.05,1.62h-.95c.03-.36.05-.9.05-1.62v-1.44c0-.72-.02-1.27-.05-1.62h.9v.31c.12-.15.25-.25.38-.32.13-.06.29-.1.48-.1.43,0,.77.15,1.02.46s.38.73.38,1.26-.13.96-.38,1.26c-.25.31-.59.46-1.02.46-.18,0-.34-.03-.48-.1-.13-.07-.26-.17-.38-.32v.13ZM350.3,159.64c0,.44.06.77.17,1,.11.23.27.35.47.35.23,0,.4-.11.5-.32.1-.21.15-.56.15-1.03s-.05-.82-.15-1.03c-.1-.21-.27-.32-.5-.32-.2,0-.36.12-.47.35-.11.23-.17.57-.17,1Z"/>
      <path class="cls-11" d="M353.34,159.64c0-.72-.02-1.27-.05-1.62h.9v.62c.1-.2.24-.37.42-.51s.35-.21.52-.21c.09,0,.18.01.26.03v.81h-.03c-.12-.08-.28-.13-.49-.13-.45,0-.67.22-.67.67v.33c0,.72.02,1.26.05,1.62h-.95c.03-.36.05-.9.05-1.62Z"/>
      <path class="cls-11" d="M356.04,156.67c0-.14.05-.27.15-.37.1-.1.22-.15.37-.15s.27.05.37.15.15.22.15.37-.05.27-.15.37-.22.15-.37.15-.27-.05-.37-.15c-.1-.1-.15-.22-.15-.36ZM356.13,159.64c0-.74-.02-1.28-.05-1.62h.95c-.03.36-.05.9-.05,1.62s.02,1.26.05,1.62h-.95c.03-.34.05-.88.05-1.62Z"/>
      <path class="cls-11" d="M358.01,159.64c0-.72-.02-1.27-.05-1.62h.9v.41c.29-.34.63-.51,1.02-.51.36,0,.63.1.82.3.19.2.29.49.29.86v.56c0,.72.02,1.26.05,1.62h-.95c.03-.36.05-.9.05-1.62v-.56c0-.24-.04-.42-.12-.52-.08-.11-.22-.16-.41-.16-.24,0-.42.07-.55.22-.13.15-.19.35-.19.62v.4c0,.72.02,1.26.05,1.62h-.95c.03-.36.05-.9.05-1.62Z"/>
      <path class="cls-11" d="M362.96,156.57c-.03.36-.05.84-.05,1.44.36,0,.59,0,.69-.02v.36c-.11-.01-.34-.02-.69-.02v2.41c0,.21.09.32.27.32.07,0,.15-.02.22-.07.07-.04.13-.11.18-.18h.03v.45c-.17.07-.36.1-.58.1-.32,0-.56-.08-.72-.25-.17-.16-.25-.4-.25-.71v-2.06c-.23,0-.39,0-.5.02v-.36c.1.01.27.02.5.02,0-.41-.02-.77-.05-1.08l.95-.36Z"/>
      <path class="cls-11" d="M344.46,169.35v.31h-.9c.03-.36.05-.9.05-1.62v-1.86c0-.72-.02-1.27-.05-1.62h.95c-.03.36-.05.9-.05,1.62v.55c.12-.15.25-.25.38-.32.13-.06.29-.1.47-.1.43,0,.77.15,1.02.46.25.31.38.73.38,1.26s-.13.96-.38,1.26c-.25.31-.59.46-1.02.46-.18,0-.34-.03-.47-.1-.13-.07-.26-.17-.38-.32ZM344.46,168.04c0,.43.06.77.17,1,.11.23.27.35.47.35.24,0,.4-.11.5-.32.1-.21.15-.55.15-1.03s-.05-.82-.15-1.03c-.1-.21-.27-.32-.5-.32-.2,0-.36.12-.47.35-.11.23-.17.57-.17,1Z"/>
      <path class="cls-11" d="M347.59,166.56c.35-.16.73-.25,1.12-.25.92,0,1.38.35,1.38,1.05v.67c0,.72.02,1.26.05,1.62h-.9v-.43c-.24.35-.56.53-.97.53-.27,0-.5-.08-.67-.24-.17-.16-.26-.37-.26-.62,0-.26.1-.49.29-.68.19-.19.5-.37.94-.53l.67-.26v-.21c0-.41-.18-.61-.54-.61s-.72.17-1.07.51h-.03v-.55ZM349.24,167.76l-.61.24c-.15.06-.26.13-.32.22-.06.09-.09.22-.09.39,0,.18.04.34.12.47.08.13.17.19.27.19.15,0,.29-.07.43-.22.13-.14.2-.31.2-.49v-.81Z"/>
      <path class="cls-11" d="M353.45,167.22c-.08-.2-.19-.35-.33-.46-.14-.11-.29-.16-.45-.16-.57,0-.86.5-.86,1.49,0,.46.08.81.24,1.03s.4.34.74.34c.35,0,.66-.16.94-.49v.51c-.12.08-.28.15-.47.2-.2.05-.4.07-.62.07-.54,0-.98-.15-1.3-.46-.32-.3-.49-.71-.49-1.21,0-.55.17-.98.5-1.3.33-.32.78-.48,1.35-.48.16,0,.35.03.57.1.22.07.4.14.54.22l-.28.59h-.07Z"/>
      <path class="cls-11" d="M357.28,166.41c-.29.24-.69.6-1.2,1.08.7,1.18,1.14,1.9,1.33,2.17h-1.1c-.27-.52-.59-1.1-.96-1.72v.1c0,.72.02,1.26.05,1.62h-.95c.03-.36.05-.9.05-1.62v-1.86c0-.72-.02-1.27-.05-1.62h.95c-.03.36-.05.9-.05,1.62v1.56c.49-.47.9-.92,1.23-1.32h.69Z"/>
      <path class="cls-11" d="M358.03,169.66c.03-.36.05-.9.05-1.62v-1.86c0-.72-.02-1.27-.05-1.62h.95c-.03.36-.05.9-.05,1.62v1.86c0,.72.02,1.26.05,1.62h-.95Z"/>
      <path class="cls-11" d="M361.42,166.32c.48,0,.88.16,1.18.47.3.32.45.73.45,1.25s-.15.93-.45,1.25c-.3.32-.7.47-1.18.47s-.88-.16-1.18-.47-.45-.73-.45-1.25.15-.94.45-1.25.69-.47,1.18-.47ZM361.42,166.61c-.24,0-.42.11-.52.33-.1.22-.15.59-.15,1.1s.05.88.15,1.1c.1.22.27.33.52.33s.41-.11.51-.33c.1-.22.15-.59.15-1.09s-.05-.87-.15-1.1c-.1-.22-.27-.33-.51-.33Z"/>
      <path class="cls-11" d="M365.7,168.92c.3,0,.54.09.73.26.19.18.29.39.29.65,0,.34-.17.63-.51.87-.36.26-.83.39-1.42.39-.4,0-.72-.07-.96-.21-.25-.14-.37-.32-.37-.54,0-.17.05-.3.17-.41.11-.11.32-.21.62-.33-.14-.04-.25-.1-.34-.18-.09-.08-.13-.18-.13-.28,0-.3.21-.56.62-.77-.24-.08-.43-.2-.56-.37-.13-.17-.2-.38-.2-.63,0-.32.11-.58.34-.77.23-.2.54-.29.93-.29.23,0,.43.03.59.1.14,0,.32-.01.56-.03.24-.02.43-.04.57-.07v.46c-.24-.04-.47-.06-.68-.06.15.18.23.41.23.67,0,.31-.12.57-.35.77-.23.2-.54.3-.92.3-.09,0-.16,0-.21,0-.16.08-.24.19-.24.31,0,.05.02.09.05.12.04.03.08.05.14.05h1.04ZM364.7,169.66c-.33.15-.5.36-.5.61,0,.19.06.32.19.41.12.08.32.13.59.13s.52-.08.72-.23c.19-.14.28-.29.28-.46,0-.3-.17-.46-.52-.46h-.75ZM364.91,166.61c-.15,0-.26.06-.32.18-.07.12-.1.32-.1.59s.03.46.1.58c.07.12.17.18.32.18s.25-.06.32-.18c.07-.12.1-.32.1-.58s-.03-.47-.1-.59c-.07-.12-.17-.18-.32-.18Z"/>
    </g>
    <rect class="cls-3" x="327.59" y="216.3" width="60" height="20" rx="2" ry="2"/>
    <g>
      <path class="cls-11" d="M347.06,228.03v.31h-.9c.03-.36.05-.9.05-1.62v-1.86c0-.72-.02-1.27-.05-1.62h.95c-.03.36-.05.9-.05,1.62v.55c.12-.15.25-.25.38-.32.13-.06.29-.1.47-.1.43,0,.77.15,1.02.46.25.31.38.73.38,1.26s-.13.96-.38,1.26c-.25.31-.59.46-1.02.46-.18,0-.34-.03-.47-.1-.13-.07-.26-.17-.38-.32ZM347.06,226.72c0,.43.06.77.17,1,.11.23.27.35.47.35.24,0,.4-.11.5-.32.1-.21.15-.56.15-1.03s-.05-.82-.15-1.03c-.1-.21-.27-.32-.5-.32-.2,0-.36.12-.47.35-.11.23-.17.57-.17,1Z"/>
      <path class="cls-11" d="M350.19,225.25c.35-.16.73-.25,1.12-.25.92,0,1.38.35,1.38,1.05v.67c0,.72.02,1.26.05,1.62h-.9v-.43c-.24.35-.56.53-.97.53-.27,0-.5-.08-.67-.24s-.26-.37-.26-.62c0-.26.1-.49.29-.68.19-.19.5-.37.94-.54l.67-.26v-.21c0-.41-.18-.61-.54-.61s-.72.17-1.07.51h-.03v-.55ZM351.83,226.44l-.61.24c-.15.06-.26.13-.32.22-.06.09-.09.22-.09.39,0,.18.04.34.12.47.08.13.17.19.27.19.15,0,.29-.07.43-.22.13-.14.2-.31.2-.49v-.81Z"/>
      <path class="cls-11" d="M356.05,225.91c-.08-.2-.19-.35-.33-.46-.14-.11-.29-.16-.45-.16-.57,0-.86.5-.86,1.49,0,.46.08.81.24,1.03.16.22.4.34.74.34.35,0,.66-.16.94-.49v.51c-.12.08-.28.15-.47.2-.2.05-.4.07-.62.07-.54,0-.98-.15-1.3-.45-.32-.3-.49-.71-.49-1.21,0-.55.17-.98.5-1.3.33-.32.78-.48,1.35-.48.16,0,.35.03.57.1.22.07.4.14.54.22l-.28.59h-.07Z"/>
      <path class="cls-11" d="M359.88,225.1c-.29.24-.69.6-1.2,1.08.7,1.18,1.14,1.9,1.33,2.17h-1.1c-.27-.52-.59-1.1-.96-1.72v.1c0,.72.02,1.26.05,1.62h-.95c.03-.36.05-.9.05-1.62v-1.86c0-.72-.02-1.27-.05-1.62h.95c-.03.36-.05.9-.05,1.62v1.56c.49-.47.9-.92,1.23-1.32h.69Z"/>
      <path class="cls-11" d="M360.62,228.35c.03-.36.05-.9.05-1.62v-1.86c0-.72-.02-1.27-.05-1.62h.95c-.03.36-.05.9-.05,1.62v1.86c0,.72.02,1.26.05,1.62h-.95Z"/>
      <path class="cls-11" d="M364.01,225c.48,0,.88.16,1.18.47.3.32.45.73.45,1.25s-.15.93-.45,1.25c-.3.32-.7.47-1.18.47s-.88-.16-1.18-.47-.45-.73-.45-1.25.15-.94.45-1.25.69-.47,1.18-.47ZM364.01,225.29c-.24,0-.42.11-.52.33-.1.22-.15.59-.15,1.1s.05.88.15,1.1c.1.22.27.33.52.33s.41-.11.51-.33c.1-.22.15-.59.15-1.09s-.05-.87-.15-1.09c-.1-.22-.27-.33-.51-.33Z"/>
      <path class="cls-11" d="M368.3,227.61c.3,0,.54.09.73.27.19.18.29.39.29.65,0,.34-.17.63-.51.87-.36.26-.83.39-1.42.39-.4,0-.72-.07-.96-.21-.25-.14-.37-.32-.37-.54,0-.17.05-.3.17-.41.11-.11.32-.21.62-.33-.14-.04-.25-.1-.34-.18-.09-.08-.13-.18-.13-.28,0-.3.21-.56.62-.77-.24-.07-.43-.2-.56-.37-.13-.17-.2-.38-.2-.63,0-.32.11-.58.34-.77.23-.2.54-.29.93-.29.23,0,.43.03.59.1.14,0,.32,0,.56-.03.24-.02.43-.04.57-.07v.46c-.24-.04-.47-.06-.68-.06.15.19.23.41.23.67,0,.31-.12.57-.35.77-.23.2-.54.3-.92.3-.09,0-.16,0-.21,0-.16.08-.24.19-.24.31,0,.05.02.09.05.12.04.03.08.05.14.05h1.04ZM367.29,228.35c-.33.15-.5.36-.5.61,0,.19.06.32.19.41s.32.13.59.13.52-.08.72-.23c.19-.14.28-.29.28-.46,0-.3-.17-.45-.52-.45h-.75ZM367.51,225.29c-.15,0-.26.06-.32.18-.07.12-.1.32-.1.59s.03.46.1.58c.07.12.17.18.32.18s.25-.06.32-.18c.07-.12.1-.32.1-.58s-.03-.47-.1-.59c-.07-.12-.17-.18-.32-.18Z"/>
    </g>
    <rect class="cls-3" x="221.5" y="242.14" width="60" height="20" rx="2" ry="2"/>
    <g>
      <path class="cls-11" d="M236.4,249.59c0-.14.05-.27.15-.37.1-.1.22-.15.37-.15s.27.05.37.15.15.22.15.37-.05.27-.15.37-.22.15-.37.15-.27-.05-.37-.15c-.1-.1-.15-.22-.15-.36ZM236.49,252.56c0-.74-.02-1.28-.05-1.62h.95c-.03.36-.05.9-.05,1.62s.02,1.26.05,1.62h-.95c.03-.34.05-.88.05-1.62Z"/>
      <path class="cls-11" d="M238.36,252.56c0-.72-.02-1.27-.05-1.62h.9v.41c.29-.34.63-.51,1.02-.51.36,0,.63.1.82.3.19.2.29.49.29.86v.56c0,.72.02,1.26.05,1.62h-.95c.03-.36.05-.9.05-1.62v-.56c0-.24-.04-.42-.12-.52-.08-.11-.22-.16-.41-.16-.24,0-.42.07-.55.22-.13.15-.19.35-.19.62v.4c0,.72.02,1.26.05,1.62h-.95c.03-.36.05-.9.05-1.62Z"/>
      <path class="cls-11" d="M244.71,251.75c-.08-.2-.19-.35-.33-.45-.14-.11-.29-.16-.45-.16-.57,0-.86.5-.86,1.49,0,.46.08.81.24,1.03.16.22.4.34.74.34.35,0,.66-.16.94-.49v.51c-.12.08-.28.15-.47.2-.2.05-.4.07-.62.07-.54,0-.98-.15-1.3-.45-.32-.3-.49-.71-.49-1.21,0-.55.17-.98.5-1.3.33-.32.78-.48,1.35-.48.16,0,.35.03.57.1.22.07.4.14.54.22l-.28.59h-.07Z"/>
      <path class="cls-11" d="M245.75,252.56c0-.72-.02-1.27-.05-1.62h.9v.62c.1-.2.24-.37.42-.51.18-.14.35-.21.52-.21.09,0,.17.01.26.03v.81h-.03c-.12-.08-.28-.13-.49-.13-.45,0-.67.22-.67.67v.33c0,.72.02,1.26.05,1.62h-.95c.03-.36.05-.9.05-1.62Z"/>
      <path class="cls-11" d="M249.29,252.57c0,.49.07.85.2,1.08s.34.34.63.34c.34,0,.65-.16.93-.48v.49c-.27.19-.65.29-1.13.29-.44,0-.81-.14-1.1-.42-.33-.31-.49-.74-.49-1.29s.14-.94.41-1.26c.27-.32.63-.48,1.07-.48s.8.15,1.05.45.37.73.37,1.28h-1.93ZM249.29,252.25h.96c0-.39-.04-.68-.11-.85-.07-.18-.19-.27-.36-.27-.16,0-.28.1-.36.3s-.13.47-.13.83Z"/>
      <path class="cls-11" d="M251.98,252.56c0-.72-.02-1.27-.05-1.62h.9v.41c.29-.34.62-.51.98-.51.51,0,.83.2.96.61.31-.41.67-.61,1.07-.61.7,0,1.05.39,1.05,1.16v.56c0,.72.02,1.26.05,1.62h-.95c.03-.36.05-.9.05-1.62v-.56c0-.25-.04-.43-.11-.53-.07-.1-.2-.15-.38-.15-.21,0-.38.08-.5.23s-.19.36-.19.62v.4c0,.72.02,1.26.05,1.62h-.95c.03-.36.05-.9.05-1.62v-.56c0-.25-.04-.43-.11-.53-.07-.1-.2-.15-.38-.15-.21,0-.38.08-.5.23s-.19.36-.19.62v.4c0,.72.02,1.26.05,1.62h-.95c.03-.36.05-.9.05-1.62Z"/>
      <path class="cls-11" d="M258.62,252.57c0,.49.07.85.2,1.08s.34.34.63.34c.34,0,.65-.16.93-.48v.49c-.27.19-.65.29-1.13.29-.44,0-.81-.14-1.1-.42-.33-.31-.49-.74-.49-1.29s.14-.94.41-1.26c.27-.32.63-.48,1.07-.48s.8.15,1.05.45.37.73.37,1.28h-1.93ZM258.62,252.25h.96c0-.39-.04-.68-.11-.85-.07-.18-.19-.27-.36-.27-.16,0-.28.1-.36.3s-.13.47-.13.83Z"/>
      <path class="cls-11" d="M261.31,252.56c0-.72-.02-1.27-.05-1.62h.9v.41c.29-.34.63-.51,1.02-.51.36,0,.63.1.82.3.19.2.29.49.29.86v.56c0,.72.02,1.26.05,1.62h-.95c.03-.36.05-.9.05-1.62v-.56c0-.24-.04-.42-.12-.52-.08-.11-.22-.16-.41-.16-.24,0-.42.07-.55.22-.13.15-.19.35-.19.62v.4c0,.72.02,1.26.05,1.62h-.95c.03-.36.05-.9.05-1.62Z"/>
      <path class="cls-11" d="M266.26,249.5c-.03.36-.05.84-.05,1.44.36,0,.59,0,.69-.02v.36c-.11-.01-.34-.02-.69-.02v2.41c0,.21.09.32.27.32.07,0,.15-.02.22-.07.07-.04.13-.11.18-.18h.03v.45c-.17.07-.36.1-.58.1-.32,0-.56-.08-.72-.25-.17-.16-.25-.4-.25-.71v-2.06c-.23,0-.39,0-.5.02v-.36c.1.01.27.02.5.02,0-.41-.02-.77-.05-1.08l.95-.36Z"/>
    </g>
  </g>
  <g id="Text">
    <g>
      <path class="cls-11" d="M196.79,159.87c.34.73.79,1.31,1.34,1.74s1.12.65,1.71.65,1.03-.15,1.37-.44.51-.69.51-1.17c0-.76-.41-1.37-1.22-1.82l-1.28-.7c-1-.55-1.71-1.14-2.15-1.77s-.66-1.37-.66-2.23c0-.97.33-1.76,1.01-2.37s1.54-.91,2.6-.91c1.15,0,2.18.2,3.1.6l-.72,1.83h-.18c-.59-.85-1.32-1.27-2.2-1.27-.46,0-.83.12-1.11.37s-.42.57-.42.96.12.71.36,1.01.64.6,1.18.9l1.25.69c.8.45,1.42,1,1.86,1.66s.66,1.37.66,2.14c0,1.12-.34,2.01-1.03,2.69s-1.59,1.01-2.71,1.01c-.56,0-1.17-.07-1.82-.22s-1.2-.33-1.61-.54v-2.79h.18Z"/>
      <path class="cls-11" d="M214.6,153.61c-.64-1.08-1.56-1.62-2.73-1.62-1.07,0-1.9.44-2.49,1.33s-.88,2.15-.88,3.8.3,2.97.89,3.84,1.47,1.3,2.63,1.3c.64,0,1.24-.13,1.81-.4s1.04-.65,1.44-1.14h.18v1.89c-1.01.54-2.21.81-3.6.81-.8,0-1.56-.12-2.29-.37s-1.38-.61-1.93-1.08c-1.36-1.14-2.04-2.75-2.04-4.83,0-1.92.67-3.48,2-4.68.57-.51,1.22-.91,1.96-1.19s1.48-.42,2.24-.42c.67,0,1.3.06,1.87.18s1.17.32,1.81.61l-.67,1.98h-.18Z"/>
      <path class="cls-11" d="M223.7,163.16c-.46-1.08-1.43-2.82-2.89-5.22h-.05c0,2.52.06,4.26.18,5.22h-2.91c.12-.96.18-2.97.18-6.03s-.06-5.12-.18-6.08c.45.04,1.05.05,1.81.05.45-.01.9-.02,1.35-.03.67-.02,1.2-.03,1.58-.03,1.16,0,2.07.28,2.72.83s.98,1.31.98,2.28c0,.87-.27,1.62-.8,2.25s-1.22,1.04-2.08,1.24c1.56,2.72,2.73,4.56,3.49,5.51h-3.38ZM220.76,156.68h.69c.79,0,1.37-.18,1.74-.53s.55-.91.55-1.67-.13-1.28-.39-1.62-.68-.51-1.26-.51-1.03.05-1.33.14v4.18Z"/>
      <path class="cls-11" d="M231.93,151.1c-.12.96-.18,2.97-.18,6.03v1.49c0,1.07.28,1.87.84,2.39s1.41.78,2.56.78,1.93-.27,2.51-.82.88-1.33.88-2.35v-1.49c0-3.06-.06-5.07-.18-6.03h1.61c-.12.96-.18,2.97-.18,6.03v1.49c0,1.51-.47,2.68-1.4,3.52s-2.23,1.27-3.9,1.27-3.01-.41-3.93-1.24-1.38-2.01-1.38-3.55v-1.49c0-3.06-.06-5.07-.18-6.03h2.91Z"/>
      <path class="cls-11" d="M245.1,155.98l-.2,2.07c-.26,2.71-.37,4.42-.33,5.11h-1.63c.22-.9.48-2.91.79-6.01.32-3.15.46-5.17.43-6.05h1.7c.13.45.34,1.04.64,1.78s.89,2.12,1.77,4.16l1.24,2.88,1.27-2.88c.77-1.76,1.31-3.05,1.63-3.87s.56-1.51.7-2.07h1.69c0,1.1.15,3.11.46,6.05.32,3.09.59,5.09.81,6.01h-2.94c.03-1.11-.07-2.81-.31-5.11l-.21-2.14-.96,2.27c-1.11,2.58-1.75,4.24-1.94,4.98h-1.7c-.16-.59-.82-2.26-1.98-5l-.93-2.18Z"/>
    </g>
    <g>
      <path class="cls-12" d="M224.62,86.57h.1c.36.65.83.98,1.41.98.38,0,.68-.15.9-.45.22-.3.33-.72.33-1.26,0-.49-.1-.86-.31-1.13s-.5-.39-.88-.39-.74.12-1.09.35h-.2v-3.45c.34.02.92.03,1.75.03s1.41,0,1.75-.03v1.23c-.38-.06-.96-.1-1.75-.1h-1.21v1.65c.36-.19.79-.28,1.26-.28.6,0,1.09.19,1.48.57.38.38.57.87.57,1.47,0,.7-.22,1.26-.67,1.69s-1.03.64-1.76.64c-.29,0-.6-.04-.91-.11s-.57-.16-.78-.27v-1.14Z"/>
      <path class="cls-12" d="M214.44,97.66c0,.7.09,1.22.28,1.54s.49.48.9.48c.49,0,.93-.23,1.33-.69v.7c-.38.27-.92.41-1.62.41-.63,0-1.15-.2-1.57-.6-.47-.45-.7-1.06-.7-1.84s.19-1.35.58-1.8.9-.68,1.53-.68,1.15.22,1.5.65c.35.43.53,1.04.53,1.83h-2.76ZM214.44,97.2h1.38c0-.56-.05-.97-.16-1.22s-.28-.38-.51-.38c-.22,0-.39.14-.52.42-.13.28-.19.67-.19,1.18Z"/>
      <path class="cls-12" d="M219.64,99.96c-.1-.33-.4-1.11-.89-2.34-.47-1.16-.79-1.93-.99-2.3h1.47c.13.47.56,1.61,1.3,3.44.76-1.88,1.19-3.02,1.31-3.44h.62c-.16.32-.49,1.08-.98,2.3-.42,1.05-.71,1.83-.86,2.34h-.98Z"/>
      <path class="cls-12" d="M224.44,97.66c0,.7.09,1.22.28,1.54s.49.48.9.48c.49,0,.93-.23,1.33-.69v.7c-.38.27-.92.41-1.62.41-.63,0-1.15-.2-1.57-.6-.47-.45-.7-1.06-.7-1.84s.19-1.35.58-1.8.9-.68,1.53-.68,1.15.22,1.5.65c.35.43.53,1.04.53,1.83h-2.76ZM224.44,97.2h1.38c0-.56-.05-.97-.16-1.22s-.28-.38-.51-.38c-.22,0-.39.14-.52.42-.13.28-.19.67-.19,1.18Z"/>
      <path class="cls-12" d="M228.29,97.64c0-1.04-.02-1.81-.07-2.32h1.29v.59c.41-.48.9-.73,1.46-.73.51,0,.9.14,1.17.43s.41.7.41,1.23v.8c0,1.03.02,1.81.07,2.32h-1.36c.05-.51.07-1.29.07-2.32v-.8c0-.35-.06-.6-.18-.75-.12-.15-.31-.22-.58-.22-.34,0-.6.1-.78.31-.18.21-.28.5-.28.89v.57c0,1.03.02,1.81.07,2.32h-1.36c.05-.51.07-1.29.07-2.32Z"/>
      <path class="cls-12" d="M235.36,93.26c-.05.51-.07,1.2-.07,2.06.51,0,.84,0,.99-.03v.52c-.15-.02-.48-.03-.99-.03v3.44c0,.31.13.46.38.46.1,0,.21-.03.31-.1.1-.06.19-.15.26-.26h.05v.64c-.24.09-.51.14-.83.14-.45,0-.8-.12-1.04-.35s-.36-.57-.36-1.02v-2.95c-.33,0-.56,0-.71.03v-.52c.15.02.38.03.71.03,0-.59-.02-1.1-.07-1.54l1.36-.52Z"/>
      <path class="cls-12" d="M239.57,96.34c-.28-.49-.61-.74-1-.74-.21,0-.37.05-.5.14s-.19.21-.19.36c0,.22.14.4.43.54l.77.37c.4.19.69.42.86.67s.27.57.27.94c0,.46-.16.82-.48,1.08s-.76.4-1.32.4c-.25,0-.51-.03-.77-.09-.26-.06-.47-.14-.63-.23v-1.01h.1c.16.28.36.51.59.67.23.16.47.24.71.24s.45-.06.6-.17c.15-.11.22-.26.22-.43,0-.3-.14-.52-.42-.66l-.88-.42c-.62-.31-.94-.78-.94-1.42,0-.42.14-.75.42-1.01s.65-.39,1.11-.39c.61,0,1.1.13,1.48.38l-.35.78h-.1Z"/>
    </g>
    <g>
      <path class="cls-12" d="M166.4,175.08l-.42-.94c.28-.23.6-.42.95-.55.35-.13.69-.2,1.04-.2.6,0,1.07.14,1.4.43.33.29.49.68.49,1.19,0,.38-.11.7-.34.98s-.54.47-.93.58c.46.06.82.23,1.09.52.27.28.4.63.4,1.05,0,.7-.21,1.25-.64,1.65-.43.4-1.02.6-1.78.6-.67,0-1.23-.11-1.67-.32v-1.14h.1c.36.61.85.92,1.48.92.75,0,1.13-.52,1.13-1.56,0-.86-.32-1.29-.95-1.29-.21,0-.42.02-.63.07v-.63c.09.01.22.02.41.02.29,0,.52-.12.69-.36.17-.24.26-.57.26-.99,0-.77-.24-1.16-.73-1.16-.52,0-.93.38-1.24,1.14h-.1Z"/>
      <path class="cls-12" d="M151.58,187.81c.5-.23,1.04-.35,1.6-.35,1.32,0,1.97.5,1.97,1.5v.96c0,1.03.02,1.81.07,2.32h-1.29v-.62c-.34.5-.81.76-1.39.76-.39,0-.71-.11-.95-.34s-.37-.52-.37-.88c0-.38.14-.7.41-.97.27-.27.72-.53,1.34-.76l.96-.37v-.3c0-.58-.26-.87-.77-.87s-1.03.24-1.53.72h-.05v-.79ZM153.93,189.52l-.87.34c-.21.08-.37.19-.45.32-.09.13-.13.32-.13.56,0,.26.06.48.17.67.11.18.24.28.39.28.22,0,.42-.1.61-.31.19-.21.29-.44.29-.7v-1.15Z"/>
      <path class="cls-12" d="M159.95,188.76c-.12-.28-.28-.5-.47-.65s-.41-.23-.64-.23c-.82,0-1.23.71-1.23,2.13,0,.66.11,1.15.34,1.47.23.32.58.48,1.05.48.5,0,.95-.23,1.34-.7v.73c-.17.12-.39.22-.67.29-.28.07-.57.1-.88.1-.78,0-1.4-.22-1.86-.65s-.69-1.01-.69-1.72c0-.78.24-1.4.71-1.86.47-.46,1.12-.69,1.93-.69.23,0,.5.05.82.14.31.09.57.2.77.32l-.4.84h-.1Z"/>
      <path class="cls-12" d="M164.95,188.76c-.12-.28-.28-.5-.47-.65s-.41-.23-.64-.23c-.82,0-1.23.71-1.23,2.13,0,.66.11,1.15.34,1.47.23.32.58.48,1.05.48.5,0,.95-.23,1.34-.7v.73c-.17.12-.39.22-.67.29-.28.07-.57.1-.88.1-.78,0-1.4-.22-1.86-.65s-.69-1.01-.69-1.72c0-.78.24-1.4.71-1.86.47-.46,1.12-.69,1.93-.69.23,0,.5.05.82.14.31.09.57.2.77.32l-.4.84h-.1Z"/>
      <path class="cls-12" d="M168.55,187.46c.69,0,1.25.23,1.68.68.43.45.65,1.04.65,1.78s-.22,1.33-.65,1.78c-.43.45-.99.68-1.68.68s-1.26-.22-1.69-.67-.64-1.04-.64-1.79.21-1.34.64-1.79.99-.67,1.69-.67ZM168.55,187.88c-.35,0-.59.16-.74.47s-.21.84-.21,1.57.07,1.25.21,1.57.39.47.74.47.59-.16.73-.48c.14-.32.21-.84.21-1.57s-.07-1.25-.21-1.57c-.14-.32-.39-.48-.73-.48Z"/>
      <path class="cls-12" d="M176.21,189.92c0,1.03.02,1.81.07,2.32h-1.29v-.59c-.41.48-.9.73-1.46.73-.51,0-.9-.14-1.17-.43-.27-.29-.41-.7-.41-1.23v-.8c0-1.04-.02-1.81-.07-2.32h1.36c-.05.51-.07,1.28-.07,2.32v.8c0,.35.06.6.18.75.12.15.31.22.58.22.34,0,.6-.1.78-.31.18-.21.28-.5.28-.89v-.57c0-1.04-.02-1.81-.07-2.32h1.36c-.05.51-.07,1.28-.07,2.32Z"/>
      <path class="cls-12" d="M177.57,189.92c0-1.04-.02-1.81-.07-2.32h1.29v.59c.41-.48.9-.73,1.46-.73.51,0,.9.14,1.17.43.27.29.41.7.41,1.23v.8c0,1.03.02,1.81.07,2.32h-1.36c.05-.51.07-1.29.07-2.32v-.8c0-.35-.06-.6-.18-.75-.12-.15-.31-.22-.58-.22-.34,0-.6.1-.78.31-.18.21-.28.5-.28.89v.57c0,1.03.02,1.81.07,2.32h-1.36c.05-.51.07-1.29.07-2.32Z"/>
      <path class="cls-12" d="M182.6,190.07v-.86h2.48v.86h-2.48Z"/>
      <path class="cls-12" d="M151.57,197.54c-.05.51-.07,1.2-.07,2.06.51,0,.84,0,.99-.03v.52c-.15-.02-.48-.03-.99-.03v3.44c0,.31.13.46.38.46.1,0,.21-.03.31-.1.1-.07.19-.15.26-.26h.05v.64c-.24.09-.51.14-.83.14-.45,0-.8-.12-1.04-.35s-.36-.58-.36-1.02v-2.95c-.33,0-.56,0-.71.03v-.52c.15.02.38.03.71.03,0-.59-.02-1.1-.07-1.54l1.36-.52Z"/>
      <path class="cls-12" d="M153.53,199.81c.5-.23,1.04-.35,1.6-.35,1.32,0,1.97.5,1.97,1.5v.96c0,1.03.02,1.81.07,2.32h-1.29v-.62c-.34.5-.81.76-1.39.76-.39,0-.71-.11-.95-.34s-.37-.52-.37-.88c0-.38.14-.7.41-.97.27-.27.72-.53,1.34-.76l.96-.37v-.3c0-.58-.26-.87-.77-.87s-1.03.24-1.53.72h-.05v-.79ZM155.88,201.52l-.87.34c-.21.08-.37.19-.45.32-.09.13-.13.32-.13.56,0,.26.06.48.17.67.11.18.24.28.39.28.22,0,.42-.1.61-.31.19-.21.29-.44.29-.7v-1.15Z"/>
      <path class="cls-12" d="M159.62,203.79v.45h-1.29c.05-.51.07-1.29.07-2.32v-2.66c0-1.04-.02-1.81-.07-2.32h1.36c-.05.51-.07,1.28-.07,2.32v.79c.17-.21.35-.36.54-.45.19-.09.42-.14.68-.14.62,0,1.1.22,1.46.66.36.44.54,1.04.54,1.8s-.18,1.37-.54,1.8c-.36.44-.85.66-1.46.66-.26,0-.49-.05-.68-.14-.19-.09-.37-.24-.54-.45ZM159.62,201.92c0,.62.08,1.1.24,1.43s.38.5.67.5c.33,0,.57-.15.72-.45.14-.3.21-.79.21-1.48s-.07-1.18-.21-1.48c-.14-.3-.38-.45-.72-.45-.29,0-.51.17-.67.5s-.24.81-.24,1.43Z"/>
      <path class="cls-12" d="M163.93,197.68c0-.21.07-.38.22-.52.14-.15.32-.22.52-.22s.38.07.52.21.21.32.21.53-.07.38-.21.52-.32.21-.52.21-.38-.07-.52-.22-.22-.32-.22-.52ZM164.06,201.92c0-1.06-.02-1.83-.07-2.32h1.36c-.05.51-.07,1.28-.07,2.32s.02,1.81.07,2.32h-1.36c.05-.49.07-1.26.07-2.32Z"/>
      <path class="cls-12" d="M166.77,204.24c.05-.51.07-1.29.07-2.32v-2.66c0-1.04-.02-1.81-.07-2.32h1.36c-.05.51-.07,1.28-.07,2.32v2.66c0,1.03.02,1.81.07,2.32h-1.36Z"/>
      <path class="cls-12" d="M169.48,197.68c0-.21.07-.38.22-.52.14-.15.32-.22.52-.22s.38.07.52.21.21.32.21.53-.07.38-.21.52-.32.21-.52.21-.38-.07-.52-.22-.22-.32-.22-.52ZM169.62,201.92c0-1.06-.02-1.83-.07-2.32h1.36c-.05.51-.07,1.28-.07,2.32s.02,1.81.07,2.32h-1.36c.05-.49.07-1.26.07-2.32Z"/>
      <path class="cls-12" d="M173.8,197.54c-.05.51-.07,1.2-.07,2.06.51,0,.84,0,.99-.03v.52c-.15-.02-.48-.03-.99-.03v3.44c0,.31.13.46.38.46.1,0,.21-.03.31-.1.1-.07.19-.15.26-.26h.05v.64c-.24.09-.51.14-.83.14-.45,0-.8-.12-1.04-.35s-.36-.58-.36-1.02v-2.95c-.33,0-.56,0-.71.03v-.52c.15.02.38.03.71.03,0-.59-.02-1.1-.07-1.54l1.36-.52Z"/>
      <path class="cls-12" d="M175.59,197.68c0-.21.07-.38.22-.52.14-.15.32-.22.52-.22s.38.07.52.21.21.32.21.53-.07.38-.21.52-.32.21-.52.21-.38-.07-.52-.22-.22-.32-.22-.52ZM175.72,201.92c0-1.06-.02-1.83-.07-2.32h1.36c-.05.51-.07,1.28-.07,2.32s.02,1.81.07,2.32h-1.36c.05-.49.07-1.26.07-2.32Z"/>
      <path class="cls-12" d="M179.55,201.94c0,.7.09,1.22.28,1.54s.49.48.9.48c.49,0,.93-.23,1.33-.69v.7c-.38.27-.92.41-1.62.41-.63,0-1.15-.2-1.57-.6-.47-.45-.7-1.06-.7-1.84s.19-1.35.58-1.8.9-.68,1.53-.68,1.15.22,1.5.65c.35.43.53,1.04.53,1.83h-2.76ZM179.55,201.48h1.38c0-.56-.05-.97-.16-1.22s-.28-.38-.51-.38c-.22,0-.39.14-.52.42-.13.28-.19.67-.19,1.18Z"/>
      <path class="cls-12" d="M185.79,200.62c-.28-.5-.61-.74-1-.74-.21,0-.37.05-.5.14s-.19.21-.19.36c0,.22.14.4.43.54l.77.37c.4.19.69.42.86.67.18.25.27.57.27.94,0,.46-.16.82-.48,1.08-.32.26-.76.4-1.32.4-.25,0-.51-.03-.77-.09-.26-.06-.47-.14-.63-.23v-1.01h.1c.16.28.36.5.59.67.23.16.47.24.71.24s.45-.06.6-.17c.15-.11.22-.25.22-.43,0-.3-.14-.52-.42-.66l-.88-.42c-.62-.31-.94-.78-.94-1.42,0-.42.14-.75.42-1.01.28-.26.65-.39,1.11-.39.61,0,1.1.13,1.48.38l-.35.78h-.1Z"/>
    </g>
    <g>
      <path class="cls-12" d="M283.08,182.3l-.42-.94c.28-.23.6-.42.95-.55.35-.13.69-.2,1.04-.2.6,0,1.07.14,1.4.43.33.28.49.68.49,1.19,0,.38-.11.7-.34.98s-.54.46-.93.58c.46.06.82.23,1.09.52.27.28.4.63.4,1.05,0,.7-.21,1.25-.64,1.65-.43.4-1.02.6-1.78.6-.67,0-1.23-.11-1.67-.32v-1.14h.1c.36.61.85.92,1.48.92.75,0,1.13-.52,1.13-1.56,0-.86-.32-1.29-.95-1.29-.21,0-.42.02-.63.07v-.63c.09.01.22.02.41.02.29,0,.52-.12.69-.36.17-.24.26-.57.26-.99,0-.77-.24-1.16-.73-1.16-.52,0-.93.38-1.24,1.14h-.1Z"/>
      <path class="cls-12" d="M266.6,195.03c.5-.23,1.04-.35,1.6-.35,1.32,0,1.97.5,1.97,1.5v.96c0,1.03.02,1.8.07,2.32h-1.29v-.62c-.34.5-.81.76-1.39.76-.39,0-.71-.11-.95-.34s-.37-.52-.37-.88c0-.38.14-.7.41-.97.27-.27.72-.53,1.34-.76l.96-.37v-.3c0-.58-.26-.87-.77-.87s-1.03.24-1.53.72h-.05v-.79ZM268.95,196.74l-.87.34c-.21.08-.37.19-.45.32-.09.13-.13.32-.13.56,0,.26.06.48.17.67.11.18.24.28.39.28.22,0,.42-.1.61-.31.19-.21.29-.44.29-.7v-1.15Z"/>
      <path class="cls-12" d="M271.47,197.14c0-1.04-.02-1.81-.07-2.32h1.29v.88c.14-.29.34-.53.6-.73.25-.2.5-.29.74-.29.13,0,.25.02.37.05v1.16h-.05c-.17-.12-.4-.18-.7-.18-.64,0-.96.32-.96.96v.47c0,1.03.02,1.8.07,2.32h-1.36c.05-.51.07-1.29.07-2.32Z"/>
      <path class="cls-12" d="M276.87,192.76c-.05.51-.07,1.2-.07,2.06.51,0,.84,0,.99-.03v.52c-.15-.02-.48-.03-.99-.03v3.44c0,.31.13.46.38.46.1,0,.21-.03.31-.1.1-.06.19-.15.26-.26h.05v.64c-.24.09-.51.14-.83.14-.45,0-.8-.12-1.04-.35s-.36-.57-.36-1.02v-2.95c-.33,0-.56,0-.71.03v-.52c.15.02.38.03.71.03,0-.59-.02-1.1-.07-1.54l1.36-.52Z"/>
      <path class="cls-12" d="M279.85,197.16c0,.7.09,1.22.28,1.54s.49.48.9.48c.49,0,.93-.23,1.33-.69v.7c-.38.27-.92.41-1.62.41-.63,0-1.15-.2-1.57-.6-.47-.45-.7-1.06-.7-1.84s.19-1.35.58-1.8.9-.68,1.53-.68,1.15.22,1.5.65c.35.43.53,1.04.53,1.83h-2.76ZM279.85,196.7h1.38c0-.56-.05-.97-.16-1.22s-.28-.38-.51-.38c-.22,0-.39.14-.52.42-.13.28-.19.68-.19,1.18Z"/>
      <path class="cls-12" d="M283.91,199.46c.05-.51.07-1.29.07-2.32v-1.86c-.36,0-.62,0-.77.03v-.52c.15.02.41.03.77.03v-.31c0-.52.18-1.03.55-1.55.39-.53.75-.8,1.09-.8.27,0,.46.04.59.11v.76h-.05c-.21-.13-.42-.2-.61-.2-.23,0-.35.15-.35.45v1.54c.47,0,.78,0,.93-.03v.52c-.15-.02-.46-.03-.93-.03v1.86c0,1.03.02,1.8.07,2.32h-1.36Z"/>
      <path class="cls-12" d="M287.16,195.03c.5-.23,1.04-.35,1.6-.35,1.32,0,1.97.5,1.97,1.5v.96c0,1.03.02,1.8.07,2.32h-1.29v-.62c-.34.5-.81.76-1.39.76-.39,0-.71-.11-.95-.34s-.37-.52-.37-.88c0-.38.14-.7.41-.97.27-.27.72-.53,1.34-.76l.96-.37v-.3c0-.58-.26-.87-.77-.87s-1.03.24-1.53.72h-.05v-.79ZM289.5,196.74l-.87.34c-.21.08-.37.19-.45.32-.09.13-.13.32-.13.56,0,.26.06.48.17.67.11.18.24.28.39.28.22,0,.42-.1.61-.31.19-.21.29-.44.29-.7v-1.15Z"/>
      <path class="cls-12" d="M295.52,195.98c-.12-.28-.28-.5-.47-.65s-.41-.23-.64-.23c-.82,0-1.23.71-1.23,2.13,0,.66.11,1.15.34,1.47.23.32.58.48,1.05.48.5,0,.95-.23,1.34-.7v.73c-.17.12-.39.22-.67.29-.28.07-.57.11-.88.11-.78,0-1.4-.22-1.86-.65s-.69-1.01-.69-1.72c0-.78.24-1.4.71-1.86.47-.46,1.12-.69,1.93-.69.23,0,.5.05.82.14.31.09.57.2.77.32l-.4.84h-.1Z"/>
      <path class="cls-12" d="M298.53,192.76c-.05.51-.07,1.2-.07,2.06.51,0,.84,0,.99-.03v.52c-.15-.02-.48-.03-.99-.03v3.44c0,.31.13.46.38.46.1,0,.21-.03.31-.1.1-.06.19-.15.26-.26h.05v.64c-.24.09-.51.14-.83.14-.45,0-.8-.12-1.04-.35s-.36-.57-.36-1.02v-2.95c-.33,0-.56,0-.71.03v-.52c.15.02.38.03.71.03,0-.59-.02-1.1-.07-1.54l1.36-.52Z"/>
      <path class="cls-12" d="M302.75,195.84c-.28-.49-.61-.74-1-.74-.21,0-.37.04-.5.14s-.19.21-.19.36c0,.22.14.4.43.54l.77.37c.4.19.69.42.86.67.18.26.27.57.27.94,0,.46-.16.82-.48,1.08-.32.27-.76.4-1.32.4-.25,0-.51-.03-.77-.09-.26-.06-.47-.14-.63-.23v-1.01h.1c.16.28.36.51.59.67.23.16.47.24.71.24s.45-.05.6-.17c.15-.11.22-.26.22-.43,0-.3-.14-.52-.42-.66l-.88-.42c-.62-.31-.94-.78-.94-1.42,0-.42.14-.75.42-1.01.28-.26.65-.39,1.11-.39.61,0,1.1.13,1.48.38l-.35.78h-.1Z"/>
    </g>
  </g>
</svg>