<?xml version="1.0" encoding="UTF-8"?>
<svg xmlns="http://www.w3.org/2000/svg" version="1.1" viewBox="0 0 453 282.3">
  <defs>
    <style>
      .cls-1 {
        stroke: #b6ccbd;
      }

      .cls-1, .cls-2, .cls-3, .cls-4, .cls-5, .cls-6, .cls-7, .cls-8, .cls-9 {
        stroke-miterlimit: 10;
        stroke-width: .2px;
      }

      .cls-1, .cls-3 {
        fill: #ddeedf;
      }

      .cls-10 {
        fill: #58595b;
      }

      .cls-10, .cls-11, .cls-12 {
        stroke-width: 0px;
      }

      .cls-11 {
        fill: #231f20;
      }

      .cls-2 {
        fill: #b6ccbd;
      }

      .cls-2, .cls-3, .cls-4, .cls-6, .cls-7, .cls-9 {
        stroke: #414042;
      }

      .cls-4, .cls-8 {
        fill: #f0f9fe;
      }

      .cls-12 {
        fill: #fff;
      }

      .cls-5 {
        stroke: #f7a6a8;
      }

      .cls-5, .cls-9 {
        fill: #fcd6d6;
      }

      .cls-6 {
        fill: #f7a6a8;
      }

      .cls-7 {
        fill: #aedced;
      }

      .cls-8 {
        stroke: #aedced;
      }
    </style>
  </defs>
  <g id="Shapes">
    <circle id="top_large" data-name="top large" class="cls-8" cx="226.5" cy="90" r="60"/>
    <circle id="left_large" data-name="left large" class="cls-5" cx="168" cy="191.3" r="60"/>
    <circle id="right_large" data-name="right large" class="cls-1" cx="285" cy="191.8" r="60"/>
    <g id="triangle">
      <g>
        <polygon class="cls-12" points="226.5 90 168 191.3 285 191.3 226.5 90"/>
        <path class="cls-10" d="M226.5,90.1c-14.4,25.4-43.4,76.3-57.9,101.6,0,0-.6-1.1-.6-1.1,29.2-.2,87.8-.2,117,0,0,0-.6,1.1-.6,1.1-14.5-25.3-43.5-76.3-57.9-101.6h0ZM226.5,90c0,.1,59,101.6,58.5,101.4,0,0-117,0-117,0-.5.1,58.6-101.3,58.5-101.4h0Z"/>
      </g>
    </g>
    <path id="top_small" data-name="top small" class="cls-7" d="M226.3,119c-15.6,0-28.3-12.8-28.3-28.6s12.7-28.6,28.3-28.6,28.3,12.8,28.3,28.6-12.7,28.6-28.3,28.6Z"/>
    <path id="left_small" data-name="left small" class="cls-6" d="M167.2,221.7c-17,0-30.8-13.6-30.8-30.2s13.8-30.2,30.8-30.2,30.8,13.6,30.8,30.2-13.8,30.2-30.8,30.2Z"/>
    <path id="right_small" data-name="right small" class="cls-2" d="M286,221.7c-17.3,0-31.3-13.1-31.3-29.1s14.1-29.1,31.3-29.1,31.3,13.1,31.3,29.1-14.1,29.1-31.3,29.1Z"/>
    <rect class="cls-9" x="66" y="141.1" width="62.3" height="32.3" rx="2" ry="2"/>
    <g>
      <path class="cls-11" d="M85,153.3c-.8,0-1.5-.1-2.1-.4s-1-.6-1.3-1.1-.5-1-.5-1.5h1.2c0,.4.2.8.4,1.1s.5.5.9.7.8.2,1.4.2.8,0,1.1-.2.6-.3.7-.5.3-.5.3-.9-.1-.7-.3-.9-.5-.4-.9-.5-.9-.2-1.4-.4c-.4,0-.8-.2-1.1-.3s-.7-.3-.9-.4-.5-.4-.6-.7-.2-.6-.2-1.1.1-.9.4-1.3.6-.6,1.1-.8,1-.3,1.6-.3,1,0,1.4.2.7.3,1,.5.5.5.6.8.3.7.3,1.1h-1.2c0-.5-.3-1-.7-1.2s-.9-.4-1.5-.4-1.1.1-1.4.4-.5.6-.5,1,0,.6.3.8.5.3.8.4.7.2,1.2.3c.4,0,.8.2,1.2.3s.7.3,1.1.5.6.5.7.8.3.7.3,1.2-.1,1-.4,1.4-.7.7-1.2.9-1.1.3-1.7.3Z"/>
      <path class="cls-11" d="M92.5,153.3c-.6,0-1.2-.2-1.7-.5s-.8-.7-1.1-1.2-.4-1.1-.4-1.7.1-1.2.4-1.7.6-.9,1.1-1.2,1-.5,1.7-.5,1,0,1.4.3.7.4.9.8.4.7.5,1.2h-1.1c0-.3-.1-.5-.3-.7s-.3-.4-.6-.5-.5-.2-.8-.2-.8.1-1.1.3-.5.5-.7.9-.2.8-.2,1.3,0,.9.2,1.3.4.7.7.9.7.3,1.1.3.9-.1,1.2-.4.5-.7.5-1.1h1.1c0,.5-.2,1-.4,1.3s-.6.6-1,.8-.9.3-1.4.3Z"/>
      <path class="cls-11" d="M96.4,153.1v-6.4h1.1v1.2h0c.2-.4.5-.7.8-.9s.7-.3,1.1-.3.2,0,.2,0,.1,0,.2,0v1.1h0c0,0-.1,0-.2,0s-.1,0-.2,0c-.2,0-.5,0-.7.1s-.4.2-.6.4-.3.4-.4.6-.1.5-.1.8v3.5h-1.1Z"/>
      <path class="cls-11" d="M103.1,153.3c-.4,0-.8,0-1.2-.3s-.6-.4-.8-.7-.3-.7-.3-1.2v-4.4h1.1v4.4c0,.4.1.7.4,1s.6.3,1,.3.6,0,.9-.2.4-.4.6-.6.2-.6.2-.9v-3.9h1.1v6.4h-1.1v-.9h0c-.1.2-.3.4-.5.6s-.4.3-.6.4-.5.1-.8.1Z"/>
      <path class="cls-11" d="M107.7,153.1v-6.4h1.1v1h0c.1-.2.3-.4.5-.6s.4-.3.6-.4.5-.1.8-.1c.4,0,.7.1,1,.3s.5.5.6.9h0c.2-.4.5-.7.9-.9s.7-.3,1.1-.3.7,0,1,.2.5.4.7.7.3.7.3,1.1v4.5h-1.1v-4.4c0-.4-.1-.7-.3-.9s-.5-.3-.8-.3-.5,0-.8.2-.4.3-.6.6-.2.5-.2.9v4h-1.1v-4.4c0-.4-.1-.7-.3-.9s-.5-.3-.8-.3-.5,0-.8.2-.4.3-.6.6-.2.5-.2.9v4h-1.1Z"/>
      <path class="cls-11" d="M80.4,167.5v-6.4h1.1v1h0c.1-.2.3-.4.5-.6s.4-.3.6-.4.5-.1.8-.1c.4,0,.7.1,1,.3s.5.5.6.9h0c.2-.4.5-.7.9-.9s.7-.3,1.1-.3.7,0,1,.2.5.4.7.7.3.7.3,1.1v4.5h-1.1v-4.4c0-.4-.1-.7-.3-.9s-.5-.3-.8-.3-.5,0-.8.2-.4.3-.6.6-.2.5-.2.9v4h-1.1v-4.4c0-.4-.1-.7-.3-.9s-.5-.3-.8-.3-.5,0-.8.2-.4.3-.6.6-.2.5-.2.9v4h-1.1Z"/>
      <path class="cls-11" d="M92.5,167.7c-.4,0-.8,0-1.1-.2s-.6-.3-.8-.6-.3-.6-.3-1,.1-.9.3-1.2.6-.5,1-.6.9-.2,1.5-.3c.3,0,.6,0,.8-.1s.4-.1.5-.3.2-.3.2-.5c0-.3-.1-.6-.4-.8s-.6-.3-1-.3-.9.1-1.1.3-.4.5-.4.9h-1.1c0-.4.1-.7.3-1s.5-.6.9-.8.9-.3,1.4-.3.6,0,.9,0,.5.1.7.3c.3.2.5.4.6.7s.2.6.2,1.1v3c0,.2,0,.4.1.5s.2.2.4.2,0,0,.1,0,0,0,0,0h0v.8c0,0-.2,0-.3,0s-.2,0-.3,0c-.2,0-.4,0-.6-.1s-.3-.2-.4-.4-.1-.5-.1-.8h0c0,0,0,.3,0,.3h0c-.2.3-.5.5-.8.8s-.8.3-1.3.3ZM92.8,166.8c.4,0,.8,0,1.1-.3s.5-.4.6-.7.2-.5.2-.8v-1.1c-.1,0-.2.1-.4.2s-.3.1-.5.2-.3,0-.5.1c-.4,0-.7.1-.9.2s-.5.2-.6.4-.2.4-.2.7,0,.5.2.6.3.3.5.3.4,0,.6,0Z"/>
      <path class="cls-11" d="M99.8,167.7c-.6,0-1.1,0-1.5-.3s-.7-.4-1-.8-.4-.7-.4-1.1h1.1c0,.5.3.8.6,1s.7.3,1.2.3.9,0,1.1-.3.3-.4.3-.7,0-.4-.2-.6-.3-.2-.6-.3-.6-.2-.9-.2c-.3,0-.6-.1-.9-.2s-.5-.2-.8-.3-.4-.3-.5-.5-.2-.5-.2-.9,0-.7.3-1,.5-.5.8-.6.8-.2,1.3-.2,1,0,1.4.2.6.4.8.7.3.6.4,1h-1.1c0-.2-.1-.4-.2-.6s-.3-.3-.5-.3-.5-.1-.8-.1c-.4,0-.8,0-1,.3s-.3.4-.3.6,0,.4.2.5.3.2.6.3.6.1.9.2c.3,0,.6.1.9.2s.5.2.8.3.4.3.5.6.2.5.2.9-.1.8-.3,1.1-.5.5-.9.7-.8.2-1.3.2Z"/>
      <path class="cls-11" d="M105.6,167.6c-.3,0-.5,0-.8-.1s-.4-.2-.5-.4-.2-.4-.2-.8v-4.3h-1v-.9h1v-2h1.1v2h1.3v.9h-1.3v4.1c0,.2,0,.4.2.5s.3.1.5.1.2,0,.3,0,.2,0,.3,0h0v.9c-.1,0-.3,0-.5,0s-.3,0-.5,0Z"/>
      <path class="cls-11" d="M110.5,167.7c-.7,0-1.2-.2-1.7-.5s-.8-.7-1.1-1.2-.4-1.1-.4-1.7.1-1.2.4-1.7.6-.9,1.1-1.2,1-.5,1.6-.5.9,0,1.3.3.7.4.9.7c.3.3.5.7.6,1.2s.2,1,.2,1.5h-4.9c0,.4.1.8.3,1.1s.4.6.7.8.6.3,1.1.3.8,0,1.1-.3.5-.5.6-.8h1.1c0,.4-.3.7-.5,1.1s-.6.5-1,.7-.8.3-1.3.3ZM108.5,163.8h3.7c0-.4-.1-.8-.2-1.1s-.3-.5-.6-.7-.6-.2-1-.2-.7,0-1,.3-.5.4-.6.7-.3.6-.3,1Z"/>
      <path class="cls-11" d="M114.6,167.5v-6.4h1.1v1.2h0c.2-.4.5-.7.8-.9s.7-.3,1.1-.3.2,0,.2,0,.1,0,.2,0v1.1h0c0,0-.1,0-.2,0s-.1,0-.2,0c-.2,0-.5,0-.7.1s-.4.2-.6.4-.3.4-.4.6-.1.5-.1.8v3.5h-1.1Z"/>
    </g>
    <rect class="cls-9" x="55.3" y="194" width="66.5" height="35.7" rx="2" ry="2"/>
    <g>
      <path class="cls-11" d="M68.4,209v-8.9h3.8c.5,0,.9,0,1.3.2s.7.4.9.6c.2.2.4.5.5.8s.2.6.2,1c0,.5-.1,1-.3,1.4s-.5.7-1,.9-1,.3-1.6.3h-2.4v3.7h-1.2ZM69.6,204.3h2.3c.6,0,1.1-.1,1.3-.4s.4-.7.4-1.2-.2-.9-.5-1.2-.7-.4-1.3-.4h-2.3v3.2Z"/>
      <path class="cls-11" d="M76,209v-6.4h1.1v1.2h0c.2-.4.5-.7.8-.9s.7-.3,1.1-.3.2,0,.2,0,.1,0,.2,0v1.1h0c0,0-.1,0-.2,0s-.1,0-.2,0c-.2,0-.5,0-.7.1s-.4.2-.6.4-.3.4-.4.6-.1.5-.1.8v3.5h-1.1Z"/>
      <path class="cls-11" d="M83.1,209.2c-.6,0-1.2-.2-1.7-.5s-.8-.7-1.1-1.2-.4-1.1-.4-1.7.1-1.2.4-1.7.6-.9,1.1-1.2,1-.5,1.7-.5,1.2.2,1.7.5.8.7,1.1,1.2.4,1.1.4,1.7-.1,1.2-.4,1.7-.6.9-1.1,1.2-1,.5-1.7.5ZM83.1,208.2c.4,0,.8-.1,1.1-.3s.5-.5.7-.9.2-.8.2-1.3,0-.9-.2-1.3-.4-.7-.7-.9-.7-.3-1.1-.3-.8.1-1.1.3-.5.5-.7.9-.2.8-.2,1.3,0,.9.2,1.3.4.7.7.9.7.3,1.1.3Z"/>
      <path class="cls-11" d="M89.9,209.2c-.6,0-1.1-.1-1.5-.4s-.8-.7-1-1.2-.3-1.1-.3-1.8.1-1.3.4-1.8.6-.9,1-1.2.9-.4,1.4-.4.6,0,.8.1.5.2.7.4.4.4.5.6h0c0-.1,0-.3,0-.5s0-.4,0-.6v-2.3h1.1v8.9h-1.1v-.9h0c-.2.3-.5.6-.8.8s-.7.3-1.2.3ZM90,208.2c.5,0,.8-.1,1.1-.3s.5-.5.6-.9.2-.8.2-1.3,0-.9-.2-1.3-.4-.7-.7-.9-.7-.3-1.1-.3-.7.1-1,.3-.5.5-.6.9-.2.8-.2,1.3,0,.9.2,1.3.3.7.6.9.6.3,1,.3Z"/>
      <path class="cls-11" d="M96.7,209.1c-.4,0-.8,0-1.2-.3s-.6-.4-.8-.7-.3-.7-.3-1.2v-4.4h1.1v4.4c0,.4.1.7.4,1s.6.3,1,.3.6,0,.9-.2.4-.4.6-.6.2-.6.2-.9v-3.9h1.1v6.4h-1.1v-.9h0c-.1.2-.3.4-.5.6s-.4.3-.6.4-.5.1-.8.1Z"/>
      <path class="cls-11" d="M104.1,209.2c-.6,0-1.2-.2-1.7-.5s-.8-.7-1.1-1.2-.4-1.1-.4-1.7.1-1.2.4-1.7.6-.9,1.1-1.2,1-.5,1.7-.5,1,0,1.4.3.7.4.9.8.4.7.5,1.2h-1.1c0-.3-.1-.5-.3-.7s-.3-.4-.6-.5-.5-.2-.8-.2-.8.1-1.1.3-.5.5-.7.9-.2.8-.2,1.3,0,.9.2,1.3.4.7.7.9.7.3,1.1.3.9-.1,1.2-.4.5-.7.5-1.1h1.1c0,.5-.2,1-.4,1.3s-.6.6-1,.8-.9.3-1.4.3Z"/>
      <path class="cls-11" d="M110.1,209c-.3,0-.5,0-.8-.1s-.4-.2-.5-.4-.2-.4-.2-.8v-4.3h-1v-.9h1v-2h1.1v2h1.3v.9h-1.3v4.1c0,.2,0,.4.2.5s.3.1.5.1.2,0,.3,0,.2,0,.3,0h0v.9c-.1,0-.3,0-.5,0s-.3,0-.5,0Z"/>
      <path class="cls-11" d="M75.7,223.6c-.6,0-1.2-.2-1.7-.5s-.8-.7-1.1-1.2-.4-1.1-.4-1.7.1-1.2.4-1.7.6-.9,1.1-1.2,1-.5,1.7-.5,1.2.2,1.7.5.8.7,1.1,1.2.4,1.1.4,1.7-.1,1.2-.4,1.7-.6.9-1.1,1.2-1,.5-1.7.5ZM75.7,222.6c.4,0,.8-.1,1.1-.3s.5-.5.7-.9.2-.8.2-1.3,0-.9-.2-1.3-.4-.7-.7-.9-.7-.3-1.1-.3-.8.1-1.1.3-.5.5-.7.9-.2.8-.2,1.3,0,.9.2,1.3.4.7.7.9.7.3,1.1.3Z"/>
      <path class="cls-11" d="M81.3,223.4l-2-6.4h1.2l1,3.6c0,.2.1.4.2.6s0,.4.1.6,0,.4.1.7h0c0-.2,0-.4.1-.6s0-.4.1-.6.1-.4.2-.6l1-3.6h1.1l1,3.6c0,.2,0,.4.1.6s0,.4.1.6,0,.4.1.7h0c0-.2,0-.5.1-.7s0-.4.1-.6.1-.4.2-.6l1.1-3.6h1.2l-2.1,6.4h-1.1l-.9-3.6c0-.2,0-.3-.1-.5s0-.4-.1-.6,0-.4-.1-.7h0c0,.3,0,.5-.1.7s0,.4-.1.6,0,.4-.1.5l-1,3.6h-1.1Z"/>
      <path class="cls-11" d="M89.3,223.4v-6.4h1.1v.9h0c.2-.2.3-.4.5-.6s.4-.3.7-.4.5-.1.8-.1c.4,0,.8,0,1.2.2s.6.4.7.7.3.7.3,1.1v4.5h-1.1v-4.4c0-.4-.1-.7-.4-1s-.6-.3-1-.3-.6,0-.9.2-.5.4-.6.6-.2.6-.2.9v3.9h-1.1Z"/>
      <path class="cls-11" d="M98.9,223.6c-.7,0-1.2-.2-1.7-.5s-.8-.7-1.1-1.2-.4-1.1-.4-1.7.1-1.2.4-1.7.6-.9,1.1-1.2,1-.5,1.6-.5.9,0,1.3.3.7.4.9.7c.3.3.5.7.6,1.2s.2,1,.2,1.5h-4.9c0,.4.1.8.3,1.1s.4.6.7.8.6.3,1.1.3.8,0,1.1-.3.5-.5.6-.8h1.1c0,.4-.3.7-.5,1.1s-.6.5-1,.7-.8.3-1.3.3ZM96.9,219.6h3.7c0-.4-.1-.8-.2-1.1s-.3-.5-.6-.7-.6-.2-1-.2-.7,0-1,.3-.5.4-.6.7-.3.6-.3,1Z"/>
      <path class="cls-11" d="M103,223.4v-6.4h1.1v1.2h0c.2-.4.5-.7.8-.9s.7-.3,1.1-.3.2,0,.2,0,.1,0,.2,0v1.1h0c0,0-.1,0-.2,0s-.1,0-.2,0c-.2,0-.5,0-.7.1s-.4.2-.6.4-.3.4-.4.6-.1.5-.1.8v3.5h-1.1Z"/>
    </g>
    <rect class="cls-9" x="103" y="242.1" width="74" height="23.1" rx="2" ry="2"/>
    <g>
      <path class="cls-11" d="M110.2,257.2v-8.9h3.3c.7,0,1.3.1,1.7.3s.9.5,1.2.9.6.9.7,1.4.2,1.2.2,1.8,0,1.3-.3,1.8-.4,1-.8,1.4-.8.7-1.3.9-1.1.3-1.8.3h-3.2ZM111.4,256.2h1.9c.7,0,1.2-.1,1.6-.4s.7-.7.9-1.2.3-1.1.3-1.8,0-1.3-.3-1.8-.5-.9-.9-1.2-.9-.4-1.6-.4h-2v6.8Z"/>
      <path class="cls-11" d="M121.6,257.4c-.7,0-1.2-.2-1.7-.5s-.8-.7-1.1-1.2-.4-1.1-.4-1.7.1-1.2.4-1.7.6-.9,1.1-1.2,1-.5,1.6-.5.9,0,1.3.3.7.4.9.7c.3.3.5.7.6,1.2s.2,1,.2,1.5h-4.9c0,.4.1.8.3,1.1s.4.6.7.8.6.3,1.1.3.8,0,1.1-.3.5-.5.6-.8h1.1c0,.4-.3.7-.5,1.1s-.6.5-1,.7-.8.3-1.3.3ZM119.6,253.5h3.7c0-.4-.1-.8-.2-1.1s-.3-.5-.6-.7-.6-.2-1-.2-.7,0-1,.3-.5.4-.6.7-.3.6-.3,1Z"/>
      <path class="cls-11" d="M127.1,257.2l-2.2-6.4h1.2l1.1,3.5c0,.2.1.4.2.7s.1.5.2.7.1.4.2.7h0c0-.3.1-.5.2-.7s.1-.4.2-.7.1-.5.2-.7l1.2-3.5h1.1l-2.3,6.4h-1.2Z"/>
      <path class="cls-11" d="M134.2,257.4c-.7,0-1.2-.2-1.7-.5s-.8-.7-1.1-1.2-.4-1.1-.4-1.7.1-1.2.4-1.7.6-.9,1.1-1.2,1-.5,1.6-.5.9,0,1.3.3.7.4.9.7c.3.3.5.7.6,1.2s.2,1,.2,1.5h-4.9c0,.4.1.8.3,1.1s.4.6.7.8.6.3,1.1.3.8,0,1.1-.3.5-.5.6-.8h1.1c0,.4-.3.7-.5,1.1s-.6.5-1,.7-.8.3-1.3.3ZM132.2,253.5h3.7c0-.4-.1-.8-.2-1.1s-.3-.5-.6-.7-.6-.2-1-.2-.7,0-1,.3-.5.4-.6.7-.3.6-.3,1Z"/>
      <path class="cls-11" d="M138.3,257.2v-8.9h1.1v8.9h-1.1Z"/>
      <path class="cls-11" d="M143.8,257.4c-.6,0-1.2-.2-1.7-.5s-.8-.7-1.1-1.2-.4-1.1-.4-1.7.1-1.2.4-1.7.6-.9,1.1-1.2,1-.5,1.7-.5,1.2.2,1.7.5.8.7,1.1,1.2.4,1.1.4,1.7-.1,1.2-.4,1.7-.6.9-1.1,1.2-1,.5-1.7.5ZM143.8,256.5c.4,0,.8-.1,1.1-.3s.5-.5.7-.9.2-.8.2-1.3,0-.9-.2-1.3-.4-.7-.7-.9-.7-.3-1.1-.3-.8.1-1.1.3-.5.5-.7.9-.2.8-.2,1.3,0,.9.2,1.3.4.7.7.9.7.3,1.1.3Z"/>
      <path class="cls-11" d="M148.2,259.4v-8.6h1.1v1h0c.2-.2.3-.5.5-.6s.4-.3.7-.4.5-.1.8-.1c.5,0,1,.1,1.4.4s.7.7,1,1.2.4,1.1.4,1.8-.1,1.3-.3,1.8-.5.9-1,1.2-.9.4-1.5.4-.8,0-1.2-.3-.6-.4-.8-.8h0c0,.1,0,.3,0,.4s0,.4,0,.6v2h-1.1ZM151.2,256.5c.4,0,.7-.1,1-.3s.5-.5.6-.9.2-.8.2-1.3,0-.9-.2-1.3-.3-.7-.6-.9-.6-.3-1-.3-.8.1-1.1.3-.5.5-.7.9-.2.8-.2,1.2,0,.9.2,1.2.3.7.6.9.7.3,1.1.3Z"/>
      <path class="cls-11" d="M158.1,257.4c-.7,0-1.2-.2-1.7-.5s-.8-.7-1.1-1.2-.4-1.1-.4-1.7.1-1.2.4-1.7.6-.9,1.1-1.2,1-.5,1.6-.5.9,0,1.3.3.7.4.9.7c.3.3.5.7.6,1.2s.2,1,.2,1.5h-4.9c0,.4.1.8.3,1.1s.4.6.7.8.6.3,1.1.3.8,0,1.1-.3.5-.5.6-.8h1.1c0,.4-.3.7-.5,1.1s-.6.5-1,.7-.8.3-1.3.3ZM156.1,253.5h3.7c0-.4-.1-.8-.2-1.1s-.3-.5-.6-.7-.6-.2-1-.2-.7,0-1,.3-.5.4-.6.7-.3.6-.3,1Z"/>
      <path class="cls-11" d="M162.2,257.2v-6.4h1.1v1.2h0c.2-.4.5-.7.8-.9s.7-.3,1.1-.3.2,0,.2,0,.1,0,.2,0v1.1h0c0,0-.1,0-.2,0s-.1,0-.2,0c-.2,0-.5,0-.7.1s-.4.2-.6.4-.3.4-.4.6-.1.5-.1.8v3.5h-1.1Z"/>
      <path class="cls-11" d="M169.3,257.4c-.6,0-1.1,0-1.5-.3s-.7-.4-1-.8-.4-.7-.4-1.1h1.1c0,.5.3.8.6,1s.7.3,1.2.3.9,0,1.1-.3.3-.4.3-.7,0-.4-.2-.6-.3-.2-.6-.3-.6-.2-.9-.2c-.3,0-.6-.1-.9-.2s-.5-.2-.8-.3-.4-.3-.5-.5-.2-.5-.2-.9,0-.7.3-1,.5-.5.8-.6.8-.2,1.3-.2,1,0,1.4.2.6.4.8.7.3.6.4,1h-1.1c0-.2-.1-.4-.2-.6s-.3-.3-.5-.3-.5-.1-.8-.1c-.4,0-.8,0-1,.3s-.3.4-.3.6,0,.4.2.5.3.2.6.3.6.1.9.2c.3,0,.6.1.9.2s.5.2.8.3.4.3.5.6.2.5.2.9-.1.8-.3,1.1-.5.5-.9.7-.8.2-1.3.2Z"/>
    </g>
    <rect class="cls-4" x="198" y="18.8" width="60" height="20" rx="2" ry="2"/>
    <g>
      <path class="cls-11" d="M216.2,33.4c-.8,0-1.5-.1-2.1-.4s-1-.6-1.3-1.1-.5-1-.5-1.5h1.2c0,.4.2.8.4,1.1s.5.5.9.7.8.2,1.4.2.8,0,1.1-.2.6-.3.7-.5.3-.5.3-.9-.1-.7-.3-.9-.5-.4-.9-.5-.9-.2-1.4-.4c-.4,0-.8-.2-1.1-.3s-.7-.3-.9-.4-.5-.4-.6-.7-.2-.6-.2-1.1.1-.9.4-1.3.6-.6,1.1-.8,1-.3,1.6-.3,1,0,1.4.2.7.3,1,.5.5.5.6.8.3.7.3,1.1h-1.2c0-.5-.3-1-.7-1.2s-.9-.4-1.5-.4-1.1.1-1.4.4-.5.6-.5,1,0,.6.3.8.5.3.8.4.7.2,1.2.3c.4,0,.8.2,1.2.3s.7.3,1.1.5.6.5.7.8.3.7.3,1.2-.1,1-.4,1.4-.7.7-1.2.9-1.1.3-1.7.3Z"/>
      <path class="cls-11" d="M220.8,35.4v-8.6h1.1v1h0c.2-.2.3-.5.5-.6s.4-.3.7-.4.5-.1.8-.1c.5,0,1,.1,1.4.4s.7.7,1,1.2.4,1.1.4,1.8-.1,1.3-.3,1.8-.5.9-1,1.2-.9.4-1.5.4-.8,0-1.2-.3-.6-.4-.8-.8h0c0,.1,0,.3,0,.4s0,.4,0,.6v2h-1.1ZM223.9,32.5c.4,0,.7-.1,1-.3s.5-.5.6-.9.2-.8.2-1.3,0-.9-.2-1.3-.3-.7-.6-.9-.6-.3-1-.3-.8.1-1.1.3-.5.5-.7.9-.2.8-.2,1.2,0,.9.2,1.2.3.7.6.9.7.3,1.1.3Z"/>
      <path class="cls-11" d="M228,33.2v-6.4h1.1v1.2h0c.2-.4.5-.7.8-.9s.7-.3,1.1-.3.2,0,.2,0,.1,0,.2,0v1.1h0c0,0-.1,0-.2,0s-.1,0-.2,0c-.2,0-.5,0-.7.1s-.4.2-.6.4-.3.4-.4.6-.1.5-.1.8v3.5h-1.1Z"/>
      <path class="cls-11" d="M232.5,25.6v-1.3h1.2v1.3h-1.2ZM232.5,33.2v-6.4h1.1v6.4h-1.1Z"/>
      <path class="cls-11" d="M235.2,33.2v-6.4h1.1v.9h0c.2-.2.3-.4.5-.6s.4-.3.7-.4.5-.1.8-.1c.4,0,.8,0,1.2.2s.6.4.7.7.3.7.3,1.1v4.5h-1.1v-4.4c0-.4-.1-.7-.4-1s-.6-.3-1-.3-.6,0-.9.2-.5.4-.6.6-.2.6-.2.9v3.9h-1.1Z"/>
      <path class="cls-11" d="M244,33.3c-.3,0-.5,0-.8-.1s-.4-.2-.5-.4-.2-.4-.2-.8v-4.3h-1v-.9h1v-2h1.1v2h1.3v.9h-1.3v4.1c0,.2,0,.4.2.5s.3.1.5.1.2,0,.3,0,.2,0,.3,0h0v.9c-.1,0-.3,0-.5,0s-.3,0-.5,0Z"/>
    </g>
    <rect class="cls-4" x="125.3" y="47.3" width="61.2" height="32" rx="2" ry="2"/>
    <g>
      <path class="cls-11" d="M144.6,60.8v-8.9h3.3c.7,0,1.3.1,1.7.3s.9.5,1.2.9.6.9.7,1.4.2,1.2.2,1.8,0,1.3-.3,1.8-.4,1-.8,1.4-.8.7-1.3.9-1.1.3-1.8.3h-3.2ZM145.8,59.7h1.9c.7,0,1.2-.1,1.6-.4s.7-.7.9-1.2.3-1.1.3-1.8,0-1.3-.3-1.8-.5-.9-.9-1.2-.9-.4-1.6-.4h-2v6.8Z"/>
      <path class="cls-11" d="M155,60.9c-.4,0-.8,0-1.1-.2s-.6-.3-.8-.6-.3-.6-.3-1,.1-.9.3-1.2.6-.5,1-.6.9-.2,1.5-.3c.3,0,.6,0,.8-.1s.4-.1.5-.3.2-.3.2-.5c0-.3-.1-.6-.4-.8s-.6-.3-1-.3-.9.1-1.1.3-.4.5-.4.9h-1.1c0-.4.1-.7.3-1s.5-.6.9-.8.9-.3,1.4-.3.6,0,.9,0,.5.1.7.3c.3.2.5.4.6.7s.2.6.2,1.1v3c0,.2,0,.4.1.5s.2.2.4.2,0,0,.1,0,0,0,0,0h0v.8c0,0-.2,0-.3,0s-.2,0-.3,0c-.2,0-.4,0-.6-.1s-.3-.2-.4-.4-.1-.5-.1-.8h0c0,0,0,.3,0,.3h0c-.2.3-.5.5-.8.8s-.8.3-1.3.3ZM155.3,60.1c.4,0,.8,0,1.1-.3s.5-.4.6-.7.2-.5.2-.8v-1.1c-.1,0-.2.1-.4.2s-.3.1-.5.2-.3,0-.5.1c-.4,0-.7.1-.9.2s-.5.2-.6.4-.2.4-.2.7,0,.5.2.6.3.3.5.3.4,0,.6,0Z"/>
      <path class="cls-11" d="M159.8,53.1v-1.3h1.2v1.3h-1.2ZM159.8,60.8v-6.4h1.1v6.4h-1.1Z"/>
      <path class="cls-11" d="M162.5,60.8v-8.9h1.1v8.9h-1.1Z"/>
      <path class="cls-11" d="M166,63c-.1,0-.2,0-.4,0s-.2,0-.3,0-.2,0-.2,0v-1h0c0,0,.2,0,.3,0s.3,0,.4,0,.3,0,.4,0,.2-.1.3-.2.2-.3.3-.5l.3-.7-2.5-6.2h1.2l1.3,3.6c0,.2.1.4.2.6s.1.4.2.6.1.4.2.6h0c0-.2.1-.4.2-.6s.1-.4.2-.6.1-.4.2-.6l1.3-3.6h1.2l-2.7,7c-.2.5-.4.8-.5,1s-.4.4-.6.5-.5.1-.7.1Z"/>
      <path class="cls-11" d="M143.1,75.3c-.6,0-1.1,0-1.5-.3s-.7-.4-1-.8-.4-.7-.4-1.1h1.1c0,.5.3.8.6,1s.7.3,1.2.3.9,0,1.1-.3.3-.4.3-.7,0-.4-.2-.6-.3-.2-.6-.3-.6-.2-.9-.2c-.3,0-.6-.1-.9-.2s-.5-.2-.8-.3-.4-.3-.5-.5-.2-.5-.2-.9,0-.7.3-1,.5-.5.8-.6.8-.2,1.3-.2,1,0,1.4.2.6.4.8.7.3.6.4,1h-1.1c0-.2-.1-.4-.2-.6s-.3-.3-.5-.3-.5-.1-.8-.1c-.4,0-.8,0-1,.3s-.3.4-.3.6,0,.4.2.5.3.2.6.3.6.1.9.2c.3,0,.6.1.9.2s.5.2.8.3.4.3.5.6.2.5.2.9-.1.8-.3,1.1-.5.5-.9.7-.8.2-1.3.2Z"/>
      <path class="cls-11" d="M149.8,75.3c-.6,0-1.2-.2-1.7-.5s-.8-.7-1.1-1.2-.4-1.1-.4-1.7.1-1.2.4-1.7.6-.9,1.1-1.2,1-.5,1.7-.5,1,0,1.4.3.7.4.9.8.4.7.5,1.2h-1.1c0-.3-.1-.5-.3-.7s-.3-.4-.6-.5-.5-.2-.8-.2-.8.1-1.1.3-.5.5-.7.9-.2.8-.2,1.3,0,.9.2,1.3.4.7.7.9.7.3,1.1.3.9-.1,1.2-.4.5-.7.5-1.1h1.1c0,.5-.2,1-.4,1.3s-.6.6-1,.8-.9.3-1.4.3Z"/>
      <path class="cls-11" d="M153.7,75.2v-6.4h1.1v1.2h0c.2-.4.5-.7.8-.9s.7-.3,1.1-.3.2,0,.2,0,.1,0,.2,0v1.1h0c0,0-.1,0-.2,0s-.1,0-.2,0c-.2,0-.5,0-.7.1s-.4.2-.6.4-.3.4-.4.6-.1.5-.1.8v3.5h-1.1Z"/>
      <path class="cls-11" d="M160.4,75.3c-.4,0-.8,0-1.2-.3s-.6-.4-.8-.7-.3-.7-.3-1.2v-4.4h1.1v4.4c0,.4.1.7.4,1s.6.3,1,.3.6,0,.9-.2.4-.4.6-.6.2-.6.2-.9v-3.9h1.1v6.4h-1.1v-.9h0c-.1.2-.3.4-.5.6s-.4.3-.6.4-.5.1-.8.1Z"/>
      <path class="cls-11" d="M165,75.2v-6.4h1.1v1h0c.1-.2.3-.4.5-.6s.4-.3.6-.4.5-.1.8-.1c.4,0,.7.1,1,.3s.5.5.6.9h0c.2-.4.5-.7.9-.9s.7-.3,1.1-.3.7,0,1,.2.5.4.7.7.3.7.3,1.1v4.5h-1.1v-4.4c0-.4-.1-.7-.3-.9s-.5-.3-.8-.3-.5,0-.8.2-.4.3-.6.6-.2.5-.2.9v4h-1.1v-4.4c0-.4-.1-.7-.3-.9s-.5-.3-.8-.3-.5,0-.8.2-.4.3-.6.6-.2.5-.2.9v4h-1.1Z"/>
    </g>
    <rect class="cls-4" x="112.7" y="94.6" width="72.3" height="32.1" rx="2" ry="2"/>
    <g>
      <path class="cls-11" d="M138.5,106.7c-.8,0-1.5-.1-2.1-.4s-1-.6-1.3-1.1-.5-1-.5-1.5h1.2c0,.4.2.8.4,1.1s.5.5.9.7.8.2,1.4.2.8,0,1.1-.2.6-.3.7-.5.3-.5.3-.9-.1-.7-.3-.9-.5-.4-.9-.5-.9-.2-1.4-.4c-.4,0-.8-.2-1.1-.3s-.7-.3-.9-.4-.5-.4-.6-.7-.2-.6-.2-1.1.1-.9.4-1.3.6-.6,1.1-.8,1-.3,1.6-.3,1,0,1.4.2.7.3,1,.5.5.5.6.8.3.7.3,1.1h-1.2c0-.5-.3-1-.7-1.2s-.9-.4-1.5-.4-1.1.1-1.4.4-.5.6-.5,1,0,.6.3.8.5.3.8.4.7.2,1.2.3c.4,0,.8.2,1.2.3s.7.3,1.1.5.6.5.7.8.3.7.3,1.2-.1,1-.4,1.4-.7.7-1.2.9-1.1.3-1.7.3Z"/>
      <path class="cls-11" d="M143.1,108.7v-8.6h1.1v1h0c.2-.2.3-.5.5-.6s.4-.3.7-.4.5-.1.8-.1c.5,0,1,.1,1.4.4s.7.7,1,1.2.4,1.1.4,1.8-.1,1.3-.3,1.8-.5.9-1,1.2-.9.4-1.5.4-.8,0-1.2-.3-.6-.4-.8-.8h0c0,.1,0,.3,0,.4s0,.4,0,.6v2h-1.1ZM146.1,105.8c.4,0,.7-.1,1-.3s.5-.5.6-.9.2-.8.2-1.3,0-.9-.2-1.3-.3-.7-.6-.9-.6-.3-1-.3-.8.1-1.1.3-.5.5-.7.9-.2.8-.2,1.2,0,.9.2,1.2.3.7.6.9.7.3,1.1.3Z"/>
      <path class="cls-11" d="M150.2,106.5v-6.4h1.1v1.2h0c.2-.4.5-.7.8-.9s.7-.3,1.1-.3.2,0,.2,0,.1,0,.2,0v1.1h0c0,0-.1,0-.2,0s-.1,0-.2,0c-.2,0-.5,0-.7.1s-.4.2-.6.4-.3.4-.4.6-.1.5-.1.8v3.5h-1.1Z"/>
      <path class="cls-11" d="M154.8,98.9v-1.3h1.2v1.3h-1.2ZM154.8,106.5v-6.4h1.1v6.4h-1.1Z"/>
      <path class="cls-11" d="M157.4,106.5v-6.4h1.1v.9h0c.2-.2.3-.4.5-.6s.4-.3.7-.4.5-.1.8-.1c.4,0,.8,0,1.2.2s.6.4.7.7.3.7.3,1.1v4.5h-1.1v-4.4c0-.4-.1-.7-.4-1s-.6-.3-1-.3-.6,0-.9.2-.5.4-.6.6-.2.6-.2.9v3.9h-1.1Z"/>
      <path class="cls-11" d="M166.2,106.6c-.3,0-.5,0-.8-.1s-.4-.2-.5-.4-.2-.4-.2-.8v-4.3h-1v-.9h1v-2h1.1v2h1.3v.9h-1.3v4.1c0,.2,0,.4.2.5s.3.1.5.1.2,0,.3,0,.2,0,.3,0h0v.9c-.1,0-.3,0-.5,0s-.3,0-.5,0Z"/>
      <path class="cls-11" d="M128.2,123.1v-8.6h1.1v1h0c.2-.2.3-.5.5-.6s.4-.3.7-.4.5-.1.8-.1c.5,0,1,.1,1.4.4s.7.7,1,1.2.4,1.1.4,1.8-.1,1.3-.3,1.8-.5.9-1,1.2-.9.4-1.5.4-.8,0-1.2-.3-.6-.4-.8-.8h0c0,.1,0,.3,0,.4s0,.4,0,.6v2h-1.1ZM131.3,120.2c.4,0,.7-.1,1-.3s.5-.5.6-.9.2-.8.2-1.3,0-.9-.2-1.3-.3-.7-.6-.9-.6-.3-1-.3-.8.1-1.1.3-.5.5-.7.9-.2.8-.2,1.2,0,.9.2,1.2.3.7.6.9.7.3,1.1.3Z"/>
      <path class="cls-11" d="M135.4,120.9v-8.9h1.1v8.9h-1.1Z"/>
      <path class="cls-11" d="M140,121.1c-.4,0-.8,0-1.1-.2s-.6-.3-.8-.6-.3-.6-.3-1,.1-.9.3-1.2.6-.5,1-.6.9-.2,1.5-.3c.3,0,.6,0,.8-.1s.4-.1.5-.3.2-.3.2-.5c0-.3-.1-.6-.4-.8s-.6-.3-1-.3-.9.1-1.1.3-.4.5-.4.9h-1.1c0-.4.1-.7.3-1s.5-.6.9-.8.9-.3,1.4-.3.6,0,.9,0,.5.1.7.3c.3.2.5.4.6.7s.2.6.2,1.1v3c0,.2,0,.4.1.5s.2.2.4.2,0,0,.1,0,0,0,0,0h0v.8c0,0-.2,0-.3,0s-.2,0-.3,0c-.2,0-.4,0-.6-.1s-.3-.2-.4-.4-.1-.5-.1-.8h0c0,0,0,.3,0,.3h0c-.2.3-.5.5-.8.8s-.8.3-1.3.3ZM140.3,120.2c.4,0,.8,0,1.1-.3s.5-.4.6-.7.2-.5.2-.8v-1.1c-.1,0-.2.1-.4.2s-.3.1-.5.2-.3,0-.5.1c-.4,0-.7.1-.9.2s-.5.2-.6.4-.2.4-.2.7,0,.5.2.6.3.3.5.3.4,0,.6,0Z"/>
      <path class="cls-11" d="M144.8,120.9v-6.4h1.1v.9h0c.2-.2.3-.4.5-.6s.4-.3.7-.4.5-.1.8-.1c.4,0,.8,0,1.2.2s.6.4.7.7.3.7.3,1.1v4.5h-1.1v-4.4c0-.4-.1-.7-.4-1s-.6-.3-1-.3-.6,0-.9.2-.5.4-.6.6-.2.6-.2.9v3.9h-1.1Z"/>
      <path class="cls-11" d="M151.7,120.9v-6.4h1.1v.9h0c.2-.2.3-.4.5-.6s.4-.3.7-.4.5-.1.8-.1c.4,0,.8,0,1.2.2s.6.4.7.7.3.7.3,1.1v4.5h-1.1v-4.4c0-.4-.1-.7-.4-1s-.6-.3-1-.3-.6,0-.9.2-.5.4-.6.6-.2.6-.2.9v3.9h-1.1Z"/>
      <path class="cls-11" d="M158.5,113.3v-1.3h1.2v1.3h-1.2ZM158.5,120.9v-6.4h1.1v6.4h-1.1Z"/>
      <path class="cls-11" d="M161.2,120.9v-6.4h1.1v.9h0c.2-.2.3-.4.5-.6s.4-.3.7-.4.5-.1.8-.1c.4,0,.8,0,1.2.2s.6.4.7.7.3.7.3,1.1v4.5h-1.1v-4.4c0-.4-.1-.7-.4-1s-.6-.3-1-.3-.6,0-.9.2-.5.4-.6.6-.2.6-.2.9v3.9h-1.1Z"/>
      <path class="cls-11" d="M170.8,123.2c-.8,0-1.5-.2-2-.5s-.7-.8-.8-1.3h1c0,.3.2.6.5.7s.7.2,1.2.2,1-.1,1.3-.4.5-.7.5-1.2v-.2c0-.2,0-.4,0-.5s0-.3,0-.4h0c-.2.3-.5.6-.8.8s-.7.3-1.1.3-1-.1-1.5-.4-.8-.6-1-1.1-.4-1-.4-1.6.1-1.2.4-1.7.6-.8,1-1.1.9-.4,1.4-.4.6,0,.8.1.5.2.6.3.3.3.5.6h0v-.9h1.1v6.2c0,.4,0,.8-.2,1.1s-.3.6-.6.8c-.2.2-.6.4-.9.5s-.7.1-1.2.1ZM170.7,119.7c.5,0,.8-.1,1.1-.3s.5-.5.6-.8.2-.7.2-1.2,0-.8-.2-1.2-.3-.6-.6-.8-.6-.3-1.1-.3-.7,0-1,.3-.5.4-.6.8-.2.7-.2,1.2,0,.9.2,1.2.3.6.6.8.6.3,1,.3Z"/>
    </g>
    <rect class="cls-4" x="251.5" y="52.9" width="89.8" height="17.7" rx="2" ry="2"/>
    <g>
      <path class="cls-11" d="M257.9,65v-8.9h4.2c.5,0,1,.1,1.4.3s.7.5.9.9.3.8.3,1.3-.1,1-.4,1.4-.7.7-1.3.8h0c.3.1.6.3.8.4s.3.4.4.7.1.6.2,1.1c0,.3,0,.6,0,.8s0,.4,0,.6,0,.3.1.4,0,.2.1.2h0c0,0-1.3,0-1.3,0,0,0-.1-.2-.2-.3s0-.3,0-.6,0-.6,0-1.1c0-.6-.2-1.1-.5-1.3s-.7-.4-1.3-.4h-2.4v3.7h-1.2ZM259.1,60.3h2.6c.6,0,1.1-.1,1.4-.4s.5-.7.5-1.2-.1-.9-.4-1.2-.7-.4-1.3-.4h-2.6v3.2Z"/>
      <path class="cls-11" d="M268.9,65.1c-.7,0-1.2-.2-1.7-.5s-.8-.7-1.1-1.2-.4-1.1-.4-1.7.1-1.2.4-1.7.6-.9,1.1-1.2,1-.5,1.6-.5.9,0,1.3.3.7.4.9.7c.3.3.5.7.6,1.2s.2,1,.2,1.5h-4.9c0,.4.1.8.3,1.1s.4.6.7.8.6.3,1.1.3.8,0,1.1-.3.5-.5.6-.8h1.1c0,.4-.3.7-.5,1.1s-.6.5-1,.7-.8.3-1.3.3ZM266.9,61.2h3.7c0-.4-.1-.8-.2-1.1s-.3-.5-.6-.7-.6-.2-1-.2-.7,0-1,.3-.5.4-.6.7-.3.6-.3,1Z"/>
      <path class="cls-11" d="M275,65c-.3,0-.5,0-.8-.1s-.4-.2-.5-.4-.2-.4-.2-.8v-4.3h-1v-.9h1v-2h1.1v2h1.3v.9h-1.3v4.1c0,.2,0,.4.2.5s.3.1.5.1.2,0,.3,0,.2,0,.3,0h0v.9c-.1,0-.3,0-.5,0s-.3,0-.5,0Z"/>
      <path class="cls-11" d="M277.1,65v-6.4h1.1v1.2h0c.2-.4.5-.7.8-.9s.7-.3,1.1-.3.2,0,.2,0,.1,0,.2,0v1.1h0c0,0-.1,0-.2,0s-.1,0-.2,0c-.2,0-.5,0-.7.1s-.4.2-.6.4-.3.4-.4.6-.1.5-.1.8v3.5h-1.1Z"/>
      <path class="cls-11" d="M284.2,65.1c-.6,0-1.2-.2-1.7-.5s-.8-.7-1.1-1.2-.4-1.1-.4-1.7.1-1.2.4-1.7.6-.9,1.1-1.2,1-.5,1.7-.5,1.2.2,1.7.5.8.7,1.1,1.2.4,1.1.4,1.7-.1,1.2-.4,1.7-.6.9-1.1,1.2-1,.5-1.7.5ZM284.2,64.2c.4,0,.8-.1,1.1-.3s.5-.5.7-.9.2-.8.2-1.3,0-.9-.2-1.3-.4-.7-.7-.9-.7-.3-1.1-.3-.8.1-1.1.3-.5.5-.7.9-.2.8-.2,1.3,0,.9.2,1.3.4.7.7.9.7.3,1.1.3Z"/>
      <path class="cls-11" d="M291,65.1c-.6,0-1.1,0-1.5-.3s-.7-.4-1-.8-.4-.7-.4-1.1h1.1c0,.5.3.8.6,1s.7.3,1.2.3.9,0,1.1-.3.3-.4.3-.7,0-.4-.2-.6-.3-.2-.6-.3-.6-.2-.9-.2c-.3,0-.6-.1-.9-.2s-.5-.2-.8-.3-.4-.3-.5-.5-.2-.5-.2-.9,0-.7.3-1,.5-.5.8-.6.8-.2,1.3-.2,1,0,1.4.2.6.4.8.7.3.6.4,1h-1.1c0-.2-.1-.4-.2-.6s-.3-.3-.5-.3-.5-.1-.8-.1c-.4,0-.8,0-1,.3s-.3.4-.3.6,0,.4.2.5.3.2.6.3.6.1.9.2c.3,0,.6.1.9.2s.5.2.8.3.4.3.5.6.2.5.2.9-.1.8-.3,1.1-.5.5-.9.7-.8.2-1.3.2Z"/>
      <path class="cls-11" d="M294.8,67.2v-8.6h1.1v1h0c.2-.2.3-.5.5-.6s.4-.3.7-.4.5-.1.8-.1c.5,0,1,.1,1.4.4s.7.7,1,1.2.4,1.1.4,1.8-.1,1.3-.3,1.8-.5.9-1,1.2-.9.4-1.5.4-.8,0-1.2-.3-.6-.4-.8-.8h0c0,.1,0,.3,0,.4s0,.4,0,.6v2h-1.1ZM297.8,64.2c.4,0,.7-.1,1-.3s.5-.5.6-.9.2-.8.2-1.3,0-.9-.2-1.3-.3-.7-.6-.9-.6-.3-1-.3-.8.1-1.1.3-.5.5-.7.9-.2.8-.2,1.2,0,.9.2,1.2.3.7.6.9.7.3,1.1.3Z"/>
      <path class="cls-11" d="M304.7,65.1c-.7,0-1.2-.2-1.7-.5s-.8-.7-1.1-1.2-.4-1.1-.4-1.7.1-1.2.4-1.7.6-.9,1.1-1.2,1-.5,1.6-.5.9,0,1.3.3.7.4.9.7c.3.3.5.7.6,1.2s.2,1,.2,1.5h-4.9c0,.4.1.8.3,1.1s.4.6.7.8.6.3,1.1.3.8,0,1.1-.3.5-.5.6-.8h1.1c0,.4-.3.7-.5,1.1s-.6.5-1,.7-.8.3-1.3.3ZM302.8,61.2h3.7c0-.4-.1-.8-.2-1.1s-.3-.5-.6-.7-.6-.2-1-.2-.7,0-1,.3-.5.4-.6.7-.3.6-.3,1Z"/>
      <path class="cls-11" d="M311.7,65.1c-.6,0-1.2-.2-1.7-.5s-.8-.7-1.1-1.2-.4-1.1-.4-1.7.1-1.2.4-1.7.6-.9,1.1-1.2,1-.5,1.7-.5,1,0,1.4.3.7.4.9.8.4.7.5,1.2h-1.1c0-.3-.1-.5-.3-.7s-.3-.4-.6-.5-.5-.2-.8-.2-.8.1-1.1.3-.5.5-.7.9-.2.8-.2,1.3,0,.9.2,1.3.4.7.7.9.7.3,1.1.3.9-.1,1.2-.4.5-.7.5-1.1h1.1c0,.5-.2,1-.4,1.3s-.6.6-1,.8-.9.3-1.4.3Z"/>
      <path class="cls-11" d="M317.7,65c-.3,0-.5,0-.8-.1s-.4-.2-.5-.4-.2-.4-.2-.8v-4.3h-1v-.9h1v-2h1.1v2h1.3v.9h-1.3v4.1c0,.2,0,.4.2.5s.3.1.5.1.2,0,.3,0,.2,0,.3,0h0v.9c-.1,0-.3,0-.5,0s-.3,0-.5,0Z"/>
      <path class="cls-11" d="M319.8,57.3v-1.3h1.2v1.3h-1.2ZM319.8,65v-6.4h1.1v6.4h-1.1Z"/>
      <path class="cls-11" d="M324,65l-2.2-6.4h1.2l1.1,3.5c0,.2.1.4.2.7s.1.5.2.7.1.4.2.7h0c0-.3.1-.5.2-.7s.1-.4.2-.7.1-.5.2-.7l1.2-3.5h1.1l-2.3,6.4h-1.2Z"/>
      <path class="cls-11" d="M331.1,65.1c-.7,0-1.2-.2-1.7-.5s-.8-.7-1.1-1.2-.4-1.1-.4-1.7.1-1.2.4-1.7.6-.9,1.1-1.2,1-.5,1.6-.5.9,0,1.3.3.7.4.9.7c.3.3.5.7.6,1.2s.2,1,.2,1.5h-4.9c0,.4.1.8.3,1.1s.4.6.7.8.6.3,1.1.3.8,0,1.1-.3.5-.5.6-.8h1.1c0,.4-.3.7-.5,1.1s-.6.5-1,.7-.8.3-1.3.3ZM329.1,61.2h3.7c0-.4-.1-.8-.2-1.1s-.3-.5-.6-.7-.6-.2-1-.2-.7,0-1,.3-.5.4-.6.7-.3.6-.3,1Z"/>
    </g>
    <rect class="cls-4" x="261.7" y="92.9" width="81.6" height="22.3" rx="2" ry="2"/>
    <g>
      <path class="cls-11" d="M270.7,107.4c-.8,0-1.5-.1-2.1-.4s-1-.6-1.3-1.1-.5-1-.5-1.5h1.2c0,.4.2.8.4,1.1s.5.5.9.7.8.2,1.4.2.8,0,1.1-.2.6-.3.7-.5.3-.5.3-.9-.1-.7-.3-.9-.5-.4-.9-.5-.9-.2-1.4-.4c-.4,0-.8-.2-1.1-.3s-.7-.3-.9-.4-.5-.4-.6-.7-.2-.6-.2-1.1.1-.9.4-1.3.6-.6,1.1-.8,1-.3,1.6-.3,1,0,1.4.2.7.3,1,.5.5.5.6.8.3.7.3,1.1h-1.2c0-.5-.3-1-.7-1.2s-.9-.4-1.5-.4-1.1.1-1.4.4-.5.6-.5,1,0,.6.3.8.5.3.8.4.7.2,1.2.3c.4,0,.8.2,1.2.3s.7.3,1.1.5.6.5.7.8.3.7.3,1.2-.1,1-.4,1.4-.7.7-1.2.9-1.1.3-1.7.3Z"/>
      <path class="cls-11" d="M275.3,109.4v-8.6h1.1v1h0c.2-.2.3-.5.5-.6s.4-.3.7-.4.5-.1.8-.1c.5,0,1,.1,1.4.4s.7.7,1,1.2.4,1.1.4,1.8-.1,1.3-.3,1.8-.5.9-1,1.2-.9.4-1.5.4-.8,0-1.2-.3-.6-.4-.8-.8h0c0,.1,0,.3,0,.4s0,.4,0,.6v2h-1.1ZM278.3,106.5c.4,0,.7-.1,1-.3s.5-.5.6-.9.2-.8.2-1.3,0-.9-.2-1.3-.3-.7-.6-.9-.6-.3-1-.3-.8.1-1.1.3-.5.5-.7.9-.2.8-.2,1.2,0,.9.2,1.2.3.7.6.9.7.3,1.1.3Z"/>
      <path class="cls-11" d="M282.5,107.2v-6.4h1.1v1.2h0c.2-.4.5-.7.8-.9s.7-.3,1.1-.3.2,0,.2,0,.1,0,.2,0v1.1h0c0,0-.1,0-.2,0s-.1,0-.2,0c-.2,0-.5,0-.7.1s-.4.2-.6.4-.3.4-.4.6-.1.5-.1.8v3.5h-1.1Z"/>
      <path class="cls-11" d="M287,99.6v-1.3h1.2v1.3h-1.2ZM287,107.2v-6.4h1.1v6.4h-1.1Z"/>
      <path class="cls-11" d="M289.7,107.2v-6.4h1.1v.9h0c.2-.2.3-.4.5-.6s.4-.3.7-.4.5-.1.8-.1c.4,0,.8,0,1.2.2s.6.4.7.7.3.7.3,1.1v4.5h-1.1v-4.4c0-.4-.1-.7-.4-1s-.6-.3-1-.3-.6,0-.9.2-.5.4-.6.6-.2.6-.2.9v3.9h-1.1Z"/>
      <path class="cls-11" d="M298.5,107.3c-.3,0-.5,0-.8-.1s-.4-.2-.5-.4-.2-.4-.2-.8v-4.3h-1v-.9h1v-2h1.1v2h1.3v.9h-1.3v4.1c0,.2,0,.4.2.5s.3.1.5.1.2,0,.3,0,.2,0,.3,0h0v.9c-.1,0-.3,0-.5,0s-.3,0-.5,0Z"/>
      <path class="cls-11" d="M303.8,107.2v-6.4h1.1v1.2h0c.2-.4.5-.7.8-.9s.7-.3,1.1-.3.2,0,.2,0,.1,0,.2,0v1.1h0c0,0-.1,0-.2,0s-.1,0-.2,0c-.2,0-.5,0-.7.1s-.4.2-.6.4-.3.4-.4.6-.1.5-.1.8v3.5h-1.1Z"/>
      <path class="cls-11" d="M310.9,107.4c-.7,0-1.2-.2-1.7-.5s-.8-.7-1.1-1.2-.4-1.1-.4-1.7.1-1.2.4-1.7.6-.9,1.1-1.2,1-.5,1.6-.5.9,0,1.3.3.7.4.9.7c.3.3.5.7.6,1.2s.2,1,.2,1.5h-4.9c0,.4.1.8.3,1.1s.4.6.7.8.6.3,1.1.3.8,0,1.1-.3.5-.5.6-.8h1.1c0,.4-.3.7-.5,1.1s-.6.5-1,.7-.8.3-1.3.3ZM308.9,103.5h3.7c0-.4-.1-.8-.2-1.1s-.3-.5-.6-.7-.6-.2-1-.2-.7,0-1,.3-.5.4-.6.7-.3.6-.3,1Z"/>
      <path class="cls-11" d="M316.5,107.2l-2.2-6.4h1.2l1.1,3.5c0,.2.1.4.2.7s.1.5.2.7.1.4.2.7h0c0-.3.1-.5.2-.7s.1-.4.2-.7.1-.5.2-.7l1.2-3.5h1.1l-2.3,6.4h-1.2Z"/>
      <path class="cls-11" d="M320.8,99.6v-1.3h1.2v1.3h-1.2ZM320.8,107.2v-6.4h1.1v6.4h-1.1Z"/>
      <path class="cls-11" d="M326.3,107.4c-.7,0-1.2-.2-1.7-.5s-.8-.7-1.1-1.2-.4-1.1-.4-1.7.1-1.2.4-1.7.6-.9,1.1-1.2,1-.5,1.6-.5.9,0,1.3.3.7.4.9.7c.3.3.5.7.6,1.2s.2,1,.2,1.5h-4.9c0,.4.1.8.3,1.1s.4.6.7.8.6.3,1.1.3.8,0,1.1-.3.5-.5.6-.8h1.1c0,.4-.3.7-.5,1.1s-.6.5-1,.7-.8.3-1.3.3ZM324.3,103.5h3.7c0-.4-.1-.8-.2-1.1s-.3-.5-.6-.7-.6-.2-1-.2-.7,0-1,.3-.5.4-.6.7-.3.6-.3,1Z"/>
      <path class="cls-11" d="M331.7,107.2l-2-6.4h1.2l1,3.6c0,.2.1.4.2.6s0,.4.1.6,0,.4.1.7h0c0-.2,0-.4.1-.6s0-.4.1-.6.1-.4.2-.6l1-3.6h1.1l1,3.6c0,.2,0,.4.1.6s0,.4.1.6,0,.4.1.7h0c0-.2,0-.5.1-.7s0-.4.1-.6.1-.4.2-.6l1.1-3.6h1.2l-2.1,6.4h-1.1l-.9-3.6c0-.2,0-.3-.1-.5s0-.4-.1-.6,0-.4-.1-.7h0c0,.3,0,.5-.1.7s0,.4-.1.6,0,.4-.1.5l-1,3.6h-1.1Z"/>
    </g>
    <rect class="cls-3" x="325" y="146.7" width="59.3" height="37" rx="2" ry="2"/>
    <g>
      <path class="cls-11" d="M343.2,161.4c-.8,0-1.5-.1-2.1-.4s-1-.6-1.3-1.1-.5-1-.5-1.5h1.2c0,.4.2.8.4,1.1s.5.5.9.7.8.2,1.4.2.8,0,1.1-.2.6-.3.7-.5.3-.5.3-.9-.1-.7-.3-.9-.5-.4-.9-.5-.9-.2-1.4-.4c-.4,0-.8-.2-1.1-.3s-.7-.3-.9-.4-.5-.4-.6-.7-.2-.6-.2-1.1.1-.9.4-1.3.6-.6,1.1-.8,1-.3,1.6-.3,1,0,1.4.2.7.3,1,.5.5.5.6.8.3.7.3,1.1h-1.2c0-.5-.3-1-.7-1.2s-.9-.4-1.5-.4-1.1.1-1.4.4-.5.6-.5,1,0,.6.3.8.5.3.8.4.7.2,1.2.3c.4,0,.8.2,1.2.3s.7.3,1.1.5.6.5.7.8.3.7.3,1.2-.1,1-.4,1.4-.7.7-1.2.9-1.1.3-1.7.3Z"/>
      <path class="cls-11" d="M347.8,163.4v-8.6h1.1v1h0c.2-.2.3-.5.5-.6s.4-.3.7-.4.5-.1.8-.1c.5,0,1,.1,1.4.4s.7.7,1,1.2.4,1.1.4,1.8-.1,1.3-.3,1.8-.5.9-1,1.2-.9.4-1.5.4-.8,0-1.2-.3-.6-.4-.8-.8h0c0,.1,0,.3,0,.4s0,.4,0,.6v2h-1.1ZM350.9,160.5c.4,0,.7-.1,1-.3s.5-.5.6-.9.2-.8.2-1.3,0-.9-.2-1.3-.3-.7-.6-.9-.6-.3-1-.3-.8.1-1.1.3-.5.5-.7.9-.2.8-.2,1.2,0,.9.2,1.2.3.7.6.9.7.3,1.1.3Z"/>
      <path class="cls-11" d="M355,161.3v-6.4h1.1v1.2h0c.2-.4.5-.7.8-.9s.7-.3,1.1-.3.2,0,.2,0,.1,0,.2,0v1.1h0c0,0-.1,0-.2,0s-.1,0-.2,0c-.2,0-.5,0-.7.1s-.4.2-.6.4-.3.4-.4.6-.1.5-.1.8v3.5h-1.1Z"/>
      <path class="cls-11" d="M359.5,153.6v-1.3h1.2v1.3h-1.2ZM359.5,161.3v-6.4h1.1v6.4h-1.1Z"/>
      <path class="cls-11" d="M362.2,161.3v-6.4h1.1v.9h0c.2-.2.3-.4.5-.6s.4-.3.7-.4.5-.1.8-.1c.4,0,.8,0,1.2.2s.6.4.7.7.3.7.3,1.1v4.5h-1.1v-4.4c0-.4-.1-.7-.4-1s-.6-.3-1-.3-.6,0-.9.2-.5.4-.6.6-.2.6-.2.9v3.9h-1.1Z"/>
      <path class="cls-11" d="M371,161.3c-.3,0-.5,0-.8-.1s-.4-.2-.5-.4-.2-.4-.2-.8v-4.3h-1v-.9h1v-2h1.1v2h1.3v.9h-1.3v4.1c0,.2,0,.4.2.5s.3.1.5.1.2,0,.3,0,.2,0,.3,0h0v.9c-.1,0-.3,0-.5,0s-.3,0-.5,0Z"/>
      <path class="cls-11" d="M337.6,175.8c-.4,0-.8,0-1.2-.3s-.6-.5-.8-.8h0v.9h-1.1v-8.9h1.1v2.3c0,.2,0,.5,0,.7s0,.4,0,.5h0c.1-.2.3-.4.5-.6s.4-.3.7-.4.5-.2.9-.2c.5,0,1,.1,1.4.4s.7.7,1,1.2.3,1.1.3,1.8-.1,1.3-.3,1.8-.5.9-1,1.2-.9.4-1.5.4ZM337.4,174.9c.4,0,.7-.1,1-.3s.5-.5.6-.9.2-.8.2-1.3,0-.9-.2-1.3-.3-.7-.6-.9-.6-.3-1-.3-.8.1-1.1.3-.5.5-.7.9-.2.8-.2,1.2,0,.9.2,1.3.4.7.7.9.7.3,1.1.3Z"/>
      <path class="cls-11" d="M343.5,175.8c-.4,0-.8,0-1.1-.2s-.6-.3-.8-.6-.3-.6-.3-1,.1-.9.3-1.2.6-.5,1-.6.9-.2,1.5-.3c.3,0,.6,0,.8-.1s.4-.1.5-.3.2-.3.2-.5c0-.3-.1-.6-.4-.8s-.6-.3-1-.3-.9.1-1.1.3-.4.5-.4.9h-1.1c0-.4.1-.7.3-1s.5-.6.9-.8.9-.3,1.4-.3.6,0,.9,0,.5.1.7.3c.3.2.5.4.6.7s.2.6.2,1.1v3c0,.2,0,.4.1.5s.2.2.4.2,0,0,.1,0,0,0,0,0h0v.8c0,0-.2,0-.3,0s-.2,0-.3,0c-.2,0-.4,0-.6-.1s-.3-.2-.4-.4-.1-.5-.1-.8h0c0,0,0,.3,0,.3h0c-.2.3-.5.5-.8.8s-.8.3-1.3.3ZM343.7,175c.4,0,.8,0,1.1-.3s.5-.4.6-.7.2-.5.2-.8v-1.1c-.1,0-.2.1-.4.2s-.3.1-.5.2-.3,0-.5.1c-.4,0-.7.1-.9.2s-.5.2-.6.4-.2.4-.2.7,0,.5.2.6.3.3.5.3.4,0,.6,0Z"/>
      <path class="cls-11" d="M351.1,175.8c-.6,0-1.2-.2-1.7-.5s-.8-.7-1.1-1.2-.4-1.1-.4-1.7.1-1.2.4-1.7.6-.9,1.1-1.2,1-.5,1.7-.5,1,0,1.4.3.7.4.9.8.4.7.5,1.2h-1.1c0-.3-.1-.5-.3-.7s-.3-.4-.6-.5-.5-.2-.8-.2-.8.1-1.1.3-.5.5-.7.9-.2.8-.2,1.3,0,.9.2,1.3.4.7.7.9.7.3,1.1.3.9-.1,1.2-.4.5-.7.5-1.1h1.1c0,.5-.2,1-.4,1.3s-.6.6-1,.8-.9.3-1.4.3Z"/>
      <path class="cls-11" d="M355,175.7v-8.9h1.1v4.2c0,.1,0,.3,0,.5s0,.4,0,.5l2.8-2.7h1.4l-2.5,2.3,2.7,4.1h-1.3l-2.2-3.4-.9.9v2.5h-1.1Z"/>
      <path class="cls-11" d="M361.5,175.7v-8.9h1.1v8.9h-1.1Z"/>
      <path class="cls-11" d="M367,175.8c-.6,0-1.2-.2-1.7-.5s-.8-.7-1.1-1.2-.4-1.1-.4-1.7.1-1.2.4-1.7.6-.9,1.1-1.2,1-.5,1.7-.5,1.2.2,1.7.5.8.7,1.1,1.2.4,1.1.4,1.7-.1,1.2-.4,1.7-.6.9-1.1,1.2-1,.5-1.7.5ZM367,174.9c.4,0,.8-.1,1.1-.3s.5-.5.7-.9.2-.8.2-1.3,0-.9-.2-1.3-.4-.7-.7-.9-.7-.3-1.1-.3-.8.1-1.1.3-.5.5-.7.9-.2.8-.2,1.3,0,.9.2,1.3.4.7.7.9.7.3,1.1.3Z"/>
      <path class="cls-11" d="M374.1,177.9c-.8,0-1.5-.2-2-.5s-.7-.8-.8-1.3h1c0,.3.2.6.5.7s.7.2,1.2.2,1-.1,1.3-.4.5-.7.5-1.2v-.2c0-.2,0-.4,0-.5s0-.3,0-.4h0c-.2.3-.5.6-.8.8s-.7.3-1.1.3-1-.1-1.5-.4-.8-.6-1-1.1-.4-1-.4-1.6.1-1.2.4-1.7.6-.8,1-1.1.9-.4,1.4-.4.6,0,.8.1.5.2.6.3.3.3.5.6h0v-.9h1.1v6.2c0,.4,0,.8-.2,1.1s-.3.6-.6.8c-.2.2-.6.4-.9.5s-.7.1-1.2.1ZM374,174.5c.5,0,.8-.1,1.1-.3s.5-.5.6-.8.2-.7.2-1.2,0-.8-.2-1.2-.3-.6-.6-.8-.6-.3-1.1-.3-.7,0-1,.3-.5.4-.6.8-.2.7-.2,1.2,0,.9.2,1.2.3.6.6.8.6.3,1,.3Z"/>
    </g>
    <rect class="cls-3" x="327.6" y="216.3" width="60" height="20" rx="2" ry="2"/>
    <g>
      <path class="cls-11" d="M337.4,230.6v-8.9h3.8c.5,0,.9,0,1.2.2s.7.3.9.6c.2.2.3.4.4.7s.2.6.2.9c0,.5-.1.9-.4,1.2s-.6.5-1.1.7h0c.5.2,1,.4,1.3.8s.5.8.5,1.4,0,.7-.2,1-.3.5-.5.8c-.3.3-.6.5-1,.6s-.8.2-1.3.2h-4ZM338.6,225.5h2.4c.5,0,.9-.1,1.2-.4s.4-.6.4-1,0-.5-.2-.7-.3-.4-.5-.5-.5-.2-.8-.2h-2.6v2.7ZM338.6,229.5h2.7c.3,0,.6,0,.8-.1s.4-.2.6-.3c.1-.1.2-.3.3-.4s.1-.4.1-.6c0-.4,0-.7-.2-.9s-.4-.4-.6-.5-.6-.2-.9-.2h-2.6v3.1Z"/>
      <path class="cls-11" d="M347.4,230.7c-.4,0-.8,0-1.1-.2s-.6-.3-.8-.6-.3-.6-.3-1,.1-.9.3-1.2.6-.5,1-.6.9-.2,1.5-.3c.3,0,.6,0,.8-.1s.4-.1.5-.3.2-.3.2-.5c0-.3-.1-.6-.4-.8s-.6-.3-1-.3-.9.1-1.1.3-.4.5-.4.9h-1.1c0-.4.1-.7.3-1s.5-.6.9-.8.9-.3,1.4-.3.6,0,.9,0,.5.1.7.3c.3.2.5.4.6.7s.2.6.2,1.1v3c0,.2,0,.4.1.5s.2.2.4.2,0,0,.1,0,0,0,0,0h0v.8c0,0-.2,0-.3,0s-.2,0-.3,0c-.2,0-.4,0-.6-.1s-.3-.2-.4-.4-.1-.5-.1-.8h0c0,0,0,.3,0,.3h0c-.2.3-.5.5-.8.8s-.8.3-1.3.3ZM347.7,229.9c.4,0,.8,0,1.1-.3s.5-.4.6-.7.2-.5.2-.8v-1.1c-.1,0-.2.1-.4.2s-.3.1-.5.2-.3,0-.5.1c-.4,0-.7.1-.9.2s-.5.2-.6.4-.2.4-.2.7,0,.5.2.6.3.3.5.3.4,0,.6,0Z"/>
      <path class="cls-11" d="M355,230.8c-.6,0-1.2-.2-1.7-.5s-.8-.7-1.1-1.2-.4-1.1-.4-1.7.1-1.2.4-1.7.6-.9,1.1-1.2,1-.5,1.7-.5,1,0,1.4.3.7.4.9.8.4.7.5,1.2h-1.1c0-.3-.1-.5-.3-.7s-.3-.4-.6-.5-.5-.2-.8-.2-.8.1-1.1.3-.5.5-.7.9-.2.8-.2,1.3,0,.9.2,1.3.4.7.7.9.7.3,1.1.3.9-.1,1.2-.4.5-.7.5-1.1h1.1c0,.5-.2,1-.4,1.3s-.6.6-1,.8-.9.3-1.4.3Z"/>
      <path class="cls-11" d="M359,230.6v-8.9h1.1v4.2c0,.1,0,.3,0,.5s0,.4,0,.5l2.8-2.7h1.4l-2.5,2.3,2.7,4.1h-1.3l-2.2-3.4-.9.9v2.5h-1.1Z"/>
      <path class="cls-11" d="M365.5,230.6v-8.9h1.1v8.9h-1.1Z"/>
      <path class="cls-11" d="M371,230.8c-.6,0-1.2-.2-1.7-.5s-.8-.7-1.1-1.2-.4-1.1-.4-1.7.1-1.2.4-1.7.6-.9,1.1-1.2,1-.5,1.7-.5,1.2.2,1.7.5.8.7,1.1,1.2.4,1.1.4,1.7-.1,1.2-.4,1.7-.6.9-1.1,1.2-1,.5-1.7.5ZM371,229.9c.4,0,.8-.1,1.1-.3s.5-.5.7-.9.2-.8.2-1.3,0-.9-.2-1.3-.4-.7-.7-.9-.7-.3-1.1-.3-.8.1-1.1.3-.5.5-.7.9-.2.8-.2,1.3,0,.9.2,1.3.4.7.7.9.7.3,1.1.3Z"/>
      <path class="cls-11" d="M378,232.9c-.8,0-1.5-.2-2-.5s-.7-.8-.8-1.3h1c0,.3.2.6.5.7s.7.2,1.2.2,1-.1,1.3-.4.5-.7.5-1.2v-.2c0-.2,0-.4,0-.5s0-.3,0-.4h0c-.2.3-.5.6-.8.8s-.7.3-1.1.3-1-.1-1.5-.4-.8-.6-1-1.1-.4-1-.4-1.6.1-1.2.4-1.7.6-.8,1-1.1.9-.4,1.4-.4.6,0,.8.1.5.2.6.3.3.3.5.6h0v-.9h1.1v6.2c0,.4,0,.8-.2,1.1s-.3.6-.6.8c-.2.2-.6.4-.9.5s-.7.1-1.2.1ZM378,229.4c.5,0,.8-.1,1.1-.3s.5-.5.6-.8.2-.7.2-1.2,0-.8-.2-1.2-.3-.6-.6-.8-.6-.3-1.1-.3-.7,0-1,.3-.5.4-.6.8-.2.7-.2,1.2,0,.9.2,1.2.3.6.6.8.6.3,1,.3Z"/>
    </g>
    <rect class="cls-3" x="216.7" y="240" width="71.3" height="22.1" rx="2" ry="2"/>
    <g>
      <path class="cls-11" d="M225.1,254.2v-8.9h1.2v8.9h-1.2Z"/>
      <path class="cls-11" d="M228.1,254.2v-6.4h1.1v.9h0c.2-.2.3-.4.5-.6s.4-.3.7-.4.5-.1.8-.1c.4,0,.8,0,1.2.2s.6.4.7.7.3.7.3,1.1v4.5h-1.1v-4.4c0-.4-.1-.7-.4-1s-.6-.3-1-.3-.6,0-.9.2-.5.4-.6.6-.2.6-.2.9v3.9h-1.1Z"/>
      <path class="cls-11" d="M237.7,254.4c-.6,0-1.2-.2-1.7-.5s-.8-.7-1.1-1.2-.4-1.1-.4-1.7.1-1.2.4-1.7.6-.9,1.1-1.2,1-.5,1.7-.5,1,0,1.4.3.7.4.9.8.4.7.5,1.2h-1.1c0-.3-.1-.5-.3-.7s-.3-.4-.6-.5-.5-.2-.8-.2-.8.1-1.1.3-.5.5-.7.9-.2.8-.2,1.3,0,.9.2,1.3.4.7.7.9.7.3,1.1.3.9-.1,1.2-.4.5-.7.5-1.1h1.1c0,.5-.2,1-.4,1.3s-.6.6-1,.8-.9.3-1.4.3Z"/>
      <path class="cls-11" d="M241.6,254.2v-6.4h1.1v1.2h0c.2-.4.5-.7.8-.9s.7-.3,1.1-.3.2,0,.2,0,.1,0,.2,0v1.1h0c0,0-.1,0-.2,0s-.1,0-.2,0c-.2,0-.5,0-.7.1s-.4.2-.6.4-.3.4-.4.6-.1.5-.1.8v3.5h-1.1Z"/>
      <path class="cls-11" d="M248.7,254.4c-.7,0-1.2-.2-1.7-.5s-.8-.7-1.1-1.2-.4-1.1-.4-1.7.1-1.2.4-1.7.6-.9,1.1-1.2,1-.5,1.6-.5.9,0,1.3.3.7.4.9.7c.3.3.5.7.6,1.2s.2,1,.2,1.5h-4.9c0,.4.1.8.3,1.1s.4.6.7.8.6.3,1.1.3.8,0,1.1-.3.5-.5.6-.8h1.1c0,.4-.3.7-.5,1.1s-.6.5-1,.7-.8.3-1.3.3ZM246.8,250.4h3.7c0-.4-.1-.8-.2-1.1s-.3-.5-.6-.7-.6-.2-1-.2-.7,0-1,.3-.5.4-.6.7-.3.6-.3,1Z"/>
      <path class="cls-11" d="M252.9,254.2v-6.4h1.1v1h0c.1-.2.3-.4.5-.6s.4-.3.6-.4.5-.1.8-.1c.4,0,.7.1,1,.3s.5.5.6.9h0c.2-.4.5-.7.9-.9s.7-.3,1.1-.3.7,0,1,.2.5.4.7.7.3.7.3,1.1v4.5h-1.1v-4.4c0-.4-.1-.7-.3-.9s-.5-.3-.8-.3-.5,0-.8.2-.4.3-.6.6-.2.5-.2.9v4h-1.1v-4.4c0-.4-.1-.7-.3-.9s-.5-.3-.8-.3-.5,0-.8.2-.4.3-.6.6-.2.5-.2.9v4h-1.1Z"/>
      <path class="cls-11" d="M265.9,254.4c-.7,0-1.2-.2-1.7-.5s-.8-.7-1.1-1.2-.4-1.1-.4-1.7.1-1.2.4-1.7.6-.9,1.1-1.2,1-.5,1.6-.5.9,0,1.3.3.7.4.9.7c.3.3.5.7.6,1.2s.2,1,.2,1.5h-4.9c0,.4.1.8.3,1.1s.4.6.7.8.6.3,1.1.3.8,0,1.1-.3.5-.5.6-.8h1.1c0,.4-.3.7-.5,1.1s-.6.5-1,.7-.8.3-1.3.3ZM263.9,250.4h3.7c0-.4-.1-.8-.2-1.1s-.3-.5-.6-.7-.6-.2-1-.2-.7,0-1,.3-.5.4-.6.7-.3.6-.3,1Z"/>
      <path class="cls-11" d="M270,254.2v-6.4h1.1v.9h0c.2-.2.3-.4.5-.6s.4-.3.7-.4.5-.1.8-.1c.4,0,.8,0,1.2.2s.6.4.7.7.3.7.3,1.1v4.5h-1.1v-4.4c0-.4-.1-.7-.4-1s-.6-.3-1-.3-.6,0-.9.2-.5.4-.6.6-.2.6-.2.9v3.9h-1.1Z"/>
      <path class="cls-11" d="M278.8,254.2c-.3,0-.5,0-.8-.1s-.4-.2-.5-.4-.2-.4-.2-.8v-4.3h-1v-.9h1v-2h1.1v2h1.3v.9h-1.3v4.1c0,.2,0,.4.2.5s.3.1.5.1.2,0,.3,0,.2,0,.3,0h0v.9c-.1,0-.3,0-.5,0s-.3,0-.5,0Z"/>
    </g>
  </g>
  <g id="Text">
    <g>
      <path class="cls-11" d="M199.3,171.2c-1.2,0-2.3-.2-3.1-.6s-1.5-1-1.9-1.7-.7-1.5-.7-2.3h1.8c0,.7.3,1.2.6,1.7s.8.8,1.3,1.1,1.3.4,2.1.4,1.1,0,1.6-.3.8-.4,1.1-.8.4-.8.4-1.3-.2-1-.5-1.4-.8-.6-1.4-.8-1.3-.4-2.1-.5c-.6-.1-1.2-.3-1.7-.4s-1-.4-1.4-.7-.7-.6-1-1.1-.4-1-.4-1.6.2-1.4.6-1.9.9-.9,1.6-1.2,1.5-.4,2.4-.4,1.5,0,2.1.3,1.1.5,1.5.8.7.8,1,1.2.4,1,.5,1.6h-1.8c-.1-.8-.5-1.4-1-1.9s-1.3-.6-2.3-.6-1.6.2-2.1.5-.8.9-.8,1.5.1.9.4,1.2.7.5,1.2.7,1.1.3,1.8.5c.7.1,1.3.3,1.9.5s1.1.4,1.6.7.8.7,1.1,1.2.4,1.1.4,1.8-.2,1.6-.6,2.1-1,1-1.8,1.3-1.6.5-2.6.5Z"/>
      <path class="cls-11" d="M212.3,171.2c-1,0-1.8-.2-2.6-.5s-1.4-.8-2-1.5-1-1.4-1.3-2.2-.4-1.8-.4-2.8.1-1.9.4-2.7.7-1.6,1.3-2.2,1.2-1.1,2-1.5,1.7-.5,2.7-.5,1.5.1,2.1.3,1.2.5,1.6.9c.5.4.9.9,1.1,1.4s.5,1.1.6,1.7h-1.8c0-.5-.3-1-.6-1.4s-.7-.7-1.2-.9-1.1-.3-1.8-.3-1.7.2-2.4.7-1.2,1.1-1.5,1.9-.5,1.7-.5,2.7.2,2,.6,2.8.9,1.4,1.6,1.9,1.5.7,2.4.7,1.5-.2,2-.5.9-.8,1.2-1.3.5-1.1.5-1.8h1.8c0,.7-.1,1.3-.4,2s-.7,1.2-1.2,1.7c-.5.5-1.1.9-1.8,1.1s-1.4.3-2.3.3Z"/>
      <path class="cls-11" d="M220.1,171v-13.4h6.3c.8,0,1.5.2,2.1.5.6.3,1.1.7,1.4,1.3.3.6.5,1.2.5,1.9s-.2,1.5-.6,2.1-1,1-1.9,1.3h0c.5.2.9.4,1.2.7.3.3.5.6.6,1s.2,1,.3,1.6c0,.5,0,.9.1,1.2s0,.6.1.9.1.4.2.6c0,.1.1.2.2.3h0c0,0-2,0-2,0,0,0-.2-.2-.2-.4s0-.5-.1-.9c0-.4,0-1-.1-1.7,0-.9-.3-1.6-.7-2s-1.1-.6-1.9-.6h-3.6v5.6h-1.8ZM221.9,163.9h3.8c.9,0,1.6-.2,2-.6s.7-1,.7-1.7-.2-1.4-.6-1.8-1.1-.6-2-.6h-3.9v4.7Z"/>
      <path class="cls-11" d="M237.8,171.2c-1,0-1.9-.2-2.7-.5-.8-.3-1.4-.8-1.8-1.5s-.7-1.6-.7-2.6v-9h1.8v8.9c0,.7.1,1.3.4,1.8s.6.8,1.1,1c.5.2,1.1.3,1.8.3s1.3-.1,1.8-.3.9-.6,1.1-1c.3-.5.4-1.1.4-1.8v-8.9h1.8v9c0,1.1-.2,2-.7,2.6-.5.7-1.1,1.2-1.9,1.5s-1.7.5-2.6.5Z"/>
      <path class="cls-11" d="M245.5,171v-13.4h2.4l2.8,7.3c.1.4.3.8.4,1.3s.3.9.4,1.4.3,1,.5,1.6h0c.2-.6.3-1.1.5-1.5s.3-.9.4-1.4.3-.9.4-1.3l2.7-7.3h2.5v13.4h-1.8v-8.1c0-.3,0-.6,0-1s0-.8,0-1.1,0-.8,0-1.3h0c-.1.4-.2.8-.3,1.1s-.2.7-.3,1c-.1.3-.2.6-.3.9l-3.3,8.5h-1.4l-3.2-8.5c0-.3-.2-.6-.3-.9-.1-.3-.2-.7-.3-1,0-.3-.2-.7-.3-1.1h0c0,.5,0,.9,0,1.3s0,.7,0,1.1,0,.7,0,1v8.1h-1.7Z"/>
    </g>
    <g>
      <path class="cls-12" d="M227.1,88.1c-.6,0-1.1-.1-1.6-.3s-.8-.5-1.1-.9-.4-.8-.5-1.2h1.1c0,.3.2.5.3.8s.4.4.6.5.6.2,1,.2.7,0,1-.2.5-.4.7-.7.2-.6.2-1.1,0-.8-.3-1.1-.4-.5-.7-.7-.6-.2-.9-.2-.6,0-.8.1-.4.2-.6.3-.3.2-.4.4h-1.1l.9-4.5h4.6v1h-3.7l-.6,2.5h0c.2-.2.5-.4.8-.6s.7-.2,1.1-.2.9.1,1.4.3.8.6,1,1,.4,1,.4,1.6-.1,1.1-.4,1.6-.6.8-1.1,1-1,.4-1.6.4Z"/>
      <path class="cls-12" d="M212.4,102.5c-.7,0-1.2-.2-1.7-.5s-.8-.7-1.1-1.2-.4-1.1-.4-1.7.1-1.2.4-1.7.6-.9,1.1-1.2,1-.5,1.6-.5.9,0,1.3.3.7.4.9.7c.3.3.5.7.6,1.2s.2,1,.2,1.5h-4.9c0,.4.1.8.3,1.1s.4.6.7.8.6.3,1.1.3.8,0,1.1-.3.5-.5.6-.8h1.1c0,.4-.3.7-.5,1.1s-.6.5-1,.7-.8.3-1.3.3ZM210.4,98.6h3.7c0-.4-.1-.8-.2-1.1s-.3-.5-.6-.7-.6-.2-1-.2-.7,0-1,.3-.5.4-.6.7-.3.6-.3,1Z"/>
      <path class="cls-12" d="M217.9,102.4l-2.2-6.4h1.2l1.1,3.5c0,.2.1.4.2.7s.1.5.2.7.1.4.2.7h0c0-.3.1-.5.2-.7s.1-.4.2-.7.1-.5.2-.7l1.2-3.5h1.1l-2.3,6.4h-1.2Z"/>
      <path class="cls-12" d="M225,102.5c-.7,0-1.2-.2-1.7-.5s-.8-.7-1.1-1.2-.4-1.1-.4-1.7.1-1.2.4-1.7.6-.9,1.1-1.2,1-.5,1.6-.5.9,0,1.3.3.7.4.9.7c.3.3.5.7.6,1.2s.2,1,.2,1.5h-4.9c0,.4.1.8.3,1.1s.4.6.7.8.6.3,1.1.3.8,0,1.1-.3.5-.5.6-.8h1.1c0,.4-.3.7-.5,1.1s-.6.5-1,.7-.8.3-1.3.3ZM223,98.6h3.7c0-.4-.1-.8-.2-1.1s-.3-.5-.6-.7-.6-.2-1-.2-.7,0-1,.3-.5.4-.6.7-.3.6-.3,1Z"/>
      <path class="cls-12" d="M229.1,102.4v-6.4h1.1v.9h0c.2-.2.3-.4.5-.6s.4-.3.7-.4.5-.1.8-.1c.4,0,.8,0,1.2.2s.6.4.7.7.3.7.3,1.1v4.5h-1.1v-4.4c0-.4-.1-.7-.4-1s-.6-.3-1-.3-.6,0-.9.2-.5.4-.6.6-.2.6-.2.9v3.9h-1.1Z"/>
      <path class="cls-12" d="M237.9,102.4c-.3,0-.5,0-.8-.1s-.4-.2-.5-.4-.2-.4-.2-.8v-4.3h-1v-.9h1v-2h1.1v2h1.3v.9h-1.3v4.1c0,.2,0,.4.2.5s.3.1.5.1.2,0,.3,0,.2,0,.3,0h0v.9c-.1,0-.3,0-.5,0s-.3,0-.5,0Z"/>
      <path class="cls-12" d="M242.5,102.5c-.6,0-1.1,0-1.5-.3s-.7-.4-1-.8-.4-.7-.4-1.1h1.1c0,.5.3.8.6,1s.7.3,1.2.3.9,0,1.1-.3.3-.4.3-.7,0-.4-.2-.6-.3-.2-.6-.3-.6-.2-.9-.2c-.3,0-.6-.1-.9-.2s-.5-.2-.8-.3-.4-.3-.5-.5-.2-.5-.2-.9,0-.7.3-1,.5-.5.8-.6.8-.2,1.3-.2,1,0,1.4.2.6.4.8.7.3.6.4,1h-1.1c0-.2-.1-.4-.2-.6s-.3-.3-.5-.3-.5-.1-.8-.1c-.4,0-.8,0-1,.3s-.3.4-.3.6,0,.4.2.5.3.2.6.3.6.1.9.2c.3,0,.6.1.9.2s.5.2.8.3.4.3.5.6.2.5.2.9-.1.8-.3,1.1-.5.5-.9.7-.8.2-1.3.2Z"/>
    </g>
    <g>
      <path class="cls-12" d="M168.8,180.4c-.6,0-1.2-.1-1.7-.3s-.9-.6-1.2-1-.5-1-.5-1.6h1.1c0,.4.1.8.3,1.1s.4.5.8.7.7.2,1.2.2.7,0,1-.2.5-.3.7-.6.2-.6.2-1,0-.6-.3-.9-.4-.4-.7-.5-.7-.2-1.2-.2h-.5v-.9h.5c.4,0,.8,0,1.1-.2s.5-.3.6-.5.2-.5.2-.8,0-.6-.2-.8-.4-.4-.6-.5-.6-.2-.9-.2-.7,0-1,.2-.5.4-.7.6-.2.6-.2.9h-1.1c0-.5.1-1,.4-1.4s.6-.7,1.1-1,1-.4,1.6-.4,1,0,1.5.3.8.5,1,.8.4.8.4,1.3-.1.9-.4,1.1-.6.5-1,.6h0c.6.2,1,.5,1.3.8s.4.8.4,1.4,0,.8-.2,1.1-.4.6-.7.8-.6.4-1,.5-.8.2-1.2.2Z"/>
      <path class="cls-12" d="M146.7,194.8c-.4,0-.8,0-1.1-.2s-.6-.3-.8-.6-.3-.6-.3-1,.1-.9.3-1.2.6-.5,1-.6.9-.2,1.5-.3c.3,0,.6,0,.8-.1s.4-.2.5-.3.2-.3.2-.5c0-.3-.1-.6-.4-.8s-.6-.3-1-.3-.9.1-1.1.3-.4.5-.4.9h-1.1c0-.4.1-.7.3-1s.5-.6.9-.8.9-.3,1.4-.3.6,0,.9,0,.5.1.7.3c.3.2.5.4.6.7s.2.6.2,1.1v3c0,.2,0,.4.1.5s.2.2.4.2,0,0,.1,0,0,0,0,0h0v.8c0,0-.2,0-.3,0s-.2,0-.3,0c-.2,0-.4,0-.6-.1s-.3-.2-.4-.4-.1-.5-.1-.8h0c0,0,0,.3,0,.3h0c-.2.3-.5.5-.8.8s-.8.3-1.3.3ZM147,194c.4,0,.8,0,1.1-.3s.5-.4.6-.7.2-.5.2-.8v-1.1c-.1,0-.2.1-.4.2s-.3.1-.5.2-.3,0-.5.1c-.4,0-.7.1-.9.2s-.5.2-.6.4-.2.4-.2.7,0,.5.2.6.3.3.5.3.4,0,.6,0Z"/>
      <path class="cls-12" d="M154.3,194.8c-.6,0-1.2-.2-1.7-.5s-.8-.7-1.1-1.2-.4-1.1-.4-1.7.1-1.2.4-1.7.6-.9,1.1-1.2,1-.5,1.7-.5,1,0,1.4.3.7.4.9.8.4.7.5,1.2h-1.1c0-.3-.1-.5-.3-.7s-.3-.4-.6-.5-.5-.2-.8-.2-.8.1-1.1.3-.5.5-.7.9-.2.8-.2,1.3,0,.9.2,1.3.4.7.7.9.7.3,1.1.3.9-.1,1.2-.4.5-.7.5-1.1h1.1c0,.5-.2,1-.4,1.3s-.6.6-1,.8-.9.3-1.4.3Z"/>
      <path class="cls-12" d="M161,194.8c-.6,0-1.2-.2-1.7-.5s-.8-.7-1.1-1.2-.4-1.1-.4-1.7.1-1.2.4-1.7.6-.9,1.1-1.2,1-.5,1.7-.5,1,0,1.4.3.7.4.9.8.4.7.5,1.2h-1.1c0-.3-.1-.5-.3-.7s-.3-.4-.6-.5-.5-.2-.8-.2-.8.1-1.1.3-.5.5-.7.9-.2.8-.2,1.3,0,.9.2,1.3.4.7.7.9.7.3,1.1.3.9-.1,1.2-.4.5-.7.5-1.1h1.1c0,.5-.2,1-.4,1.3s-.6.6-1,.8-.9.3-1.4.3Z"/>
      <path class="cls-12" d="M167.7,194.8c-.6,0-1.2-.2-1.7-.5s-.8-.7-1.1-1.2-.4-1.1-.4-1.7.1-1.2.4-1.7.6-.9,1.1-1.2,1-.5,1.7-.5,1.2.2,1.7.5.8.7,1.1,1.2.4,1.1.4,1.7-.1,1.2-.4,1.7-.6.9-1.1,1.2-1,.5-1.7.5ZM167.7,193.9c.4,0,.8-.1,1.1-.3s.5-.5.7-.9.2-.8.2-1.3,0-.9-.2-1.3-.4-.7-.7-.9-.7-.3-1.1-.3-.8.1-1.1.3-.5.5-.7.9-.2.8-.2,1.3,0,.9.2,1.3.4.7.7.9.7.3,1.1.3Z"/>
      <path class="cls-12" d="M174.2,194.8c-.4,0-.8,0-1.2-.3s-.6-.4-.8-.7-.3-.7-.3-1.2v-4.4h1.1v4.4c0,.4.1.7.4,1s.6.3,1,.3.6,0,.9-.2.4-.4.6-.6.2-.6.2-.9v-3.9h1.1v6.4h-1.1v-.9h0c-.1.2-.3.4-.5.6s-.4.3-.6.4-.5.1-.8.1Z"/>
      <path class="cls-12" d="M178.8,194.6v-6.4h1.1v.9h0c.2-.2.3-.4.5-.6s.4-.3.7-.4.5-.1.8-.1c.4,0,.8,0,1.2.2s.6.4.7.7.3.7.3,1.1v4.5h-1.1v-4.4c0-.4-.1-.7-.4-1s-.6-.3-1-.3-.6,0-.9.2-.5.4-.6.6-.2.6-.2.9v3.9h-1.1Z"/>
      <path class="cls-12" d="M187.6,194.7c-.3,0-.5,0-.8-.1s-.4-.2-.5-.4-.2-.4-.2-.8v-4.3h-1v-.9h1v-2h1.1v2h1.3v.9h-1.3v4.1c0,.2,0,.4.2.5s.3.1.5.1.2,0,.3,0,.2,0,.3,0h0v.9c-.1,0-.3,0-.5,0s-.3,0-.5,0Z"/>
      <path class="cls-12" d="M189.5,191.7v-1h3.3v1h-3.3Z"/>
      <path class="cls-12" d="M150.4,209.2c-.4,0-.8,0-1.1-.2s-.6-.3-.8-.6-.3-.6-.3-1,.1-.9.3-1.2.6-.5,1-.6.9-.2,1.5-.3c.3,0,.6,0,.8-.1s.4-.1.5-.3.2-.3.2-.5c0-.3-.1-.6-.4-.8s-.6-.3-1-.3-.9.1-1.1.3-.4.5-.4.9h-1.1c0-.4.1-.7.3-1s.5-.6.9-.8.9-.3,1.4-.3.6,0,.9,0,.5.1.7.3c.3.2.5.4.6.7s.2.6.2,1.1v3c0,.2,0,.4.1.5s.2.2.4.2,0,0,.1,0,0,0,0,0h0v.8c0,0-.2,0-.3,0s-.2,0-.3,0c-.2,0-.4,0-.6-.1s-.3-.2-.4-.4-.1-.5-.1-.8h0c0,0,0,.3,0,.3h0c-.2.3-.5.5-.8.8s-.8.3-1.3.3ZM150.7,208.4c.4,0,.8,0,1.1-.3s.5-.4.6-.7.2-.5.2-.8v-1.1c-.1,0-.2.1-.4.2s-.3.1-.5.2-.3,0-.5.1c-.4,0-.7.1-.9.2s-.5.2-.6.4-.2.4-.2.7,0,.5.2.6.3.3.5.3.4,0,.6,0Z"/>
      <path class="cls-12" d="M158.4,209.2c-.4,0-.8,0-1.2-.3s-.6-.5-.8-.8h0v.9h-1.1v-8.9h1.1v2.3c0,.2,0,.5,0,.7s0,.4,0,.5h0c.1-.2.3-.4.5-.6s.4-.3.7-.4.5-.2.9-.2c.5,0,1,.1,1.4.4s.7.7,1,1.2.3,1.1.3,1.8-.1,1.3-.3,1.8-.5.9-1,1.2-.9.4-1.5.4ZM158.3,208.3c.4,0,.7-.1,1-.3s.5-.5.6-.9.2-.8.2-1.3,0-.9-.2-1.3-.3-.7-.6-.9-.6-.3-1-.3-.8.1-1.1.3-.5.5-.7.9-.2.8-.2,1.2,0,.9.2,1.3.4.7.7.9.7.3,1.1.3Z"/>
      <path class="cls-12" d="M162.3,201.4v-1.3h1.2v1.3h-1.2ZM162.3,209v-6.4h1.1v6.4h-1.1Z"/>
      <path class="cls-12" d="M165,209v-8.9h1.1v8.9h-1.1Z"/>
      <path class="cls-12" d="M167.7,201.4v-1.3h1.2v1.3h-1.2ZM167.7,209v-6.4h1.1v6.4h-1.1Z"/>
      <path class="cls-12" d="M172.5,209.1c-.3,0-.5,0-.8-.1s-.4-.2-.5-.4-.2-.4-.2-.8v-4.3h-1v-.9h1v-2h1.1v2h1.3v.9h-1.3v4.1c0,.2,0,.4.2.5s.3.1.5.1.2,0,.3,0,.2,0,.3,0h0v.9c-.1,0-.3,0-.5,0s-.3,0-.5,0Z"/>
      <path class="cls-12" d="M174.6,201.4v-1.3h1.2v1.3h-1.2ZM174.6,209v-6.4h1.1v6.4h-1.1Z"/>
      <path class="cls-12" d="M180,209.2c-.7,0-1.2-.2-1.7-.5s-.8-.7-1.1-1.2-.4-1.1-.4-1.7.1-1.2.4-1.7.6-.9,1.1-1.2,1-.5,1.6-.5.9,0,1.3.3.7.4.9.7c.3.3.5.7.6,1.2s.2,1,.2,1.5h-4.9c0,.4.1.8.3,1.1s.4.6.7.8.6.3,1.1.3.8,0,1.1-.3.5-.5.6-.8h1.1c0,.4-.3.7-.5,1.1s-.6.5-1,.7-.8.3-1.3.3ZM178.1,205.3h3.7c0-.4-.1-.8-.2-1.1s-.3-.5-.6-.7-.6-.2-1-.2-.7,0-1,.3-.5.4-.6.7-.3.6-.3,1Z"/>
      <path class="cls-12" d="M186.6,209.2c-.6,0-1.1,0-1.5-.3s-.7-.4-1-.8-.4-.7-.4-1.1h1.1c0,.5.3.8.6,1s.7.3,1.2.3.9,0,1.1-.3.3-.4.3-.7,0-.4-.2-.6-.3-.2-.6-.3-.6-.2-.9-.2c-.3,0-.6-.1-.9-.2s-.5-.2-.8-.3-.4-.3-.5-.5-.2-.5-.2-.9,0-.7.3-1,.5-.5.8-.6.8-.2,1.3-.2,1,0,1.4.2.6.4.8.7.3.6.4,1h-1.1c0-.2-.1-.4-.2-.6s-.3-.3-.5-.3-.5-.1-.8-.1c-.4,0-.8,0-1,.3s-.3.4-.3.6,0,.4.2.5.3.2.6.3.6.1.9.2c.3,0,.6.1.9.2s.5.2.8.3.4.3.5.6.2.5.2.9-.1.8-.3,1.1-.5.5-.9.7-.8.2-1.3.2Z"/>
    </g>
    <g>
      <path class="cls-12" d="M285.4,187.6c-.6,0-1.2-.1-1.7-.3s-.9-.6-1.2-1-.5-1-.5-1.6h1.1c0,.4.1.8.3,1.1s.4.5.8.7.7.2,1.2.2.7,0,1-.2.5-.3.7-.6.2-.6.2-1,0-.6-.3-.9-.4-.4-.7-.5-.7-.2-1.2-.2h-.5v-.9h.5c.4,0,.8,0,1.1-.2s.5-.3.6-.5.2-.5.2-.8,0-.6-.2-.8-.4-.4-.6-.5-.6-.2-.9-.2-.7,0-1,.2-.5.4-.7.6-.2.6-.2.9h-1.1c0-.5.1-1,.4-1.4s.6-.7,1.1-1,1-.4,1.6-.4,1,0,1.5.3.8.5,1,.8.4.8.4,1.3-.1.9-.4,1.1-.6.5-1,.6h0c.6.2,1,.5,1.3.8s.4.8.4,1.4,0,.8-.2,1.1-.4.6-.7.8-.6.4-1,.5-.8.2-1.2.2Z"/>
      <path class="cls-12" d="M263,202c-.4,0-.8,0-1.1-.2s-.6-.3-.8-.6-.3-.6-.3-1,.1-.9.3-1.2.6-.5,1-.6.9-.2,1.5-.3c.3,0,.6,0,.8-.1s.4-.1.5-.3.2-.3.2-.5c0-.3-.1-.6-.4-.8s-.6-.3-1-.3-.9.1-1.1.3-.4.5-.4.9h-1.1c0-.4.1-.7.3-1s.5-.6.9-.8.9-.3,1.4-.3.6,0,.9,0,.5.1.7.3c.3.2.5.4.6.7s.2.6.2,1.1v3c0,.2,0,.4.1.5s.2.2.4.2,0,0,.1,0,0,0,0,0h0v.8c0,0-.2,0-.3,0s-.2,0-.3,0c-.2,0-.4,0-.6-.1s-.3-.2-.4-.4-.1-.5-.1-.8h0c0,0,0,.3,0,.3h0c-.2.3-.5.5-.8.8s-.8.3-1.3.3ZM263.2,201.2c.4,0,.8,0,1.1-.3s.5-.4.6-.7.2-.5.2-.8v-1.1c-.1,0-.2.1-.4.2s-.3.1-.5.2-.3,0-.5.1c-.4,0-.7.1-.9.2s-.5.2-.6.4-.2.4-.2.7,0,.5.2.6.3.3.5.3.4,0,.6,0Z"/>
      <path class="cls-12" d="M267.8,201.9v-6.4h1.1v1.2h0c.2-.4.5-.7.8-.9s.7-.3,1.1-.3.2,0,.2,0,.1,0,.2,0v1.1h0c0,0-.1,0-.2,0s-.1,0-.2,0c-.2,0-.5,0-.7.1s-.4.2-.6.4-.3.4-.4.6-.1.5-.1.8v3.5h-1.1Z"/>
      <path class="cls-12" d="M274.4,201.9c-.3,0-.5,0-.8-.1s-.4-.2-.5-.4-.2-.4-.2-.8v-4.3h-1v-.9h1v-2h1.1v2h1.3v.9h-1.3v4.1c0,.2,0,.4.2.5s.3.1.5.1.2,0,.3,0,.2,0,.3,0h0v.9c-.1,0-.3,0-.5,0s-.3,0-.5,0Z"/>
      <path class="cls-12" d="M279.3,202c-.7,0-1.2-.2-1.7-.5s-.8-.7-1.1-1.2-.4-1.1-.4-1.7.1-1.2.4-1.7.6-.9,1.1-1.2,1-.5,1.6-.5.9,0,1.3.3.7.4.9.7c.3.3.5.7.6,1.2s.2,1,.2,1.5h-4.9c0,.4.1.8.3,1.1s.4.6.7.8.6.3,1.1.3.8,0,1.1-.3.5-.5.6-.8h1.1c0,.4-.3.7-.5,1.1s-.6.5-1,.7-.8.3-1.3.3ZM277.3,198.1h3.7c0-.4-.1-.8-.2-1.1s-.3-.5-.6-.7-.6-.2-1-.2-.7,0-1,.3-.5.4-.6.7-.3.6-.3,1Z"/>
      <path class="cls-12" d="M283.9,201.9v-5.6h-1v-.9h1v-.9c0-.3,0-.6.1-.8s.2-.4.3-.5c.2-.1.4-.2.6-.3s.5,0,.8,0,.2,0,.3,0,.2,0,.3,0v.9c0,0-.1,0-.2,0h-.2c-.4,0-.6,0-.7.2s-.2.3-.2.6v.8h1.3v.9h-1.3v5.6h-1.1Z"/>
      <path class="cls-12" d="M289.2,202c-.4,0-.8,0-1.1-.2s-.6-.3-.8-.6-.3-.6-.3-1,.1-.9.3-1.2.6-.5,1-.6.9-.2,1.5-.3c.3,0,.6,0,.8-.1s.4-.1.5-.3.2-.3.2-.5c0-.3-.1-.6-.4-.8s-.6-.3-1-.3-.9.1-1.1.3-.4.5-.4.9h-1.1c0-.4.1-.7.3-1s.5-.6.9-.8.9-.3,1.4-.3.6,0,.9,0,.5.1.7.3c.3.2.5.4.6.7s.2.6.2,1.1v3c0,.2,0,.4.1.5s.2.2.4.2,0,0,.1,0,0,0,0,0h0v.8c0,0-.2,0-.3,0s-.2,0-.3,0c-.2,0-.4,0-.6-.1s-.3-.2-.4-.4-.1-.5-.1-.8h0c0,0,0,.3,0,.3h0c-.2.3-.5.5-.8.8s-.8.3-1.3.3ZM289.5,201.2c.4,0,.8,0,1.1-.3s.5-.4.6-.7.2-.5.2-.8v-1.1c-.1,0-.2.1-.4.2s-.3.1-.5.2-.3,0-.5.1c-.4,0-.7.1-.9.2s-.5.2-.6.4-.2.4-.2.7,0,.5.2.6.3.3.5.3.4,0,.6,0Z"/>
      <path class="cls-12" d="M296.8,202c-.6,0-1.2-.2-1.7-.5s-.8-.7-1.1-1.2-.4-1.1-.4-1.7.1-1.2.4-1.7.6-.9,1.1-1.2,1-.5,1.7-.5,1,0,1.4.3.7.4.9.8.4.7.5,1.2h-1.1c0-.3-.1-.5-.3-.7s-.3-.4-.6-.5-.5-.2-.8-.2-.8.1-1.1.3-.5.5-.7.9-.2.8-.2,1.3,0,.9.2,1.3.4.7.7.9.7.3,1.1.3.9-.1,1.2-.4.5-.7.5-1.1h1.1c0,.5-.2,1-.4,1.3s-.6.6-1,.8-.9.3-1.4.3Z"/>
      <path class="cls-12" d="M302.8,201.9c-.3,0-.5,0-.8-.1s-.4-.2-.5-.4-.2-.4-.2-.8v-4.3h-1v-.9h1v-2h1.1v2h1.3v.9h-1.3v4.1c0,.2,0,.4.2.5s.3.1.5.1.2,0,.3,0,.2,0,.3,0h0v.9c-.1,0-.3,0-.5,0s-.3,0-.5,0Z"/>
      <path class="cls-12" d="M307.5,202c-.6,0-1.1,0-1.5-.3s-.7-.4-1-.8-.4-.7-.4-1.1h1.1c0,.5.3.8.6,1s.7.3,1.2.3.9,0,1.1-.3.3-.4.3-.7,0-.4-.2-.6-.3-.2-.6-.3-.6-.2-.9-.2c-.3,0-.6-.1-.9-.2s-.5-.2-.8-.3-.4-.3-.5-.5-.2-.5-.2-.9,0-.7.3-1,.5-.5.8-.6.8-.2,1.3-.2,1,0,1.4.2.6.4.8.7.3.6.4,1h-1.1c0-.2-.1-.4-.2-.6s-.3-.3-.5-.3-.5-.1-.8-.1c-.4,0-.8,0-1,.3s-.3.4-.3.6,0,.4.2.5.3.2.6.3.6.1.9.2c.3,0,.6.1.9.2s.5.2.8.3.4.3.5.6.2.5.2.9-.1.8-.3,1.1-.5.5-.9.7-.8.2-1.3.2Z"/>
    </g>
  </g>
</svg>