<?xml version="1.0" encoding="UTF-8"?>
<svg xmlns="http://www.w3.org/2000/svg" version="1.1" xmlns:xlink="http://www.w3.org/1999/xlink" viewBox="0 0 453 282.3">
  <defs>
    <style>
      .cls-1 {
        fill: #5c725f;
      }

      .cls-1, .cls-2, .cls-3, .cls-4, .cls-5, .cls-6, .cls-7 {
        stroke-width: 0px;
      }

      .cls-2 {
        fill: url(#linear-gradient);
      }

      .cls-3 {
        fill: #231f20;
      }

      .cls-8 {
        fill: url(#linear-gradient-7);
      }

      .cls-8, .cls-9, .cls-10 {
        stroke: #5c725f;
        stroke-miterlimit: 10;
        stroke-width: .25px;
      }

      .cls-9 {
        fill: url(#linear-gradient-6);
      }

      .cls-4 {
        fill: url(#linear-gradient-2);
      }

      .cls-5 {
        fill: url(#linear-gradient-3);
      }

      .cls-10 {
        fill: url(#linear-gradient-5);
      }

      .cls-6 {
        fill: #e6e7e8;
      }

      .cls-11 {
        display: none;
      }

      .cls-7 {
        fill: url(#linear-gradient-4);
      }
    </style>
    <linearGradient id="linear-gradient" x1="228.17" y1="240.18" x2="228.17" y2="40.18" gradientUnits="userSpaceOnUse">
      <stop offset="0" stop-color="#ddeedf"/>
      <stop offset="1" stop-color="#b6ccbd"/>
    </linearGradient>
    <linearGradient id="linear-gradient-2" x1="153.67" y1="141.15" x2="153.67" y2="101.15" xlink:href="#linear-gradient"/>
    <linearGradient id="linear-gradient-3" x1="149.5" y1="202.55" x2="149.5" y2="162.55" gradientTransform="translate(454 338.39) rotate(-180)" xlink:href="#linear-gradient"/>
    <linearGradient id="linear-gradient-4" x1="121.5" y1="170" x2="121.5" y2="130" gradientTransform="translate(398.17 -55.83) rotate(90)" xlink:href="#linear-gradient"/>
    <linearGradient id="linear-gradient-5" x1="220.62" y1="245.91" x2="220.62" y2="106.88" xlink:href="#linear-gradient"/>
    <linearGradient id="linear-gradient-6" x1="195.86" y1="136.01" x2="195.86" y2="36.39" xlink:href="#linear-gradient"/>
    <linearGradient id="linear-gradient-7" x1="286.58" y1="181.57" x2="286.58" y2="46.59" xlink:href="#linear-gradient"/>
  </defs>
  <g id="Original" class="cls-11">
    <path class="cls-2" d="M228.17,40.18c-55.23,0-100,44.77-100,100s44.77,100,100,100,100-44.77,100-100-44.77-100-100-100ZM228.17,190.18c-27.61,0-50-22.39-50-50s22.39-50,50-50,50,22.39,50,50-22.39,50-50,50Z"/>
    <polygon class="cls-4" points="153.67 101.15 118.67 141.15 188.67 141.15 153.67 101.15"/>
    <polygon class="cls-5" points="304.5 175.84 339.5 135.84 269.5 135.84 304.5 175.84"/>
    <polygon class="cls-7" points="268.17 65.67 228.17 30.67 228.17 100.67 268.17 65.67"/>
  </g>
  <g id="Textboxes">
    <rect class="cls-6" x="308.51" y="64.93" width="80" height="45" rx="3.67" ry="3.67"/>
    <g>
      <path class="cls-3" d="M313.16,73.46c.17.36.39.65.67.87s.56.33.85.33.51-.07.68-.22c.17-.15.25-.34.25-.59,0-.38-.2-.68-.61-.91l-.64-.35c-.5-.28-.86-.57-1.08-.88s-.33-.69-.33-1.12c0-.49.17-.88.5-1.18.33-.3.77-.45,1.3-.45.57,0,1.09.1,1.55.3l-.36.91h-.09c-.29-.42-.66-.64-1.1-.64-.23,0-.41.06-.55.19-.14.12-.21.29-.21.48s.06.36.18.51c.12.15.32.3.59.45l.62.34c.4.22.71.5.93.83s.33.69.33,1.07c0,.56-.17,1.01-.51,1.34-.34.34-.79.5-1.35.5-.28,0-.58-.04-.91-.11-.33-.07-.6-.16-.81-.27v-1.39h.09Z"/>
      <path class="cls-3" d="M318.72,74.87c0,.93.02,1.62.06,2.09h-1.22c.04-.46.06-1.16.06-2.09v-1.85c0-.93-.02-1.63-.06-2.09h1.16v.4c.15-.19.32-.32.49-.41.17-.08.38-.13.61-.13.55,0,.99.2,1.32.59.32.39.49.94.49,1.62s-.16,1.23-.49,1.62c-.32.39-.76.59-1.32.59-.23,0-.44-.04-.61-.13-.17-.08-.34-.22-.49-.41v.16ZM318.72,73.02c0,.56.07.99.22,1.29s.34.45.6.45c.3,0,.52-.14.65-.41s.19-.71.19-1.33-.06-1.06-.19-1.33c-.13-.27-.34-.41-.65-.41-.26,0-.46.15-.6.45s-.22.73-.22,1.29Z"/>
      <path class="cls-3" d="M322.63,73.02c0-.93-.02-1.63-.06-2.09h1.16v.79c.13-.26.31-.48.54-.65.23-.18.45-.26.67-.26.11,0,.23.01.33.04v1.05h-.04c-.15-.11-.36-.16-.63-.16-.58,0-.87.29-.87.87v.42c0,.93.02,1.62.06,2.09h-1.22c.04-.46.06-1.16.06-2.09Z"/>
      <path class="cls-3" d="M326.1,69.21c0-.18.07-.34.2-.47.13-.13.29-.2.47-.2s.34.06.47.19.19.29.19.47-.06.34-.19.47-.29.19-.47.19-.34-.06-.47-.2c-.13-.13-.2-.29-.2-.47ZM326.22,73.02c0-.95-.02-1.65-.07-2.09h1.23c-.04.46-.06,1.16-.06,2.09s.02,1.62.06,2.09h-1.23c.04-.44.07-1.14.07-2.09Z"/>
      <path class="cls-3" d="M328.63,73.02c0-.93-.02-1.63-.06-2.09h1.16v.53c.37-.44.81-.65,1.31-.65.46,0,.81.13,1.05.39.25.26.37.63.37,1.1v.72c0,.93.02,1.62.06,2.09h-1.22c.04-.46.06-1.16.06-2.09v-.72c0-.31-.05-.54-.16-.67-.11-.13-.28-.2-.53-.2-.3,0-.54.09-.71.28-.17.19-.25.45-.25.8v.51c0,.93.02,1.62.06,2.09h-1.22c.04-.46.06-1.16.06-2.09Z"/>
      <path class="cls-3" d="M334.99,69.08c-.04.46-.06,1.08-.06,1.85.46,0,.76,0,.89-.03v.47c-.13-.02-.43-.03-.89-.03v3.1c0,.28.11.41.34.41.09,0,.19-.03.28-.09.09-.06.17-.14.23-.24h.04v.58c-.21.08-.46.13-.75.13-.41,0-.72-.11-.93-.32s-.32-.52-.32-.92v-2.65c-.29,0-.51,0-.64.03v-.47c.13.02.34.03.64.03,0-.53-.02-.99-.06-1.39l1.22-.47Z"/>
      <path class="cls-3" d="M339.37,72.09c0-1.55-.03-2.56-.09-3.04.23.02.55.03.94.03.25,0,.5-.01.75-.01.23,0,.46-.01.69-.01.51,0,.92.14,1.22.42.3.28.46.66.46,1.13,0,.58-.21,1.04-.62,1.38-.41.34-.98.51-1.69.51h-.37c0,1.26.03,2.13.09,2.61h-1.45c.06-.48.09-1.49.09-3.01ZM340.65,71.87h.37c.35,0,.62-.09.78-.27s.25-.46.25-.83c0-.33-.08-.59-.24-.78-.16-.19-.37-.28-.64-.28-.2,0-.38.02-.52.07v2.09Z"/>
      <path class="cls-3" d="M344.33,75.11c.04-.46.06-1.16.06-2.09v-2.4c0-.93-.02-1.63-.06-2.09h1.22c-.04.46-.06,1.16-.06,2.09v2.4c0,.93.02,1.62.06,2.09h-1.22Z"/>
      <path class="cls-3" d="M346.92,71.12c.45-.21.93-.32,1.44-.32,1.18,0,1.78.45,1.78,1.35v.87c0,.93.02,1.62.06,2.09h-1.16v-.55c-.31.45-.72.68-1.25.68-.35,0-.64-.1-.86-.31s-.33-.47-.33-.79c0-.34.12-.63.37-.88s.65-.47,1.2-.69l.87-.33v-.27c0-.52-.23-.78-.69-.78s-.93.22-1.38.65h-.04v-.71ZM349.03,72.66l-.78.31c-.19.07-.33.17-.41.29-.08.12-.12.29-.12.51,0,.23.05.43.15.6s.21.25.35.25c.2,0,.38-.09.55-.28.17-.19.26-.4.26-.63v-1.04Z"/>
      <path class="cls-3" d="M351.3,73.02c0-.93-.02-1.63-.06-2.09h1.16v.53c.37-.44.81-.65,1.31-.65.46,0,.81.13,1.05.39.25.26.37.63.37,1.1v.72c0,.93.02,1.62.06,2.09h-1.22c.04-.46.06-1.16.06-2.09v-.72c0-.31-.05-.54-.16-.67-.11-.13-.28-.2-.53-.2-.3,0-.54.09-.71.28-.17.19-.25.45-.25.8v.51c0,.93.02,1.62.06,2.09h-1.22c.04-.46.06-1.16.06-2.09Z"/>
      <path class="cls-3" d="M356.31,73.02c0-.93-.02-1.63-.06-2.09h1.16v.53c.37-.44.81-.65,1.31-.65.46,0,.81.13,1.05.39.25.26.37.63.37,1.1v.72c0,.93.02,1.62.06,2.09h-1.22c.04-.46.06-1.16.06-2.09v-.72c0-.31-.05-.54-.16-.67-.11-.13-.28-.2-.53-.2-.3,0-.54.09-.71.28-.17.19-.25.45-.25.8v.51c0,.93.02,1.62.06,2.09h-1.22c.04-.46.06-1.16.06-2.09Z"/>
      <path class="cls-3" d="M361.28,69.21c0-.18.07-.34.2-.47.13-.13.29-.2.47-.2s.34.06.47.19.19.29.19.47-.06.34-.19.47-.29.19-.47.19-.34-.06-.47-.2c-.13-.13-.2-.29-.2-.47ZM361.4,73.02c0-.95-.02-1.65-.07-2.09h1.23c-.04.46-.06,1.16-.06,2.09s.02,1.62.06,2.09h-1.23c.04-.44.07-1.14.07-2.09Z"/>
      <path class="cls-3" d="M363.81,73.02c0-.93-.02-1.63-.06-2.09h1.16v.53c.37-.44.81-.65,1.31-.65.46,0,.81.13,1.05.39.25.26.37.63.37,1.1v.72c0,.93.02,1.62.06,2.09h-1.22c.04-.46.06-1.16.06-2.09v-.72c0-.31-.05-.54-.16-.67-.11-.13-.28-.2-.53-.2-.3,0-.54.09-.71.28-.17.19-.25.45-.25.8v.51c0,.93.02,1.62.06,2.09h-1.22c.04-.46.06-1.16.06-2.09Z"/>
      <path class="cls-3" d="M371.21,74.15c.38,0,.69.11.94.34.24.23.37.51.37.84,0,.44-.22.81-.65,1.12-.47.33-1.07.5-1.82.5-.51,0-.92-.09-1.24-.27-.32-.18-.47-.41-.47-.7,0-.21.07-.39.21-.52.14-.14.41-.28.8-.42-.18-.05-.33-.13-.44-.24s-.17-.23-.17-.36c0-.39.27-.72.8-.99-.31-.1-.55-.26-.72-.48s-.25-.49-.25-.81c0-.41.15-.74.44-1,.29-.25.69-.38,1.2-.38.3,0,.55.04.76.13.18,0,.42-.01.72-.04.3-.03.55-.06.74-.09v.59c-.31-.05-.6-.08-.88-.08.2.24.29.52.29.86,0,.4-.15.73-.45.99s-.69.38-1.19.38c-.12,0-.21,0-.26,0-.2.11-.3.24-.3.4,0,.06.02.12.07.16.04.04.1.06.17.06h1.34ZM369.92,75.11c-.43.2-.65.46-.65.78,0,.24.08.41.24.52.16.11.41.16.76.16s.67-.1.93-.29c.24-.18.36-.38.36-.59,0-.39-.22-.58-.67-.58h-.97ZM370.2,71.18c-.19,0-.33.08-.41.23-.08.16-.13.41-.13.76s.04.59.13.75.22.24.41.24.32-.08.41-.24.13-.41.13-.75-.04-.6-.12-.76c-.08-.16-.22-.23-.41-.23Z"/>
    </g>
    <g>
      <path class="cls-3" d="M316.3,82.12c0,.29-.11.55-.32.76s-.46.32-.76.32-.55-.11-.76-.32-.32-.46-.32-.76.11-.55.32-.76.47-.32.76-.32.55.11.76.32.32.47.32.76Z"/>
      <path class="cls-3" d="M321,82.15c-.18,1.03-.27,1.7-.29,2.01h-.61c.1-.32.23-.99.41-2.01.18-1,.27-1.67.29-2.01h.61c-.1.32-.23.99-.41,2.01Z"/>
      <path class="cls-3" d="M324.04,81.8c.18-1.05.29-1.73.31-2.02h.54c-.09.32-.23,1.05-.42,2.19-.2,1.12-.31,1.85-.34,2.19h-.5l.07-.42c-.24.34-.56.51-.94.51s-.63-.13-.8-.39-.21-.62-.13-1.08c.08-.46.25-.82.51-1.08s.57-.39.93-.39c.39,0,.64.17.76.51ZM323.88,82.76c.07-.4.06-.71-.04-.93s-.26-.33-.5-.33c-.51,0-.83.42-.98,1.26-.07.41-.06.73.03.94s.26.32.51.32.45-.11.62-.33.29-.53.36-.93Z"/>
      <path class="cls-3" d="M325.66,82.78c-.07.41-.05.72.07.94s.33.33.62.33c.16,0,.33-.04.5-.11s.32-.17.45-.28l-.06.34c-.12.07-.27.13-.47.18s-.37.07-.55.07c-.42,0-.73-.13-.92-.38s-.25-.62-.16-1.08c.08-.45.26-.81.54-1.08s.61-.41.99-.41.66.13.83.39.21.63.13,1.1h-1.97ZM327.13,82.59c.11-.74-.05-1.11-.5-1.11-.23,0-.43.1-.59.29s-.28.46-.35.82h1.44Z"/>
      <path class="cls-3" d="M328.14,84.16c.07-.27.17-.73.28-1.39.11-.61.17-1.07.2-1.39h.5l-.07.41c.31-.33.66-.5,1.04-.5.29,0,.49.09.62.26s.16.42.11.73l-.08.48c-.1.56-.16,1.03-.2,1.39h-.54c.07-.27.17-.73.28-1.39l.08-.48c.08-.48-.06-.72-.44-.72-.21,0-.42.09-.62.26s-.32.37-.36.6l-.06.34c-.1.56-.16,1.03-.2,1.39h-.54Z"/>
      <path class="cls-3" d="M332.76,80.14c-.09.35-.17.76-.25,1.24.24,0,.44,0,.6-.02l-.06.3c-.15-.01-.35-.02-.59-.02l-.35,2.02c-.02.12-.01.21.03.28s.09.11.17.11c.12,0,.23-.04.33-.11h.03l-.04.22c-.13.06-.28.08-.43.08-.22,0-.37-.06-.46-.17s-.11-.29-.07-.53l.33-1.9c-.16,0-.3,0-.42.02l.06-.3c.12.01.25.02.41.02.06-.37.1-.67.11-.93l.59-.31Z"/>
      <path class="cls-3" d="M333.31,84.16c.07-.25.16-.71.28-1.39.11-.63.18-1.09.21-1.39h.54c-.08.32-.18.78-.29,1.39-.1.59-.17,1.05-.2,1.39h-.54ZM334.59,80.41c-.01.1-.06.18-.14.25s-.17.11-.27.11-.18-.04-.24-.11-.08-.16-.06-.25c.02-.1.07-.18.15-.25s.17-.11.27-.11.18.04.23.11.08.16.06.25Z"/>
      <path class="cls-3" d="M334.9,84.16c.07-.27.21-1,.42-2.19l.06-.33c-.15,0-.29,0-.42.02l.05-.3c.12.01.26.02.42.02l.03-.19c.05-.32.22-.63.5-.96.12-.14.25-.25.37-.33s.22-.12.31-.12c.05,0,.11,0,.17.02l-.08.5h-.03c-.07-.06-.18-.1-.33-.1-.18,0-.3.13-.35.39l-.13.78c.26,0,.46,0,.61-.02l-.05.3c-.14-.01-.34-.02-.6-.02l-.06.33c-.19,1.1-.3,1.83-.33,2.19h-.54Z"/>
      <path class="cls-3" d="M337.49,84c-.34-1.36-.58-2.23-.72-2.62h.59c.01.13.05.32.11.58s.18.75.36,1.47c.61-.99,1.01-1.67,1.2-2.04h.38c-.21.29-.63.96-1.25,1.99-.48.79-.77,1.3-.89,1.5s-.21.38-.28.52h-.39c.19-.26.49-.73.89-1.39Z"/>
      <path class="cls-3" d="M341.8,81.57c.35-.19.71-.28,1.08-.28.29,0,.51.08.64.24s.18.38.13.67l-.1.57c-.1.58-.17,1.05-.2,1.39h-.5l.08-.48c-.09.16-.24.29-.43.4s-.39.16-.58.16c-.24,0-.42-.06-.54-.19s-.17-.3-.13-.52c.04-.24.16-.45.34-.6s.46-.3.84-.43l.76-.25v-.05c.06-.24.04-.42-.03-.54s-.21-.17-.42-.17c-.17,0-.34.04-.52.13s-.33.19-.44.33h-.03l.07-.37ZM343.15,82.45l-.69.23c-.19.06-.34.16-.46.28s-.19.27-.22.45c-.03.16,0,.29.06.39s.18.15.32.15c.21,0,.39-.09.56-.26s.27-.38.32-.63l.11-.59Z"/>
      <path class="cls-3" d="M344.25,84.16c.07-.27.17-.73.28-1.39.11-.61.17-1.07.2-1.39h.5l-.07.41c.31-.33.66-.5,1.04-.5.29,0,.49.09.62.26s.16.42.11.73l-.08.48c-.1.56-.16,1.03-.2,1.39h-.54c.07-.27.17-.73.28-1.39l.08-.48c.08-.48-.06-.72-.44-.72-.21,0-.42.09-.62.26s-.32.37-.36.6l-.06.34c-.1.56-.16,1.03-.2,1.39h-.54Z"/>
      <path class="cls-3" d="M349.83,81.8c.18-1.05.29-1.73.31-2.02h.54c-.09.32-.23,1.05-.42,2.19-.2,1.12-.31,1.85-.34,2.19h-.5l.07-.42c-.24.34-.56.51-.94.51s-.63-.13-.8-.39-.21-.62-.13-1.08c.08-.46.25-.82.51-1.08s.57-.39.93-.39c.39,0,.64.17.76.51ZM349.66,82.76c.07-.4.06-.71-.04-.93s-.26-.33-.5-.33c-.51,0-.83.42-.98,1.26-.07.41-.06.73.03.94s.26.32.51.32.45-.11.62-.33.29-.53.36-.93Z"/>
      <path class="cls-3" d="M353.11,82.78c-.07.41-.05.72.07.94s.33.33.62.33c.16,0,.33-.04.5-.11s.32-.17.45-.28l-.06.34c-.12.07-.27.13-.47.18s-.37.07-.55.07c-.42,0-.73-.13-.92-.38s-.25-.62-.16-1.08c.08-.45.26-.81.54-1.08s.61-.41.99-.41.66.13.83.39.21.63.13,1.1h-1.97ZM354.59,82.59c.11-.74-.05-1.11-.5-1.11-.23,0-.43.1-.59.29s-.28.46-.35.82h1.44Z"/>
      <path class="cls-3" d="M357.32,81.88c-.05-.27-.24-.4-.57-.4-.16,0-.29.04-.39.11s-.17.18-.19.3c-.04.21.07.37.33.48l.52.23c.17.08.3.18.37.32s.1.29.06.46c-.04.26-.17.46-.39.62s-.49.23-.81.23c-.15,0-.29-.02-.44-.05s-.27-.08-.35-.14l.09-.5h.03c.06.15.16.27.3.36s.3.13.47.13c.19,0,.34-.04.47-.13s.2-.2.22-.34c.02-.12,0-.22-.05-.3s-.14-.15-.28-.21l-.48-.21c-.38-.17-.54-.44-.47-.8.04-.21.15-.39.36-.54s.43-.22.7-.22c.32,0,.58.07.79.2l-.22.4h-.06Z"/>
      <path class="cls-3" d="M359.21,80.14c-.09.35-.17.76-.25,1.24.24,0,.44,0,.6-.02l-.06.3c-.15-.01-.35-.02-.59-.02l-.35,2.02c-.02.12-.01.21.03.28s.09.11.17.11c.12,0,.23-.04.33-.11h.03l-.04.22c-.13.06-.28.08-.43.08-.22,0-.37-.06-.46-.17s-.11-.29-.07-.53l.33-1.9c-.16,0-.3,0-.42.02l.06-.3c.12.01.25.02.41.02.06-.37.1-.67.11-.93l.59-.31Z"/>
      <path class="cls-3" d="M359.76,84.16c.07-.25.16-.71.28-1.39.11-.63.18-1.09.21-1.39h.54c-.08.32-.18.78-.29,1.39-.1.59-.17,1.05-.2,1.39h-.54ZM361.04,80.41c-.01.1-.06.18-.14.25s-.17.11-.27.11-.18-.04-.24-.11-.08-.16-.06-.25c.02-.1.07-.18.15-.25s.17-.11.27-.11.18.04.23.11.08.16.06.25Z"/>
      <path class="cls-3" d="M361.37,84.16c.07-.27.17-.73.28-1.39.11-.61.17-1.07.2-1.39h.5l-.08.47c.14-.18.3-.31.48-.41s.36-.14.54-.14c.42,0,.65.2.68.59.33-.4.69-.59,1.08-.59.55,0,.77.33.65,1l-.08.48c-.1.59-.17,1.05-.2,1.39h-.54c.07-.28.17-.74.28-1.39l.08-.48c.04-.25.03-.43-.03-.55s-.18-.17-.35-.17c-.21,0-.41.09-.6.26s-.31.37-.35.6l-.06.34c-.1.56-.16,1.03-.2,1.39h-.54c.07-.28.17-.74.28-1.39l.08-.48c.04-.25.04-.43-.02-.55s-.18-.17-.35-.17c-.21,0-.41.09-.6.26s-.31.37-.35.6l-.06.34c-.1.56-.16,1.03-.2,1.39h-.54Z"/>
      <path class="cls-3" d="M366.92,81.57c.35-.19.71-.28,1.08-.28.29,0,.51.08.64.24s.18.38.13.67l-.1.57c-.1.58-.17,1.05-.2,1.39h-.5l.08-.48c-.09.16-.24.29-.43.4s-.39.16-.58.16c-.24,0-.42-.06-.54-.19s-.17-.3-.13-.52c.04-.24.16-.45.34-.6s.46-.3.84-.43l.76-.25v-.05c.06-.24.04-.42-.03-.54s-.21-.17-.42-.17c-.17,0-.34.04-.52.13s-.33.19-.44.33h-.03l.07-.37ZM368.27,82.45l-.69.23c-.19.06-.34.16-.46.28s-.19.27-.22.45c-.03.16,0,.29.06.39s.18.15.32.15c.21,0,.39-.09.56-.26s.27-.38.32-.63l.11-.59Z"/>
      <path class="cls-3" d="M370.65,80.14c-.09.35-.17.76-.25,1.24.24,0,.44,0,.6-.02l-.06.3c-.15-.01-.35-.02-.59-.02l-.35,2.02c-.02.12-.01.21.03.28s.09.11.17.11c.12,0,.23-.04.33-.11h.03l-.04.22c-.13.06-.28.08-.43.08-.22,0-.37-.06-.46-.17s-.11-.29-.07-.53l.33-1.9c-.16,0-.3,0-.42.02l.06-.3c.12.01.25.02.41.02.06-.37.1-.67.11-.93l.59-.31Z"/>
      <path class="cls-3" d="M371.66,82.78c-.07.41-.05.72.07.94s.33.33.62.33c.16,0,.33-.04.5-.11s.32-.17.45-.28l-.06.34c-.12.07-.27.13-.47.18s-.37.07-.55.07c-.42,0-.73-.13-.92-.38s-.25-.62-.16-1.08c.08-.45.26-.81.54-1.08s.61-.41.99-.41.66.13.83.39.21.63.13,1.1h-1.97ZM373.14,82.59c.11-.74-.05-1.11-.5-1.11-.23,0-.43.1-.59.29s-.28.46-.35.82h1.44Z"/>
      <path class="cls-3" d="M320.08,91.36c.07-.25.16-.71.28-1.39.11-.63.18-1.09.21-1.39h.54c-.08.32-.18.78-.29,1.39-.1.59-.17,1.05-.2,1.39h-.54ZM321.36,87.61c-.01.1-.06.18-.14.25s-.17.11-.27.11-.18-.04-.24-.11-.08-.16-.06-.25c.02-.1.07-.18.15-.25s.17-.11.27-.11.18.04.23.11.08.16.06.25Z"/>
      <path class="cls-3" d="M322.98,87.34c-.09.35-.17.76-.25,1.24.24,0,.44,0,.6-.02l-.06.3c-.15-.01-.35-.02-.59-.02l-.35,2.02c-.02.12-.01.21.03.28s.09.11.17.11c.12,0,.23-.04.33-.11h.03l-.04.22c-.13.06-.28.08-.43.08-.22,0-.37-.06-.46-.17s-.11-.29-.07-.53l.33-1.9c-.16,0-.3,0-.42.02l.06-.3c.12.01.25.02.41.02.06-.37.1-.67.11-.93l.59-.31Z"/>
      <path class="cls-3" d="M323.99,89.98c-.07.41-.05.72.07.94s.33.33.62.33c.16,0,.33-.04.5-.11s.32-.17.45-.28l-.06.34c-.12.07-.27.13-.47.18s-.37.07-.55.07c-.42,0-.73-.13-.92-.38s-.25-.62-.16-1.08c.08-.45.26-.81.54-1.08s.61-.41.99-.41.66.13.83.39.21.63.13,1.1h-1.97ZM325.46,89.79c.11-.74-.05-1.11-.5-1.11-.23,0-.43.1-.59.29s-.28.46-.35.82h1.44Z"/>
      <path class="cls-3" d="M326.47,91.36c.07-.27.17-.73.28-1.39.11-.61.17-1.07.2-1.39h.5l-.08.47c.14-.18.3-.31.48-.41s.36-.14.54-.14c.42,0,.65.2.68.59.33-.4.69-.59,1.08-.59.55,0,.77.33.65,1l-.08.48c-.1.59-.17,1.05-.2,1.39h-.54c.07-.28.17-.74.28-1.39l.08-.48c.04-.25.03-.43-.03-.55s-.18-.17-.35-.17c-.21,0-.41.09-.6.26s-.31.37-.35.6l-.06.34c-.1.56-.16,1.03-.2,1.39h-.54c.07-.28.17-.74.28-1.39l.08-.48c.04-.25.04-.43-.02-.55s-.18-.17-.35-.17c-.21,0-.41.09-.6.26s-.31.37-.35.6l-.06.34c-.1.56-.16,1.03-.2,1.39h-.54Z"/>
      <path class="cls-3" d="M333.19,89.08c-.05-.27-.24-.4-.57-.4-.16,0-.29.04-.39.11s-.17.18-.19.3c-.04.21.07.37.33.48l.52.23c.17.08.3.18.37.32s.1.29.06.46c-.04.26-.17.46-.39.62s-.49.23-.81.23c-.15,0-.29-.02-.44-.05s-.27-.08-.35-.14l.09-.5h.03c.06.15.16.27.3.36s.3.13.47.13c.19,0,.34-.04.47-.13s.2-.2.22-.34c.02-.12,0-.22-.05-.3s-.14-.15-.28-.21l-.48-.21c-.38-.17-.54-.44-.47-.8.04-.21.15-.39.36-.54s.43-.22.7-.22c.32,0,.58.07.79.2l-.22.4h-.06Z"/>
      <path class="cls-3" d="M336.75,87.34c-.09.35-.17.76-.25,1.24.24,0,.44,0,.6-.02l-.06.3c-.15-.01-.35-.02-.59-.02l-.35,2.02c-.02.12-.01.21.03.28s.09.11.17.11c.12,0,.23-.04.33-.11h.03l-.04.22c-.13.06-.28.08-.43.08-.22,0-.37-.06-.46-.17s-.11-.29-.07-.53l.33-1.9c-.16,0-.3,0-.42.02l.06-.3c.12.01.25.02.41.02.06-.37.1-.67.11-.93l.59-.31Z"/>
      <path class="cls-3" d="M338.9,88.49c.41,0,.72.13.92.4s.27.63.19,1.07c-.08.45-.27.81-.56,1.07s-.65.4-1.06.4-.72-.13-.93-.4-.27-.63-.19-1.07c.08-.45.27-.81.57-1.07s.65-.4,1.06-.4ZM338.88,88.68c-.27,0-.5.11-.69.34s-.32.54-.39.94c-.07.41-.05.72.06.95s.3.34.57.34.5-.11.69-.34.32-.54.39-.95c.07-.4.05-.72-.05-.94s-.3-.34-.57-.34Z"/>
      <path class="cls-3" d="M344.49,89c.18-1.05.29-1.73.31-2.02h.54c-.09.32-.23,1.05-.42,2.19-.2,1.12-.31,1.85-.34,2.19h-.5l.07-.42c-.24.34-.56.51-.94.51s-.63-.13-.8-.39-.21-.62-.13-1.08c.08-.46.25-.82.51-1.08s.57-.39.93-.39c.39,0,.64.17.76.51ZM344.32,89.96c.07-.4.06-.71-.04-.93s-.26-.33-.5-.33c-.51,0-.83.42-.98,1.26-.07.41-.06.73.03.94s.26.32.51.32.45-.11.62-.33.29-.53.36-.93Z"/>
      <path class="cls-3" d="M346.11,89.98c-.07.41-.05.72.07.94s.33.33.62.33c.16,0,.33-.04.5-.11s.32-.17.45-.28l-.06.34c-.12.07-.27.13-.47.18s-.37.07-.55.07c-.42,0-.73-.13-.92-.38s-.25-.62-.16-1.08c.08-.45.26-.81.54-1.08s.61-.41.99-.41.66.13.83.39.21.63.13,1.1h-1.97ZM347.58,89.79c.11-.74-.05-1.11-.5-1.11-.23,0-.43.1-.59.29s-.28.46-.35.82h1.44Z"/>
      <path class="cls-3" d="M348.64,91.36c.07-.25.21-.98.42-2.19.2-1.17.32-1.9.34-2.19h.54c-.09.32-.23,1.05-.42,2.19-.2,1.12-.31,1.85-.34,2.19h-.54Z"/>
      <path class="cls-3" d="M350.31,91.36c.07-.25.16-.71.28-1.39.11-.63.18-1.09.21-1.39h.54c-.08.32-.18.78-.29,1.39-.1.59-.17,1.05-.2,1.39h-.54ZM351.59,87.61c-.01.1-.06.18-.14.25s-.17.11-.27.11-.18-.04-.24-.11-.08-.16-.06-.25c.02-.1.07-.18.15-.25s.17-.11.27-.11.18.04.23.11.08.16.06.25Z"/>
      <path class="cls-3" d="M352.81,91.36c-.02-.18-.13-.64-.33-1.4-.19-.7-.32-1.16-.4-1.38h.59c.02.19.09.52.21.98l.27,1.06.64-1.06c.21-.34.39-.67.55-.98h.38c-.18.24-.47.7-.87,1.37-.4.66-.67,1.13-.81,1.41h-.24Z"/>
      <path class="cls-3" d="M355.44,89.98c-.07.41-.05.72.07.94s.33.33.62.33c.16,0,.33-.04.5-.11s.32-.17.45-.28l-.06.34c-.12.07-.27.13-.47.18s-.37.07-.55.07c-.42,0-.73-.13-.92-.38s-.25-.62-.16-1.08c.08-.45.26-.81.54-1.08s.61-.41.99-.41.66.13.83.39.21.63.13,1.1h-1.97ZM356.91,89.79c.11-.74-.05-1.11-.5-1.11-.23,0-.43.1-.59.29s-.28.46-.35.82h1.44Z"/>
      <path class="cls-3" d="M357.85,91.36c.07-.28.17-.74.28-1.39.11-.63.18-1.09.21-1.39h.5l-.1.57c.34-.43.65-.65.91-.65.11,0,.2.02.26.05l-.09.52h-.03c-.06-.08-.17-.12-.31-.12-.15,0-.31.07-.49.22-.19.16-.31.34-.35.55l-.05.26c-.1.59-.17,1.05-.2,1.39h-.54Z"/>
      <path class="cls-3" d="M361.64,91.36c.07-.25.16-.71.28-1.39.11-.63.18-1.09.21-1.39h.54c-.08.32-.18.78-.29,1.39-.1.59-.17,1.05-.2,1.39h-.54ZM362.92,87.61c-.01.1-.06.18-.14.25s-.17.11-.27.11-.18-.04-.24-.11-.08-.16-.06-.25c.02-.1.07-.18.15-.25s.17-.11.27-.11.18.04.23.11.08.16.06.25Z"/>
      <path class="cls-3" d="M363.25,91.36c.07-.27.17-.73.28-1.39.11-.61.17-1.07.2-1.39h.5l-.07.41c.31-.33.66-.5,1.04-.5.29,0,.49.09.62.26s.16.42.11.73l-.08.48c-.1.56-.16,1.03-.2,1.39h-.54c.07-.27.17-.73.28-1.39l.08-.48c.08-.48-.06-.72-.44-.72-.21,0-.42.09-.62.26s-.32.37-.36.6l-.06.34c-.1.56-.16,1.03-.2,1.39h-.54Z"/>
      <path class="cls-3" d="M368.34,90.44c.16.49.47.74.94.74.23,0,.43-.06.59-.18s.25-.28.29-.48c.06-.34-.08-.61-.4-.8l-.44-.27c-.28-.17-.47-.35-.58-.53s-.14-.4-.1-.64c.05-.29.2-.54.45-.73s.54-.3.87-.3c.38,0,.71.07,1,.2l-.27.44h-.06c-.06-.12-.15-.21-.27-.27s-.27-.1-.44-.1c-.21,0-.38.05-.52.16s-.23.25-.26.43c-.03.17,0,.31.08.44s.23.26.46.39l.38.23c.48.29.69.66.61,1.12-.06.35-.22.63-.48.85s-.57.32-.93.32c-.46,0-.82-.11-1.09-.32l.12-.68h.06Z"/>
      <path class="cls-3" d="M371.82,90.93c-.14.82-.22,1.37-.25,1.66h-.54c.08-.32.22-.99.4-2.01.18-1.03.28-1.7.3-2h.5l-.08.42c.25-.34.56-.51.94-.51s.63.13.8.39.21.62.13,1.08c-.08.46-.25.82-.51,1.08s-.57.39-.93.39c-.38,0-.64-.17-.77-.51ZM371.98,89.96c-.07.4-.05.71.04.93s.26.33.5.33.46-.11.62-.32.28-.53.35-.94c.07-.41.07-.73-.03-.94s-.26-.32-.51-.32-.45.11-.62.33-.29.53-.37.93Z"/>
      <path class="cls-3" d="M374.52,91.36c.07-.28.17-.74.28-1.39.11-.63.18-1.09.21-1.39h.5l-.1.57c.34-.43.65-.65.91-.65.11,0,.2.02.26.05l-.09.52h-.03c-.06-.08-.17-.12-.31-.12-.15,0-.31.07-.49.22-.19.16-.31.34-.35.55l-.05.26c-.1.59-.17,1.05-.2,1.39h-.54Z"/>
      <path class="cls-3" d="M376.65,91.36c.07-.25.16-.71.28-1.39.11-.63.18-1.09.21-1.39h.54c-.08.32-.18.78-.29,1.39-.1.59-.17,1.05-.2,1.39h-.54ZM377.92,87.61c-.01.1-.06.18-.14.25s-.17.11-.27.11-.18-.04-.24-.11-.08-.16-.06-.25c.02-.1.07-.18.15-.25s.17-.11.27-.11.18.04.23.11.08.16.06.25Z"/>
      <path class="cls-3" d="M378.26,91.36c.07-.27.17-.73.28-1.39.11-.61.17-1.07.2-1.39h.5l-.07.41c.31-.33.66-.5,1.04-.5.29,0,.49.09.62.26s.16.42.11.73l-.08.48c-.1.56-.16,1.03-.2,1.39h-.54c.07-.27.17-.73.28-1.39l.08-.48c.08-.48-.06-.72-.44-.72-.21,0-.42.09-.62.26s-.32.37-.36.6l-.06.34c-.1.56-.16,1.03-.2,1.39h-.54Z"/>
      <path class="cls-3" d="M382.88,87.34c-.09.35-.17.76-.25,1.24.24,0,.44,0,.6-.02l-.06.3c-.15-.01-.35-.02-.59-.02l-.35,2.02c-.02.12-.01.21.03.28s.09.11.17.11c.12,0,.23-.04.33-.11h.03l-.04.22c-.13.06-.28.08-.43.08-.22,0-.37-.06-.46-.17s-.11-.29-.07-.53l.33-1.9c-.16,0-.3,0-.42.02l.06-.3c.12.01.25.02.41.02.06-.37.1-.67.11-.93l.59-.31Z"/>
      <path class="cls-3" d="M384.02,91.16l-1.01,1.29-.13-.06.74-1.47c.07-.14.16-.21.28-.21.07,0,.13.02.18.07s.06.1.05.16c-.01.06-.05.14-.11.21Z"/>
      <path class="cls-3" d="M320.59,98.13c-.14.82-.22,1.37-.25,1.66h-.54c.08-.32.22-.99.4-2.01.18-1.03.28-1.7.3-2h.5l-.08.42c.25-.34.56-.51.94-.51s.63.13.8.39.21.62.13,1.08c-.08.46-.25.82-.51,1.08s-.57.39-.93.39c-.38,0-.64-.17-.77-.51ZM320.75,97.16c-.07.4-.05.71.04.93s.26.33.5.33.46-.11.62-.32.28-.53.35-.94c.07-.41.07-.73-.03-.94s-.26-.32-.51-.32-.45.11-.62.33-.29.53-.37.93Z"/>
      <path class="cls-3" d="M323.42,98.56c.07-.25.21-.98.42-2.19.2-1.17.32-1.9.34-2.19h.54c-.09.32-.23,1.05-.42,2.19-.2,1.12-.31,1.85-.34,2.19h-.54Z"/>
      <path class="cls-3" d="M325.58,95.97c.35-.19.71-.28,1.08-.28.29,0,.51.08.64.24s.18.38.13.67l-.1.57c-.1.58-.17,1.05-.2,1.39h-.5l.08-.48c-.09.16-.24.29-.43.4s-.39.16-.58.16c-.24,0-.42-.06-.54-.19s-.17-.3-.13-.52c.04-.24.16-.45.34-.6s.46-.3.84-.43l.76-.25v-.05c.06-.24.04-.42-.03-.54s-.21-.17-.42-.17c-.17,0-.34.04-.52.13s-.33.19-.44.33h-.03l.07-.37ZM326.93,96.85l-.69.23c-.19.06-.34.16-.46.28s-.19.27-.22.45c-.03.16,0,.29.06.39s.18.15.32.15c.21,0,.39-.09.56-.26s.27-.38.32-.63l.11-.59Z"/>
      <path class="cls-3" d="M328.03,98.56c.07-.27.17-.73.28-1.39.11-.61.17-1.07.2-1.39h.5l-.07.41c.31-.33.66-.5,1.04-.5.29,0,.49.09.62.26s.16.42.11.73l-.08.48c-.1.56-.16,1.03-.2,1.39h-.54c.07-.27.17-.73.28-1.39l.08-.48c.08-.48-.06-.72-.44-.72-.21,0-.42.09-.62.26s-.32.37-.36.6l-.06.34c-.1.56-.16,1.03-.2,1.39h-.54Z"/>
      <path class="cls-3" d="M333.04,98.56c.07-.27.17-.73.28-1.39.11-.61.17-1.07.2-1.39h.5l-.07.41c.31-.33.66-.5,1.04-.5.29,0,.49.09.62.26s.16.42.11.73l-.08.48c-.1.56-.16,1.03-.2,1.39h-.54c.07-.27.17-.73.28-1.39l.08-.48c.08-.48-.06-.72-.44-.72-.21,0-.42.09-.62.26s-.32.37-.36.6l-.06.34c-.1.56-.16,1.03-.2,1.39h-.54Z"/>
      <path class="cls-3" d="M336.89,97.18c-.07.41-.05.72.07.94s.33.33.62.33c.16,0,.33-.04.5-.11s.32-.17.45-.28l-.06.34c-.12.07-.27.13-.47.18s-.37.07-.55.07c-.42,0-.73-.13-.92-.38s-.25-.62-.16-1.08c.08-.45.26-.81.54-1.08s.61-.41.99-.41.66.13.83.39.21.63.13,1.1h-1.97ZM338.37,96.99c.11-.74-.05-1.11-.5-1.11-.23,0-.43.1-.59.29s-.28.46-.35.82h1.44Z"/>
      <path class="cls-3" d="M339.89,97.18c-.07.41-.05.72.07.94s.33.33.62.33c.16,0,.33-.04.5-.11s.32-.17.45-.28l-.06.34c-.12.07-.27.13-.47.18s-.37.07-.55.07c-.42,0-.73-.13-.92-.38s-.25-.62-.16-1.08c.08-.45.26-.81.54-1.08s.61-.41.99-.41.66.13.83.39.21.63.13,1.1h-1.97ZM341.37,96.99c.11-.74-.05-1.11-.5-1.11-.23,0-.43.1-.59.29s-.28.46-.35.82h1.44Z"/>
      <path class="cls-3" d="M344.61,96.2c.18-1.05.29-1.73.31-2.02h.54c-.09.32-.23,1.05-.42,2.19-.2,1.12-.31,1.85-.34,2.19h-.5l.07-.42c-.24.34-.56.51-.94.51s-.63-.13-.8-.39-.21-.62-.13-1.08c.08-.46.25-.82.51-1.08s.57-.39.93-.39c.39,0,.64.17.76.51ZM344.44,97.16c.07-.4.06-.71-.04-.93s-.26-.33-.5-.33c-.51,0-.83.42-.98,1.26-.07.41-.06.73.03.94s.26.32.51.32.45-.11.62-.33.29-.53.36-.93Z"/>
      <path class="cls-3" d="M346.23,97.18c-.07.41-.05.72.07.94s.33.33.62.33c.16,0,.33-.04.5-.11s.32-.17.45-.28l-.06.34c-.12.07-.27.13-.47.18s-.37.07-.55.07c-.42,0-.73-.13-.92-.38s-.25-.62-.16-1.08c.08-.45.26-.81.54-1.08s.61-.41.99-.41.66.13.83.39.21.63.13,1.1h-1.97ZM347.7,96.99c.11-.74-.05-1.11-.5-1.11-.23,0-.43.1-.59.29s-.28.46-.35.82h1.44Z"/>
      <path class="cls-3" d="M350.95,96.2c.18-1.05.29-1.73.31-2.02h.54c-.09.32-.23,1.05-.42,2.19-.2,1.12-.31,1.85-.34,2.19h-.5l.07-.42c-.24.34-.56.51-.94.51s-.63-.13-.8-.39-.21-.62-.13-1.08c.08-.46.25-.82.51-1.08s.57-.39.93-.39c.39,0,.64.17.76.51ZM350.78,97.16c.07-.4.06-.71-.04-.93s-.26-.33-.5-.33c-.51,0-.83.42-.98,1.26-.07.41-.06.73.03.94s.26.32.51.32.45-.11.62-.33.29-.53.36-.93Z"/>
      <path class="cls-3" d="M354.56,98.56c-.03-.21-.13-.67-.3-1.4-.19-.73-.31-1.19-.38-1.38h.58c.08.42.15.75.21.99l.25,1.03.65-1.12c.22-.38.39-.71.53-.98h.1c.02.13.09.47.21,1l.26,1.12.62-1.05c.27-.46.45-.78.55-.98h.37c-.13.18-.42.64-.86,1.37-.35.58-.61,1.05-.79,1.41h-.23c-.01-.1-.08-.43-.2-.98l-.22-.95-.57.96c-.16.27-.33.6-.52.97h-.23Z"/>
      <path class="cls-3" d="M360.04,95.69c.41,0,.72.13.92.4s.27.63.19,1.07c-.08.45-.27.81-.56,1.07s-.65.4-1.06.4-.72-.13-.93-.4-.27-.63-.19-1.07c.08-.45.27-.81.57-1.07s.65-.4,1.06-.4ZM360.01,95.88c-.27,0-.5.11-.69.34s-.32.54-.39.94c-.07.41-.05.72.06.95s.3.34.57.34.5-.11.69-.34.32-.54.39-.95c.07-.4.05-.72-.05-.94s-.3-.34-.57-.34Z"/>
      <path class="cls-3" d="M361.65,98.56c.07-.28.17-.74.28-1.39.11-.63.18-1.09.21-1.39h.5l-.1.57c.34-.43.65-.65.91-.65.11,0,.2.02.26.05l-.09.52h-.03c-.06-.08-.17-.12-.31-.12-.15,0-.31.07-.49.22-.19.16-.31.34-.35.55l-.05.26c-.1.59-.17,1.05-.2,1.39h-.54Z"/>
      <path class="cls-3" d="M364.13,96.37c.2-1.12.31-1.85.34-2.19h.54c-.08.28-.22,1.01-.43,2.19l-.09.55.65-.52c.28-.23.51-.43.69-.62h.51c-.27.18-.57.41-.91.7l-.54.44.61.88c.2.29.4.54.59.77h-.71c-.09-.19-.19-.37-.31-.54l-.61-.86c-.1.57-.17,1.03-.2,1.4h-.54c.07-.27.21-1,.42-2.19Z"/>
      <path class="cls-3" d="M366.74,98.3c.02-.09.07-.17.15-.24s.16-.1.26-.1.17.03.22.1.07.15.06.24c-.01.09-.06.17-.14.24s-.16.1-.26.1-.17-.03-.23-.1-.08-.15-.06-.24Z"/>
    </g>
    <rect class="cls-6" x="125.71" y="10.62" width="92" height="45" rx="3.67" ry="3.67"/>
    <g>
      <path class="cls-3" d="M130.45,19.16c.17.36.39.65.67.87s.56.33.85.33.51-.07.68-.22c.17-.15.25-.34.25-.59,0-.38-.2-.68-.61-.91l-.64-.35c-.5-.28-.86-.57-1.08-.88s-.33-.69-.33-1.12c0-.49.17-.88.5-1.18.34-.3.77-.45,1.3-.45.57,0,1.09.1,1.55.3l-.36.91h-.09c-.29-.42-.66-.64-1.1-.64-.23,0-.41.06-.55.19-.14.12-.21.29-.21.48s.06.36.18.51c.12.15.32.3.59.45l.62.34c.4.22.71.5.93.83s.33.69.33,1.07c0,.56-.17,1.01-.51,1.34-.34.34-.79.5-1.35.5-.28,0-.58-.04-.91-.11-.33-.07-.6-.16-.81-.27v-1.39h.09Z"/>
      <path class="cls-3" d="M136.02,20.56c0,.93.02,1.62.06,2.09h-1.22c.04-.46.06-1.16.06-2.09v-1.85c0-.93-.02-1.63-.06-2.09h1.16v.4c.15-.19.31-.32.49-.41.17-.08.38-.13.61-.13.55,0,.99.2,1.32.59s.49.94.49,1.62-.16,1.23-.49,1.62c-.32.39-.76.59-1.32.59-.23,0-.44-.04-.61-.13-.17-.08-.34-.22-.49-.41v.16ZM136.02,18.71c0,.56.07.99.22,1.29s.34.45.6.45c.3,0,.52-.14.65-.41s.19-.71.19-1.33-.06-1.06-.19-1.33c-.13-.27-.34-.41-.65-.41-.26,0-.46.15-.6.45s-.22.73-.22,1.29Z"/>
      <path class="cls-3" d="M139.92,18.71c0-.93-.02-1.63-.06-2.09h1.16v.79c.13-.26.31-.48.54-.65.23-.18.45-.26.67-.26.11,0,.23.01.33.04v1.05h-.04c-.15-.11-.36-.16-.63-.16-.58,0-.87.29-.87.87v.42c0,.93.02,1.62.06,2.09h-1.22c.04-.46.06-1.16.06-2.09Z"/>
      <path class="cls-3" d="M143.4,14.9c0-.18.06-.34.2-.47.13-.13.29-.2.47-.2s.34.06.47.19.19.29.19.47-.06.34-.19.47-.29.19-.47.19-.34-.06-.47-.2c-.13-.13-.2-.29-.2-.47ZM143.52,18.71c0-.95-.02-1.65-.07-2.09h1.23c-.04.46-.06,1.16-.06,2.09s.02,1.62.06,2.09h-1.23c.04-.44.07-1.14.07-2.09Z"/>
      <path class="cls-3" d="M145.93,18.71c0-.93-.02-1.63-.06-2.09h1.16v.53c.37-.44.81-.65,1.31-.65.46,0,.81.13,1.05.39.25.26.37.63.37,1.1v.72c0,.93.02,1.62.06,2.09h-1.22c.04-.46.06-1.16.06-2.09v-.72c0-.31-.05-.54-.16-.67-.11-.13-.28-.2-.53-.2-.3,0-.54.09-.71.28-.17.19-.25.45-.25.8v.51c0,.93.02,1.62.06,2.09h-1.22c.04-.46.06-1.16.06-2.09Z"/>
      <path class="cls-3" d="M152.29,14.77c-.04.46-.06,1.08-.06,1.85.46,0,.76,0,.89-.03v.47c-.13-.02-.43-.03-.89-.03v3.1c0,.28.11.41.34.41.09,0,.19-.03.28-.09.09-.06.17-.14.23-.24h.04v.58c-.21.08-.46.13-.75.13-.41,0-.72-.11-.93-.32s-.32-.52-.32-.92v-2.65c-.29,0-.51,0-.64.03v-.47c.13.02.34.03.64.03,0-.53-.02-.99-.06-1.39l1.22-.47Z"/>
      <path class="cls-3" d="M159.42,20.8c-.23-.54-.71-1.41-1.45-2.61h-.03c0,1.26.03,2.13.09,2.61h-1.45c.06-.48.09-1.49.09-3.01s-.03-2.56-.09-3.04c.23.02.53.03.91.03.23,0,.45-.01.68-.01.33,0,.6-.01.79-.01.58,0,1.03.14,1.36.42.33.28.49.66.49,1.14,0,.43-.13.81-.4,1.12-.27.31-.61.52-1.04.62.78,1.36,1.36,2.28,1.74,2.76h-1.69ZM157.94,17.56h.34c.4,0,.69-.09.87-.27.18-.18.28-.45.28-.83s-.07-.64-.2-.81c-.13-.17-.34-.25-.63-.25s-.52.02-.66.07v2.09Z"/>
      <path class="cls-3" d="M162.96,18.73c0,.63.08,1.09.25,1.38s.44.44.81.44c.44,0,.84-.21,1.2-.62v.63c-.35.25-.83.37-1.46.37-.57,0-1.04-.18-1.42-.54-.42-.4-.63-.95-.63-1.66s.17-1.21.52-1.62.81-.61,1.38-.61,1.03.19,1.35.58c.32.39.48.94.48,1.65h-2.48ZM162.96,18.32h1.24c0-.5-.05-.87-.14-1.1s-.25-.34-.46-.34c-.2,0-.36.13-.47.38-.11.25-.17.61-.17,1.06Z"/>
      <path class="cls-3" d="M167.78,14.77c-.04.46-.06,1.08-.06,1.85.46,0,.76,0,.89-.03v.47c-.13-.02-.43-.03-.89-.03v3.1c0,.28.11.41.34.41.09,0,.19-.03.28-.09.09-.06.17-.14.23-.24h.04v.58c-.21.08-.46.13-.75.13-.41,0-.72-.11-.93-.32s-.32-.52-.32-.92v-2.65c-.29,0-.51,0-.64.03v-.47c.13.02.34.03.64.03,0-.53-.02-.99-.06-1.39l1.22-.47Z"/>
      <path class="cls-3" d="M169.42,18.71c0-.93-.02-1.63-.06-2.09h1.16v.79c.13-.26.31-.48.54-.65.23-.18.45-.26.67-.26.11,0,.23.01.33.04v1.05h-.04c-.15-.11-.36-.16-.63-.16-.58,0-.87.29-.87.87v.42c0,.93.02,1.62.06,2.09h-1.22c.04-.46.06-1.16.06-2.09Z"/>
      <path class="cls-3" d="M174.82,16.5c.62,0,1.13.2,1.51.61s.58.94.58,1.61-.19,1.2-.58,1.61c-.39.41-.89.61-1.51.61s-1.13-.2-1.52-.61-.58-.94-.58-1.61.19-1.2.58-1.61.89-.61,1.52-.61ZM174.82,16.88c-.31,0-.53.14-.66.43s-.19.75-.19,1.41.06,1.13.19,1.41.35.43.66.43.53-.14.66-.43c.13-.29.19-.76.19-1.41s-.06-1.12-.19-1.41c-.13-.29-.35-.43-.66-.43Z"/>
      <path class="cls-3" d="M180.08,17.55c-.25-.45-.55-.67-.9-.67-.19,0-.34.04-.45.12s-.17.19-.17.33c0,.2.13.36.39.49l.69.33c.36.17.62.37.78.6s.24.51.24.85c0,.41-.14.73-.43.97-.29.24-.68.36-1.19.36-.23,0-.46-.03-.69-.08-.24-.05-.43-.12-.57-.21v-.91h.09c.14.25.32.45.53.6.21.14.42.22.64.22s.4-.05.54-.15c.13-.1.2-.23.2-.39,0-.27-.13-.47-.38-.59l-.8-.38c-.56-.28-.84-.7-.84-1.28,0-.38.13-.68.38-.91.25-.23.59-.35,1-.35.54,0,.99.11,1.34.34l-.32.7h-.09Z"/>
      <path class="cls-3" d="M182.53,20.56c0,.93.02,1.62.06,2.09h-1.22c.04-.46.06-1.16.06-2.09v-1.85c0-.93-.02-1.63-.06-2.09h1.16v.4c.15-.19.31-.32.49-.41.17-.08.38-.13.61-.13.55,0,.99.2,1.32.59s.49.94.49,1.62-.16,1.23-.49,1.62c-.32.39-.76.59-1.32.59-.23,0-.44-.04-.61-.13-.17-.08-.34-.22-.49-.41v.16ZM182.53,18.71c0,.56.07.99.22,1.29s.34.45.6.45c.3,0,.52-.14.65-.41s.19-.71.19-1.33-.06-1.06-.19-1.33c-.13-.27-.34-.41-.65-.41-.26,0-.46.15-.6.45s-.22.73-.22,1.29Z"/>
      <path class="cls-3" d="M187.48,18.73c0,.63.08,1.09.25,1.38s.44.44.81.44c.44,0,.84-.21,1.2-.62v.63c-.35.25-.83.37-1.46.37-.57,0-1.04-.18-1.42-.54-.42-.4-.63-.95-.63-1.66s.17-1.21.52-1.62.81-.61,1.38-.61,1.03.19,1.35.58c.32.39.48.94.48,1.65h-2.48ZM187.48,18.32h1.24c0-.5-.05-.87-.14-1.1s-.25-.34-.46-.34c-.2,0-.36.13-.47.38-.11.25-.17.61-.17,1.06Z"/>
      <path class="cls-3" d="M194.09,17.67c-.11-.25-.25-.45-.43-.58s-.37-.21-.58-.21c-.74,0-1.11.64-1.11,1.92,0,.59.1,1.04.31,1.32.2.29.52.43.95.43.45,0,.85-.21,1.2-.63v.65c-.15.11-.35.19-.61.26-.25.06-.52.09-.8.09-.7,0-1.26-.19-1.67-.58s-.62-.91-.62-1.55c0-.7.21-1.26.64-1.67.43-.41,1.01-.62,1.74-.62.21,0,.45.04.74.13.28.08.52.18.7.29l-.36.76h-.09Z"/>
      <path class="cls-3" d="M196.8,14.77c-.04.46-.06,1.08-.06,1.85.46,0,.76,0,.89-.03v.47c-.13-.02-.43-.03-.89-.03v3.1c0,.28.11.41.34.41.09,0,.19-.03.28-.09.09-.06.17-.14.23-.24h.04v.58c-.21.08-.46.13-.75.13-.41,0-.72-.11-.93-.32s-.32-.52-.32-.92v-2.65c-.29,0-.51,0-.64.03v-.47c.13.02.34.03.64.03,0-.53-.02-.99-.06-1.39l1.22-.47Z"/>
      <path class="cls-3" d="M198.41,14.9c0-.18.06-.34.2-.47.13-.13.29-.2.47-.2s.34.06.47.19.19.29.19.47-.06.34-.19.47-.29.19-.47.19-.34-.06-.47-.2c-.13-.13-.2-.29-.2-.47ZM198.53,18.71c0-.95-.02-1.65-.07-2.09h1.23c-.04.46-.06,1.16-.06,2.09s.02,1.62.06,2.09h-1.23c.04-.44.07-1.14.07-2.09Z"/>
      <path class="cls-3" d="M202.15,20.8c-.09-.3-.36-1-.8-2.1-.42-1.04-.71-1.73-.89-2.07h1.32c.11.42.5,1.45,1.17,3.09.68-1.69,1.08-2.72,1.18-3.09h.56c-.15.28-.44.97-.88,2.07-.38.94-.64,1.65-.78,2.1h-.88Z"/>
      <path class="cls-3" d="M206.47,18.73c0,.63.08,1.09.25,1.38s.44.44.81.44c.44,0,.84-.21,1.2-.62v.63c-.35.25-.83.37-1.46.37-.57,0-1.04-.18-1.42-.54-.42-.4-.63-.95-.63-1.66s.17-1.21.52-1.62.81-.61,1.38-.61,1.03.19,1.35.58c.32.39.48.94.48,1.65h-2.48ZM206.47,18.32h1.24c0-.5-.05-.87-.14-1.1s-.25-.34-.46-.34c-.2,0-.36.13-.47.38-.11.25-.17.61-.17,1.06Z"/>
    </g>
    <g>
      <path class="cls-3" d="M133.49,27.81c0,.29-.11.55-.32.76s-.46.32-.76.32-.55-.11-.76-.32-.32-.46-.32-.76.11-.55.32-.76.47-.32.76-.32.55.11.76.32.32.47.32.76Z"/>
      <path class="cls-3" d="M138.23,27.72l.96-.92c.48-.46.79-.78.93-.97h.56c-.22.17-.56.47-1,.89l-.97.92.8,1.28c.25.4.46.71.65.93h-.79c-.08-.21-.26-.54-.54-1l-.62-1.01c-.18,1.03-.27,1.7-.29,2.01h-.61c.1-.32.23-.99.41-2.01.18-1.02.28-1.69.29-2.01h.61c-.1.33-.23.96-.38,1.88Z"/>
      <path class="cls-3" d="M141.41,28.48c-.07.41-.05.72.07.94s.33.33.62.33c.16,0,.33-.04.5-.11s.32-.17.45-.28l-.06.34c-.12.07-.27.13-.47.18s-.37.07-.55.07c-.42,0-.73-.13-.92-.38s-.25-.62-.16-1.08c.08-.45.26-.81.54-1.08s.61-.41.99-.41.66.13.83.39.21.63.13,1.1h-1.97ZM142.88,28.28c.11-.74-.05-1.11-.5-1.11-.23,0-.43.1-.59.29s-.28.46-.35.82h1.44Z"/>
      <path class="cls-3" d="M144.79,29.69c-.34-1.36-.58-2.23-.72-2.62h.59c.01.13.05.32.11.58s.18.75.36,1.47c.61-.99,1.01-1.67,1.2-2.04h.38c-.21.29-.63.96-1.25,1.99-.48.79-.77,1.3-.89,1.5s-.21.38-.28.52h-.39c.19-.26.49-.73.89-1.39Z"/>
      <path class="cls-3" d="M149.11,27.26c.35-.19.71-.28,1.08-.28.29,0,.51.08.64.24s.18.38.13.67l-.1.57c-.1.58-.17,1.05-.2,1.39h-.5l.08-.48c-.09.16-.24.29-.44.4s-.39.16-.58.16c-.24,0-.42-.06-.54-.19s-.17-.3-.13-.52c.04-.24.16-.45.34-.6s.46-.3.84-.43l.76-.25v-.05c.06-.24.04-.42-.03-.54s-.21-.17-.42-.17c-.17,0-.34.04-.52.13s-.33.19-.44.33h-.03l.07-.37ZM150.46,28.14l-.69.23c-.19.06-.34.16-.46.28s-.19.27-.22.45c-.03.16,0,.29.06.39s.18.15.32.15c.21,0,.39-.09.56-.26s.27-.38.32-.63l.11-.59Z"/>
      <path class="cls-3" d="M153.76,27.65c-.03-.15-.09-.27-.19-.35s-.22-.12-.37-.12c-.27,0-.5.12-.71.37s-.35.57-.41.96c-.07.38-.04.68.09.9s.33.33.61.33c.16,0,.32-.03.47-.1s.29-.15.41-.27l-.06.34c-.25.15-.56.22-.92.22-.39,0-.7-.14-.91-.41s-.29-.61-.21-1.02c.08-.45.28-.81.59-1.1s.68-.43,1.1-.43c.14,0,.29.02.43.07s.27.1.38.17l-.24.43h-.06Z"/>
      <path class="cls-3" d="M155.73,25.83c-.09.35-.17.76-.25,1.24.24,0,.44,0,.6-.02l-.06.3c-.15-.01-.35-.02-.59-.02l-.35,2.02c-.02.12-.01.21.02.28s.09.11.17.11c.12,0,.23-.04.33-.11h.03l-.04.22c-.13.06-.28.08-.43.08-.22,0-.37-.06-.46-.17s-.11-.29-.07-.53l.33-1.9c-.16,0-.3,0-.42.02l.06-.3c.12.01.25.02.41.02.06-.37.1-.67.11-.93l.59-.31Z"/>
      <path class="cls-3" d="M156.28,29.85c.07-.25.16-.71.28-1.39.11-.63.18-1.09.21-1.39h.54c-.08.32-.18.78-.29,1.39-.1.59-.17,1.05-.2,1.39h-.54ZM157.55,26.11c-.01.1-.06.18-.15.25s-.17.11-.27.11-.18-.04-.24-.11-.08-.16-.06-.25c.02-.1.07-.18.15-.25s.17-.11.27-.11.18.04.23.11.08.16.06.25Z"/>
      <path class="cls-3" d="M159.55,26.98c.41,0,.72.13.92.4s.27.63.19,1.07c-.08.45-.27.81-.56,1.07s-.65.4-1.06.4-.72-.13-.93-.4-.27-.63-.19-1.07c.08-.45.27-.81.57-1.07s.65-.4,1.06-.4ZM159.52,27.18c-.27,0-.5.11-.69.34s-.32.54-.39.94c-.07.41-.05.72.06.95s.3.34.57.34.5-.11.69-.34.32-.54.39-.95c.07-.4.05-.72-.05-.94s-.3-.34-.57-.34Z"/>
      <path class="cls-3" d="M161.22,29.85c.07-.27.17-.73.28-1.39.11-.61.17-1.07.2-1.39h.5l-.07.41c.31-.33.66-.5,1.04-.5.29,0,.49.09.62.26s.16.42.11.73l-.08.48c-.1.56-.16,1.03-.2,1.39h-.54c.07-.27.17-.73.28-1.39l.08-.48c.08-.48-.06-.72-.44-.72-.21,0-.42.09-.62.26s-.32.37-.36.6l-.06.34c-.1.56-.16,1.03-.2,1.39h-.54Z"/>
      <path class="cls-3" d="M166.28,27.58c-.05-.27-.24-.4-.57-.4-.16,0-.29.04-.39.11s-.17.18-.19.3c-.04.21.07.37.33.48l.52.23c.17.08.3.18.37.32s.1.29.06.46c-.04.26-.17.46-.39.62s-.49.23-.81.23c-.15,0-.29-.02-.44-.05s-.27-.08-.35-.14l.09-.5h.03c.06.15.16.27.3.36s.3.13.47.13c.19,0,.34-.04.47-.13s.2-.2.22-.34c.02-.12,0-.22-.05-.3s-.14-.15-.28-.21l-.48-.21c-.38-.17-.54-.44-.47-.8.04-.21.15-.39.36-.54s.44-.22.7-.22c.32,0,.58.07.79.2l-.22.4h-.06Z"/>
      <path class="cls-3" d="M169.47,29.69c-.34-1.36-.58-2.23-.72-2.62h.59c.01.13.05.32.11.58s.18.75.36,1.47c.61-.99,1.01-1.67,1.2-2.04h.38c-.21.29-.63.96-1.25,1.99-.48.79-.77,1.3-.89,1.5s-.21.38-.28.52h-.39c.19-.26.49-.73.89-1.39Z"/>
      <path class="cls-3" d="M173.22,26.98c.41,0,.72.13.92.4s.27.63.19,1.07c-.08.45-.27.81-.56,1.07s-.65.4-1.06.4-.72-.13-.93-.4-.27-.63-.19-1.07c.08-.45.27-.81.57-1.07s.65-.4,1.06-.4ZM173.19,27.18c-.27,0-.5.11-.69.34s-.32.54-.39.94c-.07.41-.05.72.06.95s.3.34.57.34.5-.11.69-.34.32-.54.39-.95c.07-.4.05-.72-.05-.94s-.3-.34-.57-.34Z"/>
      <path class="cls-3" d="M177.7,27.07c-.08.28-.17.75-.29,1.39-.1.59-.17,1.05-.2,1.39h-.5l.07-.41c-.31.33-.66.5-1.05.5-.29,0-.49-.09-.62-.26s-.17-.42-.11-.74l.08-.48c.11-.63.18-1.09.21-1.39h.54c-.08.28-.17.75-.29,1.39l-.08.48c-.08.48.07.72.45.72.21,0,.42-.09.62-.26s.32-.37.36-.6l.06-.34c.1-.59.17-1.05.21-1.39h.54Z"/>
      <path class="cls-3" d="M180.46,29.43c-.14.82-.22,1.37-.25,1.66h-.54c.08-.32.22-.99.4-2.01.18-1.03.28-1.7.3-2h.5l-.08.42c.25-.34.56-.51.94-.51s.63.13.8.39.21.62.13,1.08c-.08.46-.25.82-.51,1.08s-.57.39-.93.39c-.38,0-.64-.17-.77-.51ZM180.63,28.46c-.07.4-.05.71.04.93s.27.33.51.33.46-.11.62-.32.28-.53.35-.94c.07-.41.07-.73-.03-.94s-.26-.32-.51-.32-.45.11-.62.33-.29.53-.36.93Z"/>
      <path class="cls-3" d="M183.76,28.48c-.07.41-.05.72.07.94s.33.33.62.33c.16,0,.33-.04.5-.11s.32-.17.45-.28l-.06.34c-.12.07-.27.13-.47.18s-.37.07-.55.07c-.42,0-.73-.13-.92-.38s-.25-.62-.16-1.08c.08-.45.26-.81.54-1.08s.61-.41.99-.41.66.13.83.39.21.63.13,1.1h-1.97ZM185.23,28.28c.11-.74-.05-1.11-.5-1.11-.23,0-.43.1-.59.29s-.28.46-.35.82h1.44Z"/>
      <path class="cls-3" d="M186.17,29.85c.07-.28.17-.74.28-1.39.11-.63.18-1.09.21-1.39h.5l-.1.57c.34-.43.65-.65.91-.65.11,0,.2.02.26.05l-.09.52h-.03c-.06-.08-.17-.12-.31-.12-.15,0-.31.07-.49.22-.19.16-.31.34-.35.55l-.05.26c-.1.59-.17,1.05-.2,1.39h-.54Z"/>
      <path class="cls-3" d="M188.22,29.85c.07-.27.21-1,.42-2.19l.06-.33c-.15,0-.29,0-.42.02l.05-.3c.12.01.26.02.42.02l.03-.19c.05-.32.22-.63.5-.96.12-.14.25-.25.37-.33s.23-.12.31-.12c.05,0,.11,0,.17.02l-.08.5h-.03c-.07-.06-.18-.1-.33-.1-.18,0-.3.13-.35.39l-.13.78c.26,0,.46,0,.61-.02l-.05.3c-.14-.01-.34-.02-.6-.02l-.06.33c-.19,1.1-.3,1.83-.33,2.19h-.54Z"/>
      <path class="cls-3" d="M191.56,26.98c.41,0,.72.13.92.4s.27.63.19,1.07c-.08.45-.27.81-.56,1.07s-.65.4-1.06.4-.72-.13-.93-.4-.27-.63-.19-1.07c.08-.45.27-.81.57-1.07s.65-.4,1.06-.4ZM191.53,27.18c-.27,0-.5.11-.69.34s-.32.54-.39.94c-.07.41-.05.72.06.95s.3.34.57.34.5-.11.69-.34.32-.54.39-.95c.07-.4.05-.72-.05-.94s-.3-.34-.57-.34Z"/>
      <path class="cls-3" d="M193.17,29.85c.07-.28.17-.74.28-1.39.11-.63.18-1.09.21-1.39h.5l-.1.57c.34-.43.65-.65.91-.65.11,0,.2.02.26.05l-.09.52h-.03c-.06-.08-.17-.12-.31-.12-.15,0-.31.07-.49.22-.19.16-.31.34-.35.55l-.05.26c-.1.59-.17,1.05-.2,1.39h-.54Z"/>
      <path class="cls-3" d="M195.24,29.85c.07-.27.17-.73.28-1.39.11-.61.17-1.07.2-1.39h.5l-.08.47c.14-.18.3-.31.48-.41s.36-.14.54-.14c.42,0,.65.2.68.59.33-.4.69-.59,1.08-.59.55,0,.77.33.65,1l-.08.48c-.1.59-.17,1.05-.2,1.39h-.54c.07-.28.17-.74.28-1.39l.08-.48c.04-.25.03-.43-.03-.55s-.18-.17-.35-.17c-.21,0-.41.09-.6.26s-.31.37-.35.6l-.06.34c-.1.56-.16,1.03-.2,1.39h-.54c.07-.28.17-.74.28-1.39l.08-.48c.04-.25.04-.43-.02-.55s-.18-.17-.35-.17c-.21,0-.41.09-.6.26s-.31.37-.35.6l-.06.34c-.1.56-.16,1.03-.2,1.39h-.54Z"/>
      <path class="cls-3" d="M200.76,28.48c-.07.41-.05.72.07.94s.33.33.62.33c.16,0,.33-.04.5-.11s.32-.17.45-.28l-.06.34c-.12.07-.27.13-.47.18s-.37.07-.55.07c-.42,0-.73-.13-.92-.38s-.25-.62-.16-1.08c.08-.45.26-.81.54-1.08s.61-.41.99-.41.66.13.83.39.21.63.13,1.1h-1.97ZM202.23,28.28c.11-.74-.05-1.11-.5-1.11-.23,0-.43.1-.59.29s-.28.46-.35.82h1.44Z"/>
      <path class="cls-3" d="M205.48,27.49c.18-1.05.29-1.73.31-2.02h.54c-.09.32-.23,1.05-.42,2.19-.2,1.12-.31,1.85-.34,2.19h-.5l.07-.42c-.24.34-.56.51-.94.51s-.63-.13-.8-.39-.21-.62-.13-1.08c.08-.46.25-.82.51-1.08s.57-.39.93-.39c.39,0,.64.17.76.51ZM205.31,28.46c.07-.4.06-.71-.04-.93s-.26-.33-.5-.33c-.51,0-.83.42-.98,1.26-.07.41-.06.73.03.94s.26.32.51.32.45-.11.62-.33.29-.53.36-.93Z"/>
      <path class="cls-3" d="M137.28,37.05c.07-.25.16-.71.28-1.39.11-.63.18-1.09.21-1.39h.54c-.08.32-.18.78-.29,1.39-.1.59-.17,1.05-.2,1.39h-.54ZM138.56,33.31c-.01.1-.06.18-.15.25s-.17.11-.27.11-.18-.04-.24-.11-.08-.16-.06-.25c.02-.1.07-.18.15-.25s.17-.11.27-.11.18.04.23.11.08.16.06.25Z"/>
      <path class="cls-3" d="M138.89,37.05c.07-.27.17-.73.28-1.39.11-.61.17-1.07.2-1.39h.5l-.07.41c.31-.33.66-.5,1.04-.5.29,0,.49.09.62.26s.16.42.11.73l-.08.48c-.1.56-.16,1.03-.2,1.39h-.54c.07-.27.17-.73.28-1.39l.08-.48c.08-.48-.06-.72-.44-.72-.21,0-.42.09-.62.26s-.32.37-.36.6l-.06.34c-.1.56-.16,1.03-.2,1.39h-.54Z"/>
      <path class="cls-3" d="M145.18,33.03c-.09.35-.17.76-.25,1.24.24,0,.44,0,.6-.02l-.06.3c-.15-.01-.35-.02-.59-.02l-.35,2.02c-.02.12-.01.21.02.28s.09.11.17.11c.12,0,.23-.04.33-.11h.03l-.04.22c-.13.06-.28.08-.43.08-.22,0-.37-.06-.46-.17s-.11-.29-.07-.53l.33-1.9c-.16,0-.3,0-.42.02l.06-.3c.12.01.25.02.41.02.06-.37.1-.67.11-.93l.59-.31Z"/>
      <path class="cls-3" d="M146.1,34.86c.2-1.12.31-1.85.34-2.19h.54c-.08.29-.21.96-.39,2.01.31-.33.66-.5,1.04-.5.29,0,.49.09.62.26s.16.42.11.73l-.08.48c-.1.56-.16,1.03-.2,1.39h-.54c.07-.27.17-.73.28-1.39l.08-.48c.08-.48-.06-.72-.44-.72-.21,0-.42.09-.62.26s-.32.37-.36.6l-.06.34c-.1.56-.16,1.03-.2,1.39h-.54c.07-.27.21-1,.42-2.19Z"/>
      <path class="cls-3" d="M149.53,35.68c-.07.41-.05.72.07.94s.33.33.62.33c.16,0,.33-.04.5-.11s.32-.17.45-.28l-.06.34c-.12.07-.27.13-.47.18s-.37.07-.55.07c-.42,0-.73-.13-.92-.38s-.25-.62-.16-1.08c.08-.45.26-.81.54-1.08s.61-.41.99-.41.66.13.83.39.21.63.13,1.1h-1.97ZM151,35.48c.11-.74-.05-1.11-.5-1.11-.23,0-.43.1-.59.29s-.28.46-.35.82h1.44Z"/>
      <path class="cls-3" d="M154.23,34.46c.35-.19.71-.28,1.08-.28.29,0,.51.08.64.24s.18.38.13.67l-.1.57c-.1.58-.17,1.05-.2,1.39h-.5l.08-.48c-.09.16-.24.29-.44.4s-.39.16-.58.16c-.24,0-.42-.06-.54-.19s-.17-.3-.13-.52c.04-.24.16-.45.34-.6s.46-.3.84-.43l.76-.25v-.05c.06-.24.04-.42-.03-.54s-.21-.17-.42-.17c-.17,0-.34.04-.52.13s-.33.19-.44.33h-.03l.07-.37ZM155.58,35.34l-.69.23c-.19.06-.34.16-.46.28s-.19.27-.22.45c-.03.16,0,.29.06.39s.18.15.32.15c.21,0,.39-.09.56-.26s.27-.38.32-.63l.11-.59Z"/>
      <path class="cls-3" d="M158.87,34.85c-.03-.15-.09-.27-.19-.35s-.22-.12-.37-.12c-.27,0-.5.12-.71.37s-.35.57-.41.96c-.07.38-.04.68.09.9s.33.33.61.33c.16,0,.32-.03.47-.1s.29-.15.41-.27l-.06.34c-.25.15-.56.22-.92.22-.39,0-.7-.14-.91-.41s-.29-.61-.21-1.02c.08-.45.28-.81.59-1.1s.68-.43,1.1-.43c.14,0,.29.02.43.07s.27.1.38.17l-.24.43h-.06Z"/>
      <path class="cls-3" d="M160.84,33.03c-.09.35-.17.76-.25,1.24.24,0,.44,0,.6-.02l-.06.3c-.15-.01-.35-.02-.59-.02l-.35,2.02c-.02.12-.01.21.02.28s.09.11.17.11c.12,0,.23-.04.33-.11h.03l-.04.22c-.13.06-.28.08-.43.08-.22,0-.37-.06-.46-.17s-.11-.29-.07-.53l.33-1.9c-.16,0-.3,0-.42.02l.06-.3c.12.01.25.02.41.02.06-.37.1-.67.11-.93l.59-.31Z"/>
      <path class="cls-3" d="M164.73,34.78c-.05-.27-.24-.4-.57-.4-.16,0-.29.04-.39.11s-.17.18-.19.3c-.04.21.07.37.33.48l.52.23c.17.08.3.18.37.32s.1.29.06.46c-.04.26-.17.46-.39.62s-.49.23-.81.23c-.15,0-.29-.02-.44-.05s-.27-.08-.35-.14l.09-.5h.03c.06.15.16.27.3.36s.3.13.47.13c.19,0,.34-.04.47-.13s.2-.2.22-.34c.02-.12,0-.22-.05-.3s-.14-.15-.28-.21l-.48-.21c-.38-.17-.54-.44-.47-.8.04-.21.15-.39.36-.54s.44-.22.7-.22c.32,0,.58.07.79.2l-.22.4h-.06Z"/>
      <path class="cls-3" d="M166.62,33.03c-.09.35-.17.76-.25,1.24.24,0,.44,0,.6-.02l-.06.3c-.15-.01-.35-.02-.59-.02l-.35,2.02c-.02.12-.01.21.02.28s.09.11.17.11c.12,0,.23-.04.33-.11h.03l-.04.22c-.13.06-.28.08-.43.08-.22,0-.37-.06-.46-.17s-.11-.29-.07-.53l.33-1.9c-.16,0-.3,0-.42.02l.06-.3c.12.01.25.02.41.02.06-.37.1-.67.11-.93l.59-.31Z"/>
      <path class="cls-3" d="M167.66,34.46c.35-.19.71-.28,1.08-.28.29,0,.51.08.64.24s.18.38.13.67l-.1.57c-.1.58-.17,1.05-.2,1.39h-.5l.08-.48c-.09.16-.24.29-.44.4s-.39.16-.58.16c-.24,0-.42-.06-.54-.19s-.17-.3-.13-.52c.04-.24.16-.45.34-.6s.46-.3.84-.43l.76-.25v-.05c.06-.24.04-.42-.03-.54s-.21-.17-.42-.17c-.17,0-.34.04-.52.13s-.33.19-.44.33h-.03l.07-.37ZM169.01,35.34l-.69.23c-.19.06-.34.16-.46.28s-.19.27-.22.45c-.03.16,0,.29.06.39s.18.15.32.15c.21,0,.39-.09.56-.26s.27-.38.32-.63l.11-.59Z"/>
      <path class="cls-3" d="M171.7,36.54c.27,0,.47.06.61.18s.19.28.15.48c-.05.29-.24.54-.57.75-.35.22-.78.33-1.27.33-.34,0-.59-.06-.78-.17s-.26-.27-.23-.47c.03-.13.12-.27.29-.42s.36-.25.57-.33c-.13-.03-.22-.08-.28-.14s-.08-.14-.06-.24c.03-.17.21-.35.55-.56-.2-.07-.34-.17-.43-.32s-.11-.33-.07-.54c.05-.28.19-.5.41-.66s.5-.25.84-.25c.2,0,.37.03.5.08.14,0,.31,0,.51-.03s.36-.04.47-.06l-.06.32c-.19-.04-.41-.06-.66-.06.16.16.21.38.17.65-.04.27-.18.49-.41.66s-.51.25-.84.25c-.08,0-.14,0-.17,0-.2.11-.32.24-.34.37-.02.11.06.16.25.16h.85ZM170.77,36.91c-.2.07-.37.17-.49.28s-.2.24-.22.38c-.03.17.02.3.15.38s.32.13.59.13c.3,0,.55-.07.75-.21s.32-.33.37-.57c.04-.27-.11-.4-.46-.4h-.69ZM171.4,34.38c-.19,0-.35.06-.48.19s-.21.3-.25.52c-.04.22-.02.4.07.52s.22.19.42.19.35-.06.48-.19.22-.3.26-.52c.04-.22,0-.39-.08-.52s-.23-.19-.41-.19Z"/>
      <path class="cls-3" d="M173.63,35.68c-.07.41-.05.72.07.94s.33.33.62.33c.16,0,.33-.04.5-.11s.32-.17.45-.28l-.06.34c-.12.07-.27.13-.47.18s-.37.07-.55.07c-.42,0-.73-.13-.92-.38s-.25-.62-.16-1.08c.08-.45.26-.81.54-1.08s.61-.41.99-.41.66.13.83.39.21.63.13,1.1h-1.97ZM175.11,35.48c.11-.74-.05-1.11-.5-1.11-.23,0-.43.1-.59.29s-.28.46-.35.82h1.44Z"/>
      <path class="cls-3" d="M176.14,36.79c.02-.09.07-.17.15-.24s.16-.1.26-.1.17.03.22.1.07.15.06.24c-.01.09-.06.17-.14.24s-.16.1-.26.1-.17-.03-.23-.1-.08-.15-.06-.24Z"/>
    </g>
    <rect class="cls-6" x="48.28" y="77.29" width="89" height="45" rx="3.67" ry="3.67"/>
    <g>
      <path class="cls-3" d="M53.03,85.82c.17.36.39.65.67.87s.56.33.85.33.51-.07.68-.22c.17-.15.25-.34.25-.59,0-.38-.2-.68-.61-.91l-.64-.35c-.5-.28-.86-.57-1.08-.88s-.33-.69-.33-1.12c0-.49.17-.88.5-1.18.34-.3.77-.45,1.3-.45.57,0,1.09.1,1.55.3l-.36.91h-.09c-.29-.42-.66-.64-1.1-.64-.23,0-.41.06-.55.19-.14.12-.21.29-.21.48s.06.36.18.51c.12.15.32.3.59.45l.62.34c.4.22.71.5.93.83s.33.69.33,1.07c0,.56-.17,1.01-.51,1.34-.34.34-.79.5-1.35.5-.28,0-.58-.04-.91-.11-.33-.07-.6-.16-.81-.27v-1.39h.09Z"/>
      <path class="cls-3" d="M58.59,87.23c0,.93.02,1.62.06,2.09h-1.22c.04-.46.06-1.16.06-2.09v-1.85c0-.93-.02-1.63-.06-2.09h1.16v.4c.15-.19.31-.32.49-.41.17-.08.38-.13.61-.13.55,0,.99.2,1.32.59s.49.94.49,1.62-.16,1.23-.49,1.62c-.32.39-.76.59-1.32.59-.23,0-.44-.04-.61-.13-.17-.08-.34-.22-.49-.41v.16ZM58.59,85.38c0,.56.07.99.22,1.29s.34.45.6.45c.3,0,.52-.14.65-.41s.19-.71.19-1.33-.06-1.06-.19-1.33c-.13-.27-.34-.41-.65-.41-.26,0-.46.15-.6.45s-.22.73-.22,1.29Z"/>
      <path class="cls-3" d="M62.5,85.38c0-.93-.02-1.63-.06-2.09h1.16v.79c.13-.26.31-.48.54-.65.23-.18.45-.26.67-.26.11,0,.23.01.33.04v1.05h-.04c-.15-.11-.36-.16-.63-.16-.58,0-.87.29-.87.87v.42c0,.93.02,1.62.06,2.09h-1.22c.04-.46.06-1.16.06-2.09Z"/>
      <path class="cls-3" d="M65.97,81.57c0-.18.06-.34.2-.47.13-.13.29-.2.47-.2s.34.06.47.19.19.29.19.47-.06.34-.19.47-.29.19-.47.19-.34-.06-.47-.2c-.13-.13-.2-.29-.2-.47ZM66.09,85.38c0-.95-.02-1.65-.07-2.09h1.23c-.04.46-.06,1.16-.06,2.09s.02,1.62.06,2.09h-1.23c.04-.44.07-1.14.07-2.09Z"/>
      <path class="cls-3" d="M68.5,85.38c0-.93-.02-1.63-.06-2.09h1.16v.53c.37-.44.81-.65,1.31-.65.46,0,.81.13,1.05.39.25.26.37.63.37,1.1v.72c0,.93.02,1.62.06,2.09h-1.22c.04-.46.06-1.16.06-2.09v-.72c0-.31-.05-.54-.16-.67-.11-.13-.28-.2-.53-.2-.3,0-.54.09-.71.28-.17.19-.25.45-.25.8v.51c0,.93.02,1.62.06,2.09h-1.22c.04-.46.06-1.16.06-2.09Z"/>
      <path class="cls-3" d="M74.86,81.44c-.04.46-.06,1.08-.06,1.85.46,0,.76,0,.89-.03v.47c-.13-.02-.43-.03-.89-.03v3.1c0,.28.11.41.34.41.09,0,.19-.03.28-.09.09-.06.17-.14.23-.24h.04v.58c-.21.08-.46.13-.75.13-.41,0-.72-.11-.93-.32s-.32-.52-.32-.92v-2.65c-.29,0-.51,0-.64.03v-.47c.13.02.34.03.64.03,0-.53-.02-.99-.06-1.39l1.22-.47Z"/>
      <path class="cls-3" d="M81.99,87.47c-.23-.54-.71-1.41-1.45-2.61h-.03c0,1.26.03,2.13.09,2.61h-1.45c.06-.48.09-1.49.09-3.01s-.03-2.56-.09-3.04c.23.02.53.03.91.03.23,0,.45-.01.68-.01.33,0,.6-.01.79-.01.58,0,1.03.14,1.36.42.33.28.49.66.49,1.14,0,.43-.13.81-.4,1.12-.27.31-.61.52-1.04.62.78,1.36,1.36,2.28,1.74,2.76h-1.69ZM80.52,84.23h.34c.4,0,.69-.09.87-.27.18-.18.28-.45.28-.83s-.07-.64-.2-.81c-.13-.17-.34-.25-.63-.25s-.52.02-.66.07v2.09Z"/>
      <path class="cls-3" d="M85.54,85.4c0,.63.08,1.09.25,1.38s.44.44.81.44c.44,0,.84-.21,1.2-.62v.63c-.35.25-.83.37-1.46.37-.57,0-1.04-.18-1.42-.54-.42-.4-.63-.95-.63-1.66s.17-1.21.52-1.62.81-.61,1.38-.61,1.03.19,1.35.58c.32.39.48.94.48,1.65h-2.48ZM85.54,84.98h1.24c0-.5-.05-.87-.14-1.1s-.25-.34-.46-.34c-.2,0-.36.13-.47.38-.11.25-.17.61-.17,1.06Z"/>
      <path class="cls-3" d="M90.22,87.47c-.09-.3-.36-1-.8-2.1-.42-1.04-.71-1.73-.89-2.07h1.32c.11.42.5,1.45,1.17,3.09.68-1.69,1.08-2.72,1.18-3.09h.56c-.15.28-.44.97-.88,2.07-.38.94-.64,1.65-.78,2.1h-.88Z"/>
      <path class="cls-3" d="M93.47,81.57c0-.18.06-.34.2-.47.13-.13.29-.2.47-.2s.34.06.47.19.19.29.19.47-.06.34-.19.47-.29.19-.47.19-.34-.06-.47-.2c-.13-.13-.2-.29-.2-.47ZM93.59,85.38c0-.95-.02-1.65-.07-2.09h1.23c-.04.46-.06,1.16-.06,2.09s.02,1.62.06,2.09h-1.23c.04-.44.07-1.14.07-2.09Z"/>
      <path class="cls-3" d="M97.04,85.4c0,.63.08,1.09.25,1.38s.44.44.81.44c.44,0,.84-.21,1.2-.62v.63c-.35.25-.83.37-1.46.37-.57,0-1.04-.18-1.42-.54-.42-.4-.63-.95-.63-1.66s.17-1.21.52-1.62.81-.61,1.38-.61,1.03.19,1.35.58c.32.39.48.94.48,1.65h-2.48ZM97.04,84.98h1.24c0-.5-.05-.87-.14-1.1s-.25-.34-.46-.34c-.2,0-.36.13-.47.38-.11.25-.17.61-.17,1.06Z"/>
      <path class="cls-3" d="M101.59,87.47c-.12-.38-.36-1.09-.74-2.1-.35-.95-.62-1.64-.83-2.07h1.29c.22.69.57,1.68,1.03,2.99.63-1.66.98-2.66,1.05-2.99h.76c.11.33.45,1.33,1.03,2.99.49-1.24.84-2.24,1.05-2.99h.51c-.12.26-.39.95-.8,2.07-.35.96-.59,1.66-.71,2.1h-.81c-.04-.13-.09-.31-.16-.51-.07-.21-.36-1.01-.86-2.4-.51,1.36-.85,2.33-1.01,2.91h-.81Z"/>
    </g>
    <g>
      <path class="cls-3" d="M56.07,94.48c0,.29-.11.55-.32.76s-.46.32-.76.32-.55-.11-.76-.32-.32-.46-.32-.76.11-.55.32-.76.47-.32.76-.32.55.11.76.32.32.47.32.76Z"/>
      <path class="cls-3" d="M60.77,94.51c-.18,1.03-.27,1.7-.29,2.01h-.61c.1-.32.23-.99.41-2.01.18-1,.27-1.67.29-2.01h.61c-.1.32-.23.99-.41,2.01Z"/>
      <path class="cls-3" d="M61.58,96.52c.07-.27.17-.73.28-1.39.11-.61.17-1.07.2-1.39h.5l-.07.41c.31-.33.66-.5,1.04-.5.29,0,.49.09.62.26s.16.42.11.73l-.08.48c-.1.56-.16,1.03-.2,1.39h-.54c.07-.27.17-.73.28-1.39l.08-.48c.08-.48-.06-.72-.44-.72-.21,0-.42.09-.62.26s-.32.37-.36.6l-.06.34c-.1.56-.16,1.03-.2,1.39h-.54Z"/>
      <path class="cls-3" d="M66.64,94.24c-.05-.27-.24-.4-.57-.4-.16,0-.29.04-.39.11s-.17.18-.19.3c-.04.21.07.37.33.48l.52.23c.17.08.3.18.37.32s.1.29.06.46c-.04.26-.17.46-.39.62s-.49.23-.81.23c-.15,0-.29-.02-.44-.05s-.27-.08-.35-.14l.09-.5h.03c.06.15.16.27.3.36s.3.13.47.13c.19,0,.34-.04.47-.13s.2-.2.22-.34c.02-.12,0-.22-.05-.3s-.14-.15-.28-.21l-.48-.21c-.38-.17-.54-.44-.47-.8.04-.21.15-.39.36-.54s.44-.22.7-.22c.32,0,.58.07.79.2l-.22.4h-.06Z"/>
      <path class="cls-3" d="M67.81,96.09c-.14.82-.22,1.37-.25,1.66h-.54c.08-.32.22-.99.4-2.01.18-1.03.28-1.7.3-2h.5l-.08.42c.25-.34.56-.51.94-.51s.63.13.8.39.21.62.13,1.08c-.08.46-.25.82-.51,1.08s-.57.39-.93.39c-.38,0-.64-.17-.77-.51ZM67.97,95.13c-.07.4-.05.71.04.93s.27.33.51.33.46-.11.62-.32.28-.53.35-.94c.07-.41.07-.73-.03-.94s-.26-.32-.51-.32-.45.11-.62.33-.29.53-.36.93Z"/>
      <path class="cls-3" d="M71.1,95.14c-.07.41-.05.72.07.94s.33.33.62.33c.16,0,.33-.04.5-.11s.32-.17.45-.28l-.06.34c-.12.07-.27.13-.47.18s-.37.07-.55.07c-.42,0-.73-.13-.92-.38s-.25-.62-.16-1.08c.08-.45.26-.81.54-1.08s.61-.41.99-.41.66.13.83.39.21.63.13,1.1h-1.97ZM72.58,94.95c.11-.74-.05-1.11-.5-1.11-.23,0-.43.1-.59.29s-.28.46-.35.82h1.44Z"/>
      <path class="cls-3" d="M75.78,94.32c-.03-.15-.09-.27-.19-.35s-.22-.12-.37-.12c-.27,0-.5.12-.71.37s-.35.57-.41.96c-.07.38-.04.68.09.9s.33.33.61.33c.16,0,.32-.03.47-.1s.29-.15.41-.27l-.06.34c-.25.15-.56.22-.92.22-.39,0-.7-.14-.91-.41s-.29-.61-.21-1.02c.08-.45.28-.81.59-1.1s.68-.43,1.1-.43c.14,0,.29.02.43.07s.27.1.38.17l-.24.43h-.06Z"/>
      <path class="cls-3" d="M77.75,92.5c-.09.35-.17.76-.25,1.24.24,0,.44,0,.6-.02l-.06.3c-.15-.01-.35-.02-.59-.02l-.35,2.02c-.02.12-.01.21.02.28s.09.11.17.11c.12,0,.23-.04.33-.11h.03l-.04.22c-.13.06-.28.08-.43.08-.22,0-.37-.06-.46-.17s-.11-.29-.07-.53l.33-1.9c-.16,0-.3,0-.42.02l.06-.3c.12.01.25.02.41.02.06-.37.1-.67.11-.93l.59-.31Z"/>
      <path class="cls-3" d="M81.19,92.5c-.09.35-.17.76-.25,1.24.24,0,.44,0,.6-.02l-.06.3c-.15-.01-.35-.02-.59-.02l-.35,2.02c-.02.12-.01.21.02.28s.09.11.17.11c.12,0,.23-.04.33-.11h.03l-.04.22c-.13.06-.28.08-.43.08-.22,0-.37-.06-.46-.17s-.11-.29-.07-.53l.33-1.9c-.16,0-.3,0-.42.02l.06-.3c.12.01.25.02.41.02.06-.37.1-.67.11-.93l.59-.31Z"/>
      <path class="cls-3" d="M82.11,94.33c.2-1.12.31-1.85.34-2.19h.54c-.08.29-.21.96-.39,2.01.31-.33.66-.5,1.04-.5.29,0,.49.09.62.26s.16.42.11.73l-.08.48c-.1.56-.16,1.03-.2,1.39h-.54c.07-.27.17-.73.28-1.39l.08-.48c.08-.48-.06-.72-.44-.72-.21,0-.42.09-.62.26s-.32.37-.36.6l-.06.34c-.1.56-.16,1.03-.2,1.39h-.54c.07-.27.21-1,.42-2.19Z"/>
      <path class="cls-3" d="M85.54,95.14c-.07.41-.05.72.07.94s.33.33.62.33c.16,0,.33-.04.5-.11s.32-.17.45-.28l-.06.34c-.12.07-.27.13-.47.18s-.37.07-.55.07c-.42,0-.73-.13-.92-.38s-.25-.62-.16-1.08c.08-.45.26-.81.54-1.08s.61-.41.99-.41.66.13.83.39.21.63.13,1.1h-1.97ZM87.02,94.95c.11-.74-.05-1.11-.5-1.11-.23,0-.43.1-.59.29s-.28.46-.35.82h1.44Z"/>
      <path class="cls-3" d="M90.47,92.48c.2.01.46.02.76.02.1,0,.21,0,.31,0,.11,0,.23,0,.34,0,.33,0,.58.09.76.28s.24.42.19.69c-.06.32-.24.6-.54.82s-.66.33-1.05.33h-.58c-.17.96-.26,1.6-.28,1.92h-.61c.1-.33.24-1.01.41-2.02.18-1.02.28-1.7.3-2.02ZM90.71,94.3h.56c.29,0,.52-.07.71-.2s.29-.33.34-.58c.05-.25,0-.44-.13-.55s-.36-.17-.69-.17c-.23,0-.41.02-.53.05l-.25,1.45Z"/>
      <path class="cls-3" d="M92.96,96.52c.07-.28.17-.74.28-1.39.11-.63.18-1.09.21-1.39h.5l-.1.57c.34-.43.65-.65.91-.65.11,0,.2.02.26.05l-.09.52h-.03c-.06-.08-.17-.12-.31-.12-.15,0-.31.07-.49.22-.19.16-.31.34-.35.55l-.05.26c-.1.59-.17,1.05-.2,1.39h-.54Z"/>
      <path class="cls-3" d="M96.69,93.65c.41,0,.72.13.92.4s.27.63.19,1.07c-.08.45-.27.81-.56,1.07s-.65.4-1.06.4-.72-.13-.93-.4-.27-.63-.19-1.07c.08-.45.27-.81.57-1.07s.65-.4,1.06-.4ZM96.66,93.84c-.27,0-.5.11-.69.34s-.32.54-.39.94c-.07.41-.05.72.06.95s.3.34.57.34.5-.11.69-.34.32-.54.39-.95c.07-.4.05-.72-.05-.94s-.3-.34-.57-.34Z"/>
      <path class="cls-3" d="M100.6,94.16c.18-1.05.29-1.73.31-2.02h.54c-.09.32-.23,1.05-.42,2.19-.2,1.12-.31,1.85-.34,2.19h-.5l.07-.42c-.24.34-.56.51-.94.51s-.63-.13-.8-.39-.21-.62-.13-1.08c.08-.46.25-.82.51-1.08s.57-.39.93-.39c.39,0,.64.17.76.51ZM100.44,95.13c.07-.4.06-.71-.04-.93s-.26-.33-.5-.33c-.51,0-.83.42-.98,1.26-.07.41-.06.73.03.94s.26.32.51.32.45-.11.62-.33.29-.53.36-.93Z"/>
      <path class="cls-3" d="M104.5,93.73c-.08.28-.17.75-.29,1.39-.1.59-.17,1.05-.2,1.39h-.5l.07-.41c-.31.33-.66.5-1.05.5-.29,0-.49-.09-.62-.26s-.17-.42-.11-.74l.08-.48c.11-.63.18-1.09.21-1.39h.54c-.08.28-.17.75-.29,1.39l-.08.48c-.08.48.07.72.45.72.21,0,.42-.09.62-.26s.32-.37.36-.6l.06-.34c.1-.59.17-1.05.21-1.39h.54Z"/>
      <path class="cls-3" d="M107.24,94.32c-.03-.15-.09-.27-.19-.35s-.22-.12-.37-.12c-.27,0-.5.12-.71.37s-.35.57-.41.96c-.07.38-.04.68.09.9s.33.33.61.33c.16,0,.32-.03.47-.1s.29-.15.41-.27l-.06.34c-.25.15-.56.22-.92.22-.39,0-.7-.14-.91-.41s-.29-.61-.21-1.02c.08-.45.28-.81.59-1.1s.68-.43,1.1-.43c.14,0,.29.02.43.07s.27.1.38.17l-.24.43h-.06Z"/>
      <path class="cls-3" d="M109.2,92.5c-.09.35-.17.76-.25,1.24.24,0,.44,0,.6-.02l-.06.3c-.15-.01-.35-.02-.59-.02l-.35,2.02c-.02.12-.01.21.02.28s.09.11.17.11c.12,0,.23-.04.33-.11h.03l-.04.22c-.13.06-.28.08-.43.08-.22,0-.37-.06-.46-.17s-.11-.29-.07-.53l.33-1.9c-.16,0-.3,0-.42.02l.06-.3c.12.01.25.02.41.02.06-.37.1-.67.11-.93l.59-.31Z"/>
      <path class="cls-3" d="M60.77,101.71c-.18,1.03-.27,1.7-.29,2.01h-.61c.1-.32.23-.99.41-2.01.18-1,.27-1.67.29-2.01h.61c-.1.32-.23.99-.41,2.01Z"/>
      <path class="cls-3" d="M61.58,103.72c.07-.27.17-.73.28-1.39.11-.61.17-1.07.2-1.39h.5l-.07.41c.31-.33.66-.5,1.04-.5.29,0,.49.09.62.26s.16.42.11.73l-.08.48c-.1.56-.16,1.03-.2,1.39h-.54c.07-.27.17-.73.28-1.39l.08-.48c.08-.48-.06-.72-.44-.72-.21,0-.42.09-.62.26s-.32.37-.36.6l-.06.34c-.1.56-.16,1.03-.2,1.39h-.54Z"/>
      <path class="cls-3" d="M67.11,101.52c-.03-.15-.09-.27-.19-.35s-.22-.12-.37-.12c-.27,0-.5.12-.71.37s-.35.57-.41.96c-.07.38-.04.68.09.9s.33.33.61.33c.16,0,.32-.03.47-.1s.29-.15.41-.27l-.06.34c-.25.15-.56.22-.92.22-.39,0-.7-.14-.91-.41s-.29-.61-.21-1.02c.08-.45.28-.81.59-1.1s.68-.43,1.1-.43c.14,0,.29.02.43.07s.27.1.38.17l-.24.43h-.06Z"/>
      <path class="cls-3" d="M67.73,103.72c.07-.28.17-.74.28-1.39.11-.63.18-1.09.21-1.39h.5l-.1.57c.34-.43.65-.65.91-.65.11,0,.2.02.26.05l-.09.52h-.03c-.06-.08-.17-.12-.31-.12-.15,0-.31.07-.49.22-.19.16-.31.34-.35.55l-.05.26c-.1.59-.17,1.05-.2,1.39h-.54Z"/>
      <path class="cls-3" d="M70.32,102.34c-.07.41-.05.72.07.94s.33.33.62.33c.16,0,.33-.04.5-.11s.32-.17.45-.28l-.06.34c-.12.07-.27.13-.47.18s-.37.07-.55.07c-.42,0-.73-.13-.92-.38s-.25-.62-.16-1.08c.08-.45.26-.81.54-1.08s.61-.41.99-.41.66.13.83.39.21.63.13,1.1h-1.97ZM71.79,102.15c.11-.74-.05-1.11-.5-1.11-.23,0-.43.1-.59.29s-.28.46-.35.82h1.44Z"/>
      <path class="cls-3" d="M72.8,103.72c.07-.27.17-.73.28-1.39.11-.61.17-1.07.2-1.39h.5l-.08.47c.14-.18.3-.31.48-.41s.36-.14.54-.14c.42,0,.65.2.68.59.33-.4.69-.59,1.08-.59.55,0,.77.33.65,1l-.08.48c-.1.59-.17,1.05-.2,1.39h-.54c.07-.28.17-.74.28-1.39l.08-.48c.04-.25.03-.43-.03-.55s-.18-.17-.35-.17c-.21,0-.41.09-.6.26s-.31.37-.35.6l-.06.34c-.1.56-.16,1.03-.2,1.39h-.54c.07-.28.17-.74.28-1.39l.08-.48c.04-.25.04-.43-.02-.55s-.18-.17-.35-.17c-.21,0-.41.09-.6.26s-.31.37-.35.6l-.06.34c-.1.56-.16,1.03-.2,1.39h-.54Z"/>
      <path class="cls-3" d="M78.31,102.34c-.07.41-.05.72.07.94s.33.33.62.33c.16,0,.33-.04.5-.11s.32-.17.45-.28l-.06.34c-.12.07-.27.13-.47.18s-.37.07-.55.07c-.42,0-.73-.13-.92-.38s-.25-.62-.16-1.08c.08-.45.26-.81.54-1.08s.61-.41.99-.41.66.13.83.39.21.63.13,1.1h-1.97ZM79.79,102.15c.11-.74-.05-1.11-.5-1.11-.23,0-.43.1-.59.29s-.28.46-.35.82h1.44Z"/>
      <path class="cls-3" d="M80.79,103.72c.07-.27.17-.73.28-1.39.11-.61.17-1.07.2-1.39h.5l-.07.41c.31-.33.66-.5,1.04-.5.29,0,.49.09.62.26s.16.42.11.73l-.08.48c-.1.56-.16,1.03-.2,1.39h-.54c.07-.27.17-.73.28-1.39l.08-.48c.08-.48-.06-.72-.44-.72-.21,0-.42.09-.62.26s-.32.37-.36.6l-.06.34c-.1.56-.16,1.03-.2,1.39h-.54Z"/>
      <path class="cls-3" d="M85.41,99.7c-.09.35-.17.76-.25,1.24.24,0,.44,0,.6-.02l-.06.3c-.15-.01-.35-.02-.59-.02l-.35,2.02c-.02.12-.01.21.02.28s.09.11.17.11c.12,0,.23-.04.33-.11h.03l-.04.22c-.13.06-.28.08-.43.08-.22,0-.37-.06-.46-.17s-.11-.29-.07-.53l.33-1.9c-.16,0-.3,0-.42.02l.06-.3c.12.01.25.02.41.02.06-.37.1-.67.11-.93l.59-.31Z"/>
      <path class="cls-3" d="M88.12,101.13c.35-.19.71-.28,1.08-.28.29,0,.51.08.64.24s.18.38.13.67l-.1.57c-.1.58-.17,1.05-.2,1.39h-.5l.08-.48c-.09.16-.24.29-.44.4s-.39.16-.58.16c-.24,0-.42-.06-.54-.19s-.17-.3-.13-.52c.04-.24.16-.45.34-.6s.46-.3.84-.43l.76-.25v-.05c.06-.24.04-.42-.03-.54s-.21-.17-.42-.17c-.17,0-.34.04-.52.13s-.33.19-.44.33h-.03l.07-.37ZM89.47,102.01l-.69.23c-.19.06-.34.16-.46.28s-.19.27-.22.45c-.03.16,0,.29.06.39s.18.15.32.15c.21,0,.39-.09.56-.26s.27-.38.32-.63l.11-.59Z"/>
      <path class="cls-3" d="M90.57,103.72c.07-.27.17-.73.28-1.39.11-.61.17-1.07.2-1.39h.5l-.07.41c.31-.33.66-.5,1.04-.5.29,0,.49.09.62.26s.16.42.11.73l-.08.48c-.1.56-.16,1.03-.2,1.39h-.54c.07-.27.17-.73.28-1.39l.08-.48c.08-.48-.06-.72-.44-.72-.21,0-.42.09-.62.26s-.32.37-.36.6l-.06.34c-.1.56-.16,1.03-.2,1.39h-.54Z"/>
      <path class="cls-3" d="M96.15,101.36c.18-1.05.29-1.73.31-2.02h.54c-.09.32-.23,1.05-.42,2.19-.2,1.12-.31,1.85-.34,2.19h-.5l.07-.42c-.24.34-.56.51-.94.51s-.63-.13-.8-.39-.21-.62-.13-1.08c.08-.46.25-.82.51-1.08s.57-.39.93-.39c.39,0,.64.17.76.51ZM95.98,102.33c.07-.4.06-.71-.04-.93s-.26-.33-.5-.33c-.51,0-.83.42-.98,1.26-.07.41-.06.73.03.94s.26.32.51.32.45-.11.62-.33.29-.53.36-.93Z"/>
      <path class="cls-3" d="M99.46,101.13c.35-.19.71-.28,1.08-.28.29,0,.51.08.64.24s.18.38.13.67l-.1.57c-.1.58-.17,1.05-.2,1.39h-.5l.08-.48c-.09.16-.24.29-.44.4s-.39.16-.58.16c-.24,0-.42-.06-.54-.19s-.17-.3-.13-.52c.04-.24.16-.45.34-.6s.46-.3.84-.43l.76-.25v-.05c.06-.24.04-.42-.03-.54s-.21-.17-.42-.17c-.17,0-.34.04-.52.13s-.33.19-.44.33h-.03l.07-.37ZM100.81,102.01l-.69.23c-.19.06-.34.16-.46.28s-.19.27-.22.45c-.03.16,0,.29.06.39s.18.15.32.15c.21,0,.39-.09.56-.26s.27-.38.32-.63l.11-.59Z"/>
      <path class="cls-3" d="M104.15,101.36c.18-1.05.29-1.73.31-2.02h.54c-.09.32-.23,1.05-.42,2.19-.2,1.12-.31,1.85-.34,2.19h-.5l.07-.42c-.24.34-.56.51-.94.51s-.63-.13-.8-.39-.21-.62-.13-1.08c.08-.46.25-.82.51-1.08s.57-.39.93-.39c.39,0,.64.17.76.51ZM103.99,102.33c.07-.4.06-.71-.04-.93s-.26-.33-.5-.33c-.51,0-.83.42-.98,1.26-.07.41-.06.73.03.94s.26.32.51.32.45-.11.62-.33.29-.53.36-.93Z"/>
      <path class="cls-3" d="M105.8,101.13c.35-.19.71-.28,1.08-.28.29,0,.51.08.64.24s.18.38.13.67l-.1.57c-.1.58-.17,1.05-.2,1.39h-.5l.08-.48c-.09.16-.24.29-.44.4s-.39.16-.58.16c-.24,0-.42-.06-.54-.19s-.17-.3-.13-.52c.04-.24.16-.45.34-.6s.46-.3.84-.43l.76-.25v-.05c.06-.24.04-.42-.03-.54s-.21-.17-.42-.17c-.17,0-.34.04-.52.13s-.33.19-.44.33h-.03l.07-.37ZM107.15,102.01l-.69.23c-.19.06-.34.16-.46.28s-.19.27-.22.45c-.03.16,0,.29.06.39s.18.15.32.15c.21,0,.39-.09.56-.26s.27-.38.32-.63l.11-.59Z"/>
      <path class="cls-3" d="M108.81,103.29c-.14.82-.22,1.37-.25,1.66h-.54c.08-.32.22-.99.4-2.01.18-1.03.28-1.7.3-2h.5l-.08.42c.25-.34.56-.51.94-.51s.63.13.8.39.21.62.13,1.08c-.08.46-.25.82-.51,1.08s-.57.39-.93.39c-.38,0-.64-.17-.77-.51ZM108.98,102.33c-.07.4-.05.71.04.93s.27.33.51.33.46-.11.62-.32.28-.53.35-.94c.07-.41.07-.73-.03-.94s-.26-.32-.51-.32-.45.11-.62.33-.29.53-.36.93Z"/>
      <path class="cls-3" d="M112.87,99.7c-.09.35-.17.76-.25,1.24.24,0,.44,0,.6-.02l-.06.3c-.15-.01-.35-.02-.59-.02l-.35,2.02c-.02.12-.01.21.02.28s.09.11.17.11c.12,0,.23-.04.33-.11h.03l-.04.22c-.13.06-.28.08-.43.08-.22,0-.37-.06-.46-.17s-.11-.29-.07-.53l.33-1.9c-.16,0-.3,0-.42.02l.06-.3c.12.01.25.02.41.02.06-.37.1-.67.11-.93l.59-.31Z"/>
      <path class="cls-3" d="M116.31,99.7c-.09.35-.17.76-.25,1.24.24,0,.44,0,.6-.02l-.06.3c-.15-.01-.35-.02-.59-.02l-.35,2.02c-.02.12-.01.21.02.28s.09.11.17.11c.12,0,.23-.04.33-.11h.03l-.04.22c-.13.06-.28.08-.43.08-.22,0-.37-.06-.46-.17s-.11-.29-.07-.53l.33-1.9c-.16,0-.3,0-.42.02l.06-.3c.12.01.25.02.41.02.06-.37.1-.67.11-.93l.59-.31Z"/>
      <path class="cls-3" d="M117.23,101.53c.2-1.12.31-1.85.34-2.19h.54c-.08.29-.21.96-.39,2.01.31-.33.66-.5,1.04-.5.29,0,.49.09.62.26s.16.42.11.73l-.08.48c-.1.56-.16,1.03-.2,1.39h-.54c.07-.27.17-.73.28-1.39l.08-.48c.08-.48-.06-.72-.44-.72-.21,0-.42.09-.62.26s-.32.37-.36.6l-.06.34c-.1.56-.16,1.03-.2,1.39h-.54c.07-.27.21-1,.42-2.19Z"/>
      <path class="cls-3" d="M120.66,102.34c-.07.41-.05.72.07.94s.33.33.62.33c.16,0,.33-.04.5-.11s.32-.17.45-.28l-.06.34c-.12.07-.27.13-.47.18s-.37.07-.55.07c-.42,0-.73-.13-.92-.38s-.25-.62-.16-1.08c.08-.45.26-.81.54-1.08s.61-.41.99-.41.66.13.83.39.21.63.13,1.1h-1.97ZM122.14,102.15c.11-.74-.05-1.11-.5-1.11-.23,0-.43.1-.59.29s-.28.46-.35.82h1.44Z"/>
      <path class="cls-3" d="M60.58,106.88c.2.01.46.02.76.02.1,0,.21,0,.31,0,.11,0,.23,0,.34,0,.33,0,.58.09.76.28s.24.42.19.69c-.06.32-.24.6-.54.82s-.66.33-1.05.33h-.58c-.17.96-.26,1.6-.28,1.92h-.61c.1-.33.24-1.01.41-2.02.18-1.02.28-1.7.3-2.02ZM60.82,108.7h.56c.29,0,.52-.07.71-.2s.29-.33.34-.58c.05-.25,0-.44-.13-.55s-.36-.17-.69-.17c-.23,0-.41.02-.53.05l-.25,1.45Z"/>
      <path class="cls-3" d="M63.07,110.92c.07-.28.17-.74.28-1.39.11-.63.18-1.09.21-1.39h.5l-.1.57c.34-.43.65-.65.91-.65.11,0,.2.02.26.05l-.09.52h-.03c-.06-.08-.17-.12-.31-.12-.15,0-.31.07-.49.22-.19.16-.31.34-.35.55l-.05.26c-.1.59-.17,1.05-.2,1.39h-.54Z"/>
      <path class="cls-3" d="M66.79,108.05c.41,0,.72.13.92.4s.27.63.19,1.07c-.08.45-.27.81-.56,1.07s-.65.4-1.06.4-.72-.13-.93-.4-.27-.63-.19-1.07c.08-.45.27-.81.57-1.07s.65-.4,1.06-.4ZM66.76,108.24c-.27,0-.5.11-.69.34s-.32.54-.39.94c-.07.41-.05.72.06.95s.3.34.57.34.5-.11.69-.34.32-.54.39-.95c.07-.4.05-.72-.05-.94s-.3-.34-.57-.34Z"/>
      <path class="cls-3" d="M70.71,108.56c.18-1.05.29-1.73.31-2.02h.54c-.09.32-.23,1.05-.42,2.19-.2,1.12-.31,1.85-.34,2.19h-.5l.07-.42c-.24.34-.56.51-.94.51s-.63-.13-.8-.39-.21-.62-.13-1.08c.08-.46.25-.82.51-1.08s.57-.39.93-.39c.39,0,.64.17.76.51ZM70.54,109.53c.07-.4.06-.71-.04-.93s-.26-.33-.5-.33c-.51,0-.83.42-.98,1.26-.07.41-.06.73.03.94s.26.32.51.32.45-.11.62-.33.29-.53.36-.93Z"/>
      <path class="cls-3" d="M74.61,108.13c-.08.28-.17.75-.29,1.39-.1.59-.17,1.05-.2,1.39h-.5l.07-.41c-.31.33-.66.5-1.05.5-.29,0-.49-.09-.62-.26s-.17-.42-.11-.74l.08-.48c.11-.63.18-1.09.21-1.39h.54c-.08.28-.17.75-.29,1.39l-.08.48c-.08.48.07.72.45.72.21,0,.42-.09.62-.26s.32-.37.36-.6l.06-.34c.1-.59.17-1.05.21-1.39h.54Z"/>
      <path class="cls-3" d="M77.34,108.72c-.03-.15-.09-.27-.19-.35s-.22-.12-.37-.12c-.27,0-.5.12-.71.37s-.35.57-.41.96c-.07.38-.04.68.09.9s.33.33.61.33c.16,0,.32-.03.47-.1s.29-.15.41-.27l-.06.34c-.25.15-.56.22-.92.22-.39,0-.7-.14-.91-.41s-.29-.61-.21-1.02c.08-.45.28-.81.59-1.1s.68-.43,1.1-.43c.14,0,.29.02.43.07s.27.1.38.17l-.24.43h-.06Z"/>
      <path class="cls-3" d="M79.31,106.9c-.09.35-.17.76-.25,1.24.24,0,.44,0,.6-.02l-.06.3c-.15-.01-.35-.02-.59-.02l-.35,2.02c-.02.12-.01.21.02.28s.09.11.17.11c.12,0,.23-.04.33-.11h.03l-.04.22c-.13.06-.28.08-.43.08-.22,0-.37-.06-.46-.17s-.11-.29-.07-.53l.33-1.9c-.16,0-.3,0-.42.02l.06-.3c.12.01.25.02.41.02.06-.37.1-.67.11-.93l.59-.31Z"/>
      <path class="cls-3" d="M81.96,108.91c.18-1.03.28-1.71.3-2.03.2.01.46.02.76.02.13,0,.25,0,.38,0,.19,0,.34,0,.46,0,.31,0,.54.1.67.29.11.16.15.35.11.56-.04.22-.14.41-.3.57s-.36.28-.61.36c.29.06.49.18.62.35s.17.39.13.66c-.06.32-.21.61-.47.86-.29.27-.62.41-.99.41-.11,0-.25,0-.4,0-.1,0-.2,0-.3,0-.3,0-.56,0-.77.02.1-.32.24-1,.41-2.03ZM82.16,110.62h.69c.6,0,.95-.28,1.05-.85.06-.31.02-.54-.12-.69s-.38-.23-.73-.23h-.58l-.3,1.77ZM82.52,108.55h.56c.29,0,.53-.06.71-.19s.29-.31.33-.56c.04-.22,0-.38-.11-.47s-.32-.13-.63-.13c-.32,0-.53.02-.62.05l-.22,1.3Z"/>
      <path class="cls-3" d="M85.69,108.33c.35-.19.71-.28,1.08-.28.29,0,.51.08.64.24s.18.38.13.67l-.1.57c-.1.58-.17,1.05-.2,1.39h-.5l.08-.48c-.09.16-.24.29-.44.4s-.39.16-.58.16c-.24,0-.42-.06-.54-.19s-.17-.3-.13-.52c.04-.24.16-.45.34-.6s.46-.3.84-.43l.76-.25v-.05c.06-.24.04-.42-.03-.54s-.21-.17-.42-.17c-.17,0-.34.04-.52.13s-.33.19-.44.33h-.03l.07-.37ZM87.04,109.21l-.69.23c-.19.06-.34.16-.46.28s-.19.27-.22.45c-.03.16,0,.29.06.39s.18.15.32.15c.21,0,.39-.09.56-.26s.27-.38.32-.63l.11-.59Z"/>
      <path class="cls-3" d="M90.34,108.72c-.03-.15-.09-.27-.19-.35s-.22-.12-.37-.12c-.27,0-.5.12-.71.37s-.35.57-.41.96c-.07.38-.04.68.09.9s.33.33.61.33c.16,0,.32-.03.47-.1s.29-.15.41-.27l-.06.34c-.25.15-.56.22-.92.22-.39,0-.7-.14-.91-.41s-.29-.61-.21-1.02c.08-.45.28-.81.59-1.1s.68-.43,1.1-.43c.14,0,.29.02.43.07s.27.1.38.17l-.24.43h-.06Z"/>
      <path class="cls-3" d="M91.44,108.73c.2-1.12.31-1.85.34-2.19h.54c-.08.28-.22,1.01-.43,2.19l-.09.55.65-.52c.28-.23.51-.43.69-.62h.51c-.27.18-.57.41-.91.7l-.54.44.61.88c.2.29.4.54.59.77h-.71c-.09-.19-.19-.37-.31-.54l-.61-.86c-.1.57-.17,1.03-.2,1.4h-.54c.07-.27.21-1,.42-2.19Z"/>
      <path class="cls-3" d="M94.08,110.92c.07-.25.21-.98.42-2.19.2-1.17.32-1.9.34-2.19h.54c-.09.32-.23,1.05-.42,2.19-.2,1.12-.31,1.85-.34,2.19h-.54Z"/>
      <path class="cls-3" d="M97.35,108.05c.41,0,.72.13.92.4s.27.63.19,1.07c-.08.45-.27.81-.56,1.07s-.65.4-1.06.4-.72-.13-.93-.4-.27-.63-.19-1.07c.08-.45.27-.81.57-1.07s.65-.4,1.06-.4ZM97.32,108.24c-.27,0-.5.11-.69.34s-.32.54-.39.94c-.07.41-.05.72.06.95s.3.34.57.34.5-.11.69-.34.32-.54.39-.95c.07-.4.05-.72-.05-.94s-.3-.34-.57-.34Z"/>
      <path class="cls-3" d="M100.61,110.4c.27,0,.47.06.61.18s.19.28.15.48c-.05.29-.24.54-.57.75-.35.22-.78.33-1.27.33-.34,0-.59-.06-.78-.17s-.26-.27-.23-.47c.03-.13.12-.27.29-.42s.36-.25.57-.33c-.13-.03-.22-.08-.28-.14s-.08-.14-.06-.24c.03-.17.21-.35.55-.56-.2-.07-.34-.17-.43-.32s-.11-.33-.07-.54c.05-.28.19-.5.41-.66s.5-.25.84-.25c.2,0,.37.03.5.08.14,0,.31,0,.51-.03s.36-.04.47-.06l-.06.32c-.19-.04-.41-.06-.66-.06.16.16.21.38.17.65-.04.27-.18.49-.41.66s-.51.25-.84.25c-.08,0-.14,0-.17,0-.2.11-.32.24-.34.37-.02.11.06.16.25.16h.85ZM99.69,110.77c-.2.07-.37.17-.49.28s-.2.24-.22.38c-.03.17.02.3.15.38s.32.13.59.13c.3,0,.55-.07.75-.21s.32-.33.37-.57c.04-.27-.11-.4-.46-.4h-.69ZM100.31,108.25c-.19,0-.35.06-.48.19s-.21.3-.25.52c-.04.22-.02.4.07.52s.22.19.42.19.35-.06.48-.19.22-.3.26-.52c.04-.22,0-.39-.08-.52s-.23-.19-.41-.19Z"/>
      <path class="cls-3" d="M102.06,110.66c.02-.09.07-.17.15-.24s.16-.1.26-.1.17.03.22.1.07.15.06.24c-.01.09-.06.17-.14.24s-.16.1-.26.1-.17-.03-.23-.1-.08-.15-.06-.24Z"/>
    </g>
    <rect class="cls-6" x="85.55" y="218.31" width="92" height="45" rx="3.67" ry="3.67"/>
    <g>
      <path class="cls-3" d="M91.46,222.46c.23,0,.45-.01.67-.01.34,0,.6-.01.8-.01.97,0,1.75.27,2.32.82.58.54.86,1.27.86,2.18,0,.97-.31,1.73-.93,2.29-.58.53-1.33.79-2.25.79-.19,0-.46,0-.8-.01-.22,0-.45,0-.67-.01-.38,0-.73,0-1.05.03.06-.48.09-1.49.09-3.04s-.03-2.56-.09-3.04c.32.02.67.03,1.05.03ZM91.78,227.76c.18.07.46.1.84.1.74,0,1.26-.19,1.57-.56s.47-1,.47-1.87-.16-1.43-.47-1.8-.84-.54-1.57-.54c-.34,0-.62.03-.83.1v4.57Z"/>
      <path class="cls-3" d="M97.38,224.51c.45-.21.93-.32,1.44-.32,1.18,0,1.78.45,1.78,1.35v.87c0,.93.02,1.62.06,2.09h-1.16v-.55c-.31.45-.73.68-1.25.68-.35,0-.64-.1-.86-.31s-.33-.47-.33-.79c0-.34.12-.63.37-.88.25-.25.65-.47,1.2-.69l.87-.33v-.27c0-.52-.23-.78-.69-.78s-.93.22-1.38.65h-.04v-.71ZM99.49,226.04l-.78.31c-.19.07-.33.17-.41.29s-.12.29-.12.5c0,.23.05.43.15.6.1.17.22.25.35.25.2,0,.38-.09.55-.28.17-.19.26-.4.26-.63v-1.04Z"/>
      <path class="cls-3" d="M101.73,222.59c0-.18.06-.34.2-.47.13-.13.29-.2.47-.2s.34.06.47.19.19.29.19.47-.06.34-.19.47-.29.19-.47.19-.34-.07-.47-.2-.2-.29-.2-.47ZM101.85,226.4c0-.95-.02-1.65-.07-2.09h1.23c-.04.46-.06,1.16-.06,2.09s.02,1.62.06,2.09h-1.23c.04-.44.07-1.14.07-2.09Z"/>
      <path class="cls-3" d="M104.29,228.49c.04-.46.06-1.16.06-2.09v-2.39c0-.93-.02-1.63-.06-2.09h1.22c-.04.46-.06,1.16-.06,2.09v2.39c0,.93.02,1.62.06,2.09h-1.22Z"/>
      <path class="cls-3" d="M108.16,228.49l-.67-1.62c-.45-1.09-.82-1.94-1.12-2.55h1.34c.15.52.5,1.45,1.07,2.79.64-1.42,1.04-2.34,1.2-2.79h.57c-.09.15-.21.38-.36.68s-.5,1.07-1.05,2.31c-.68,1.5-1.1,2.51-1.27,3.03h-.64c.31-.51.62-1.12.94-1.85Z"/>
      <path class="cls-3" d="M113.8,226.85c.17.36.39.65.67.87s.56.33.85.33.51-.07.68-.22c.17-.15.25-.34.25-.59,0-.38-.2-.68-.61-.91l-.64-.35c-.5-.28-.86-.57-1.08-.88s-.33-.69-.33-1.12c0-.49.17-.88.5-1.18.34-.3.77-.46,1.3-.46.57,0,1.09.1,1.55.3l-.36.91h-.09c-.29-.42-.66-.64-1.1-.64-.23,0-.41.06-.55.19-.14.12-.21.29-.21.48s.06.36.18.5c.12.15.32.3.59.45l.62.34c.4.22.71.5.93.83s.33.69.33,1.07c0,.56-.17,1.01-.51,1.34-.34.34-.79.5-1.35.5-.28,0-.58-.04-.91-.11-.33-.07-.6-.16-.81-.27v-1.39h.09Z"/>
      <path class="cls-3" d="M121.41,225.36c-.11-.25-.25-.45-.43-.58s-.37-.21-.58-.21c-.74,0-1.11.64-1.11,1.92,0,.59.1,1.04.31,1.33.2.29.52.43.95.43.45,0,.85-.21,1.2-.63v.65c-.15.11-.35.19-.61.26-.25.06-.52.09-.8.09-.7,0-1.26-.19-1.67-.58s-.62-.91-.62-1.55c0-.7.21-1.26.64-1.67.43-.41,1.01-.62,1.74-.62.21,0,.45.04.74.13.28.08.52.18.7.29l-.36.76h-.09Z"/>
      <path class="cls-3" d="M122.76,226.4c0-.93-.02-1.63-.06-2.09h1.16v.79c.13-.26.31-.48.54-.66.23-.18.45-.26.67-.26.11,0,.23.01.33.04v1.05h-.04c-.15-.11-.36-.16-.63-.16-.58,0-.87.29-.87.87v.42c0,.93.02,1.62.06,2.09h-1.22c.04-.46.06-1.16.06-2.09Z"/>
      <path class="cls-3" d="M130.05,226.4c0,.93.02,1.62.06,2.09h-1.16v-.53c-.37.44-.81.65-1.31.65-.46,0-.81-.13-1.05-.39-.25-.26-.37-.63-.37-1.11v-.72c0-.93-.02-1.63-.06-2.09h1.22c-.04.46-.06,1.16-.06,2.09v.72c0,.31.05.54.16.67.11.13.28.2.52.2.3,0,.54-.09.71-.28.17-.19.25-.45.25-.8v-.51c0-.93-.02-1.63-.06-2.09h1.22c-.04.46-.06,1.16-.06,2.09Z"/>
      <path class="cls-3" d="M131.27,226.4c0-.93-.02-1.63-.06-2.09h1.16v.53c.37-.44.79-.66,1.26-.66.66,0,1.07.26,1.24.78.4-.52.86-.78,1.37-.78.9,0,1.35.5,1.35,1.49v.72c0,.93.02,1.62.06,2.09h-1.22c.04-.46.06-1.16.06-2.09v-.72c0-.32-.05-.55-.14-.68-.1-.13-.26-.2-.49-.2-.27,0-.48.1-.64.29-.16.19-.24.46-.24.79v.51c0,.93.02,1.62.06,2.09h-1.22c.04-.46.06-1.16.06-2.09v-.72c0-.32-.05-.55-.14-.68-.1-.13-.26-.2-.49-.2-.27,0-.48.1-.64.29-.16.19-.24.46-.24.79v.51c0,.93.02,1.62.06,2.09h-1.22c.04-.46.06-1.16.06-2.09Z"/>
    </g>
    <g>
      <path class="cls-3" d="M93.34,235.5c0,.29-.11.55-.32.76s-.46.32-.76.32-.55-.11-.76-.32-.32-.46-.32-.76.11-.55.32-.76.47-.32.76-.32.55.11.76.32.32.47.32.76Z"/>
      <path class="cls-3" d="M98.04,235.53c-.18,1.03-.27,1.7-.29,2.01h-.61c.1-.32.23-.99.41-2.01.18-1,.27-1.67.29-2.01h.61c-.1.32-.23.99-.41,2.01Z"/>
      <path class="cls-3" d="M98.85,237.54c.07-.27.17-.73.28-1.39.11-.61.17-1.07.2-1.39h.5l-.07.41c.31-.33.66-.5,1.04-.5.29,0,.49.09.62.26s.16.42.11.73l-.08.48c-.1.56-.16,1.03-.2,1.39h-.54c.07-.27.17-.73.28-1.39l.08-.48c.08-.48-.06-.72-.44-.72-.21,0-.42.09-.62.26s-.32.37-.36.6l-.06.34c-.1.56-.16,1.03-.2,1.39h-.54Z"/>
      <path class="cls-3" d="M103.9,235.27c-.05-.27-.24-.4-.57-.4-.16,0-.29.04-.39.11s-.17.17-.19.3c-.04.21.07.37.33.48l.52.23c.17.08.3.18.37.32s.1.29.06.46c-.04.26-.17.46-.39.62s-.49.23-.81.23c-.15,0-.29-.02-.44-.05s-.27-.08-.35-.14l.09-.5h.03c.06.15.16.27.3.36s.3.13.47.13c.19,0,.34-.04.47-.13s.2-.2.22-.34c.02-.12,0-.22-.05-.3s-.14-.15-.28-.21l-.48-.21c-.38-.17-.54-.44-.47-.8.04-.21.15-.39.36-.54s.44-.22.7-.22c.32,0,.58.07.79.2l-.22.4h-.06Z"/>
      <path class="cls-3" d="M105.08,237.12c-.14.82-.22,1.37-.25,1.66h-.54c.08-.32.22-.99.4-2.01.18-1.03.28-1.7.3-2h.5l-.08.42c.25-.34.56-.51.94-.51s.63.13.8.39.21.62.13,1.08c-.08.46-.25.82-.51,1.08s-.57.39-.93.39c-.38,0-.64-.17-.77-.51ZM105.24,236.15c-.07.4-.05.71.04.93s.27.33.51.33.46-.11.62-.32.28-.53.35-.94c.07-.41.07-.72-.03-.94s-.26-.32-.51-.32-.45.11-.62.33-.29.53-.36.93Z"/>
      <path class="cls-3" d="M108.37,236.17c-.07.41-.05.72.07.94s.33.33.62.33c.16,0,.33-.04.5-.11s.32-.17.45-.28l-.06.34c-.12.07-.27.13-.47.18s-.37.07-.55.07c-.42,0-.73-.13-.92-.38s-.25-.62-.16-1.08c.08-.45.26-.81.54-1.08s.61-.41.99-.41.66.13.83.39.21.63.13,1.1h-1.97ZM109.85,235.97c.11-.74-.05-1.11-.5-1.11-.23,0-.43.1-.59.29s-.28.46-.35.82h1.44Z"/>
      <path class="cls-3" d="M113.05,235.34c-.03-.15-.09-.27-.19-.35s-.22-.12-.37-.12c-.27,0-.5.12-.71.37s-.35.57-.41.96c-.07.38-.04.68.09.9s.33.33.61.33c.16,0,.32-.03.47-.1s.29-.15.41-.27l-.06.34c-.25.15-.56.22-.92.22-.39,0-.7-.14-.91-.41s-.29-.61-.21-1.02c.08-.45.28-.81.59-1.1s.68-.43,1.1-.43c.14,0,.29.02.43.07s.27.1.38.17l-.24.43h-.06Z"/>
      <path class="cls-3" d="M115.02,233.52c-.09.35-.17.76-.25,1.24.24,0,.44,0,.6-.02l-.06.3c-.15-.01-.35-.02-.59-.02l-.35,2.02c-.02.12-.01.21.02.28s.09.11.17.11c.12,0,.23-.04.33-.11h.03l-.04.22c-.13.06-.28.08-.43.08-.22,0-.37-.06-.46-.17s-.11-.29-.07-.53l.33-1.9c-.16,0-.3,0-.42.02l.06-.3c.12.01.25.02.41.02.06-.37.1-.67.11-.93l.59-.31Z"/>
      <path class="cls-3" d="M116.17,237.34l-1.01,1.29-.13-.06.74-1.47c.07-.14.16-.21.28-.21.07,0,.13.02.18.07s.06.1.05.16c-.01.06-.05.14-.11.21Z"/>
      <path class="cls-3" d="M119.41,237.12c-.14.82-.22,1.37-.25,1.66h-.54c.08-.32.22-.99.4-2.01.18-1.03.28-1.7.3-2h.5l-.08.42c.25-.34.56-.51.94-.51s.63.13.8.39.21.62.13,1.08c-.08.46-.25.82-.51,1.08s-.57.39-.93.39c-.38,0-.64-.17-.77-.51ZM119.58,236.15c-.07.4-.05.71.04.93s.27.33.51.33.46-.11.62-.32.28-.53.35-.94c.07-.41.07-.72-.03-.94s-.26-.32-.51-.32-.45.11-.62.33-.29.53-.36.93Z"/>
      <path class="cls-3" d="M122.24,237.54c.07-.25.21-.98.42-2.19.2-1.17.32-1.9.34-2.19h.54c-.09.32-.23,1.05-.42,2.19-.2,1.12-.31,1.85-.34,2.19h-.54Z"/>
      <path class="cls-3" d="M124.4,234.95c.35-.19.71-.28,1.08-.28.29,0,.51.08.64.24s.18.38.13.67l-.1.57c-.1.58-.17,1.05-.2,1.39h-.5l.08-.48c-.09.16-.24.29-.44.4s-.39.16-.58.16c-.24,0-.42-.06-.54-.19s-.17-.3-.13-.52c.04-.24.16-.45.34-.6s.46-.3.84-.43l.76-.25v-.05c.06-.24.04-.42-.03-.54s-.21-.17-.42-.17c-.17,0-.34.04-.52.13s-.33.19-.44.33h-.03l.07-.37ZM125.75,235.83l-.69.23c-.19.06-.34.16-.46.28s-.19.27-.22.45c-.03.16,0,.29.06.39s.18.14.32.14c.21,0,.39-.08.56-.26s.27-.38.32-.63l.11-.59Z"/>
      <path class="cls-3" d="M126.85,237.54c.07-.27.17-.73.28-1.39.11-.61.17-1.07.2-1.39h.5l-.07.41c.31-.33.66-.5,1.04-.5.29,0,.49.09.62.26s.16.42.11.73l-.08.48c-.1.56-.16,1.03-.2,1.39h-.54c.07-.27.17-.73.28-1.39l.08-.48c.08-.48-.06-.72-.44-.72-.21,0-.42.09-.62.26s-.32.37-.36.6l-.06.34c-.1.56-.16,1.03-.2,1.39h-.54Z"/>
      <path class="cls-3" d="M130.84,237.34l-1.01,1.29-.13-.06.74-1.47c.07-.14.16-.21.28-.21.07,0,.13.02.18.07s.06.1.05.16c-.01.06-.05.14-.11.21Z"/>
      <path class="cls-3" d="M134.07,234.95c.35-.19.71-.28,1.08-.28.29,0,.51.08.64.24s.18.38.13.67l-.1.57c-.1.58-.17,1.05-.2,1.39h-.5l.08-.48c-.09.16-.24.29-.44.4s-.39.16-.58.16c-.24,0-.42-.06-.54-.19s-.17-.3-.13-.52c.04-.24.16-.45.34-.6s.46-.3.84-.43l.76-.25v-.05c.06-.24.04-.42-.03-.54s-.21-.17-.42-.17c-.17,0-.34.04-.52.13s-.33.19-.44.33h-.03l.07-.37ZM135.42,235.83l-.69.23c-.19.06-.34.16-.46.28s-.19.27-.22.45c-.03.16,0,.29.06.39s.18.14.32.14c.21,0,.39-.08.56-.26s.27-.38.32-.63l.11-.59Z"/>
      <path class="cls-3" d="M136.52,237.54c.07-.27.17-.73.28-1.39.11-.61.17-1.07.2-1.39h.5l-.07.41c.31-.33.66-.5,1.04-.5.29,0,.49.09.62.26s.16.42.11.73l-.08.48c-.1.56-.16,1.03-.2,1.39h-.54c.07-.27.17-.73.28-1.39l.08-.48c.08-.48-.06-.72-.44-.72-.21,0-.42.09-.62.26s-.32.37-.36.6l-.06.34c-.1.56-.16,1.03-.2,1.39h-.54Z"/>
      <path class="cls-3" d="M142.1,235.18c.18-1.05.29-1.73.31-2.02h.54c-.09.32-.23,1.05-.42,2.19-.2,1.12-.31,1.85-.34,2.19h-.5l.07-.42c-.24.34-.56.51-.94.51s-.63-.13-.8-.39-.21-.62-.13-1.08c.08-.46.25-.82.51-1.08s.57-.39.93-.39c.39,0,.64.17.76.51ZM141.93,236.15c.07-.4.06-.71-.04-.93s-.26-.33-.5-.33c-.51,0-.83.42-.98,1.26-.07.41-.06.73.03.94s.26.32.51.32.45-.11.62-.33.29-.53.36-.93Z"/>
      <path class="cls-3" d="M145.41,234.95c.35-.19.71-.28,1.08-.28.29,0,.51.08.64.24s.18.38.13.67l-.1.57c-.1.58-.17,1.05-.2,1.39h-.5l.08-.48c-.09.16-.24.29-.44.4s-.39.16-.58.16c-.24,0-.42-.06-.54-.19s-.17-.3-.13-.52c.04-.24.16-.45.34-.6s.46-.3.84-.43l.76-.25v-.05c.06-.24.04-.42-.03-.54s-.21-.17-.42-.17c-.17,0-.34.04-.52.13s-.33.19-.44.33h-.03l.07-.37ZM146.76,235.83l-.69.23c-.19.06-.34.16-.46.28s-.19.27-.22.45c-.03.16,0,.29.06.39s.18.14.32.14c.21,0,.39-.08.56-.26s.27-.38.32-.63l.11-.59Z"/>
      <path class="cls-3" d="M150.1,235.18c.18-1.05.29-1.73.31-2.02h.54c-.09.32-.23,1.05-.42,2.19-.2,1.12-.31,1.85-.34,2.19h-.5l.07-.42c-.24.34-.56.51-.94.51s-.63-.13-.8-.39-.21-.62-.13-1.08c.08-.46.25-.82.51-1.08s.57-.39.93-.39c.39,0,.64.17.76.51ZM149.94,236.15c.07-.4.06-.71-.04-.93s-.26-.33-.5-.33c-.51,0-.83.42-.98,1.26-.07.41-.06.73.03.94s.26.32.51.32.45-.11.62-.33.29-.53.36-.93Z"/>
      <path class="cls-3" d="M151.75,234.95c.35-.19.71-.28,1.08-.28.29,0,.51.08.64.24s.18.38.13.67l-.1.57c-.1.58-.17,1.05-.2,1.39h-.5l.08-.48c-.09.16-.24.29-.44.4s-.39.16-.58.16c-.24,0-.42-.06-.54-.19s-.17-.3-.13-.52c.04-.24.16-.45.34-.6s.46-.3.84-.43l.76-.25v-.05c.06-.24.04-.42-.03-.54s-.21-.17-.42-.17c-.17,0-.34.04-.52.13s-.33.19-.44.33h-.03l.07-.37ZM153.1,235.83l-.69.23c-.19.06-.34.16-.46.28s-.19.27-.22.45c-.03.16,0,.29.06.39s.18.14.32.14c.21,0,.39-.08.56-.26s.27-.38.32-.63l.11-.59Z"/>
      <path class="cls-3" d="M154.76,237.12c-.14.82-.22,1.37-.25,1.66h-.54c.08-.32.22-.99.4-2.01.18-1.03.28-1.7.3-2h.5l-.08.42c.25-.34.56-.51.94-.51s.63.13.8.39.21.62.13,1.08c-.08.46-.25.82-.51,1.08s-.57.39-.93.39c-.38,0-.64-.17-.77-.51ZM154.93,236.15c-.07.4-.05.71.04.93s.27.33.51.33.46-.11.62-.32.28-.53.35-.94c.07-.41.07-.72-.03-.94s-.26-.32-.51-.32-.45.11-.62.33-.29.53-.36.93Z"/>
      <path class="cls-3" d="M158.82,233.52c-.09.35-.17.76-.25,1.24.24,0,.44,0,.6-.02l-.06.3c-.15-.01-.35-.02-.59-.02l-.35,2.02c-.02.12-.01.21.02.28s.09.11.17.11c.12,0,.23-.04.33-.11h.03l-.04.22c-.13.06-.28.08-.43.08-.22,0-.37-.06-.46-.17s-.11-.29-.07-.53l.33-1.9c-.16,0-.3,0-.42.02l.06-.3c.12.01.25.02.41.02.06-.37.1-.67.11-.93l.59-.31Z"/>
      <path class="cls-3" d="M99.31,242.38c.18-1.05.29-1.73.31-2.02h.54c-.09.32-.23,1.05-.42,2.19-.2,1.12-.31,1.85-.34,2.19h-.5l.07-.42c-.24.34-.56.51-.94.51s-.63-.13-.8-.39-.21-.62-.13-1.08c.08-.46.25-.82.51-1.08s.57-.39.93-.39c.39,0,.64.17.76.51ZM99.14,243.35c.07-.4.06-.71-.04-.93s-.26-.33-.5-.33c-.51,0-.83.42-.98,1.26-.07.41-.06.73.03.94s.26.32.51.32.45-.11.62-.33.29-.53.36-.93Z"/>
      <path class="cls-3" d="M100.95,242.15c.35-.19.71-.28,1.08-.28.29,0,.51.08.64.24s.18.38.13.67l-.1.57c-.1.58-.17,1.05-.2,1.39h-.5l.08-.48c-.09.16-.24.29-.44.4s-.39.16-.58.16c-.24,0-.42-.06-.54-.19s-.17-.3-.13-.52c.04-.24.16-.45.34-.6s.46-.3.84-.43l.76-.25v-.05c.06-.24.04-.42-.03-.54s-.21-.17-.42-.17c-.17,0-.34.04-.52.13s-.33.19-.44.33h-.03l.07-.37ZM102.31,243.03l-.69.23c-.19.06-.34.16-.46.28s-.19.27-.22.45c-.03.16,0,.29.06.39s.18.14.32.14c.21,0,.39-.08.56-.26s.27-.38.32-.63l.11-.59Z"/>
      <path class="cls-3" d="M103.46,244.74c.07-.25.16-.71.28-1.39.11-.63.18-1.09.21-1.39h.54c-.08.32-.18.78-.29,1.39-.1.59-.17,1.05-.2,1.39h-.54ZM104.74,241c-.01.1-.06.18-.15.25s-.17.11-.27.11-.18-.04-.24-.11-.08-.16-.06-.25c.02-.1.07-.18.15-.25s.17-.11.27-.11.18.04.23.11.08.16.06.25Z"/>
      <path class="cls-3" d="M105.13,244.74c.07-.25.21-.98.42-2.19.2-1.17.32-1.9.34-2.19h.54c-.09.32-.23,1.05-.42,2.19-.2,1.12-.31,1.85-.34,2.19h-.54Z"/>
      <path class="cls-3" d="M107.64,244.58c-.34-1.36-.58-2.23-.72-2.62h.59c.01.13.05.32.11.58s.18.75.36,1.47c.61-.99,1.01-1.67,1.2-2.04h.38c-.21.29-.63.96-1.25,1.99-.48.79-.77,1.3-.89,1.5s-.21.38-.28.52h-.39c.19-.26.49-.73.89-1.39Z"/>
      <path class="cls-3" d="M112.25,244.74c-.03-.21-.13-.67-.3-1.4-.19-.73-.31-1.19-.38-1.38h.58c.08.42.15.75.21.99l.25,1.03.65-1.12c.22-.38.39-.71.53-.98h.1c.02.13.09.47.21,1l.26,1.12.62-1.05c.27-.46.45-.78.55-.98h.37c-.13.18-.42.64-.86,1.37-.35.58-.61,1.05-.79,1.41h-.23c-.01-.1-.08-.43-.2-.98l-.22-.95-.57.96c-.16.27-.33.6-.52.97h-.23Z"/>
      <path class="cls-3" d="M117.73,241.87c.41,0,.72.13.92.4s.27.63.19,1.07c-.08.45-.27.81-.56,1.07s-.65.4-1.06.4-.72-.13-.93-.4-.27-.63-.19-1.07c.08-.45.27-.8.57-1.07s.65-.4,1.06-.4ZM117.7,242.07c-.27,0-.5.11-.69.34s-.32.54-.39.94c-.07.41-.05.72.06.95s.3.34.57.34.5-.11.69-.34.32-.54.39-.95c.07-.4.05-.72-.05-.94s-.3-.34-.57-.34Z"/>
      <path class="cls-3" d="M119.34,244.74c.07-.28.17-.74.28-1.39.11-.63.18-1.09.21-1.39h.5l-.1.57c.34-.43.65-.65.91-.65.11,0,.2.02.26.05l-.09.52h-.03c-.06-.08-.17-.12-.31-.12-.15,0-.31.07-.49.22-.19.16-.31.34-.35.55l-.05.26c-.1.59-.17,1.05-.2,1.39h-.54Z"/>
      <path class="cls-3" d="M121.83,242.55c.2-1.12.31-1.85.34-2.19h.54c-.08.28-.22,1.01-.43,2.19l-.09.55.65-.52c.28-.23.51-.43.69-.62h.51c-.27.18-.57.41-.91.7l-.54.44.61.88c.2.29.4.54.59.77h-.71c-.09-.19-.19-.37-.31-.54l-.61-.86c-.1.57-.17,1.03-.2,1.4h-.54c.07-.27.21-1,.42-2.19Z"/>
      <path class="cls-3" d="M124.44,244.48c.02-.09.07-.17.15-.24s.16-.1.26-.1.17.03.22.1.07.15.06.24c-.01.09-.06.17-.14.24s-.16.1-.26.1-.17-.03-.23-.1-.08-.15-.06-.24Z"/>
    </g>
    <g>
      <path class="cls-1" d="M207.25,142.47c.23.48.53.87.9,1.16s.75.43,1.14.43.69-.1.91-.3.34-.46.34-.78c0-.51-.27-.91-.81-1.21l-.86-.47c-.66-.37-1.14-.76-1.44-1.18s-.44-.91-.44-1.49c0-.65.22-1.17.67-1.58s1.02-.61,1.73-.61c.77,0,1.46.13,2.07.4l-.48,1.22h-.12c-.39-.57-.88-.85-1.46-.85-.3,0-.55.08-.74.25s-.28.38-.28.64.08.47.24.67.42.4.79.6l.83.46c.54.3.95.67,1.24,1.11s.44.92.44,1.42c0,.75-.23,1.34-.69,1.79s-1.06.67-1.8.67c-.37,0-.78-.05-1.22-.15s-.8-.22-1.08-.36v-1.86h.12Z"/>
      <path class="cls-1" d="M213.52,140.64c0-2.06-.04-3.41-.12-4.05.31.02.73.04,1.25.04.33,0,.66-.01,1-.02.3,0,.61-.01.92-.02.68,0,1.22.19,1.63.57s.61.88.61,1.51c0,.78-.27,1.39-.82,1.84s-1.3.68-2.26.68h-.49c0,1.68.04,2.84.12,3.48h-1.94c.08-.64.12-1.98.12-4.02ZM215.22,140.34h.49c.47,0,.82-.12,1.04-.36s.33-.61.33-1.11c0-.44-.1-.79-.31-1.04s-.5-.38-.86-.38c-.27,0-.5.03-.7.09v2.79Z"/>
      <path class="cls-1" d="M224.08,144.66c-.31-.72-.95-1.88-1.93-3.48h-.04c0,1.68.04,2.84.12,3.48h-1.94c.08-.64.12-1.98.12-4.02s-.04-3.41-.12-4.05c.3.02.7.04,1.21.04.3,0,.6-.01.9-.02.45-.01.8-.02,1.05-.02.77,0,1.38.18,1.81.55s.65.88.65,1.52c0,.58-.18,1.08-.53,1.5s-.82.7-1.39.83c1.04,1.81,1.82,3.04,2.33,3.67h-2.26ZM222.11,140.34h.46c.53,0,.91-.12,1.16-.35s.37-.61.37-1.11-.09-.86-.26-1.08-.45-.34-.84-.34-.69.03-.88.09v2.79Z"/>
      <path class="cls-1" d="M229.45,140.64c0,2.04.04,3.38.12,4.02h-1.94c.08-.64.12-1.98.12-4.02s-.04-3.38-.12-4.02h1.94c-.08.64-.12,1.98-.12,4.02Z"/>
      <path class="cls-1" d="M237.97,142.13v-1.49c0-2.04-.04-3.38-.12-4.02h1.07c-.08.64-.12,1.98-.12,4.02s.04,3.38.12,4.02h-1.12c-.47-.66-1.7-1.98-3.68-3.98l-1.55-1.56v1.52c0,2.04.04,3.38.12,4.02h-1.07c.08-.64.12-1.98.12-4.02s-.04-3.38-.12-4.02h1.12c.46.64,1.71,1.98,3.74,4.02l1.49,1.49Z"/>
      <path class="cls-1" d="M244.13,137.46v3.18c0,2.04.04,3.38.12,4.02h-1.94c.08-.64.12-1.98.12-4.02v-3.18c-.82,0-1.51.05-2.09.16v-1.03c.3.02,1.28.04,2.94.04s2.64-.01,2.94-.04v1.03c-.57-.11-1.27-.16-2.09-.16Z"/>
    </g>
  </g>
  <g id="Left_Arrow" data-name="Left Arrow">
    <path class="cls-10" d="M325.16,155.01c-4.59,50.97-47.42,90.9-99.58,90.9-54.91,0-99.47-44.25-99.99-99.03h-9.51l10.05-11.49,24.95-28.51,25.49,29.13,9.51,10.87h-10.48c.51,27.16,22.69,49.03,49.98,49.03,25.84,0,47.11-19.61,49.73-44.76l26.61,30.42,23.24-26.56Z"/>
  </g>
  <g id="Top_Arrow" data-name="Top Arrow">
    <path class="cls-9" d="M265.58,71.39l-29.33,25.67-10.67,9.33v-10.48c-24.22,0-44.43,17.23-49.01,40.1l-25.49-29.13-24.95,28.51c5.26-50.29,47.78-89.48,99.45-89.48v-9.52l11.66,10.2,28.34,24.8Z"/>
  </g>
  <g id="Right_Arrow" data-name="Right Arrow">
    <path class="cls-8" d="M336.92,141.57l-11.76,13.44-23.24,26.56-26.61-30.42-8.39-9.58h8.47c-.01-.14-.02-.28-.04-.42-2.06-21.8-18.12-39.54-39.1-44.09l29.33-25.67-28.34-24.8c48.19,5.58,85.92,45.44,88.22,94.56,0,.14,0,.28.02.42h11.44Z"/>
  </g>
  <g id="Text">
    <g>
      <path class="cls-1" d="M176.27,73.9c0,2.04.04,3.38.12,4.02h-1.22c.08-.64.12-1.98.12-4.02s-.04-3.38-.12-4.02h1.22c-.08.64-.12,1.98-.12,4.02Z"/>
      <path class="cls-1" d="M178.47,77.92c.05-.62.08-1.54.08-2.78s-.03-2.17-.08-2.78h1v.83c.5-.66,1.14-1,1.92-1,.57,0,1.02.17,1.33.52s.47.84.47,1.47v.96c0,1.24.03,2.17.08,2.78h-1.08c.05-.62.08-1.54.08-2.78v-.96c0-.96-.38-1.44-1.14-1.44-.43,0-.81.17-1.15.52s-.52.75-.52,1.2v.69c0,1.24.03,2.17.08,2.78h-1.08Z"/>
      <path class="cls-1" d="M187.79,73.37c-.2-.54-.63-.8-1.29-.8-.31,0-.55.08-.74.23s-.27.35-.27.6c0,.42.27.74.82.96l1.11.46c.37.15.65.37.85.64s.3.58.3.93c0,.52-.19.93-.57,1.24s-.89.47-1.55.47c-.29,0-.59-.04-.9-.11s-.56-.17-.75-.28v-1h.06c.18.3.42.55.73.73s.64.27.98.27c.37,0,.66-.09.88-.26s.32-.4.32-.69c0-.23-.07-.43-.2-.59s-.34-.3-.62-.42l-1.04-.43c-.82-.34-1.22-.88-1.22-1.6,0-.43.18-.79.53-1.09s.79-.45,1.32-.45c.63,0,1.18.13,1.66.4l-.32.79h-.12Z"/>
      <path class="cls-1" d="M190.78,77.07c0,1.59.03,2.69.08,3.31h-1.08c.05-.62.08-1.96.08-4.02s-.03-3.39-.08-4.01h1v.85c.38-.68.94-1.02,1.71-1.02s1.31.26,1.74.79.64,1.25.64,2.17-.21,1.64-.64,2.17-1,.79-1.74.79-1.33-.34-1.71-1.02ZM190.78,75.13c0,.8.13,1.42.4,1.86s.64.66,1.12.66.88-.21,1.14-.64.39-1.05.39-1.88-.13-1.46-.39-1.88-.64-.64-1.14-.64-.85.22-1.12.66-.4,1.06-.4,1.86Z"/>
      <path class="cls-1" d="M197.03,75.17c0,.82.16,1.45.47,1.88s.77.65,1.35.65c.32,0,.64-.07.97-.21s.59-.33.8-.57v.67c-.21.14-.51.26-.87.35s-.72.14-1.07.14c-.85,0-1.51-.25-1.97-.76s-.7-1.23-.7-2.17.23-1.62.7-2.16,1.08-.81,1.83-.81,1.37.26,1.8.78.64,1.26.64,2.21h-3.94ZM199.93,74.78c-.03-1.48-.5-2.21-1.39-2.21-.46,0-.82.19-1.08.57s-.39.93-.41,1.64h2.88Z"/>
      <path class="cls-1" d="M206.1,73.52c-.24-.63-.67-.95-1.28-.95-.53,0-.96.25-1.29.74s-.5,1.14-.5,1.93.17,1.36.5,1.8.78.66,1.34.66c.32,0,.62-.06.91-.19s.53-.31.73-.54v.67c-.45.3-1.04.45-1.76.45-.79,0-1.44-.27-1.97-.81s-.78-1.22-.78-2.04c0-.89.27-1.62.8-2.19s1.22-.86,2.05-.86c.28,0,.58.04.89.13s.58.2.82.35l-.33.86h-.12Z"/>
      <path class="cls-1" d="M209.31,69.88c-.05.61-.08,1.44-.08,2.47.49,0,.89-.01,1.2-.04v.61c-.31-.02-.71-.04-1.2-.04v4.03c0,.23.05.42.14.57s.22.21.37.21c.24,0,.45-.07.63-.22h.06v.43c-.25.11-.52.17-.83.17-.44,0-.76-.11-.97-.34s-.31-.58-.31-1.06v-3.79c-.32,0-.6.01-.83.04v-.61c.23.02.51.04.83.04,0-.73-.03-1.35-.08-1.85l1.08-.62Z"/>
      <path class="cls-1" d="M177.76,92.32c-.14-.14-.28-.29-.42-.44-.13-.14-.27-.27-.4-.41-.88.68-1.84,1.02-2.89,1.02-.73,0-1.3-.18-1.71-.54s-.62-.86-.62-1.5c0-.51.17-.96.5-1.36s.88-.8,1.64-1.2c-.54-.8-.8-1.47-.8-2.01s.2-.94.59-1.27.89-.5,1.5-.5c.57,0,1.02.12,1.34.37s.48.59.48,1.03c0,.52-.21.97-.63,1.37-.24.22-.7.53-1.39.93.45.62,1.22,1.49,2.33,2.62.52-.62.89-1.43,1.11-2.44h.12l.72.57c-.48.89-1,1.63-1.56,2.24.51.5,1.02,1,1.54,1.51h-1.42ZM174.52,91.89c.34,0,.69-.07,1.05-.21s.69-.32.99-.56c-1.03-1.08-1.84-2.02-2.42-2.82-.45.31-.77.62-.96.92s-.29.65-.29,1.04c0,.49.15.88.45,1.18s.7.45,1.18.45ZM174.66,87.42c.48-.28.82-.56,1.03-.83s.31-.57.31-.91c0-.7-.3-1.05-.9-1.05-.34,0-.6.1-.8.29s-.29.46-.29.79c0,.25.04.49.13.73s.26.57.52.98Z"/>
      <path class="cls-1" d="M187.27,84.11c.33.97.89,2.36,1.66,4.15.9,2.08,1.52,3.43,1.86,4.05h-1.32c-.1-.46-.47-1.44-1.12-2.93h-2.87c-.65,1.49-1.03,2.46-1.12,2.93h-.9c.34-.62.96-1.98,1.86-4.05.74-1.71,1.29-3.1,1.65-4.15h.3ZM185.74,88.79h2.35l-1.18-2.74-1.17,2.74Z"/>
      <path class="cls-1" d="M195.8,87.6c0-2.08-.03-3.43-.08-4.04h1.08c-.05.61-.08,2.07-.08,4.38s.03,3.76.08,4.38h-1v-.85c-.38.68-.94,1.02-1.71,1.02s-1.31-.26-1.74-.79-.64-1.25-.64-2.17.21-1.64.64-2.17,1.01-.79,1.74-.79,1.33.34,1.71,1.02ZM195.8,89.53c0-.8-.13-1.42-.4-1.86s-.64-.66-1.12-.66-.88.21-1.14.64-.39,1.05-.39,1.88.13,1.46.39,1.88.64.64,1.14.64.85-.22,1.12-.66.4-1.06.4-1.86Z"/>
      <path class="cls-1" d="M198.9,87.14c.64-.37,1.33-.56,2.06-.56.59,0,1.05.16,1.37.47s.48.76.48,1.33v1.15c0,1.25.03,2.17.08,2.78h-1v-.96c-.14.32-.38.58-.74.8s-.72.33-1.11.33c-.48,0-.86-.13-1.15-.39s-.43-.61-.43-1.04c0-.49.16-.89.47-1.21s.82-.6,1.54-.85l1.42-.5v-.11c0-.49-.09-.85-.28-1.07s-.48-.34-.89-.34c-.34,0-.67.08-.99.25s-.58.38-.77.65h-.06v-.73ZM201.89,88.89l-1.29.46c-.36.12-.63.31-.82.56s-.28.55-.28.89c0,.32.09.58.26.77s.4.29.69.29c.41,0,.75-.17,1.03-.51s.42-.76.42-1.27v-1.19Z"/>
      <path class="cls-1" d="M205.55,91.47c0,1.59.03,2.69.08,3.31h-1.08c.05-.62.08-1.96.08-4.02s-.03-3.39-.08-4.01h1v.85c.38-.68.94-1.02,1.71-1.02s1.31.26,1.74.79.64,1.25.64,2.17-.21,1.64-.64,2.17-1,.79-1.74.79-1.33-.34-1.71-1.02ZM205.55,89.53c0,.8.13,1.42.4,1.86s.64.66,1.12.66.88-.21,1.14-.64.39-1.05.39-1.88-.13-1.46-.39-1.88-.64-.64-1.14-.64-.85.22-1.12.66-.4,1.06-.4,1.86Z"/>
      <path class="cls-1" d="M212.31,84.28c-.05.61-.08,1.44-.08,2.47.49,0,.89-.01,1.2-.04v.61c-.31-.02-.71-.04-1.2-.04v4.03c0,.23.05.42.14.57s.22.21.37.21c.24,0,.45-.07.63-.22h.06v.43c-.25.11-.52.17-.83.17-.44,0-.76-.11-.97-.34s-.31-.58-.31-1.06v-3.79c-.32,0-.6.01-.83.04v-.61c.23.02.51.04.83.04,0-.73-.03-1.35-.08-1.85l1.08-.62Z"/>
    </g>
    <g>
      <path class="cls-1" d="M284.35,111.29c.41.02.92.04,1.54.04.2,0,.41-.01.62-.02.23,0,.45-.01.68-.02.66,0,1.19.18,1.61.55s.62.83.62,1.39c0,.65-.27,1.19-.8,1.63s-1.2.66-2,.66h-1.17c0,1.92.04,3.2.12,3.84h-1.22c.08-.64.12-1.98.12-4.03s-.04-3.4-.12-4.04ZM285.45,114.92h1.12c.57,0,1.02-.14,1.34-.41s.47-.66.47-1.15-.15-.88-.45-1.1-.78-.34-1.44-.34c-.45,0-.8.03-1.04.09v2.91Z"/>
      <path class="cls-1" d="M290.98,119.36c.05-.62.08-2.08.08-4.38s-.03-3.77-.08-4.38h1.08c-.05.61-.08,2.07-.08,4.38s.03,3.76.08,4.38h-1.08Z"/>
      <path class="cls-1" d="M294.29,114.18c.64-.37,1.33-.56,2.06-.56.59,0,1.05.16,1.37.47s.48.76.48,1.33v1.15c0,1.25.03,2.17.08,2.78h-1v-.96c-.14.32-.38.58-.74.8s-.72.33-1.11.33c-.48,0-.86-.13-1.15-.39s-.43-.61-.43-1.04c0-.49.16-.89.47-1.21s.82-.6,1.54-.85l1.42-.5v-.11c0-.49-.09-.85-.28-1.07s-.48-.34-.89-.34c-.34,0-.67.08-.99.25s-.58.38-.77.65h-.06v-.73ZM297.28,115.94l-1.29.46c-.36.12-.63.31-.82.56s-.28.55-.28.89c0,.32.09.58.26.77s.4.29.69.29c.41,0,.75-.17,1.03-.51s.42-.76.42-1.27v-1.19Z"/>
      <path class="cls-1" d="M299.97,119.36c.05-.62.08-1.54.08-2.78s-.03-2.17-.08-2.78h1v.83c.5-.66,1.14-1,1.92-1,.57,0,1.02.17,1.33.52s.47.84.47,1.47v.96c0,1.24.03,2.17.08,2.78h-1.08c.05-.62.08-1.54.08-2.78v-.96c0-.96-.38-1.44-1.14-1.44-.43,0-.81.17-1.15.52s-.52.75-.52,1.2v.69c0,1.24.03,2.17.08,2.78h-1.08Z"/>
    </g>
    <g>
      <path class="cls-1" d="M193.23,216.78c0,2.04.04,3.38.12,4.02h-1.22c.08-.64.12-1.98.12-4.02s-.04-3.38-.12-4.02h1.22c-.08.64-.12,1.98-.12,4.02Z"/>
      <path class="cls-1" d="M195.42,220.8c.05-.62.08-1.54.08-2.78s-.03-2.17-.08-2.78h1v.93c.23-.36.5-.63.82-.82s.66-.28,1.02-.28c.83,0,1.36.4,1.58,1.19.52-.79,1.17-1.19,1.96-1.19,1.11,0,1.66.66,1.66,1.99v.96c0,1.24.03,2.17.08,2.78h-1.08c.05-.62.08-1.54.08-2.78v-.96c0-.5-.08-.87-.24-1.1s-.42-.35-.76-.35c-.42,0-.79.17-1.11.52s-.49.74-.49,1.2v.69c0,1.24.03,2.17.08,2.78h-1.08c.05-.62.08-1.54.08-2.78v-.96c0-.5-.08-.87-.24-1.1s-.42-.35-.76-.35c-.41,0-.78.17-1.11.52s-.49.74-.49,1.2v.69c0,1.24.03,2.17.08,2.78h-1.08Z"/>
      <path class="cls-1" d="M206.39,219.95c0,1.59.03,2.69.08,3.31h-1.08c.05-.62.08-1.96.08-4.02s-.03-3.39-.08-4.01h1v.85c.38-.68.94-1.02,1.71-1.02s1.31.26,1.74.79.64,1.25.64,2.17-.21,1.64-.64,2.17-1,.79-1.74.79-1.33-.34-1.71-1.02ZM206.39,218.02c0,.8.13,1.42.4,1.86s.64.66,1.12.66.88-.21,1.14-.64.39-1.05.39-1.88-.13-1.46-.39-1.88-.64-.64-1.14-.64-.85.22-1.12.66-.4,1.06-.4,1.86Z"/>
      <path class="cls-1" d="M212.2,220.8c.05-.62.08-2.08.08-4.38s-.03-3.77-.08-4.38h1.08c-.05.61-.08,2.07-.08,4.38s.03,3.76.08,4.38h-1.08Z"/>
      <path class="cls-1" d="M215.97,218.05c0,.82.16,1.45.47,1.88s.77.65,1.35.65c.32,0,.64-.07.97-.21s.59-.33.8-.57v.67c-.21.14-.51.26-.87.35s-.72.14-1.07.14c-.85,0-1.51-.25-1.97-.76s-.7-1.23-.7-2.17.23-1.62.7-2.16,1.08-.81,1.83-.81,1.37.26,1.8.78.64,1.26.64,2.21h-3.94ZM218.87,217.66c-.03-1.48-.5-2.21-1.39-2.21-.46,0-.82.19-1.08.57s-.39.93-.41,1.64h2.88Z"/>
      <path class="cls-1" d="M221.42,220.8c.05-.62.08-1.54.08-2.78s-.03-2.17-.08-2.78h1v.93c.23-.36.5-.63.82-.82s.66-.28,1.02-.28c.83,0,1.36.4,1.58,1.19.52-.79,1.17-1.19,1.96-1.19,1.11,0,1.66.66,1.66,1.99v.96c0,1.24.03,2.17.08,2.78h-1.08c.05-.62.08-1.54.08-2.78v-.96c0-.5-.08-.87-.24-1.1s-.42-.35-.76-.35c-.42,0-.79.17-1.11.52s-.49.74-.49,1.2v.69c0,1.24.03,2.17.08,2.78h-1.08c.05-.62.08-1.54.08-2.78v-.96c0-.5-.08-.87-.24-1.1s-.42-.35-.76-.35c-.41,0-.78.17-1.11.52s-.49.74-.49,1.2v.69c0,1.24.03,2.17.08,2.78h-1.08Z"/>
      <path class="cls-1" d="M231.97,218.05c0,.82.16,1.45.47,1.88s.77.65,1.35.65c.32,0,.64-.07.97-.21s.59-.33.8-.57v.67c-.21.14-.51.26-.87.35s-.72.14-1.07.14c-.85,0-1.51-.25-1.97-.76s-.7-1.23-.7-2.17.23-1.62.7-2.16,1.08-.81,1.83-.81,1.37.26,1.8.78.64,1.26.64,2.21h-3.94ZM234.86,217.66c-.03-1.48-.5-2.21-1.39-2.21-.46,0-.82.19-1.08.57s-.39.93-.41,1.64h2.88Z"/>
      <path class="cls-1" d="M237.42,220.8c.05-.62.08-1.54.08-2.78s-.03-2.17-.08-2.78h1v.83c.5-.66,1.14-1,1.92-1,.57,0,1.02.17,1.33.52s.47.84.47,1.47v.96c0,1.24.03,2.17.08,2.78h-1.08c.05-.62.08-1.54.08-2.78v-.96c0-.96-.38-1.44-1.14-1.44-.43,0-.81.17-1.15.52s-.52.75-.52,1.2v.69c0,1.24.03,2.17.08,2.78h-1.08Z"/>
      <path class="cls-1" d="M245.15,212.76c-.05.61-.08,1.44-.08,2.47.49,0,.89-.01,1.2-.04v.61c-.31-.02-.71-.04-1.2-.04v4.03c0,.23.05.42.14.57s.22.21.37.21c.24,0,.45-.07.63-.22h.06v.43c-.25.11-.52.17-.83.17-.44,0-.76-.11-.97-.34s-.31-.58-.31-1.06v-3.79c-.32,0-.6.01-.83.04v-.61c.23.02.51.04.83.04,0-.73-.03-1.35-.08-1.85l1.08-.62Z"/>
    </g>
  </g>
</svg>